G04 #@! TF.GenerationSoftware,KiCad,Pcbnew,(5.1.2)-1*
G04 #@! TF.CreationDate,2019-07-25T16:12:40-07:00*
G04 #@! TF.ProjectId,FIFO_P,4649464f-5f50-42e6-9b69-6361645f7063,rev?*
G04 #@! TF.SameCoordinates,Original*
G04 #@! TF.FileFunction,Other,Comment*
%FSLAX46Y46*%
G04 Gerber Fmt 4.6, Leading zero omitted, Abs format (unit mm)*
G04 Created by KiCad (PCBNEW (5.1.2)-1) date 2019-07-25 16:12:40*
%MOMM*%
%LPD*%
G04 APERTURE LIST*
%ADD10C,0.150000*%
G04 APERTURE END LIST*
D10*
X186466547Y-68814285D02*
X186371309Y-68909523D01*
X186085595Y-69004761D01*
X185895119Y-69004761D01*
X185609404Y-68909523D01*
X185418928Y-68719047D01*
X185323690Y-68528571D01*
X185228452Y-68147619D01*
X185228452Y-67861904D01*
X185323690Y-67480952D01*
X185418928Y-67290476D01*
X185609404Y-67100000D01*
X185895119Y-67004761D01*
X186085595Y-67004761D01*
X186371309Y-67100000D01*
X186466547Y-67195238D01*
X187704642Y-67004761D02*
X188085595Y-67004761D01*
X188276071Y-67100000D01*
X188466547Y-67290476D01*
X188561785Y-67671428D01*
X188561785Y-68338095D01*
X188466547Y-68719047D01*
X188276071Y-68909523D01*
X188085595Y-69004761D01*
X187704642Y-69004761D01*
X187514166Y-68909523D01*
X187323690Y-68719047D01*
X187228452Y-68338095D01*
X187228452Y-67671428D01*
X187323690Y-67290476D01*
X187514166Y-67100000D01*
X187704642Y-67004761D01*
X189418928Y-69004761D02*
X189418928Y-67004761D01*
X190085595Y-68433333D01*
X190752261Y-67004761D01*
X190752261Y-69004761D01*
X191704642Y-69004761D02*
X191704642Y-67004761D01*
X192371309Y-68433333D01*
X193037976Y-67004761D01*
X193037976Y-69004761D01*
X193990357Y-67957142D02*
X194657023Y-67957142D01*
X194942738Y-69004761D02*
X193990357Y-69004761D01*
X193990357Y-67004761D01*
X194942738Y-67004761D01*
X195799880Y-69004761D02*
X195799880Y-67004761D01*
X196942738Y-69004761D01*
X196942738Y-67004761D01*
X197609404Y-67004761D02*
X198752261Y-67004761D01*
X198180833Y-69004761D02*
X198180833Y-67004761D01*
X199323690Y-68909523D02*
X199609404Y-69004761D01*
X200085595Y-69004761D01*
X200276071Y-68909523D01*
X200371309Y-68814285D01*
X200466547Y-68623809D01*
X200466547Y-68433333D01*
X200371309Y-68242857D01*
X200276071Y-68147619D01*
X200085595Y-68052380D01*
X199704642Y-67957142D01*
X199514166Y-67861904D01*
X199418928Y-67766666D01*
X199323690Y-67576190D01*
X199323690Y-67385714D01*
X199418928Y-67195238D01*
X199514166Y-67100000D01*
X199704642Y-67004761D01*
X200180833Y-67004761D01*
X200466547Y-67100000D01*
X185323690Y-75304761D02*
X185323690Y-73304761D01*
X186085595Y-73304761D01*
X186276071Y-73400000D01*
X186371309Y-73495238D01*
X186466547Y-73685714D01*
X186466547Y-73971428D01*
X186371309Y-74161904D01*
X186276071Y-74257142D01*
X186085595Y-74352380D01*
X185323690Y-74352380D01*
X187323690Y-73304761D02*
X187323690Y-74923809D01*
X187418928Y-75114285D01*
X187514166Y-75209523D01*
X187704642Y-75304761D01*
X188085595Y-75304761D01*
X188276071Y-75209523D01*
X188371309Y-75114285D01*
X188466547Y-74923809D01*
X188466547Y-73304761D01*
X189133214Y-73304761D02*
X190276071Y-73304761D01*
X189704642Y-75304761D02*
X189704642Y-73304761D01*
X192466547Y-75304761D02*
X192466547Y-73304761D01*
X193418928Y-75304761D02*
X193418928Y-73304761D01*
X193895119Y-73304761D01*
X194180833Y-73400000D01*
X194371309Y-73590476D01*
X194466547Y-73780952D01*
X194561785Y-74161904D01*
X194561785Y-74447619D01*
X194466547Y-74828571D01*
X194371309Y-75019047D01*
X194180833Y-75209523D01*
X193895119Y-75304761D01*
X193418928Y-75304761D01*
X195418928Y-74257142D02*
X196085595Y-74257142D01*
X196371309Y-75304761D02*
X195418928Y-75304761D01*
X195418928Y-73304761D01*
X196371309Y-73304761D01*
X197228452Y-75304761D02*
X197228452Y-73304761D01*
X198371309Y-75304761D01*
X198371309Y-73304761D01*
X199037976Y-73304761D02*
X200180833Y-73304761D01*
X199609404Y-75304761D02*
X199609404Y-73304761D01*
X200847500Y-75304761D02*
X200847500Y-73304761D01*
X202466547Y-74257142D02*
X201799880Y-74257142D01*
X201799880Y-75304761D02*
X201799880Y-73304761D01*
X202752261Y-73304761D01*
X203514166Y-75304761D02*
X203514166Y-73304761D01*
X205609404Y-75114285D02*
X205514166Y-75209523D01*
X205228452Y-75304761D01*
X205037976Y-75304761D01*
X204752261Y-75209523D01*
X204561785Y-75019047D01*
X204466547Y-74828571D01*
X204371309Y-74447619D01*
X204371309Y-74161904D01*
X204466547Y-73780952D01*
X204561785Y-73590476D01*
X204752261Y-73400000D01*
X205037976Y-73304761D01*
X205228452Y-73304761D01*
X205514166Y-73400000D01*
X205609404Y-73495238D01*
X206371309Y-74733333D02*
X207323690Y-74733333D01*
X206180833Y-75304761D02*
X206847500Y-73304761D01*
X207514166Y-75304761D01*
X207895119Y-73304761D02*
X209037976Y-73304761D01*
X208466547Y-75304761D02*
X208466547Y-73304761D01*
X209704642Y-75304761D02*
X209704642Y-73304761D01*
X211037976Y-73304761D02*
X211418928Y-73304761D01*
X211609404Y-73400000D01*
X211799880Y-73590476D01*
X211895119Y-73971428D01*
X211895119Y-74638095D01*
X211799880Y-75019047D01*
X211609404Y-75209523D01*
X211418928Y-75304761D01*
X211037976Y-75304761D01*
X210847500Y-75209523D01*
X210657023Y-75019047D01*
X210561785Y-74638095D01*
X210561785Y-73971428D01*
X210657023Y-73590476D01*
X210847500Y-73400000D01*
X211037976Y-73304761D01*
X212752261Y-75304761D02*
X212752261Y-73304761D01*
X213895119Y-75304761D01*
X213895119Y-73304761D01*
X216371309Y-75304761D02*
X216371309Y-73304761D01*
X217323690Y-75304761D02*
X217323690Y-73304761D01*
X218466547Y-75304761D01*
X218466547Y-73304761D01*
X220085595Y-74257142D02*
X219418928Y-74257142D01*
X219418928Y-75304761D02*
X219418928Y-73304761D01*
X220371309Y-73304761D01*
X221514166Y-73304761D02*
X221895119Y-73304761D01*
X222085595Y-73400000D01*
X222276071Y-73590476D01*
X222371309Y-73971428D01*
X222371309Y-74638095D01*
X222276071Y-75019047D01*
X222085595Y-75209523D01*
X221895119Y-75304761D01*
X221514166Y-75304761D01*
X221323690Y-75209523D01*
X221133214Y-75019047D01*
X221037976Y-74638095D01*
X221037976Y-73971428D01*
X221133214Y-73590476D01*
X221323690Y-73400000D01*
X221514166Y-73304761D01*
X224371309Y-75304761D02*
X223704642Y-74352380D01*
X223228452Y-75304761D02*
X223228452Y-73304761D01*
X223990357Y-73304761D01*
X224180833Y-73400000D01*
X224276071Y-73495238D01*
X224371309Y-73685714D01*
X224371309Y-73971428D01*
X224276071Y-74161904D01*
X224180833Y-74257142D01*
X223990357Y-74352380D01*
X223228452Y-74352380D01*
X225228452Y-75304761D02*
X225228452Y-73304761D01*
X225895119Y-74733333D01*
X226561785Y-73304761D01*
X226561785Y-75304761D01*
X227418928Y-74733333D02*
X228371309Y-74733333D01*
X227228452Y-75304761D02*
X227895119Y-73304761D01*
X228561785Y-75304761D01*
X228942738Y-73304761D02*
X230085595Y-73304761D01*
X229514166Y-75304761D02*
X229514166Y-73304761D01*
X230752261Y-75304761D02*
X230752261Y-73304761D01*
X232085595Y-73304761D02*
X232466547Y-73304761D01*
X232657023Y-73400000D01*
X232847500Y-73590476D01*
X232942738Y-73971428D01*
X232942738Y-74638095D01*
X232847500Y-75019047D01*
X232657023Y-75209523D01*
X232466547Y-75304761D01*
X232085595Y-75304761D01*
X231895119Y-75209523D01*
X231704642Y-75019047D01*
X231609404Y-74638095D01*
X231609404Y-73971428D01*
X231704642Y-73590476D01*
X231895119Y-73400000D01*
X232085595Y-73304761D01*
X233799880Y-75304761D02*
X233799880Y-73304761D01*
X234942738Y-75304761D01*
X234942738Y-73304761D01*
X237799880Y-73304761D02*
X238180833Y-73304761D01*
X238371309Y-73400000D01*
X238561785Y-73590476D01*
X238657023Y-73971428D01*
X238657023Y-74638095D01*
X238561785Y-75019047D01*
X238371309Y-75209523D01*
X238180833Y-75304761D01*
X237799880Y-75304761D01*
X237609404Y-75209523D01*
X237418928Y-75019047D01*
X237323690Y-74638095D01*
X237323690Y-73971428D01*
X237418928Y-73590476D01*
X237609404Y-73400000D01*
X237799880Y-73304761D01*
X239514166Y-75304761D02*
X239514166Y-73304761D01*
X240657023Y-75304761D01*
X240657023Y-73304761D01*
X243799880Y-74257142D02*
X244085595Y-74352380D01*
X244180833Y-74447619D01*
X244276071Y-74638095D01*
X244276071Y-74923809D01*
X244180833Y-75114285D01*
X244085595Y-75209523D01*
X243895119Y-75304761D01*
X243133214Y-75304761D01*
X243133214Y-73304761D01*
X243799880Y-73304761D01*
X243990357Y-73400000D01*
X244085595Y-73495238D01*
X244180833Y-73685714D01*
X244180833Y-73876190D01*
X244085595Y-74066666D01*
X243990357Y-74161904D01*
X243799880Y-74257142D01*
X243133214Y-74257142D01*
X245037976Y-74733333D02*
X245990357Y-74733333D01*
X244847500Y-75304761D02*
X245514166Y-73304761D01*
X246180833Y-75304761D01*
X247990357Y-75114285D02*
X247895119Y-75209523D01*
X247609404Y-75304761D01*
X247418928Y-75304761D01*
X247133214Y-75209523D01*
X246942738Y-75019047D01*
X246847500Y-74828571D01*
X246752261Y-74447619D01*
X246752261Y-74161904D01*
X246847500Y-73780952D01*
X246942738Y-73590476D01*
X247133214Y-73400000D01*
X247418928Y-73304761D01*
X247609404Y-73304761D01*
X247895119Y-73400000D01*
X247990357Y-73495238D01*
X248847500Y-75304761D02*
X248847500Y-73304761D01*
X249990357Y-75304761D02*
X249133214Y-74161904D01*
X249990357Y-73304761D02*
X248847500Y-74447619D01*
X252276071Y-75209523D02*
X252561785Y-75304761D01*
X253037976Y-75304761D01*
X253228452Y-75209523D01*
X253323690Y-75114285D01*
X253418928Y-74923809D01*
X253418928Y-74733333D01*
X253323690Y-74542857D01*
X253228452Y-74447619D01*
X253037976Y-74352380D01*
X252657023Y-74257142D01*
X252466547Y-74161904D01*
X252371309Y-74066666D01*
X252276071Y-73876190D01*
X252276071Y-73685714D01*
X252371309Y-73495238D01*
X252466547Y-73400000D01*
X252657023Y-73304761D01*
X253133214Y-73304761D01*
X253418928Y-73400000D01*
X254276071Y-75304761D02*
X254276071Y-73304761D01*
X255228452Y-75304761D02*
X255228452Y-73304761D01*
X255704642Y-73304761D01*
X255990357Y-73400000D01*
X256180833Y-73590476D01*
X256276071Y-73780952D01*
X256371309Y-74161904D01*
X256371309Y-74447619D01*
X256276071Y-74828571D01*
X256180833Y-75019047D01*
X255990357Y-75209523D01*
X255704642Y-75304761D01*
X255228452Y-75304761D01*
X257228452Y-74257142D02*
X257895119Y-74257142D01*
X258180833Y-75304761D02*
X257228452Y-75304761D01*
X257228452Y-73304761D01*
X258180833Y-73304761D01*
X261133214Y-76066666D02*
X261037976Y-75971428D01*
X260847500Y-75685714D01*
X260752261Y-75495238D01*
X260657023Y-75209523D01*
X260561785Y-74733333D01*
X260561785Y-74352380D01*
X260657023Y-73876190D01*
X260752261Y-73590476D01*
X260847500Y-73400000D01*
X261037976Y-73114285D01*
X261133214Y-73019047D01*
X262466547Y-73304761D02*
X262466547Y-74733333D01*
X262371309Y-75019047D01*
X262180833Y-75209523D01*
X261895119Y-75304761D01*
X261704642Y-75304761D01*
X264371309Y-75304761D02*
X263418928Y-75304761D01*
X263418928Y-73304761D01*
X266180833Y-75114285D02*
X266085595Y-75209523D01*
X265799880Y-75304761D01*
X265609404Y-75304761D01*
X265323690Y-75209523D01*
X265133214Y-75019047D01*
X265037976Y-74828571D01*
X264942738Y-74447619D01*
X264942738Y-74161904D01*
X265037976Y-73780952D01*
X265133214Y-73590476D01*
X265323690Y-73400000D01*
X265609404Y-73304761D01*
X265799880Y-73304761D01*
X266085595Y-73400000D01*
X266180833Y-73495238D01*
X267609404Y-73304761D02*
X267609404Y-74733333D01*
X267514166Y-75019047D01*
X267323690Y-75209523D01*
X267037976Y-75304761D01*
X266847500Y-75304761D01*
X269514166Y-75304761D02*
X268561785Y-75304761D01*
X268561785Y-73304761D01*
X271323690Y-75114285D02*
X271228452Y-75209523D01*
X270942738Y-75304761D01*
X270752261Y-75304761D01*
X270466547Y-75209523D01*
X270276071Y-75019047D01*
X270180833Y-74828571D01*
X270085595Y-74447619D01*
X270085595Y-74161904D01*
X270180833Y-73780952D01*
X270276071Y-73590476D01*
X270466547Y-73400000D01*
X270752261Y-73304761D01*
X270942738Y-73304761D01*
X271228452Y-73400000D01*
X271323690Y-73495238D01*
X272752261Y-73304761D02*
X272752261Y-74733333D01*
X272657023Y-75019047D01*
X272466547Y-75209523D01*
X272180833Y-75304761D01*
X271990357Y-75304761D01*
X274657023Y-75304761D02*
X273704642Y-75304761D01*
X273704642Y-73304761D01*
X276466547Y-75114285D02*
X276371309Y-75209523D01*
X276085595Y-75304761D01*
X275895119Y-75304761D01*
X275609404Y-75209523D01*
X275418928Y-75019047D01*
X275323690Y-74828571D01*
X275228452Y-74447619D01*
X275228452Y-74161904D01*
X275323690Y-73780952D01*
X275418928Y-73590476D01*
X275609404Y-73400000D01*
X275895119Y-73304761D01*
X276085595Y-73304761D01*
X276371309Y-73400000D01*
X276466547Y-73495238D01*
X277895119Y-73304761D02*
X277895119Y-74733333D01*
X277799880Y-75019047D01*
X277609404Y-75209523D01*
X277323690Y-75304761D01*
X277133214Y-75304761D01*
X279799880Y-75304761D02*
X278847500Y-75304761D01*
X278847500Y-73304761D01*
X281609404Y-75114285D02*
X281514166Y-75209523D01*
X281228452Y-75304761D01*
X281037976Y-75304761D01*
X280752261Y-75209523D01*
X280561785Y-75019047D01*
X280466547Y-74828571D01*
X280371309Y-74447619D01*
X280371309Y-74161904D01*
X280466547Y-73780952D01*
X280561785Y-73590476D01*
X280752261Y-73400000D01*
X281037976Y-73304761D01*
X281228452Y-73304761D01*
X281514166Y-73400000D01*
X281609404Y-73495238D01*
X282276071Y-76066666D02*
X282371309Y-75971428D01*
X282561785Y-75685714D01*
X282657023Y-75495238D01*
X282752261Y-75209523D01*
X282847499Y-74733333D01*
X282847499Y-74352380D01*
X282752261Y-73876190D01*
X282657023Y-73590476D01*
X282561785Y-73400000D01*
X282371309Y-73114285D01*
X282276071Y-73019047D01*
X186276071Y-78454761D02*
X185323690Y-78454761D01*
X185323690Y-76454761D01*
X187799880Y-78454761D02*
X187799880Y-77407142D01*
X187704642Y-77216666D01*
X187514166Y-77121428D01*
X187133214Y-77121428D01*
X186942738Y-77216666D01*
X187799880Y-78359523D02*
X187609404Y-78454761D01*
X187133214Y-78454761D01*
X186942738Y-78359523D01*
X186847500Y-78169047D01*
X186847500Y-77978571D01*
X186942738Y-77788095D01*
X187133214Y-77692857D01*
X187609404Y-77692857D01*
X187799880Y-77597619D01*
X188561785Y-77121428D02*
X189037976Y-78454761D01*
X189514166Y-77121428D02*
X189037976Y-78454761D01*
X188847500Y-78930952D01*
X188752261Y-79026190D01*
X188561785Y-79121428D01*
X191037976Y-78359523D02*
X190847500Y-78454761D01*
X190466547Y-78454761D01*
X190276071Y-78359523D01*
X190180833Y-78169047D01*
X190180833Y-77407142D01*
X190276071Y-77216666D01*
X190466547Y-77121428D01*
X190847500Y-77121428D01*
X191037976Y-77216666D01*
X191133214Y-77407142D01*
X191133214Y-77597619D01*
X190180833Y-77788095D01*
X191990357Y-78454761D02*
X191990357Y-77121428D01*
X191990357Y-77502380D02*
X192085595Y-77311904D01*
X192180833Y-77216666D01*
X192371309Y-77121428D01*
X192561785Y-77121428D01*
X193133214Y-78359523D02*
X193323690Y-78454761D01*
X193704642Y-78454761D01*
X193895119Y-78359523D01*
X193990357Y-78169047D01*
X193990357Y-78073809D01*
X193895119Y-77883333D01*
X193704642Y-77788095D01*
X193418928Y-77788095D01*
X193228452Y-77692857D01*
X193133214Y-77502380D01*
X193133214Y-77407142D01*
X193228452Y-77216666D01*
X193418928Y-77121428D01*
X193704642Y-77121428D01*
X193895119Y-77216666D01*
X194847500Y-78264285D02*
X194942738Y-78359523D01*
X194847500Y-78454761D01*
X194752261Y-78359523D01*
X194847500Y-78264285D01*
X194847500Y-78454761D01*
X194847500Y-77216666D02*
X194942738Y-77311904D01*
X194847500Y-77407142D01*
X194752261Y-77311904D01*
X194847500Y-77216666D01*
X194847500Y-77407142D01*
X198180833Y-77121428D02*
X198180833Y-78454761D01*
X197704642Y-76359523D02*
X197228452Y-77788095D01*
X198466547Y-77788095D01*
X185228452Y-81509523D02*
X185514166Y-81604761D01*
X185990357Y-81604761D01*
X186180833Y-81509523D01*
X186276071Y-81414285D01*
X186371309Y-81223809D01*
X186371309Y-81033333D01*
X186276071Y-80842857D01*
X186180833Y-80747619D01*
X185990357Y-80652380D01*
X185609404Y-80557142D01*
X185418928Y-80461904D01*
X185323690Y-80366666D01*
X185228452Y-80176190D01*
X185228452Y-79985714D01*
X185323690Y-79795238D01*
X185418928Y-79700000D01*
X185609404Y-79604761D01*
X186085595Y-79604761D01*
X186371309Y-79700000D01*
X186942738Y-80271428D02*
X187704642Y-80271428D01*
X187228452Y-79604761D02*
X187228452Y-81319047D01*
X187323690Y-81509523D01*
X187514166Y-81604761D01*
X187704642Y-81604761D01*
X189228452Y-81604761D02*
X189228452Y-80557142D01*
X189133214Y-80366666D01*
X188942738Y-80271428D01*
X188561785Y-80271428D01*
X188371309Y-80366666D01*
X189228452Y-81509523D02*
X189037976Y-81604761D01*
X188561785Y-81604761D01*
X188371309Y-81509523D01*
X188276071Y-81319047D01*
X188276071Y-81128571D01*
X188371309Y-80938095D01*
X188561785Y-80842857D01*
X189037976Y-80842857D01*
X189228452Y-80747619D01*
X191037976Y-81509523D02*
X190847500Y-81604761D01*
X190466547Y-81604761D01*
X190276071Y-81509523D01*
X190180833Y-81414285D01*
X190085595Y-81223809D01*
X190085595Y-80652380D01*
X190180833Y-80461904D01*
X190276071Y-80366666D01*
X190466547Y-80271428D01*
X190847500Y-80271428D01*
X191037976Y-80366666D01*
X191895119Y-81604761D02*
X191895119Y-79604761D01*
X192085595Y-80842857D02*
X192657023Y-81604761D01*
X192657023Y-80271428D02*
X191895119Y-81033333D01*
X194371309Y-80271428D02*
X194371309Y-81604761D01*
X193514166Y-80271428D02*
X193514166Y-81319047D01*
X193609404Y-81509523D01*
X193799880Y-81604761D01*
X194085595Y-81604761D01*
X194276071Y-81509523D01*
X194371309Y-81414285D01*
X195323690Y-80271428D02*
X195323690Y-82271428D01*
X195323690Y-80366666D02*
X195514166Y-80271428D01*
X195895119Y-80271428D01*
X196085595Y-80366666D01*
X196180833Y-80461904D01*
X196276071Y-80652380D01*
X196276071Y-81223809D01*
X196180833Y-81414285D01*
X196085595Y-81509523D01*
X195895119Y-81604761D01*
X195514166Y-81604761D01*
X195323690Y-81509523D01*
X197133214Y-81414285D02*
X197228452Y-81509523D01*
X197133214Y-81604761D01*
X197037976Y-81509523D01*
X197133214Y-81414285D01*
X197133214Y-81604761D01*
X197133214Y-80366666D02*
X197228452Y-80461904D01*
X197133214Y-80557142D01*
X197037976Y-80461904D01*
X197133214Y-80366666D01*
X197133214Y-80557142D01*
X200180833Y-79604761D02*
X200180833Y-81033333D01*
X200085595Y-81319047D01*
X199895119Y-81509523D01*
X199609404Y-81604761D01*
X199418928Y-81604761D01*
X202085595Y-81604761D02*
X201133214Y-81604761D01*
X201133214Y-79604761D01*
X203895119Y-81414285D02*
X203799880Y-81509523D01*
X203514166Y-81604761D01*
X203323690Y-81604761D01*
X203037976Y-81509523D01*
X202847500Y-81319047D01*
X202752261Y-81128571D01*
X202657023Y-80747619D01*
X202657023Y-80461904D01*
X202752261Y-80080952D01*
X202847500Y-79890476D01*
X203037976Y-79700000D01*
X203323690Y-79604761D01*
X203514166Y-79604761D01*
X203799880Y-79700000D01*
X203895119Y-79795238D01*
X204561785Y-79604761D02*
X205895119Y-79604761D01*
X205037976Y-81604761D01*
X207514166Y-79604761D02*
X207133214Y-79604761D01*
X206942738Y-79700000D01*
X206847500Y-79795238D01*
X206657023Y-80080952D01*
X206561785Y-80461904D01*
X206561785Y-81223809D01*
X206657023Y-81414285D01*
X206752261Y-81509523D01*
X206942738Y-81604761D01*
X207323690Y-81604761D01*
X207514166Y-81509523D01*
X207609404Y-81414285D01*
X207704642Y-81223809D01*
X207704642Y-80747619D01*
X207609404Y-80557142D01*
X207514166Y-80461904D01*
X207323690Y-80366666D01*
X206942738Y-80366666D01*
X206752261Y-80461904D01*
X206657023Y-80557142D01*
X206561785Y-80747619D01*
X208466547Y-79795238D02*
X208561785Y-79700000D01*
X208752261Y-79604761D01*
X209228452Y-79604761D01*
X209418928Y-79700000D01*
X209514166Y-79795238D01*
X209609404Y-79985714D01*
X209609404Y-80176190D01*
X209514166Y-80461904D01*
X208371309Y-81604761D01*
X209609404Y-81604761D01*
X210752261Y-80461904D02*
X210561785Y-80366666D01*
X210466547Y-80271428D01*
X210371309Y-80080952D01*
X210371309Y-79985714D01*
X210466547Y-79795238D01*
X210561785Y-79700000D01*
X210752261Y-79604761D01*
X211133214Y-79604761D01*
X211323690Y-79700000D01*
X211418928Y-79795238D01*
X211514166Y-79985714D01*
X211514166Y-80080952D01*
X211418928Y-80271428D01*
X211323690Y-80366666D01*
X211133214Y-80461904D01*
X210752261Y-80461904D01*
X210561785Y-80557142D01*
X210466547Y-80652380D01*
X210371309Y-80842857D01*
X210371309Y-81223809D01*
X210466547Y-81414285D01*
X210561785Y-81509523D01*
X210752261Y-81604761D01*
X211133214Y-81604761D01*
X211323690Y-81509523D01*
X211418928Y-81414285D01*
X211514166Y-81223809D01*
X211514166Y-80842857D01*
X211418928Y-80652380D01*
X211323690Y-80557142D01*
X211133214Y-80461904D01*
X214466547Y-82366666D02*
X214371309Y-82271428D01*
X214180833Y-81985714D01*
X214085595Y-81795238D01*
X213990357Y-81509523D01*
X213895119Y-81033333D01*
X213895119Y-80652380D01*
X213990357Y-80176190D01*
X214085595Y-79890476D01*
X214180833Y-79700000D01*
X214371309Y-79414285D01*
X214466547Y-79319047D01*
X216371309Y-81414285D02*
X216276071Y-81509523D01*
X215990357Y-81604761D01*
X215799880Y-81604761D01*
X215514166Y-81509523D01*
X215323690Y-81319047D01*
X215228452Y-81128571D01*
X215133214Y-80747619D01*
X215133214Y-80461904D01*
X215228452Y-80080952D01*
X215323690Y-79890476D01*
X215514166Y-79700000D01*
X215799880Y-79604761D01*
X215990357Y-79604761D01*
X216276071Y-79700000D01*
X216371309Y-79795238D01*
X217514166Y-81604761D02*
X217323690Y-81509523D01*
X217228452Y-81414285D01*
X217133214Y-81223809D01*
X217133214Y-80652380D01*
X217228452Y-80461904D01*
X217323690Y-80366666D01*
X217514166Y-80271428D01*
X217799880Y-80271428D01*
X217990357Y-80366666D01*
X218085595Y-80461904D01*
X218180833Y-80652380D01*
X218180833Y-81223809D01*
X218085595Y-81414285D01*
X217990357Y-81509523D01*
X217799880Y-81604761D01*
X217514166Y-81604761D01*
X219037976Y-80271428D02*
X219037976Y-81604761D01*
X219037976Y-80461904D02*
X219133214Y-80366666D01*
X219323690Y-80271428D01*
X219609404Y-80271428D01*
X219799880Y-80366666D01*
X219895119Y-80557142D01*
X219895119Y-81604761D01*
X220561785Y-80271428D02*
X221323690Y-80271428D01*
X220847500Y-79604761D02*
X220847500Y-81319047D01*
X220942738Y-81509523D01*
X221133214Y-81604761D01*
X221323690Y-81604761D01*
X221990357Y-81604761D02*
X221990357Y-80271428D01*
X221990357Y-80652380D02*
X222085595Y-80461904D01*
X222180833Y-80366666D01*
X222371309Y-80271428D01*
X222561785Y-80271428D01*
X223514166Y-81604761D02*
X223323690Y-81509523D01*
X223228452Y-81414285D01*
X223133214Y-81223809D01*
X223133214Y-80652380D01*
X223228452Y-80461904D01*
X223323690Y-80366666D01*
X223514166Y-80271428D01*
X223799880Y-80271428D01*
X223990357Y-80366666D01*
X224085595Y-80461904D01*
X224180833Y-80652380D01*
X224180833Y-81223809D01*
X224085595Y-81414285D01*
X223990357Y-81509523D01*
X223799880Y-81604761D01*
X223514166Y-81604761D01*
X225323690Y-81604761D02*
X225133214Y-81509523D01*
X225037976Y-81319047D01*
X225037976Y-79604761D01*
X226371309Y-81604761D02*
X226180833Y-81509523D01*
X226085595Y-81319047D01*
X226085595Y-79604761D01*
X227895119Y-81509523D02*
X227704642Y-81604761D01*
X227323690Y-81604761D01*
X227133214Y-81509523D01*
X227037976Y-81319047D01*
X227037976Y-80557142D01*
X227133214Y-80366666D01*
X227323690Y-80271428D01*
X227704642Y-80271428D01*
X227895119Y-80366666D01*
X227990357Y-80557142D01*
X227990357Y-80747619D01*
X227037976Y-80938095D01*
X229704642Y-81604761D02*
X229704642Y-79604761D01*
X229704642Y-81509523D02*
X229514166Y-81604761D01*
X229133214Y-81604761D01*
X228942738Y-81509523D01*
X228847499Y-81414285D01*
X228752261Y-81223809D01*
X228752261Y-80652380D01*
X228847499Y-80461904D01*
X228942738Y-80366666D01*
X229133214Y-80271428D01*
X229514166Y-80271428D01*
X229704642Y-80366666D01*
X232180833Y-81604761D02*
X232180833Y-79604761D01*
X233133214Y-81604761D02*
X233133214Y-80271428D01*
X233133214Y-80461904D02*
X233228452Y-80366666D01*
X233418928Y-80271428D01*
X233704642Y-80271428D01*
X233895119Y-80366666D01*
X233990357Y-80557142D01*
X233990357Y-81604761D01*
X233990357Y-80557142D02*
X234085595Y-80366666D01*
X234276071Y-80271428D01*
X234561785Y-80271428D01*
X234752261Y-80366666D01*
X234847499Y-80557142D01*
X234847499Y-81604761D01*
X235799880Y-80271428D02*
X235799880Y-82271428D01*
X235799880Y-80366666D02*
X235990357Y-80271428D01*
X236371309Y-80271428D01*
X236561785Y-80366666D01*
X236657023Y-80461904D01*
X236752261Y-80652380D01*
X236752261Y-81223809D01*
X236657023Y-81414285D01*
X236561785Y-81509523D01*
X236371309Y-81604761D01*
X235990357Y-81604761D01*
X235799880Y-81509523D01*
X238371309Y-81509523D02*
X238180833Y-81604761D01*
X237799880Y-81604761D01*
X237609404Y-81509523D01*
X237514166Y-81319047D01*
X237514166Y-80557142D01*
X237609404Y-80366666D01*
X237799880Y-80271428D01*
X238180833Y-80271428D01*
X238371309Y-80366666D01*
X238466547Y-80557142D01*
X238466547Y-80747619D01*
X237514166Y-80938095D01*
X240180833Y-81604761D02*
X240180833Y-79604761D01*
X240180833Y-81509523D02*
X239990357Y-81604761D01*
X239609404Y-81604761D01*
X239418928Y-81509523D01*
X239323690Y-81414285D01*
X239228452Y-81223809D01*
X239228452Y-80652380D01*
X239323690Y-80461904D01*
X239418928Y-80366666D01*
X239609404Y-80271428D01*
X239990357Y-80271428D01*
X240180833Y-80366666D01*
X241990357Y-81604761D02*
X241990357Y-80557142D01*
X241895119Y-80366666D01*
X241704642Y-80271428D01*
X241323690Y-80271428D01*
X241133214Y-80366666D01*
X241990357Y-81509523D02*
X241799880Y-81604761D01*
X241323690Y-81604761D01*
X241133214Y-81509523D01*
X241037976Y-81319047D01*
X241037976Y-81128571D01*
X241133214Y-80938095D01*
X241323690Y-80842857D01*
X241799880Y-80842857D01*
X241990357Y-80747619D01*
X242942738Y-80271428D02*
X242942738Y-81604761D01*
X242942738Y-80461904D02*
X243037976Y-80366666D01*
X243228452Y-80271428D01*
X243514166Y-80271428D01*
X243704642Y-80366666D01*
X243799880Y-80557142D01*
X243799880Y-81604761D01*
X245609404Y-81509523D02*
X245418928Y-81604761D01*
X245037976Y-81604761D01*
X244847499Y-81509523D01*
X244752261Y-81414285D01*
X244657023Y-81223809D01*
X244657023Y-80652380D01*
X244752261Y-80461904D01*
X244847499Y-80366666D01*
X245037976Y-80271428D01*
X245418928Y-80271428D01*
X245609404Y-80366666D01*
X247228452Y-81509523D02*
X247037976Y-81604761D01*
X246657023Y-81604761D01*
X246466547Y-81509523D01*
X246371309Y-81319047D01*
X246371309Y-80557142D01*
X246466547Y-80366666D01*
X246657023Y-80271428D01*
X247037976Y-80271428D01*
X247228452Y-80366666D01*
X247323690Y-80557142D01*
X247323690Y-80747619D01*
X246371309Y-80938095D01*
X247990357Y-82366666D02*
X248085595Y-82271428D01*
X248276071Y-81985714D01*
X248371309Y-81795238D01*
X248466547Y-81509523D01*
X248561785Y-81033333D01*
X248561785Y-80652380D01*
X248466547Y-80176190D01*
X248371309Y-79890476D01*
X248276071Y-79700000D01*
X248085595Y-79414285D01*
X247990357Y-79319047D01*
X185323690Y-84754761D02*
X185323690Y-82754761D01*
X186085595Y-82754761D01*
X186276071Y-82850000D01*
X186371309Y-82945238D01*
X186466547Y-83135714D01*
X186466547Y-83421428D01*
X186371309Y-83611904D01*
X186276071Y-83707142D01*
X186085595Y-83802380D01*
X185323690Y-83802380D01*
X188466547Y-84564285D02*
X188371309Y-84659523D01*
X188085595Y-84754761D01*
X187895119Y-84754761D01*
X187609404Y-84659523D01*
X187418928Y-84469047D01*
X187323690Y-84278571D01*
X187228452Y-83897619D01*
X187228452Y-83611904D01*
X187323690Y-83230952D01*
X187418928Y-83040476D01*
X187609404Y-82850000D01*
X187895119Y-82754761D01*
X188085595Y-82754761D01*
X188371309Y-82850000D01*
X188466547Y-82945238D01*
X189990357Y-83707142D02*
X190276071Y-83802380D01*
X190371309Y-83897619D01*
X190466547Y-84088095D01*
X190466547Y-84373809D01*
X190371309Y-84564285D01*
X190276071Y-84659523D01*
X190085595Y-84754761D01*
X189323690Y-84754761D01*
X189323690Y-82754761D01*
X189990357Y-82754761D01*
X190180833Y-82850000D01*
X190276071Y-82945238D01*
X190371309Y-83135714D01*
X190371309Y-83326190D01*
X190276071Y-83516666D01*
X190180833Y-83611904D01*
X189990357Y-83707142D01*
X189323690Y-83707142D01*
X192847500Y-84754761D02*
X192847500Y-82754761D01*
X193514166Y-84183333D01*
X194180833Y-82754761D01*
X194180833Y-84754761D01*
X195990357Y-84754761D02*
X195990357Y-83707142D01*
X195895119Y-83516666D01*
X195704642Y-83421428D01*
X195323690Y-83421428D01*
X195133214Y-83516666D01*
X195990357Y-84659523D02*
X195799880Y-84754761D01*
X195323690Y-84754761D01*
X195133214Y-84659523D01*
X195037976Y-84469047D01*
X195037976Y-84278571D01*
X195133214Y-84088095D01*
X195323690Y-83992857D01*
X195799880Y-83992857D01*
X195990357Y-83897619D01*
X196657023Y-83421428D02*
X197418928Y-83421428D01*
X196942738Y-82754761D02*
X196942738Y-84469047D01*
X197037976Y-84659523D01*
X197228452Y-84754761D01*
X197418928Y-84754761D01*
X198847500Y-84659523D02*
X198657023Y-84754761D01*
X198276071Y-84754761D01*
X198085595Y-84659523D01*
X197990357Y-84469047D01*
X197990357Y-83707142D01*
X198085595Y-83516666D01*
X198276071Y-83421428D01*
X198657023Y-83421428D01*
X198847500Y-83516666D01*
X198942738Y-83707142D01*
X198942738Y-83897619D01*
X197990357Y-84088095D01*
X199799880Y-84754761D02*
X199799880Y-83421428D01*
X199799880Y-83802380D02*
X199895119Y-83611904D01*
X199990357Y-83516666D01*
X200180833Y-83421428D01*
X200371309Y-83421428D01*
X201037976Y-84754761D02*
X201037976Y-83421428D01*
X201037976Y-82754761D02*
X200942738Y-82850000D01*
X201037976Y-82945238D01*
X201133214Y-82850000D01*
X201037976Y-82754761D01*
X201037976Y-82945238D01*
X202847500Y-84754761D02*
X202847500Y-83707142D01*
X202752261Y-83516666D01*
X202561785Y-83421428D01*
X202180833Y-83421428D01*
X201990357Y-83516666D01*
X202847500Y-84659523D02*
X202657023Y-84754761D01*
X202180833Y-84754761D01*
X201990357Y-84659523D01*
X201895119Y-84469047D01*
X201895119Y-84278571D01*
X201990357Y-84088095D01*
X202180833Y-83992857D01*
X202657023Y-83992857D01*
X202847500Y-83897619D01*
X204085595Y-84754761D02*
X203895119Y-84659523D01*
X203799880Y-84469047D01*
X203799880Y-82754761D01*
X204847500Y-84564285D02*
X204942738Y-84659523D01*
X204847500Y-84754761D01*
X204752261Y-84659523D01*
X204847500Y-84564285D01*
X204847500Y-84754761D01*
X204847500Y-83516666D02*
X204942738Y-83611904D01*
X204847500Y-83707142D01*
X204752261Y-83611904D01*
X204847500Y-83516666D01*
X204847500Y-83707142D01*
X207228452Y-84659523D02*
X207514166Y-84754761D01*
X207990357Y-84754761D01*
X208180833Y-84659523D01*
X208276071Y-84564285D01*
X208371309Y-84373809D01*
X208371309Y-84183333D01*
X208276071Y-83992857D01*
X208180833Y-83897619D01*
X207990357Y-83802380D01*
X207609404Y-83707142D01*
X207418928Y-83611904D01*
X207323690Y-83516666D01*
X207228452Y-83326190D01*
X207228452Y-83135714D01*
X207323690Y-82945238D01*
X207418928Y-82850000D01*
X207609404Y-82754761D01*
X208085595Y-82754761D01*
X208371309Y-82850000D01*
X208942738Y-83421428D02*
X209704642Y-83421428D01*
X209228452Y-82754761D02*
X209228452Y-84469047D01*
X209323690Y-84659523D01*
X209514166Y-84754761D01*
X209704642Y-84754761D01*
X211228452Y-84754761D02*
X211228452Y-83707142D01*
X211133214Y-83516666D01*
X210942738Y-83421428D01*
X210561785Y-83421428D01*
X210371309Y-83516666D01*
X211228452Y-84659523D02*
X211037976Y-84754761D01*
X210561785Y-84754761D01*
X210371309Y-84659523D01*
X210276071Y-84469047D01*
X210276071Y-84278571D01*
X210371309Y-84088095D01*
X210561785Y-83992857D01*
X211037976Y-83992857D01*
X211228452Y-83897619D01*
X212180833Y-83421428D02*
X212180833Y-84754761D01*
X212180833Y-83611904D02*
X212276071Y-83516666D01*
X212466547Y-83421428D01*
X212752261Y-83421428D01*
X212942738Y-83516666D01*
X213037976Y-83707142D01*
X213037976Y-84754761D01*
X214847500Y-84754761D02*
X214847500Y-82754761D01*
X214847500Y-84659523D02*
X214657023Y-84754761D01*
X214276071Y-84754761D01*
X214085595Y-84659523D01*
X213990357Y-84564285D01*
X213895119Y-84373809D01*
X213895119Y-83802380D01*
X213990357Y-83611904D01*
X214085595Y-83516666D01*
X214276071Y-83421428D01*
X214657023Y-83421428D01*
X214847500Y-83516666D01*
X216657023Y-84754761D02*
X216657023Y-83707142D01*
X216561785Y-83516666D01*
X216371309Y-83421428D01*
X215990357Y-83421428D01*
X215799880Y-83516666D01*
X216657023Y-84659523D02*
X216466547Y-84754761D01*
X215990357Y-84754761D01*
X215799880Y-84659523D01*
X215704642Y-84469047D01*
X215704642Y-84278571D01*
X215799880Y-84088095D01*
X215990357Y-83992857D01*
X216466547Y-83992857D01*
X216657023Y-83897619D01*
X217609404Y-84754761D02*
X217609404Y-83421428D01*
X217609404Y-83802380D02*
X217704642Y-83611904D01*
X217799880Y-83516666D01*
X217990357Y-83421428D01*
X218180833Y-83421428D01*
X219704642Y-84754761D02*
X219704642Y-82754761D01*
X219704642Y-84659523D02*
X219514166Y-84754761D01*
X219133214Y-84754761D01*
X218942738Y-84659523D01*
X218847500Y-84564285D01*
X218752261Y-84373809D01*
X218752261Y-83802380D01*
X218847500Y-83611904D01*
X218942738Y-83516666D01*
X219133214Y-83421428D01*
X219514166Y-83421428D01*
X219704642Y-83516666D01*
X223228452Y-84754761D02*
X222085595Y-84754761D01*
X222657023Y-84754761D02*
X222657023Y-82754761D01*
X222466547Y-83040476D01*
X222276071Y-83230952D01*
X222085595Y-83326190D01*
X224085595Y-84564285D02*
X224180833Y-84659523D01*
X224085595Y-84754761D01*
X223990357Y-84659523D01*
X224085595Y-84564285D01*
X224085595Y-84754761D01*
X225895119Y-82754761D02*
X225514166Y-82754761D01*
X225323690Y-82850000D01*
X225228452Y-82945238D01*
X225037976Y-83230952D01*
X224942738Y-83611904D01*
X224942738Y-84373809D01*
X225037976Y-84564285D01*
X225133214Y-84659523D01*
X225323690Y-84754761D01*
X225704642Y-84754761D01*
X225895119Y-84659523D01*
X225990357Y-84564285D01*
X226085595Y-84373809D01*
X226085595Y-83897619D01*
X225990357Y-83707142D01*
X225895119Y-83611904D01*
X225704642Y-83516666D01*
X225323690Y-83516666D01*
X225133214Y-83611904D01*
X225037976Y-83707142D01*
X224942738Y-83897619D01*
X226942738Y-84754761D02*
X226942738Y-83421428D01*
X226942738Y-83611904D02*
X227037976Y-83516666D01*
X227228452Y-83421428D01*
X227514166Y-83421428D01*
X227704642Y-83516666D01*
X227799880Y-83707142D01*
X227799880Y-84754761D01*
X227799880Y-83707142D02*
X227895119Y-83516666D01*
X228085595Y-83421428D01*
X228371309Y-83421428D01*
X228561785Y-83516666D01*
X228657023Y-83707142D01*
X228657023Y-84754761D01*
X229609404Y-84754761D02*
X229609404Y-83421428D01*
X229609404Y-83611904D02*
X229704642Y-83516666D01*
X229895119Y-83421428D01*
X230180833Y-83421428D01*
X230371309Y-83516666D01*
X230466547Y-83707142D01*
X230466547Y-84754761D01*
X230466547Y-83707142D02*
X230561785Y-83516666D01*
X230752261Y-83421428D01*
X231037976Y-83421428D01*
X231228452Y-83516666D01*
X231323690Y-83707142D01*
X231323690Y-84754761D01*
X234466547Y-83707142D02*
X233799880Y-83707142D01*
X233799880Y-84754761D02*
X233799880Y-82754761D01*
X234752261Y-82754761D01*
X236657023Y-84754761D02*
X235990357Y-83802380D01*
X235514166Y-84754761D02*
X235514166Y-82754761D01*
X236276071Y-82754761D01*
X236466547Y-82850000D01*
X236561785Y-82945238D01*
X236657023Y-83135714D01*
X236657023Y-83421428D01*
X236561785Y-83611904D01*
X236466547Y-83707142D01*
X236276071Y-83802380D01*
X235514166Y-83802380D01*
X238371309Y-83421428D02*
X238371309Y-84754761D01*
X237895119Y-82659523D02*
X237418928Y-84088095D01*
X238657023Y-84088095D01*
X185228452Y-87809523D02*
X185514166Y-87904761D01*
X185990357Y-87904761D01*
X186180833Y-87809523D01*
X186276071Y-87714285D01*
X186371309Y-87523809D01*
X186371309Y-87333333D01*
X186276071Y-87142857D01*
X186180833Y-87047619D01*
X185990357Y-86952380D01*
X185609404Y-86857142D01*
X185418928Y-86761904D01*
X185323690Y-86666666D01*
X185228452Y-86476190D01*
X185228452Y-86285714D01*
X185323690Y-86095238D01*
X185418928Y-86000000D01*
X185609404Y-85904761D01*
X186085595Y-85904761D01*
X186371309Y-86000000D01*
X187514166Y-87904761D02*
X187323690Y-87809523D01*
X187228452Y-87714285D01*
X187133214Y-87523809D01*
X187133214Y-86952380D01*
X187228452Y-86761904D01*
X187323690Y-86666666D01*
X187514166Y-86571428D01*
X187799880Y-86571428D01*
X187990357Y-86666666D01*
X188085595Y-86761904D01*
X188180833Y-86952380D01*
X188180833Y-87523809D01*
X188085595Y-87714285D01*
X187990357Y-87809523D01*
X187799880Y-87904761D01*
X187514166Y-87904761D01*
X189323690Y-87904761D02*
X189133214Y-87809523D01*
X189037976Y-87619047D01*
X189037976Y-85904761D01*
X190942738Y-87904761D02*
X190942738Y-85904761D01*
X190942738Y-87809523D02*
X190752261Y-87904761D01*
X190371309Y-87904761D01*
X190180833Y-87809523D01*
X190085595Y-87714285D01*
X189990357Y-87523809D01*
X189990357Y-86952380D01*
X190085595Y-86761904D01*
X190180833Y-86666666D01*
X190371309Y-86571428D01*
X190752261Y-86571428D01*
X190942738Y-86666666D01*
X192657023Y-87809523D02*
X192466547Y-87904761D01*
X192085595Y-87904761D01*
X191895119Y-87809523D01*
X191799880Y-87619047D01*
X191799880Y-86857142D01*
X191895119Y-86666666D01*
X192085595Y-86571428D01*
X192466547Y-86571428D01*
X192657023Y-86666666D01*
X192752261Y-86857142D01*
X192752261Y-87047619D01*
X191799880Y-87238095D01*
X193609404Y-87904761D02*
X193609404Y-86571428D01*
X193609404Y-86952380D02*
X193704642Y-86761904D01*
X193799880Y-86666666D01*
X193990357Y-86571428D01*
X194180833Y-86571428D01*
X196371309Y-87904761D02*
X196371309Y-85904761D01*
X197037976Y-87333333D01*
X197704642Y-85904761D01*
X197704642Y-87904761D01*
X199514166Y-87904761D02*
X199514166Y-86857142D01*
X199418928Y-86666666D01*
X199228452Y-86571428D01*
X198847500Y-86571428D01*
X198657023Y-86666666D01*
X199514166Y-87809523D02*
X199323690Y-87904761D01*
X198847500Y-87904761D01*
X198657023Y-87809523D01*
X198561785Y-87619047D01*
X198561785Y-87428571D01*
X198657023Y-87238095D01*
X198847500Y-87142857D01*
X199323690Y-87142857D01*
X199514166Y-87047619D01*
X200371309Y-87809523D02*
X200561785Y-87904761D01*
X200942738Y-87904761D01*
X201133214Y-87809523D01*
X201228452Y-87619047D01*
X201228452Y-87523809D01*
X201133214Y-87333333D01*
X200942738Y-87238095D01*
X200657023Y-87238095D01*
X200466547Y-87142857D01*
X200371309Y-86952380D01*
X200371309Y-86857142D01*
X200466547Y-86666666D01*
X200657023Y-86571428D01*
X200942738Y-86571428D01*
X201133214Y-86666666D01*
X202085595Y-87904761D02*
X202085595Y-85904761D01*
X202276071Y-87142857D02*
X202847500Y-87904761D01*
X202847500Y-86571428D02*
X202085595Y-87333333D01*
X206371309Y-87714285D02*
X206276071Y-87809523D01*
X205990357Y-87904761D01*
X205799880Y-87904761D01*
X205514166Y-87809523D01*
X205323690Y-87619047D01*
X205228452Y-87428571D01*
X205133214Y-87047619D01*
X205133214Y-86761904D01*
X205228452Y-86380952D01*
X205323690Y-86190476D01*
X205514166Y-86000000D01*
X205799880Y-85904761D01*
X205990357Y-85904761D01*
X206276071Y-86000000D01*
X206371309Y-86095238D01*
X207514166Y-87904761D02*
X207323690Y-87809523D01*
X207228452Y-87714285D01*
X207133214Y-87523809D01*
X207133214Y-86952380D01*
X207228452Y-86761904D01*
X207323690Y-86666666D01*
X207514166Y-86571428D01*
X207799880Y-86571428D01*
X207990357Y-86666666D01*
X208085595Y-86761904D01*
X208180833Y-86952380D01*
X208180833Y-87523809D01*
X208085595Y-87714285D01*
X207990357Y-87809523D01*
X207799880Y-87904761D01*
X207514166Y-87904761D01*
X209323690Y-87904761D02*
X209133214Y-87809523D01*
X209037976Y-87619047D01*
X209037976Y-85904761D01*
X210371309Y-87904761D02*
X210180833Y-87809523D01*
X210085595Y-87714285D01*
X209990357Y-87523809D01*
X209990357Y-86952380D01*
X210085595Y-86761904D01*
X210180833Y-86666666D01*
X210371309Y-86571428D01*
X210657023Y-86571428D01*
X210847500Y-86666666D01*
X210942738Y-86761904D01*
X211037976Y-86952380D01*
X211037976Y-87523809D01*
X210942738Y-87714285D01*
X210847500Y-87809523D01*
X210657023Y-87904761D01*
X210371309Y-87904761D01*
X211895119Y-87904761D02*
X211895119Y-86571428D01*
X211895119Y-86952380D02*
X211990357Y-86761904D01*
X212085595Y-86666666D01*
X212276071Y-86571428D01*
X212466547Y-86571428D01*
X213133214Y-87714285D02*
X213228452Y-87809523D01*
X213133214Y-87904761D01*
X213037976Y-87809523D01*
X213133214Y-87714285D01*
X213133214Y-87904761D01*
X213133214Y-86666666D02*
X213228452Y-86761904D01*
X213133214Y-86857142D01*
X213037976Y-86761904D01*
X213133214Y-86666666D01*
X213133214Y-86857142D01*
X215609404Y-87904761D02*
X215609404Y-85904761D01*
X216276071Y-87333333D01*
X216942738Y-85904761D01*
X216942738Y-87904761D01*
X218752261Y-87904761D02*
X218752261Y-86857142D01*
X218657023Y-86666666D01*
X218466547Y-86571428D01*
X218085595Y-86571428D01*
X217895119Y-86666666D01*
X218752261Y-87809523D02*
X218561785Y-87904761D01*
X218085595Y-87904761D01*
X217895119Y-87809523D01*
X217799880Y-87619047D01*
X217799880Y-87428571D01*
X217895119Y-87238095D01*
X218085595Y-87142857D01*
X218561785Y-87142857D01*
X218752261Y-87047619D01*
X219418928Y-86571428D02*
X220180833Y-86571428D01*
X219704642Y-85904761D02*
X219704642Y-87619047D01*
X219799880Y-87809523D01*
X219990357Y-87904761D01*
X220180833Y-87904761D01*
X220561785Y-86571428D02*
X221323690Y-86571428D01*
X220847500Y-85904761D02*
X220847500Y-87619047D01*
X220942738Y-87809523D01*
X221133214Y-87904761D01*
X221323690Y-87904761D01*
X222752261Y-87809523D02*
X222561785Y-87904761D01*
X222180833Y-87904761D01*
X221990357Y-87809523D01*
X221895119Y-87619047D01*
X221895119Y-86857142D01*
X221990357Y-86666666D01*
X222180833Y-86571428D01*
X222561785Y-86571428D01*
X222752261Y-86666666D01*
X222847500Y-86857142D01*
X222847500Y-87047619D01*
X221895119Y-87238095D01*
X225895119Y-86857142D02*
X226180833Y-86952380D01*
X226276071Y-87047619D01*
X226371309Y-87238095D01*
X226371309Y-87523809D01*
X226276071Y-87714285D01*
X226180833Y-87809523D01*
X225990357Y-87904761D01*
X225228452Y-87904761D01*
X225228452Y-85904761D01*
X225895119Y-85904761D01*
X226085595Y-86000000D01*
X226180833Y-86095238D01*
X226276071Y-86285714D01*
X226276071Y-86476190D01*
X226180833Y-86666666D01*
X226085595Y-86761904D01*
X225895119Y-86857142D01*
X225228452Y-86857142D01*
X227514166Y-87904761D02*
X227323690Y-87809523D01*
X227228452Y-87619047D01*
X227228452Y-85904761D01*
X229133214Y-87904761D02*
X229133214Y-86857142D01*
X229037976Y-86666666D01*
X228847500Y-86571428D01*
X228466547Y-86571428D01*
X228276071Y-86666666D01*
X229133214Y-87809523D02*
X228942738Y-87904761D01*
X228466547Y-87904761D01*
X228276071Y-87809523D01*
X228180833Y-87619047D01*
X228180833Y-87428571D01*
X228276071Y-87238095D01*
X228466547Y-87142857D01*
X228942738Y-87142857D01*
X229133214Y-87047619D01*
X230942738Y-87809523D02*
X230752261Y-87904761D01*
X230371309Y-87904761D01*
X230180833Y-87809523D01*
X230085595Y-87714285D01*
X229990357Y-87523809D01*
X229990357Y-86952380D01*
X230085595Y-86761904D01*
X230180833Y-86666666D01*
X230371309Y-86571428D01*
X230752261Y-86571428D01*
X230942738Y-86666666D01*
X231799880Y-87904761D02*
X231799880Y-85904761D01*
X231990357Y-87142857D02*
X232561785Y-87904761D01*
X232561785Y-86571428D02*
X231799880Y-87333333D01*
X185228452Y-90959523D02*
X185514166Y-91054761D01*
X185990357Y-91054761D01*
X186180833Y-90959523D01*
X186276071Y-90864285D01*
X186371309Y-90673809D01*
X186371309Y-90483333D01*
X186276071Y-90292857D01*
X186180833Y-90197619D01*
X185990357Y-90102380D01*
X185609404Y-90007142D01*
X185418928Y-89911904D01*
X185323690Y-89816666D01*
X185228452Y-89626190D01*
X185228452Y-89435714D01*
X185323690Y-89245238D01*
X185418928Y-89150000D01*
X185609404Y-89054761D01*
X186085595Y-89054761D01*
X186371309Y-89150000D01*
X188085595Y-89721428D02*
X188085595Y-91054761D01*
X187228452Y-89721428D02*
X187228452Y-90769047D01*
X187323690Y-90959523D01*
X187514166Y-91054761D01*
X187799880Y-91054761D01*
X187990357Y-90959523D01*
X188085595Y-90864285D01*
X189037976Y-91054761D02*
X189037976Y-89721428D01*
X189037976Y-90102380D02*
X189133214Y-89911904D01*
X189228452Y-89816666D01*
X189418928Y-89721428D01*
X189609404Y-89721428D01*
X189990357Y-89721428D02*
X190752261Y-89721428D01*
X190276071Y-91054761D02*
X190276071Y-89340476D01*
X190371309Y-89150000D01*
X190561785Y-89054761D01*
X190752261Y-89054761D01*
X192276071Y-91054761D02*
X192276071Y-90007142D01*
X192180833Y-89816666D01*
X191990357Y-89721428D01*
X191609404Y-89721428D01*
X191418928Y-89816666D01*
X192276071Y-90959523D02*
X192085595Y-91054761D01*
X191609404Y-91054761D01*
X191418928Y-90959523D01*
X191323690Y-90769047D01*
X191323690Y-90578571D01*
X191418928Y-90388095D01*
X191609404Y-90292857D01*
X192085595Y-90292857D01*
X192276071Y-90197619D01*
X194085595Y-90959523D02*
X193895119Y-91054761D01*
X193514166Y-91054761D01*
X193323690Y-90959523D01*
X193228452Y-90864285D01*
X193133214Y-90673809D01*
X193133214Y-90102380D01*
X193228452Y-89911904D01*
X193323690Y-89816666D01*
X193514166Y-89721428D01*
X193895119Y-89721428D01*
X194085595Y-89816666D01*
X195704642Y-90959523D02*
X195514166Y-91054761D01*
X195133214Y-91054761D01*
X194942738Y-90959523D01*
X194847500Y-90769047D01*
X194847500Y-90007142D01*
X194942738Y-89816666D01*
X195133214Y-89721428D01*
X195514166Y-89721428D01*
X195704642Y-89816666D01*
X195799880Y-90007142D01*
X195799880Y-90197619D01*
X194847500Y-90388095D01*
X198847500Y-90007142D02*
X198180833Y-90007142D01*
X198180833Y-91054761D02*
X198180833Y-89054761D01*
X199133214Y-89054761D01*
X199895119Y-91054761D02*
X199895119Y-89721428D01*
X199895119Y-89054761D02*
X199799880Y-89150000D01*
X199895119Y-89245238D01*
X199990357Y-89150000D01*
X199895119Y-89054761D01*
X199895119Y-89245238D01*
X200847500Y-89721428D02*
X200847500Y-91054761D01*
X200847500Y-89911904D02*
X200942738Y-89816666D01*
X201133214Y-89721428D01*
X201418928Y-89721428D01*
X201609404Y-89816666D01*
X201704642Y-90007142D01*
X201704642Y-91054761D01*
X202657023Y-91054761D02*
X202657023Y-89721428D01*
X202657023Y-89054761D02*
X202561785Y-89150000D01*
X202657023Y-89245238D01*
X202752261Y-89150000D01*
X202657023Y-89054761D01*
X202657023Y-89245238D01*
X203514166Y-90959523D02*
X203704642Y-91054761D01*
X204085595Y-91054761D01*
X204276071Y-90959523D01*
X204371309Y-90769047D01*
X204371309Y-90673809D01*
X204276071Y-90483333D01*
X204085595Y-90388095D01*
X203799880Y-90388095D01*
X203609404Y-90292857D01*
X203514166Y-90102380D01*
X203514166Y-90007142D01*
X203609404Y-89816666D01*
X203799880Y-89721428D01*
X204085595Y-89721428D01*
X204276071Y-89816666D01*
X205228452Y-91054761D02*
X205228452Y-89054761D01*
X206085595Y-91054761D02*
X206085595Y-90007142D01*
X205990357Y-89816666D01*
X205799880Y-89721428D01*
X205514166Y-89721428D01*
X205323690Y-89816666D01*
X205228452Y-89911904D01*
X207037976Y-90864285D02*
X207133214Y-90959523D01*
X207037976Y-91054761D01*
X206942738Y-90959523D01*
X207037976Y-90864285D01*
X207037976Y-91054761D01*
X207037976Y-89816666D02*
X207133214Y-89911904D01*
X207037976Y-90007142D01*
X206942738Y-89911904D01*
X207037976Y-89816666D01*
X207037976Y-90007142D01*
X209514166Y-91054761D02*
X209514166Y-89054761D01*
X209514166Y-90007142D02*
X210657023Y-90007142D01*
X210657023Y-91054761D02*
X210657023Y-89054761D01*
X211514166Y-90483333D02*
X212466547Y-90483333D01*
X211323690Y-91054761D02*
X211990357Y-89054761D01*
X212657023Y-91054761D01*
X213228452Y-90959523D02*
X213514166Y-91054761D01*
X213990357Y-91054761D01*
X214180833Y-90959523D01*
X214276071Y-90864285D01*
X214371309Y-90673809D01*
X214371309Y-90483333D01*
X214276071Y-90292857D01*
X214180833Y-90197619D01*
X213990357Y-90102380D01*
X213609404Y-90007142D01*
X213418928Y-89911904D01*
X213323690Y-89816666D01*
X213228452Y-89626190D01*
X213228452Y-89435714D01*
X213323690Y-89245238D01*
X213418928Y-89150000D01*
X213609404Y-89054761D01*
X214085595Y-89054761D01*
X214371309Y-89150000D01*
X216180833Y-91054761D02*
X215228452Y-91054761D01*
X215228452Y-89054761D01*
X218942738Y-91816666D02*
X218847500Y-91721428D01*
X218657023Y-91435714D01*
X218561785Y-91245238D01*
X218466547Y-90959523D01*
X218371309Y-90483333D01*
X218371309Y-90102380D01*
X218466547Y-89626190D01*
X218561785Y-89340476D01*
X218657023Y-89150000D01*
X218847500Y-88864285D01*
X218942738Y-88769047D01*
X219514166Y-89721428D02*
X219895119Y-91054761D01*
X220276071Y-90102380D01*
X220657023Y-91054761D01*
X221037976Y-89721428D01*
X221799880Y-91054761D02*
X221799880Y-89721428D01*
X221799880Y-89054761D02*
X221704642Y-89150000D01*
X221799880Y-89245238D01*
X221895119Y-89150000D01*
X221799880Y-89054761D01*
X221799880Y-89245238D01*
X222466547Y-89721428D02*
X223228452Y-89721428D01*
X222752261Y-89054761D02*
X222752261Y-90769047D01*
X222847500Y-90959523D01*
X223037976Y-91054761D01*
X223228452Y-91054761D01*
X223895119Y-91054761D02*
X223895119Y-89054761D01*
X224752261Y-91054761D02*
X224752261Y-90007142D01*
X224657023Y-89816666D01*
X224466547Y-89721428D01*
X224180833Y-89721428D01*
X223990357Y-89816666D01*
X223895119Y-89911904D01*
X227514166Y-91054761D02*
X227323690Y-90959523D01*
X227228452Y-90769047D01*
X227228452Y-89054761D01*
X229037976Y-90959523D02*
X228847500Y-91054761D01*
X228466547Y-91054761D01*
X228276071Y-90959523D01*
X228180833Y-90769047D01*
X228180833Y-90007142D01*
X228276071Y-89816666D01*
X228466547Y-89721428D01*
X228847500Y-89721428D01*
X229037976Y-89816666D01*
X229133214Y-90007142D01*
X229133214Y-90197619D01*
X228180833Y-90388095D01*
X230847500Y-91054761D02*
X230847500Y-90007142D01*
X230752261Y-89816666D01*
X230561785Y-89721428D01*
X230180833Y-89721428D01*
X229990357Y-89816666D01*
X230847500Y-90959523D02*
X230657023Y-91054761D01*
X230180833Y-91054761D01*
X229990357Y-90959523D01*
X229895119Y-90769047D01*
X229895119Y-90578571D01*
X229990357Y-90388095D01*
X230180833Y-90292857D01*
X230657023Y-90292857D01*
X230847500Y-90197619D01*
X232657023Y-91054761D02*
X232657023Y-89054761D01*
X232657023Y-90959523D02*
X232466547Y-91054761D01*
X232085595Y-91054761D01*
X231895119Y-90959523D01*
X231799880Y-90864285D01*
X231704642Y-90673809D01*
X231704642Y-90102380D01*
X231799880Y-89911904D01*
X231895119Y-89816666D01*
X232085595Y-89721428D01*
X232466547Y-89721428D01*
X232657023Y-89816666D01*
X233418928Y-91816666D02*
X233514166Y-91721428D01*
X233704642Y-91435714D01*
X233799880Y-91245238D01*
X233895119Y-90959523D01*
X233990357Y-90483333D01*
X233990357Y-90102380D01*
X233895119Y-89626190D01*
X233799880Y-89340476D01*
X233704642Y-89150000D01*
X233514166Y-88864285D01*
X233418928Y-88769047D01*
X186466547Y-94014285D02*
X186371309Y-94109523D01*
X186085595Y-94204761D01*
X185895119Y-94204761D01*
X185609404Y-94109523D01*
X185418928Y-93919047D01*
X185323690Y-93728571D01*
X185228452Y-93347619D01*
X185228452Y-93061904D01*
X185323690Y-92680952D01*
X185418928Y-92490476D01*
X185609404Y-92300000D01*
X185895119Y-92204761D01*
X186085595Y-92204761D01*
X186371309Y-92300000D01*
X186466547Y-92395238D01*
X187609404Y-94204761D02*
X187418928Y-94109523D01*
X187323690Y-94014285D01*
X187228452Y-93823809D01*
X187228452Y-93252380D01*
X187323690Y-93061904D01*
X187418928Y-92966666D01*
X187609404Y-92871428D01*
X187895119Y-92871428D01*
X188085595Y-92966666D01*
X188180833Y-93061904D01*
X188276071Y-93252380D01*
X188276071Y-93823809D01*
X188180833Y-94014285D01*
X188085595Y-94109523D01*
X187895119Y-94204761D01*
X187609404Y-94204761D01*
X189133214Y-92871428D02*
X189133214Y-94871428D01*
X189133214Y-92966666D02*
X189323690Y-92871428D01*
X189704642Y-92871428D01*
X189895119Y-92966666D01*
X189990357Y-93061904D01*
X190085595Y-93252380D01*
X190085595Y-93823809D01*
X189990357Y-94014285D01*
X189895119Y-94109523D01*
X189704642Y-94204761D01*
X189323690Y-94204761D01*
X189133214Y-94109523D01*
X190942738Y-92871428D02*
X190942738Y-94871428D01*
X190942738Y-92966666D02*
X191133214Y-92871428D01*
X191514166Y-92871428D01*
X191704642Y-92966666D01*
X191799880Y-93061904D01*
X191895119Y-93252380D01*
X191895119Y-93823809D01*
X191799880Y-94014285D01*
X191704642Y-94109523D01*
X191514166Y-94204761D01*
X191133214Y-94204761D01*
X190942738Y-94109523D01*
X193514166Y-94109523D02*
X193323690Y-94204761D01*
X192942738Y-94204761D01*
X192752261Y-94109523D01*
X192657023Y-93919047D01*
X192657023Y-93157142D01*
X192752261Y-92966666D01*
X192942738Y-92871428D01*
X193323690Y-92871428D01*
X193514166Y-92966666D01*
X193609404Y-93157142D01*
X193609404Y-93347619D01*
X192657023Y-93538095D01*
X194466547Y-94204761D02*
X194466547Y-92871428D01*
X194466547Y-93252380D02*
X194561785Y-93061904D01*
X194657023Y-92966666D01*
X194847500Y-92871428D01*
X195037976Y-92871428D01*
X197037976Y-92204761D02*
X197514166Y-94204761D01*
X197895119Y-92776190D01*
X198276071Y-94204761D01*
X198752261Y-92204761D01*
X200276071Y-94109523D02*
X200085595Y-94204761D01*
X199704642Y-94204761D01*
X199514166Y-94109523D01*
X199418928Y-93919047D01*
X199418928Y-93157142D01*
X199514166Y-92966666D01*
X199704642Y-92871428D01*
X200085595Y-92871428D01*
X200276071Y-92966666D01*
X200371309Y-93157142D01*
X200371309Y-93347619D01*
X199418928Y-93538095D01*
X201228452Y-94204761D02*
X201228452Y-92871428D01*
X201228452Y-92204761D02*
X201133214Y-92300000D01*
X201228452Y-92395238D01*
X201323690Y-92300000D01*
X201228452Y-92204761D01*
X201228452Y-92395238D01*
X203037976Y-92871428D02*
X203037976Y-94490476D01*
X202942738Y-94680952D01*
X202847500Y-94776190D01*
X202657023Y-94871428D01*
X202371309Y-94871428D01*
X202180833Y-94776190D01*
X203037976Y-94109523D02*
X202847500Y-94204761D01*
X202466547Y-94204761D01*
X202276071Y-94109523D01*
X202180833Y-94014285D01*
X202085595Y-93823809D01*
X202085595Y-93252380D01*
X202180833Y-93061904D01*
X202276071Y-92966666D01*
X202466547Y-92871428D01*
X202847500Y-92871428D01*
X203037976Y-92966666D01*
X203990357Y-94204761D02*
X203990357Y-92204761D01*
X204847500Y-94204761D02*
X204847500Y-93157142D01*
X204752261Y-92966666D01*
X204561785Y-92871428D01*
X204276071Y-92871428D01*
X204085595Y-92966666D01*
X203990357Y-93061904D01*
X205514166Y-92871428D02*
X206276071Y-92871428D01*
X205799880Y-92204761D02*
X205799880Y-93919047D01*
X205895119Y-94109523D01*
X206085595Y-94204761D01*
X206276071Y-94204761D01*
X206942738Y-94014285D02*
X207037976Y-94109523D01*
X206942738Y-94204761D01*
X206847500Y-94109523D01*
X206942738Y-94014285D01*
X206942738Y-94204761D01*
X206942738Y-92966666D02*
X207037976Y-93061904D01*
X206942738Y-93157142D01*
X206847500Y-93061904D01*
X206942738Y-92966666D01*
X206942738Y-93157142D01*
X210466547Y-94204761D02*
X209323690Y-94204761D01*
X209895119Y-94204761D02*
X209895119Y-92204761D01*
X209704642Y-92490476D01*
X209514166Y-92680952D01*
X209323690Y-92776190D01*
X213133214Y-94204761D02*
X212942738Y-94109523D01*
X212847500Y-94014285D01*
X212752261Y-93823809D01*
X212752261Y-93252380D01*
X212847500Y-93061904D01*
X212942738Y-92966666D01*
X213133214Y-92871428D01*
X213418928Y-92871428D01*
X213609404Y-92966666D01*
X213704642Y-93061904D01*
X213799880Y-93252380D01*
X213799880Y-93823809D01*
X213704642Y-94014285D01*
X213609404Y-94109523D01*
X213418928Y-94204761D01*
X213133214Y-94204761D01*
X214466547Y-92871428D02*
X215514166Y-92871428D01*
X214466547Y-94204761D01*
X215514166Y-94204761D01*
X185323690Y-97354761D02*
X185323690Y-95354761D01*
X186466547Y-97354761D01*
X186466547Y-95354761D01*
X187799880Y-95354761D02*
X188180833Y-95354761D01*
X188371309Y-95450000D01*
X188561785Y-95640476D01*
X188657023Y-96021428D01*
X188657023Y-96688095D01*
X188561785Y-97069047D01*
X188371309Y-97259523D01*
X188180833Y-97354761D01*
X187799880Y-97354761D01*
X187609404Y-97259523D01*
X187418928Y-97069047D01*
X187323690Y-96688095D01*
X187323690Y-96021428D01*
X187418928Y-95640476D01*
X187609404Y-95450000D01*
X187799880Y-95354761D01*
X192085595Y-95450000D02*
X191895119Y-95354761D01*
X191609404Y-95354761D01*
X191323690Y-95450000D01*
X191133214Y-95640476D01*
X191037976Y-95830952D01*
X190942738Y-96211904D01*
X190942738Y-96497619D01*
X191037976Y-96878571D01*
X191133214Y-97069047D01*
X191323690Y-97259523D01*
X191609404Y-97354761D01*
X191799880Y-97354761D01*
X192085595Y-97259523D01*
X192180833Y-97164285D01*
X192180833Y-96497619D01*
X191799880Y-96497619D01*
X193323690Y-97354761D02*
X193133214Y-97259523D01*
X193037976Y-97164285D01*
X192942738Y-96973809D01*
X192942738Y-96402380D01*
X193037976Y-96211904D01*
X193133214Y-96116666D01*
X193323690Y-96021428D01*
X193609404Y-96021428D01*
X193799880Y-96116666D01*
X193895119Y-96211904D01*
X193990357Y-96402380D01*
X193990357Y-96973809D01*
X193895119Y-97164285D01*
X193799880Y-97259523D01*
X193609404Y-97354761D01*
X193323690Y-97354761D01*
X195133214Y-97354761D02*
X194942738Y-97259523D01*
X194847500Y-97069047D01*
X194847500Y-95354761D01*
X196752261Y-97354761D02*
X196752261Y-95354761D01*
X196752261Y-97259523D02*
X196561785Y-97354761D01*
X196180833Y-97354761D01*
X195990357Y-97259523D01*
X195895119Y-97164285D01*
X195799880Y-96973809D01*
X195799880Y-96402380D01*
X195895119Y-96211904D01*
X195990357Y-96116666D01*
X196180833Y-96021428D01*
X196561785Y-96021428D01*
X196752261Y-96116666D01*
X199895119Y-96307142D02*
X199228452Y-96307142D01*
X199228452Y-97354761D02*
X199228452Y-95354761D01*
X200180833Y-95354761D01*
X200942738Y-97354761D02*
X200942738Y-96021428D01*
X200942738Y-95354761D02*
X200847500Y-95450000D01*
X200942738Y-95545238D01*
X201037976Y-95450000D01*
X200942738Y-95354761D01*
X200942738Y-95545238D01*
X201895119Y-96021428D02*
X201895119Y-97354761D01*
X201895119Y-96211904D02*
X201990357Y-96116666D01*
X202180833Y-96021428D01*
X202466547Y-96021428D01*
X202657023Y-96116666D01*
X202752261Y-96307142D01*
X202752261Y-97354761D01*
X204561785Y-96021428D02*
X204561785Y-97640476D01*
X204466547Y-97830952D01*
X204371309Y-97926190D01*
X204180833Y-98021428D01*
X203895119Y-98021428D01*
X203704642Y-97926190D01*
X204561785Y-97259523D02*
X204371309Y-97354761D01*
X203990357Y-97354761D01*
X203799880Y-97259523D01*
X203704642Y-97164285D01*
X203609404Y-96973809D01*
X203609404Y-96402380D01*
X203704642Y-96211904D01*
X203799880Y-96116666D01*
X203990357Y-96021428D01*
X204371309Y-96021428D01*
X204561785Y-96116666D01*
X206276071Y-97259523D02*
X206085595Y-97354761D01*
X205704642Y-97354761D01*
X205514166Y-97259523D01*
X205418928Y-97069047D01*
X205418928Y-96307142D01*
X205514166Y-96116666D01*
X205704642Y-96021428D01*
X206085595Y-96021428D01*
X206276071Y-96116666D01*
X206371309Y-96307142D01*
X206371309Y-96497619D01*
X205418928Y-96688095D01*
X207228452Y-97354761D02*
X207228452Y-96021428D01*
X207228452Y-96402380D02*
X207323690Y-96211904D01*
X207418928Y-96116666D01*
X207609404Y-96021428D01*
X207799880Y-96021428D01*
X208371309Y-97259523D02*
X208561785Y-97354761D01*
X208942738Y-97354761D01*
X209133214Y-97259523D01*
X209228452Y-97069047D01*
X209228452Y-96973809D01*
X209133214Y-96783333D01*
X208942738Y-96688095D01*
X208657023Y-96688095D01*
X208466547Y-96592857D01*
X208371309Y-96402380D01*
X208371309Y-96307142D01*
X208466547Y-96116666D01*
X208657023Y-96021428D01*
X208942738Y-96021428D01*
X209133214Y-96116666D01*
X185323690Y-100504761D02*
X185323690Y-98504761D01*
X186466547Y-100504761D01*
X186466547Y-98504761D01*
X187799880Y-98504761D02*
X188180833Y-98504761D01*
X188371309Y-98600000D01*
X188561785Y-98790476D01*
X188657023Y-99171428D01*
X188657023Y-99838095D01*
X188561785Y-100219047D01*
X188371309Y-100409523D01*
X188180833Y-100504761D01*
X187799880Y-100504761D01*
X187609404Y-100409523D01*
X187418928Y-100219047D01*
X187323690Y-99838095D01*
X187323690Y-99171428D01*
X187418928Y-98790476D01*
X187609404Y-98600000D01*
X187799880Y-98504761D01*
X192180833Y-100314285D02*
X192085595Y-100409523D01*
X191799880Y-100504761D01*
X191609404Y-100504761D01*
X191323690Y-100409523D01*
X191133214Y-100219047D01*
X191037976Y-100028571D01*
X190942738Y-99647619D01*
X190942738Y-99361904D01*
X191037976Y-98980952D01*
X191133214Y-98790476D01*
X191323690Y-98600000D01*
X191609404Y-98504761D01*
X191799880Y-98504761D01*
X192085595Y-98600000D01*
X192180833Y-98695238D01*
X193895119Y-100504761D02*
X193895119Y-99457142D01*
X193799880Y-99266666D01*
X193609404Y-99171428D01*
X193228452Y-99171428D01*
X193037976Y-99266666D01*
X193895119Y-100409523D02*
X193704642Y-100504761D01*
X193228452Y-100504761D01*
X193037976Y-100409523D01*
X192942738Y-100219047D01*
X192942738Y-100028571D01*
X193037976Y-99838095D01*
X193228452Y-99742857D01*
X193704642Y-99742857D01*
X193895119Y-99647619D01*
X194752261Y-100409523D02*
X194942738Y-100504761D01*
X195323690Y-100504761D01*
X195514166Y-100409523D01*
X195609404Y-100219047D01*
X195609404Y-100123809D01*
X195514166Y-99933333D01*
X195323690Y-99838095D01*
X195037976Y-99838095D01*
X194847500Y-99742857D01*
X194752261Y-99552380D01*
X194752261Y-99457142D01*
X194847500Y-99266666D01*
X195037976Y-99171428D01*
X195323690Y-99171428D01*
X195514166Y-99266666D01*
X196180833Y-99171428D02*
X196942738Y-99171428D01*
X196466547Y-98504761D02*
X196466547Y-100219047D01*
X196561785Y-100409523D01*
X196752261Y-100504761D01*
X196942738Y-100504761D01*
X198371309Y-100409523D02*
X198180833Y-100504761D01*
X197799880Y-100504761D01*
X197609404Y-100409523D01*
X197514166Y-100219047D01*
X197514166Y-99457142D01*
X197609404Y-99266666D01*
X197799880Y-99171428D01*
X198180833Y-99171428D01*
X198371309Y-99266666D01*
X198466547Y-99457142D01*
X198466547Y-99647619D01*
X197514166Y-99838095D01*
X199609404Y-100504761D02*
X199418928Y-100409523D01*
X199323690Y-100219047D01*
X199323690Y-98504761D01*
X200657023Y-100504761D02*
X200466547Y-100409523D01*
X200371309Y-100219047D01*
X200371309Y-98504761D01*
X202276071Y-100504761D02*
X202276071Y-99457142D01*
X202180833Y-99266666D01*
X201990357Y-99171428D01*
X201609404Y-99171428D01*
X201418928Y-99266666D01*
X202276071Y-100409523D02*
X202085595Y-100504761D01*
X201609404Y-100504761D01*
X201418928Y-100409523D01*
X201323690Y-100219047D01*
X201323690Y-100028571D01*
X201418928Y-99838095D01*
X201609404Y-99742857D01*
X202085595Y-99742857D01*
X202276071Y-99647619D01*
X202942738Y-99171428D02*
X203704642Y-99171428D01*
X203228452Y-98504761D02*
X203228452Y-100219047D01*
X203323690Y-100409523D01*
X203514166Y-100504761D01*
X203704642Y-100504761D01*
X205133214Y-100409523D02*
X204942738Y-100504761D01*
X204561785Y-100504761D01*
X204371309Y-100409523D01*
X204276071Y-100219047D01*
X204276071Y-99457142D01*
X204371309Y-99266666D01*
X204561785Y-99171428D01*
X204942738Y-99171428D01*
X205133214Y-99266666D01*
X205228452Y-99457142D01*
X205228452Y-99647619D01*
X204276071Y-99838095D01*
X206942738Y-100504761D02*
X206942738Y-98504761D01*
X206942738Y-100409523D02*
X206752261Y-100504761D01*
X206371309Y-100504761D01*
X206180833Y-100409523D01*
X206085595Y-100314285D01*
X205990357Y-100123809D01*
X205990357Y-99552380D01*
X206085595Y-99361904D01*
X206180833Y-99266666D01*
X206371309Y-99171428D01*
X206752261Y-99171428D01*
X206942738Y-99266666D01*
X209418928Y-100504761D02*
X209418928Y-98504761D01*
X209418928Y-99457142D02*
X210561785Y-99457142D01*
X210561785Y-100504761D02*
X210561785Y-98504761D01*
X211799880Y-100504761D02*
X211609404Y-100409523D01*
X211514166Y-100314285D01*
X211418928Y-100123809D01*
X211418928Y-99552380D01*
X211514166Y-99361904D01*
X211609404Y-99266666D01*
X211799880Y-99171428D01*
X212085595Y-99171428D01*
X212276071Y-99266666D01*
X212371309Y-99361904D01*
X212466547Y-99552380D01*
X212466547Y-100123809D01*
X212371309Y-100314285D01*
X212276071Y-100409523D01*
X212085595Y-100504761D01*
X211799880Y-100504761D01*
X213609404Y-100504761D02*
X213418928Y-100409523D01*
X213323690Y-100219047D01*
X213323690Y-98504761D01*
X215133214Y-100409523D02*
X214942738Y-100504761D01*
X214561785Y-100504761D01*
X214371309Y-100409523D01*
X214276071Y-100219047D01*
X214276071Y-99457142D01*
X214371309Y-99266666D01*
X214561785Y-99171428D01*
X214942738Y-99171428D01*
X215133214Y-99266666D01*
X215228452Y-99457142D01*
X215228452Y-99647619D01*
X214276071Y-99838095D01*
X215990357Y-100409523D02*
X216180833Y-100504761D01*
X216561785Y-100504761D01*
X216752261Y-100409523D01*
X216847500Y-100219047D01*
X216847500Y-100123809D01*
X216752261Y-99933333D01*
X216561785Y-99838095D01*
X216276071Y-99838095D01*
X216085595Y-99742857D01*
X215990357Y-99552380D01*
X215990357Y-99457142D01*
X216085595Y-99266666D01*
X216276071Y-99171428D01*
X216561785Y-99171428D01*
X216752261Y-99266666D01*
X185323690Y-103654761D02*
X185323690Y-101654761D01*
X186466547Y-103654761D01*
X186466547Y-101654761D01*
X187799880Y-101654761D02*
X188180833Y-101654761D01*
X188371309Y-101750000D01*
X188561785Y-101940476D01*
X188657023Y-102321428D01*
X188657023Y-102988095D01*
X188561785Y-103369047D01*
X188371309Y-103559523D01*
X188180833Y-103654761D01*
X187799880Y-103654761D01*
X187609404Y-103559523D01*
X187418928Y-103369047D01*
X187323690Y-102988095D01*
X187323690Y-102321428D01*
X187418928Y-101940476D01*
X187609404Y-101750000D01*
X187799880Y-101654761D01*
X190942738Y-103559523D02*
X191228452Y-103654761D01*
X191704642Y-103654761D01*
X191895119Y-103559523D01*
X191990357Y-103464285D01*
X192085595Y-103273809D01*
X192085595Y-103083333D01*
X191990357Y-102892857D01*
X191895119Y-102797619D01*
X191704642Y-102702380D01*
X191323690Y-102607142D01*
X191133214Y-102511904D01*
X191037976Y-102416666D01*
X190942738Y-102226190D01*
X190942738Y-102035714D01*
X191037976Y-101845238D01*
X191133214Y-101750000D01*
X191323690Y-101654761D01*
X191799880Y-101654761D01*
X192085595Y-101750000D01*
X192657023Y-102321428D02*
X193418928Y-102321428D01*
X192942738Y-101654761D02*
X192942738Y-103369047D01*
X193037976Y-103559523D01*
X193228452Y-103654761D01*
X193418928Y-103654761D01*
X194847500Y-103559523D02*
X194657023Y-103654761D01*
X194276071Y-103654761D01*
X194085595Y-103559523D01*
X193990357Y-103369047D01*
X193990357Y-102607142D01*
X194085595Y-102416666D01*
X194276071Y-102321428D01*
X194657023Y-102321428D01*
X194847500Y-102416666D01*
X194942738Y-102607142D01*
X194942738Y-102797619D01*
X193990357Y-102988095D01*
X195799880Y-102321428D02*
X195799880Y-103654761D01*
X195799880Y-102511904D02*
X195895119Y-102416666D01*
X196085595Y-102321428D01*
X196371309Y-102321428D01*
X196561785Y-102416666D01*
X196657023Y-102607142D01*
X196657023Y-103654761D01*
X198466547Y-103559523D02*
X198276071Y-103654761D01*
X197895119Y-103654761D01*
X197704642Y-103559523D01*
X197609404Y-103464285D01*
X197514166Y-103273809D01*
X197514166Y-102702380D01*
X197609404Y-102511904D01*
X197704642Y-102416666D01*
X197895119Y-102321428D01*
X198276071Y-102321428D01*
X198466547Y-102416666D01*
X199323690Y-103654761D02*
X199323690Y-102321428D01*
X199323690Y-101654761D02*
X199228452Y-101750000D01*
X199323690Y-101845238D01*
X199418928Y-101750000D01*
X199323690Y-101654761D01*
X199323690Y-101845238D01*
X200561785Y-103654761D02*
X200371309Y-103559523D01*
X200276071Y-103369047D01*
X200276071Y-101654761D01*
X185323690Y-106804761D02*
X185323690Y-104804761D01*
X186466547Y-106804761D01*
X186466547Y-104804761D01*
X187799880Y-104804761D02*
X188180833Y-104804761D01*
X188371309Y-104900000D01*
X188561785Y-105090476D01*
X188657023Y-105471428D01*
X188657023Y-106138095D01*
X188561785Y-106519047D01*
X188371309Y-106709523D01*
X188180833Y-106804761D01*
X187799880Y-106804761D01*
X187609404Y-106709523D01*
X187418928Y-106519047D01*
X187323690Y-106138095D01*
X187323690Y-105471428D01*
X187418928Y-105090476D01*
X187609404Y-104900000D01*
X187799880Y-104804761D01*
X191037976Y-106804761D02*
X191037976Y-104804761D01*
X191514166Y-104804761D01*
X191799880Y-104900000D01*
X191990357Y-105090476D01*
X192085595Y-105280952D01*
X192180833Y-105661904D01*
X192180833Y-105947619D01*
X192085595Y-106328571D01*
X191990357Y-106519047D01*
X191799880Y-106709523D01*
X191514166Y-106804761D01*
X191037976Y-106804761D01*
X193037976Y-106804761D02*
X193037976Y-105471428D01*
X193037976Y-104804761D02*
X192942738Y-104900000D01*
X193037976Y-104995238D01*
X193133214Y-104900000D01*
X193037976Y-104804761D01*
X193037976Y-104995238D01*
X193704642Y-105471428D02*
X194466547Y-105471428D01*
X193990357Y-106804761D02*
X193990357Y-105090476D01*
X194085595Y-104900000D01*
X194276071Y-104804761D01*
X194466547Y-104804761D01*
X194847500Y-105471428D02*
X195609404Y-105471428D01*
X195133214Y-106804761D02*
X195133214Y-105090476D01*
X195228452Y-104900000D01*
X195418928Y-104804761D01*
X195609404Y-104804761D01*
X197037976Y-106709523D02*
X196847500Y-106804761D01*
X196466547Y-106804761D01*
X196276071Y-106709523D01*
X196180833Y-106519047D01*
X196180833Y-105757142D01*
X196276071Y-105566666D01*
X196466547Y-105471428D01*
X196847500Y-105471428D01*
X197037976Y-105566666D01*
X197133214Y-105757142D01*
X197133214Y-105947619D01*
X196180833Y-106138095D01*
X197990357Y-106804761D02*
X197990357Y-105471428D01*
X197990357Y-105852380D02*
X198085595Y-105661904D01*
X198180833Y-105566666D01*
X198371309Y-105471428D01*
X198561785Y-105471428D01*
X199990357Y-106709523D02*
X199799880Y-106804761D01*
X199418928Y-106804761D01*
X199228452Y-106709523D01*
X199133214Y-106519047D01*
X199133214Y-105757142D01*
X199228452Y-105566666D01*
X199418928Y-105471428D01*
X199799880Y-105471428D01*
X199990357Y-105566666D01*
X200085595Y-105757142D01*
X200085595Y-105947619D01*
X199133214Y-106138095D01*
X200942738Y-105471428D02*
X200942738Y-106804761D01*
X200942738Y-105661904D02*
X201037976Y-105566666D01*
X201228452Y-105471428D01*
X201514166Y-105471428D01*
X201704642Y-105566666D01*
X201799880Y-105757142D01*
X201799880Y-106804761D01*
X202466547Y-105471428D02*
X203228452Y-105471428D01*
X202752261Y-104804761D02*
X202752261Y-106519047D01*
X202847500Y-106709523D01*
X203037976Y-106804761D01*
X203228452Y-106804761D01*
X205418928Y-106804761D02*
X205418928Y-104804761D01*
X205895119Y-104804761D01*
X206180833Y-104900000D01*
X206371309Y-105090476D01*
X206466547Y-105280952D01*
X206561785Y-105661904D01*
X206561785Y-105947619D01*
X206466547Y-106328571D01*
X206371309Y-106519047D01*
X206180833Y-106709523D01*
X205895119Y-106804761D01*
X205418928Y-106804761D01*
X208180833Y-106709523D02*
X207990357Y-106804761D01*
X207609404Y-106804761D01*
X207418928Y-106709523D01*
X207323690Y-106519047D01*
X207323690Y-105757142D01*
X207418928Y-105566666D01*
X207609404Y-105471428D01*
X207990357Y-105471428D01*
X208180833Y-105566666D01*
X208276071Y-105757142D01*
X208276071Y-105947619D01*
X207323690Y-106138095D01*
X209037976Y-106709523D02*
X209228452Y-106804761D01*
X209609404Y-106804761D01*
X209799880Y-106709523D01*
X209895119Y-106519047D01*
X209895119Y-106423809D01*
X209799880Y-106233333D01*
X209609404Y-106138095D01*
X209323690Y-106138095D01*
X209133214Y-106042857D01*
X209037976Y-105852380D01*
X209037976Y-105757142D01*
X209133214Y-105566666D01*
X209323690Y-105471428D01*
X209609404Y-105471428D01*
X209799880Y-105566666D01*
X210752261Y-106804761D02*
X210752261Y-105471428D01*
X210752261Y-104804761D02*
X210657023Y-104900000D01*
X210752261Y-104995238D01*
X210847500Y-104900000D01*
X210752261Y-104804761D01*
X210752261Y-104995238D01*
X212561785Y-105471428D02*
X212561785Y-107090476D01*
X212466547Y-107280952D01*
X212371309Y-107376190D01*
X212180833Y-107471428D01*
X211895119Y-107471428D01*
X211704642Y-107376190D01*
X212561785Y-106709523D02*
X212371309Y-106804761D01*
X211990357Y-106804761D01*
X211799880Y-106709523D01*
X211704642Y-106614285D01*
X211609404Y-106423809D01*
X211609404Y-105852380D01*
X211704642Y-105661904D01*
X211799880Y-105566666D01*
X211990357Y-105471428D01*
X212371309Y-105471428D01*
X212561785Y-105566666D01*
X213514166Y-105471428D02*
X213514166Y-106804761D01*
X213514166Y-105661904D02*
X213609404Y-105566666D01*
X213799880Y-105471428D01*
X214085595Y-105471428D01*
X214276071Y-105566666D01*
X214371309Y-105757142D01*
X214371309Y-106804761D01*
X215228452Y-106709523D02*
X215418928Y-106804761D01*
X215799880Y-106804761D01*
X215990357Y-106709523D01*
X216085595Y-106519047D01*
X216085595Y-106423809D01*
X215990357Y-106233333D01*
X215799880Y-106138095D01*
X215514166Y-106138095D01*
X215323690Y-106042857D01*
X215228452Y-105852380D01*
X215228452Y-105757142D01*
X215323690Y-105566666D01*
X215514166Y-105471428D01*
X215799880Y-105471428D01*
X215990357Y-105566666D01*
X169450000Y-81500000D02*
G75*
G03X169450000Y-81500000I-3200000J0D01*
G01*
X76450000Y-69500000D02*
G75*
G03X76450000Y-69500000I-3200000J0D01*
G01*
X169450000Y-129000000D02*
G75*
G03X169450000Y-129000000I-3200000J0D01*
G01*
M02*
