G04 #@! TF.GenerationSoftware,KiCad,Pcbnew,(5.1.2)-1*
G04 #@! TF.CreationDate,2019-07-25T16:12:40-07:00*
G04 #@! TF.ProjectId,FIFO_P,4649464f-5f50-42e6-9b69-6361645f7063,rev?*
G04 #@! TF.SameCoordinates,Original*
G04 #@! TF.FileFunction,Copper,L4,Bot*
G04 #@! TF.FilePolarity,Positive*
%FSLAX46Y46*%
G04 Gerber Fmt 4.6, Leading zero omitted, Abs format (unit mm)*
G04 Created by KiCad (PCBNEW (5.1.2)-1) date 2019-07-25 16:12:40*
%MOMM*%
%LPD*%
G04 APERTURE LIST*
%ADD10C,2.000000*%
%ADD11O,1.000000X1.000000*%
%ADD12R,1.000000X1.000000*%
%ADD13C,0.100000*%
%ADD14C,1.150000*%
%ADD15R,1.560000X0.650000*%
%ADD16O,1.700000X1.700000*%
%ADD17R,1.700000X1.700000*%
%ADD18C,1.399924*%
%ADD19C,0.800000*%
%ADD20C,6.400000*%
%ADD21O,1.727200X1.727200*%
%ADD22R,0.800000X1.900000*%
%ADD23C,0.600000*%
%ADD24C,3.810000*%
%ADD25C,3.556000*%
%ADD26C,1.440000*%
%ADD27O,2.000000X1.905000*%
%ADD28R,2.000000X1.905000*%
%ADD29C,3.500000*%
%ADD30C,3.000000*%
%ADD31R,3.500000X3.500000*%
%ADD32C,2.600000*%
%ADD33R,2.600000X2.600000*%
%ADD34R,1.060000X0.650000*%
%ADD35R,0.450000X1.750000*%
%ADD36C,1.800000*%
%ADD37R,1.800000X1.800000*%
%ADD38C,0.650000*%
%ADD39C,1.000000*%
%ADD40C,0.500000*%
%ADD41C,0.250000*%
%ADD42C,0.293370*%
%ADD43C,1.000000*%
%ADD44C,0.750000*%
G04 APERTURE END LIST*
D10*
X82000000Y-69500000D02*
G75*
G03X82000000Y-69500000I-1000000J0D01*
G01*
D11*
X154380000Y-73670000D03*
X155650000Y-73670000D03*
X154380000Y-72400000D03*
X155650000Y-72400000D03*
X154380000Y-71130000D03*
X155650000Y-71130000D03*
X154380000Y-69860000D03*
D12*
X155650000Y-69860000D03*
D13*
G36*
X132724505Y-78901204D02*
G01*
X132748773Y-78904804D01*
X132772572Y-78910765D01*
X132795671Y-78919030D01*
X132817850Y-78929520D01*
X132838893Y-78942132D01*
X132858599Y-78956747D01*
X132876777Y-78973223D01*
X132893253Y-78991401D01*
X132907868Y-79011107D01*
X132920480Y-79032150D01*
X132930970Y-79054329D01*
X132939235Y-79077428D01*
X132945196Y-79101227D01*
X132948796Y-79125495D01*
X132950000Y-79149999D01*
X132950000Y-79800001D01*
X132948796Y-79824505D01*
X132945196Y-79848773D01*
X132939235Y-79872572D01*
X132930970Y-79895671D01*
X132920480Y-79917850D01*
X132907868Y-79938893D01*
X132893253Y-79958599D01*
X132876777Y-79976777D01*
X132858599Y-79993253D01*
X132838893Y-80007868D01*
X132817850Y-80020480D01*
X132795671Y-80030970D01*
X132772572Y-80039235D01*
X132748773Y-80045196D01*
X132724505Y-80048796D01*
X132700001Y-80050000D01*
X131799999Y-80050000D01*
X131775495Y-80048796D01*
X131751227Y-80045196D01*
X131727428Y-80039235D01*
X131704329Y-80030970D01*
X131682150Y-80020480D01*
X131661107Y-80007868D01*
X131641401Y-79993253D01*
X131623223Y-79976777D01*
X131606747Y-79958599D01*
X131592132Y-79938893D01*
X131579520Y-79917850D01*
X131569030Y-79895671D01*
X131560765Y-79872572D01*
X131554804Y-79848773D01*
X131551204Y-79824505D01*
X131550000Y-79800001D01*
X131550000Y-79149999D01*
X131551204Y-79125495D01*
X131554804Y-79101227D01*
X131560765Y-79077428D01*
X131569030Y-79054329D01*
X131579520Y-79032150D01*
X131592132Y-79011107D01*
X131606747Y-78991401D01*
X131623223Y-78973223D01*
X131641401Y-78956747D01*
X131661107Y-78942132D01*
X131682150Y-78929520D01*
X131704329Y-78919030D01*
X131727428Y-78910765D01*
X131751227Y-78904804D01*
X131775495Y-78901204D01*
X131799999Y-78900000D01*
X132700001Y-78900000D01*
X132724505Y-78901204D01*
X132724505Y-78901204D01*
G37*
D14*
X132250000Y-79475000D03*
D13*
G36*
X132724505Y-80951204D02*
G01*
X132748773Y-80954804D01*
X132772572Y-80960765D01*
X132795671Y-80969030D01*
X132817850Y-80979520D01*
X132838893Y-80992132D01*
X132858599Y-81006747D01*
X132876777Y-81023223D01*
X132893253Y-81041401D01*
X132907868Y-81061107D01*
X132920480Y-81082150D01*
X132930970Y-81104329D01*
X132939235Y-81127428D01*
X132945196Y-81151227D01*
X132948796Y-81175495D01*
X132950000Y-81199999D01*
X132950000Y-81850001D01*
X132948796Y-81874505D01*
X132945196Y-81898773D01*
X132939235Y-81922572D01*
X132930970Y-81945671D01*
X132920480Y-81967850D01*
X132907868Y-81988893D01*
X132893253Y-82008599D01*
X132876777Y-82026777D01*
X132858599Y-82043253D01*
X132838893Y-82057868D01*
X132817850Y-82070480D01*
X132795671Y-82080970D01*
X132772572Y-82089235D01*
X132748773Y-82095196D01*
X132724505Y-82098796D01*
X132700001Y-82100000D01*
X131799999Y-82100000D01*
X131775495Y-82098796D01*
X131751227Y-82095196D01*
X131727428Y-82089235D01*
X131704329Y-82080970D01*
X131682150Y-82070480D01*
X131661107Y-82057868D01*
X131641401Y-82043253D01*
X131623223Y-82026777D01*
X131606747Y-82008599D01*
X131592132Y-81988893D01*
X131579520Y-81967850D01*
X131569030Y-81945671D01*
X131560765Y-81922572D01*
X131554804Y-81898773D01*
X131551204Y-81874505D01*
X131550000Y-81850001D01*
X131550000Y-81199999D01*
X131551204Y-81175495D01*
X131554804Y-81151227D01*
X131560765Y-81127428D01*
X131569030Y-81104329D01*
X131579520Y-81082150D01*
X131592132Y-81061107D01*
X131606747Y-81041401D01*
X131623223Y-81023223D01*
X131641401Y-81006747D01*
X131661107Y-80992132D01*
X131682150Y-80979520D01*
X131704329Y-80969030D01*
X131727428Y-80960765D01*
X131751227Y-80954804D01*
X131775495Y-80951204D01*
X131799999Y-80950000D01*
X132700001Y-80950000D01*
X132724505Y-80951204D01*
X132724505Y-80951204D01*
G37*
D14*
X132250000Y-81525000D03*
D13*
G36*
X141724505Y-94651204D02*
G01*
X141748773Y-94654804D01*
X141772572Y-94660765D01*
X141795671Y-94669030D01*
X141817850Y-94679520D01*
X141838893Y-94692132D01*
X141858599Y-94706747D01*
X141876777Y-94723223D01*
X141893253Y-94741401D01*
X141907868Y-94761107D01*
X141920480Y-94782150D01*
X141930970Y-94804329D01*
X141939235Y-94827428D01*
X141945196Y-94851227D01*
X141948796Y-94875495D01*
X141950000Y-94899999D01*
X141950000Y-95550001D01*
X141948796Y-95574505D01*
X141945196Y-95598773D01*
X141939235Y-95622572D01*
X141930970Y-95645671D01*
X141920480Y-95667850D01*
X141907868Y-95688893D01*
X141893253Y-95708599D01*
X141876777Y-95726777D01*
X141858599Y-95743253D01*
X141838893Y-95757868D01*
X141817850Y-95770480D01*
X141795671Y-95780970D01*
X141772572Y-95789235D01*
X141748773Y-95795196D01*
X141724505Y-95798796D01*
X141700001Y-95800000D01*
X140799999Y-95800000D01*
X140775495Y-95798796D01*
X140751227Y-95795196D01*
X140727428Y-95789235D01*
X140704329Y-95780970D01*
X140682150Y-95770480D01*
X140661107Y-95757868D01*
X140641401Y-95743253D01*
X140623223Y-95726777D01*
X140606747Y-95708599D01*
X140592132Y-95688893D01*
X140579520Y-95667850D01*
X140569030Y-95645671D01*
X140560765Y-95622572D01*
X140554804Y-95598773D01*
X140551204Y-95574505D01*
X140550000Y-95550001D01*
X140550000Y-94899999D01*
X140551204Y-94875495D01*
X140554804Y-94851227D01*
X140560765Y-94827428D01*
X140569030Y-94804329D01*
X140579520Y-94782150D01*
X140592132Y-94761107D01*
X140606747Y-94741401D01*
X140623223Y-94723223D01*
X140641401Y-94706747D01*
X140661107Y-94692132D01*
X140682150Y-94679520D01*
X140704329Y-94669030D01*
X140727428Y-94660765D01*
X140751227Y-94654804D01*
X140775495Y-94651204D01*
X140799999Y-94650000D01*
X141700001Y-94650000D01*
X141724505Y-94651204D01*
X141724505Y-94651204D01*
G37*
D14*
X141250000Y-95225000D03*
D13*
G36*
X141724505Y-96701204D02*
G01*
X141748773Y-96704804D01*
X141772572Y-96710765D01*
X141795671Y-96719030D01*
X141817850Y-96729520D01*
X141838893Y-96742132D01*
X141858599Y-96756747D01*
X141876777Y-96773223D01*
X141893253Y-96791401D01*
X141907868Y-96811107D01*
X141920480Y-96832150D01*
X141930970Y-96854329D01*
X141939235Y-96877428D01*
X141945196Y-96901227D01*
X141948796Y-96925495D01*
X141950000Y-96949999D01*
X141950000Y-97600001D01*
X141948796Y-97624505D01*
X141945196Y-97648773D01*
X141939235Y-97672572D01*
X141930970Y-97695671D01*
X141920480Y-97717850D01*
X141907868Y-97738893D01*
X141893253Y-97758599D01*
X141876777Y-97776777D01*
X141858599Y-97793253D01*
X141838893Y-97807868D01*
X141817850Y-97820480D01*
X141795671Y-97830970D01*
X141772572Y-97839235D01*
X141748773Y-97845196D01*
X141724505Y-97848796D01*
X141700001Y-97850000D01*
X140799999Y-97850000D01*
X140775495Y-97848796D01*
X140751227Y-97845196D01*
X140727428Y-97839235D01*
X140704329Y-97830970D01*
X140682150Y-97820480D01*
X140661107Y-97807868D01*
X140641401Y-97793253D01*
X140623223Y-97776777D01*
X140606747Y-97758599D01*
X140592132Y-97738893D01*
X140579520Y-97717850D01*
X140569030Y-97695671D01*
X140560765Y-97672572D01*
X140554804Y-97648773D01*
X140551204Y-97624505D01*
X140550000Y-97600001D01*
X140550000Y-96949999D01*
X140551204Y-96925495D01*
X140554804Y-96901227D01*
X140560765Y-96877428D01*
X140569030Y-96854329D01*
X140579520Y-96832150D01*
X140592132Y-96811107D01*
X140606747Y-96791401D01*
X140623223Y-96773223D01*
X140641401Y-96756747D01*
X140661107Y-96742132D01*
X140682150Y-96729520D01*
X140704329Y-96719030D01*
X140727428Y-96710765D01*
X140751227Y-96704804D01*
X140775495Y-96701204D01*
X140799999Y-96700000D01*
X141700001Y-96700000D01*
X141724505Y-96701204D01*
X141724505Y-96701204D01*
G37*
D14*
X141250000Y-97275000D03*
D15*
X147500000Y-106850000D03*
X147500000Y-108750000D03*
X150200000Y-108750000D03*
X150200000Y-107800000D03*
X150200000Y-106850000D03*
D16*
X144000000Y-115050000D03*
X144000000Y-117590000D03*
X144000000Y-120130000D03*
X144000000Y-122670000D03*
X144000000Y-125210000D03*
D17*
X144000000Y-127750000D03*
D18*
X84035644Y-101250000D03*
X86142822Y-103357178D03*
X86142822Y-99142822D03*
X88250000Y-101250000D03*
D19*
X167947056Y-79802944D03*
X166250000Y-79100000D03*
X164552944Y-79802944D03*
X163850000Y-81500000D03*
X164552944Y-83197056D03*
X166250000Y-83900000D03*
X167947056Y-83197056D03*
X168650000Y-81500000D03*
D20*
X166250000Y-81500000D03*
D19*
X74947056Y-67802944D03*
X73250000Y-67100000D03*
X71552944Y-67802944D03*
X70850000Y-69500000D03*
X71552944Y-71197056D03*
X73250000Y-71900000D03*
X74947056Y-71197056D03*
X75650000Y-69500000D03*
D20*
X73250000Y-69500000D03*
D19*
X167947056Y-127302944D03*
X166250000Y-126600000D03*
X164552944Y-127302944D03*
X163850000Y-129000000D03*
X164552944Y-130697056D03*
X166250000Y-131400000D03*
X167947056Y-130697056D03*
X168650000Y-129000000D03*
D20*
X166250000Y-129000000D03*
D21*
X105492400Y-129082180D03*
X156292400Y-124002180D03*
X153752400Y-124002180D03*
X156292400Y-121462180D03*
X153752400Y-121462180D03*
X156292400Y-118922180D03*
X153752400Y-118922180D03*
X156292400Y-116382180D03*
X153752400Y-116382180D03*
X156292400Y-113842180D03*
X153752400Y-113842180D03*
X156292400Y-111302180D03*
X153752400Y-111302180D03*
X156292400Y-108762180D03*
X153752400Y-108762180D03*
X156292400Y-106222180D03*
X153752400Y-106222180D03*
X156292400Y-103682180D03*
X153752400Y-103682180D03*
X156292400Y-101142180D03*
X153752400Y-101142180D03*
X156292400Y-98602180D03*
X153752400Y-98602180D03*
X156292400Y-96062180D03*
X153752400Y-96062180D03*
X156292400Y-93522180D03*
X153752400Y-93522180D03*
X156292400Y-90982180D03*
X153752400Y-90982180D03*
X156292400Y-88442180D03*
X153752400Y-88442180D03*
X156292400Y-85902180D03*
X153752400Y-85902180D03*
X156292400Y-83362180D03*
X153752400Y-83362180D03*
X156292400Y-80822180D03*
X153752400Y-80822180D03*
X146132400Y-129082180D03*
X148672400Y-129082180D03*
X113112400Y-129082180D03*
X81108400Y-80822180D03*
X78568400Y-80822180D03*
X97872400Y-129082180D03*
X100412400Y-129082180D03*
X102952400Y-129082180D03*
X110572400Y-129082180D03*
X115652400Y-129082180D03*
X92792400Y-129082180D03*
X95332400Y-129082180D03*
D13*
G36*
X149574505Y-116126204D02*
G01*
X149598773Y-116129804D01*
X149622572Y-116135765D01*
X149645671Y-116144030D01*
X149667850Y-116154520D01*
X149688893Y-116167132D01*
X149708599Y-116181747D01*
X149726777Y-116198223D01*
X149743253Y-116216401D01*
X149757868Y-116236107D01*
X149770480Y-116257150D01*
X149780970Y-116279329D01*
X149789235Y-116302428D01*
X149795196Y-116326227D01*
X149798796Y-116350495D01*
X149800000Y-116374999D01*
X149800000Y-117025001D01*
X149798796Y-117049505D01*
X149795196Y-117073773D01*
X149789235Y-117097572D01*
X149780970Y-117120671D01*
X149770480Y-117142850D01*
X149757868Y-117163893D01*
X149743253Y-117183599D01*
X149726777Y-117201777D01*
X149708599Y-117218253D01*
X149688893Y-117232868D01*
X149667850Y-117245480D01*
X149645671Y-117255970D01*
X149622572Y-117264235D01*
X149598773Y-117270196D01*
X149574505Y-117273796D01*
X149550001Y-117275000D01*
X148649999Y-117275000D01*
X148625495Y-117273796D01*
X148601227Y-117270196D01*
X148577428Y-117264235D01*
X148554329Y-117255970D01*
X148532150Y-117245480D01*
X148511107Y-117232868D01*
X148491401Y-117218253D01*
X148473223Y-117201777D01*
X148456747Y-117183599D01*
X148442132Y-117163893D01*
X148429520Y-117142850D01*
X148419030Y-117120671D01*
X148410765Y-117097572D01*
X148404804Y-117073773D01*
X148401204Y-117049505D01*
X148400000Y-117025001D01*
X148400000Y-116374999D01*
X148401204Y-116350495D01*
X148404804Y-116326227D01*
X148410765Y-116302428D01*
X148419030Y-116279329D01*
X148429520Y-116257150D01*
X148442132Y-116236107D01*
X148456747Y-116216401D01*
X148473223Y-116198223D01*
X148491401Y-116181747D01*
X148511107Y-116167132D01*
X148532150Y-116154520D01*
X148554329Y-116144030D01*
X148577428Y-116135765D01*
X148601227Y-116129804D01*
X148625495Y-116126204D01*
X148649999Y-116125000D01*
X149550001Y-116125000D01*
X149574505Y-116126204D01*
X149574505Y-116126204D01*
G37*
D14*
X149100000Y-116700000D03*
D13*
G36*
X149574505Y-114076204D02*
G01*
X149598773Y-114079804D01*
X149622572Y-114085765D01*
X149645671Y-114094030D01*
X149667850Y-114104520D01*
X149688893Y-114117132D01*
X149708599Y-114131747D01*
X149726777Y-114148223D01*
X149743253Y-114166401D01*
X149757868Y-114186107D01*
X149770480Y-114207150D01*
X149780970Y-114229329D01*
X149789235Y-114252428D01*
X149795196Y-114276227D01*
X149798796Y-114300495D01*
X149800000Y-114324999D01*
X149800000Y-114975001D01*
X149798796Y-114999505D01*
X149795196Y-115023773D01*
X149789235Y-115047572D01*
X149780970Y-115070671D01*
X149770480Y-115092850D01*
X149757868Y-115113893D01*
X149743253Y-115133599D01*
X149726777Y-115151777D01*
X149708599Y-115168253D01*
X149688893Y-115182868D01*
X149667850Y-115195480D01*
X149645671Y-115205970D01*
X149622572Y-115214235D01*
X149598773Y-115220196D01*
X149574505Y-115223796D01*
X149550001Y-115225000D01*
X148649999Y-115225000D01*
X148625495Y-115223796D01*
X148601227Y-115220196D01*
X148577428Y-115214235D01*
X148554329Y-115205970D01*
X148532150Y-115195480D01*
X148511107Y-115182868D01*
X148491401Y-115168253D01*
X148473223Y-115151777D01*
X148456747Y-115133599D01*
X148442132Y-115113893D01*
X148429520Y-115092850D01*
X148419030Y-115070671D01*
X148410765Y-115047572D01*
X148404804Y-115023773D01*
X148401204Y-114999505D01*
X148400000Y-114975001D01*
X148400000Y-114324999D01*
X148401204Y-114300495D01*
X148404804Y-114276227D01*
X148410765Y-114252428D01*
X148419030Y-114229329D01*
X148429520Y-114207150D01*
X148442132Y-114186107D01*
X148456747Y-114166401D01*
X148473223Y-114148223D01*
X148491401Y-114131747D01*
X148511107Y-114117132D01*
X148532150Y-114104520D01*
X148554329Y-114094030D01*
X148577428Y-114085765D01*
X148601227Y-114079804D01*
X148625495Y-114076204D01*
X148649999Y-114075000D01*
X149550001Y-114075000D01*
X149574505Y-114076204D01*
X149574505Y-114076204D01*
G37*
D14*
X149100000Y-114650000D03*
D16*
X92800000Y-125750000D03*
X95340000Y-125750000D03*
X97880000Y-125750000D03*
X100420000Y-125750000D03*
X102960000Y-125750000D03*
D17*
X105500000Y-125750000D03*
D13*
G36*
X147224505Y-123976204D02*
G01*
X147248773Y-123979804D01*
X147272572Y-123985765D01*
X147295671Y-123994030D01*
X147317850Y-124004520D01*
X147338893Y-124017132D01*
X147358599Y-124031747D01*
X147376777Y-124048223D01*
X147393253Y-124066401D01*
X147407868Y-124086107D01*
X147420480Y-124107150D01*
X147430970Y-124129329D01*
X147439235Y-124152428D01*
X147445196Y-124176227D01*
X147448796Y-124200495D01*
X147450000Y-124224999D01*
X147450000Y-124875001D01*
X147448796Y-124899505D01*
X147445196Y-124923773D01*
X147439235Y-124947572D01*
X147430970Y-124970671D01*
X147420480Y-124992850D01*
X147407868Y-125013893D01*
X147393253Y-125033599D01*
X147376777Y-125051777D01*
X147358599Y-125068253D01*
X147338893Y-125082868D01*
X147317850Y-125095480D01*
X147295671Y-125105970D01*
X147272572Y-125114235D01*
X147248773Y-125120196D01*
X147224505Y-125123796D01*
X147200001Y-125125000D01*
X146299999Y-125125000D01*
X146275495Y-125123796D01*
X146251227Y-125120196D01*
X146227428Y-125114235D01*
X146204329Y-125105970D01*
X146182150Y-125095480D01*
X146161107Y-125082868D01*
X146141401Y-125068253D01*
X146123223Y-125051777D01*
X146106747Y-125033599D01*
X146092132Y-125013893D01*
X146079520Y-124992850D01*
X146069030Y-124970671D01*
X146060765Y-124947572D01*
X146054804Y-124923773D01*
X146051204Y-124899505D01*
X146050000Y-124875001D01*
X146050000Y-124224999D01*
X146051204Y-124200495D01*
X146054804Y-124176227D01*
X146060765Y-124152428D01*
X146069030Y-124129329D01*
X146079520Y-124107150D01*
X146092132Y-124086107D01*
X146106747Y-124066401D01*
X146123223Y-124048223D01*
X146141401Y-124031747D01*
X146161107Y-124017132D01*
X146182150Y-124004520D01*
X146204329Y-123994030D01*
X146227428Y-123985765D01*
X146251227Y-123979804D01*
X146275495Y-123976204D01*
X146299999Y-123975000D01*
X147200001Y-123975000D01*
X147224505Y-123976204D01*
X147224505Y-123976204D01*
G37*
D14*
X146750000Y-124550000D03*
D13*
G36*
X147224505Y-121926204D02*
G01*
X147248773Y-121929804D01*
X147272572Y-121935765D01*
X147295671Y-121944030D01*
X147317850Y-121954520D01*
X147338893Y-121967132D01*
X147358599Y-121981747D01*
X147376777Y-121998223D01*
X147393253Y-122016401D01*
X147407868Y-122036107D01*
X147420480Y-122057150D01*
X147430970Y-122079329D01*
X147439235Y-122102428D01*
X147445196Y-122126227D01*
X147448796Y-122150495D01*
X147450000Y-122174999D01*
X147450000Y-122825001D01*
X147448796Y-122849505D01*
X147445196Y-122873773D01*
X147439235Y-122897572D01*
X147430970Y-122920671D01*
X147420480Y-122942850D01*
X147407868Y-122963893D01*
X147393253Y-122983599D01*
X147376777Y-123001777D01*
X147358599Y-123018253D01*
X147338893Y-123032868D01*
X147317850Y-123045480D01*
X147295671Y-123055970D01*
X147272572Y-123064235D01*
X147248773Y-123070196D01*
X147224505Y-123073796D01*
X147200001Y-123075000D01*
X146299999Y-123075000D01*
X146275495Y-123073796D01*
X146251227Y-123070196D01*
X146227428Y-123064235D01*
X146204329Y-123055970D01*
X146182150Y-123045480D01*
X146161107Y-123032868D01*
X146141401Y-123018253D01*
X146123223Y-123001777D01*
X146106747Y-122983599D01*
X146092132Y-122963893D01*
X146079520Y-122942850D01*
X146069030Y-122920671D01*
X146060765Y-122897572D01*
X146054804Y-122873773D01*
X146051204Y-122849505D01*
X146050000Y-122825001D01*
X146050000Y-122174999D01*
X146051204Y-122150495D01*
X146054804Y-122126227D01*
X146060765Y-122102428D01*
X146069030Y-122079329D01*
X146079520Y-122057150D01*
X146092132Y-122036107D01*
X146106747Y-122016401D01*
X146123223Y-121998223D01*
X146141401Y-121981747D01*
X146161107Y-121967132D01*
X146182150Y-121954520D01*
X146204329Y-121944030D01*
X146227428Y-121935765D01*
X146251227Y-121929804D01*
X146275495Y-121926204D01*
X146299999Y-121925000D01*
X147200001Y-121925000D01*
X147224505Y-121926204D01*
X147224505Y-121926204D01*
G37*
D14*
X146750000Y-122500000D03*
D13*
G36*
X147224505Y-117076204D02*
G01*
X147248773Y-117079804D01*
X147272572Y-117085765D01*
X147295671Y-117094030D01*
X147317850Y-117104520D01*
X147338893Y-117117132D01*
X147358599Y-117131747D01*
X147376777Y-117148223D01*
X147393253Y-117166401D01*
X147407868Y-117186107D01*
X147420480Y-117207150D01*
X147430970Y-117229329D01*
X147439235Y-117252428D01*
X147445196Y-117276227D01*
X147448796Y-117300495D01*
X147450000Y-117324999D01*
X147450000Y-117975001D01*
X147448796Y-117999505D01*
X147445196Y-118023773D01*
X147439235Y-118047572D01*
X147430970Y-118070671D01*
X147420480Y-118092850D01*
X147407868Y-118113893D01*
X147393253Y-118133599D01*
X147376777Y-118151777D01*
X147358599Y-118168253D01*
X147338893Y-118182868D01*
X147317850Y-118195480D01*
X147295671Y-118205970D01*
X147272572Y-118214235D01*
X147248773Y-118220196D01*
X147224505Y-118223796D01*
X147200001Y-118225000D01*
X146299999Y-118225000D01*
X146275495Y-118223796D01*
X146251227Y-118220196D01*
X146227428Y-118214235D01*
X146204329Y-118205970D01*
X146182150Y-118195480D01*
X146161107Y-118182868D01*
X146141401Y-118168253D01*
X146123223Y-118151777D01*
X146106747Y-118133599D01*
X146092132Y-118113893D01*
X146079520Y-118092850D01*
X146069030Y-118070671D01*
X146060765Y-118047572D01*
X146054804Y-118023773D01*
X146051204Y-117999505D01*
X146050000Y-117975001D01*
X146050000Y-117324999D01*
X146051204Y-117300495D01*
X146054804Y-117276227D01*
X146060765Y-117252428D01*
X146069030Y-117229329D01*
X146079520Y-117207150D01*
X146092132Y-117186107D01*
X146106747Y-117166401D01*
X146123223Y-117148223D01*
X146141401Y-117131747D01*
X146161107Y-117117132D01*
X146182150Y-117104520D01*
X146204329Y-117094030D01*
X146227428Y-117085765D01*
X146251227Y-117079804D01*
X146275495Y-117076204D01*
X146299999Y-117075000D01*
X147200001Y-117075000D01*
X147224505Y-117076204D01*
X147224505Y-117076204D01*
G37*
D14*
X146750000Y-117650000D03*
D13*
G36*
X147224505Y-115026204D02*
G01*
X147248773Y-115029804D01*
X147272572Y-115035765D01*
X147295671Y-115044030D01*
X147317850Y-115054520D01*
X147338893Y-115067132D01*
X147358599Y-115081747D01*
X147376777Y-115098223D01*
X147393253Y-115116401D01*
X147407868Y-115136107D01*
X147420480Y-115157150D01*
X147430970Y-115179329D01*
X147439235Y-115202428D01*
X147445196Y-115226227D01*
X147448796Y-115250495D01*
X147450000Y-115274999D01*
X147450000Y-115925001D01*
X147448796Y-115949505D01*
X147445196Y-115973773D01*
X147439235Y-115997572D01*
X147430970Y-116020671D01*
X147420480Y-116042850D01*
X147407868Y-116063893D01*
X147393253Y-116083599D01*
X147376777Y-116101777D01*
X147358599Y-116118253D01*
X147338893Y-116132868D01*
X147317850Y-116145480D01*
X147295671Y-116155970D01*
X147272572Y-116164235D01*
X147248773Y-116170196D01*
X147224505Y-116173796D01*
X147200001Y-116175000D01*
X146299999Y-116175000D01*
X146275495Y-116173796D01*
X146251227Y-116170196D01*
X146227428Y-116164235D01*
X146204329Y-116155970D01*
X146182150Y-116145480D01*
X146161107Y-116132868D01*
X146141401Y-116118253D01*
X146123223Y-116101777D01*
X146106747Y-116083599D01*
X146092132Y-116063893D01*
X146079520Y-116042850D01*
X146069030Y-116020671D01*
X146060765Y-115997572D01*
X146054804Y-115973773D01*
X146051204Y-115949505D01*
X146050000Y-115925001D01*
X146050000Y-115274999D01*
X146051204Y-115250495D01*
X146054804Y-115226227D01*
X146060765Y-115202428D01*
X146069030Y-115179329D01*
X146079520Y-115157150D01*
X146092132Y-115136107D01*
X146106747Y-115116401D01*
X146123223Y-115098223D01*
X146141401Y-115081747D01*
X146161107Y-115067132D01*
X146182150Y-115054520D01*
X146204329Y-115044030D01*
X146227428Y-115035765D01*
X146251227Y-115029804D01*
X146275495Y-115026204D01*
X146299999Y-115025000D01*
X147200001Y-115025000D01*
X147224505Y-115026204D01*
X147224505Y-115026204D01*
G37*
D14*
X146750000Y-115600000D03*
D13*
G36*
X138899505Y-72801204D02*
G01*
X138923773Y-72804804D01*
X138947572Y-72810765D01*
X138970671Y-72819030D01*
X138992850Y-72829520D01*
X139013893Y-72842132D01*
X139033599Y-72856747D01*
X139051777Y-72873223D01*
X139068253Y-72891401D01*
X139082868Y-72911107D01*
X139095480Y-72932150D01*
X139105970Y-72954329D01*
X139114235Y-72977428D01*
X139120196Y-73001227D01*
X139123796Y-73025495D01*
X139125000Y-73049999D01*
X139125000Y-73950001D01*
X139123796Y-73974505D01*
X139120196Y-73998773D01*
X139114235Y-74022572D01*
X139105970Y-74045671D01*
X139095480Y-74067850D01*
X139082868Y-74088893D01*
X139068253Y-74108599D01*
X139051777Y-74126777D01*
X139033599Y-74143253D01*
X139013893Y-74157868D01*
X138992850Y-74170480D01*
X138970671Y-74180970D01*
X138947572Y-74189235D01*
X138923773Y-74195196D01*
X138899505Y-74198796D01*
X138875001Y-74200000D01*
X138224999Y-74200000D01*
X138200495Y-74198796D01*
X138176227Y-74195196D01*
X138152428Y-74189235D01*
X138129329Y-74180970D01*
X138107150Y-74170480D01*
X138086107Y-74157868D01*
X138066401Y-74143253D01*
X138048223Y-74126777D01*
X138031747Y-74108599D01*
X138017132Y-74088893D01*
X138004520Y-74067850D01*
X137994030Y-74045671D01*
X137985765Y-74022572D01*
X137979804Y-73998773D01*
X137976204Y-73974505D01*
X137975000Y-73950001D01*
X137975000Y-73049999D01*
X137976204Y-73025495D01*
X137979804Y-73001227D01*
X137985765Y-72977428D01*
X137994030Y-72954329D01*
X138004520Y-72932150D01*
X138017132Y-72911107D01*
X138031747Y-72891401D01*
X138048223Y-72873223D01*
X138066401Y-72856747D01*
X138086107Y-72842132D01*
X138107150Y-72829520D01*
X138129329Y-72819030D01*
X138152428Y-72810765D01*
X138176227Y-72804804D01*
X138200495Y-72801204D01*
X138224999Y-72800000D01*
X138875001Y-72800000D01*
X138899505Y-72801204D01*
X138899505Y-72801204D01*
G37*
D14*
X138550000Y-73500000D03*
D13*
G36*
X136849505Y-72801204D02*
G01*
X136873773Y-72804804D01*
X136897572Y-72810765D01*
X136920671Y-72819030D01*
X136942850Y-72829520D01*
X136963893Y-72842132D01*
X136983599Y-72856747D01*
X137001777Y-72873223D01*
X137018253Y-72891401D01*
X137032868Y-72911107D01*
X137045480Y-72932150D01*
X137055970Y-72954329D01*
X137064235Y-72977428D01*
X137070196Y-73001227D01*
X137073796Y-73025495D01*
X137075000Y-73049999D01*
X137075000Y-73950001D01*
X137073796Y-73974505D01*
X137070196Y-73998773D01*
X137064235Y-74022572D01*
X137055970Y-74045671D01*
X137045480Y-74067850D01*
X137032868Y-74088893D01*
X137018253Y-74108599D01*
X137001777Y-74126777D01*
X136983599Y-74143253D01*
X136963893Y-74157868D01*
X136942850Y-74170480D01*
X136920671Y-74180970D01*
X136897572Y-74189235D01*
X136873773Y-74195196D01*
X136849505Y-74198796D01*
X136825001Y-74200000D01*
X136174999Y-74200000D01*
X136150495Y-74198796D01*
X136126227Y-74195196D01*
X136102428Y-74189235D01*
X136079329Y-74180970D01*
X136057150Y-74170480D01*
X136036107Y-74157868D01*
X136016401Y-74143253D01*
X135998223Y-74126777D01*
X135981747Y-74108599D01*
X135967132Y-74088893D01*
X135954520Y-74067850D01*
X135944030Y-74045671D01*
X135935765Y-74022572D01*
X135929804Y-73998773D01*
X135926204Y-73974505D01*
X135925000Y-73950001D01*
X135925000Y-73049999D01*
X135926204Y-73025495D01*
X135929804Y-73001227D01*
X135935765Y-72977428D01*
X135944030Y-72954329D01*
X135954520Y-72932150D01*
X135967132Y-72911107D01*
X135981747Y-72891401D01*
X135998223Y-72873223D01*
X136016401Y-72856747D01*
X136036107Y-72842132D01*
X136057150Y-72829520D01*
X136079329Y-72819030D01*
X136102428Y-72810765D01*
X136126227Y-72804804D01*
X136150495Y-72801204D01*
X136174999Y-72800000D01*
X136825001Y-72800000D01*
X136849505Y-72801204D01*
X136849505Y-72801204D01*
G37*
D14*
X136500000Y-73500000D03*
D13*
G36*
X136849505Y-75301204D02*
G01*
X136873773Y-75304804D01*
X136897572Y-75310765D01*
X136920671Y-75319030D01*
X136942850Y-75329520D01*
X136963893Y-75342132D01*
X136983599Y-75356747D01*
X137001777Y-75373223D01*
X137018253Y-75391401D01*
X137032868Y-75411107D01*
X137045480Y-75432150D01*
X137055970Y-75454329D01*
X137064235Y-75477428D01*
X137070196Y-75501227D01*
X137073796Y-75525495D01*
X137075000Y-75549999D01*
X137075000Y-76450001D01*
X137073796Y-76474505D01*
X137070196Y-76498773D01*
X137064235Y-76522572D01*
X137055970Y-76545671D01*
X137045480Y-76567850D01*
X137032868Y-76588893D01*
X137018253Y-76608599D01*
X137001777Y-76626777D01*
X136983599Y-76643253D01*
X136963893Y-76657868D01*
X136942850Y-76670480D01*
X136920671Y-76680970D01*
X136897572Y-76689235D01*
X136873773Y-76695196D01*
X136849505Y-76698796D01*
X136825001Y-76700000D01*
X136174999Y-76700000D01*
X136150495Y-76698796D01*
X136126227Y-76695196D01*
X136102428Y-76689235D01*
X136079329Y-76680970D01*
X136057150Y-76670480D01*
X136036107Y-76657868D01*
X136016401Y-76643253D01*
X135998223Y-76626777D01*
X135981747Y-76608599D01*
X135967132Y-76588893D01*
X135954520Y-76567850D01*
X135944030Y-76545671D01*
X135935765Y-76522572D01*
X135929804Y-76498773D01*
X135926204Y-76474505D01*
X135925000Y-76450001D01*
X135925000Y-75549999D01*
X135926204Y-75525495D01*
X135929804Y-75501227D01*
X135935765Y-75477428D01*
X135944030Y-75454329D01*
X135954520Y-75432150D01*
X135967132Y-75411107D01*
X135981747Y-75391401D01*
X135998223Y-75373223D01*
X136016401Y-75356747D01*
X136036107Y-75342132D01*
X136057150Y-75329520D01*
X136079329Y-75319030D01*
X136102428Y-75310765D01*
X136126227Y-75304804D01*
X136150495Y-75301204D01*
X136174999Y-75300000D01*
X136825001Y-75300000D01*
X136849505Y-75301204D01*
X136849505Y-75301204D01*
G37*
D14*
X136500000Y-76000000D03*
D13*
G36*
X134799505Y-75301204D02*
G01*
X134823773Y-75304804D01*
X134847572Y-75310765D01*
X134870671Y-75319030D01*
X134892850Y-75329520D01*
X134913893Y-75342132D01*
X134933599Y-75356747D01*
X134951777Y-75373223D01*
X134968253Y-75391401D01*
X134982868Y-75411107D01*
X134995480Y-75432150D01*
X135005970Y-75454329D01*
X135014235Y-75477428D01*
X135020196Y-75501227D01*
X135023796Y-75525495D01*
X135025000Y-75549999D01*
X135025000Y-76450001D01*
X135023796Y-76474505D01*
X135020196Y-76498773D01*
X135014235Y-76522572D01*
X135005970Y-76545671D01*
X134995480Y-76567850D01*
X134982868Y-76588893D01*
X134968253Y-76608599D01*
X134951777Y-76626777D01*
X134933599Y-76643253D01*
X134913893Y-76657868D01*
X134892850Y-76670480D01*
X134870671Y-76680970D01*
X134847572Y-76689235D01*
X134823773Y-76695196D01*
X134799505Y-76698796D01*
X134775001Y-76700000D01*
X134124999Y-76700000D01*
X134100495Y-76698796D01*
X134076227Y-76695196D01*
X134052428Y-76689235D01*
X134029329Y-76680970D01*
X134007150Y-76670480D01*
X133986107Y-76657868D01*
X133966401Y-76643253D01*
X133948223Y-76626777D01*
X133931747Y-76608599D01*
X133917132Y-76588893D01*
X133904520Y-76567850D01*
X133894030Y-76545671D01*
X133885765Y-76522572D01*
X133879804Y-76498773D01*
X133876204Y-76474505D01*
X133875000Y-76450001D01*
X133875000Y-75549999D01*
X133876204Y-75525495D01*
X133879804Y-75501227D01*
X133885765Y-75477428D01*
X133894030Y-75454329D01*
X133904520Y-75432150D01*
X133917132Y-75411107D01*
X133931747Y-75391401D01*
X133948223Y-75373223D01*
X133966401Y-75356747D01*
X133986107Y-75342132D01*
X134007150Y-75329520D01*
X134029329Y-75319030D01*
X134052428Y-75310765D01*
X134076227Y-75304804D01*
X134100495Y-75301204D01*
X134124999Y-75300000D01*
X134775001Y-75300000D01*
X134799505Y-75301204D01*
X134799505Y-75301204D01*
G37*
D14*
X134450000Y-76000000D03*
D22*
X101720889Y-75215254D03*
X99820889Y-75215254D03*
X100770889Y-72215254D03*
D13*
G36*
X110835592Y-72760976D02*
G01*
X110850153Y-72763136D01*
X110864432Y-72766713D01*
X110878292Y-72771672D01*
X110891599Y-72777966D01*
X110904225Y-72785534D01*
X110916048Y-72794302D01*
X110926955Y-72804188D01*
X110936841Y-72815095D01*
X110945609Y-72826918D01*
X110953177Y-72839544D01*
X110959471Y-72852851D01*
X110964430Y-72866711D01*
X110968007Y-72880990D01*
X110970167Y-72895551D01*
X110970889Y-72910254D01*
X110970889Y-73210254D01*
X110970167Y-73224957D01*
X110968007Y-73239518D01*
X110964430Y-73253797D01*
X110959471Y-73267657D01*
X110953177Y-73280964D01*
X110945609Y-73293590D01*
X110936841Y-73305413D01*
X110926955Y-73316320D01*
X110916048Y-73326206D01*
X110904225Y-73334974D01*
X110891599Y-73342542D01*
X110878292Y-73348836D01*
X110864432Y-73353795D01*
X110850153Y-73357372D01*
X110835592Y-73359532D01*
X110820889Y-73360254D01*
X109170889Y-73360254D01*
X109156186Y-73359532D01*
X109141625Y-73357372D01*
X109127346Y-73353795D01*
X109113486Y-73348836D01*
X109100179Y-73342542D01*
X109087553Y-73334974D01*
X109075730Y-73326206D01*
X109064823Y-73316320D01*
X109054937Y-73305413D01*
X109046169Y-73293590D01*
X109038601Y-73280964D01*
X109032307Y-73267657D01*
X109027348Y-73253797D01*
X109023771Y-73239518D01*
X109021611Y-73224957D01*
X109020889Y-73210254D01*
X109020889Y-72910254D01*
X109021611Y-72895551D01*
X109023771Y-72880990D01*
X109027348Y-72866711D01*
X109032307Y-72852851D01*
X109038601Y-72839544D01*
X109046169Y-72826918D01*
X109054937Y-72815095D01*
X109064823Y-72804188D01*
X109075730Y-72794302D01*
X109087553Y-72785534D01*
X109100179Y-72777966D01*
X109113486Y-72771672D01*
X109127346Y-72766713D01*
X109141625Y-72763136D01*
X109156186Y-72760976D01*
X109170889Y-72760254D01*
X110820889Y-72760254D01*
X110835592Y-72760976D01*
X110835592Y-72760976D01*
G37*
D23*
X109995889Y-73060254D03*
D13*
G36*
X110835592Y-74030976D02*
G01*
X110850153Y-74033136D01*
X110864432Y-74036713D01*
X110878292Y-74041672D01*
X110891599Y-74047966D01*
X110904225Y-74055534D01*
X110916048Y-74064302D01*
X110926955Y-74074188D01*
X110936841Y-74085095D01*
X110945609Y-74096918D01*
X110953177Y-74109544D01*
X110959471Y-74122851D01*
X110964430Y-74136711D01*
X110968007Y-74150990D01*
X110970167Y-74165551D01*
X110970889Y-74180254D01*
X110970889Y-74480254D01*
X110970167Y-74494957D01*
X110968007Y-74509518D01*
X110964430Y-74523797D01*
X110959471Y-74537657D01*
X110953177Y-74550964D01*
X110945609Y-74563590D01*
X110936841Y-74575413D01*
X110926955Y-74586320D01*
X110916048Y-74596206D01*
X110904225Y-74604974D01*
X110891599Y-74612542D01*
X110878292Y-74618836D01*
X110864432Y-74623795D01*
X110850153Y-74627372D01*
X110835592Y-74629532D01*
X110820889Y-74630254D01*
X109170889Y-74630254D01*
X109156186Y-74629532D01*
X109141625Y-74627372D01*
X109127346Y-74623795D01*
X109113486Y-74618836D01*
X109100179Y-74612542D01*
X109087553Y-74604974D01*
X109075730Y-74596206D01*
X109064823Y-74586320D01*
X109054937Y-74575413D01*
X109046169Y-74563590D01*
X109038601Y-74550964D01*
X109032307Y-74537657D01*
X109027348Y-74523797D01*
X109023771Y-74509518D01*
X109021611Y-74494957D01*
X109020889Y-74480254D01*
X109020889Y-74180254D01*
X109021611Y-74165551D01*
X109023771Y-74150990D01*
X109027348Y-74136711D01*
X109032307Y-74122851D01*
X109038601Y-74109544D01*
X109046169Y-74096918D01*
X109054937Y-74085095D01*
X109064823Y-74074188D01*
X109075730Y-74064302D01*
X109087553Y-74055534D01*
X109100179Y-74047966D01*
X109113486Y-74041672D01*
X109127346Y-74036713D01*
X109141625Y-74033136D01*
X109156186Y-74030976D01*
X109170889Y-74030254D01*
X110820889Y-74030254D01*
X110835592Y-74030976D01*
X110835592Y-74030976D01*
G37*
D23*
X109995889Y-74330254D03*
D13*
G36*
X110835592Y-75300976D02*
G01*
X110850153Y-75303136D01*
X110864432Y-75306713D01*
X110878292Y-75311672D01*
X110891599Y-75317966D01*
X110904225Y-75325534D01*
X110916048Y-75334302D01*
X110926955Y-75344188D01*
X110936841Y-75355095D01*
X110945609Y-75366918D01*
X110953177Y-75379544D01*
X110959471Y-75392851D01*
X110964430Y-75406711D01*
X110968007Y-75420990D01*
X110970167Y-75435551D01*
X110970889Y-75450254D01*
X110970889Y-75750254D01*
X110970167Y-75764957D01*
X110968007Y-75779518D01*
X110964430Y-75793797D01*
X110959471Y-75807657D01*
X110953177Y-75820964D01*
X110945609Y-75833590D01*
X110936841Y-75845413D01*
X110926955Y-75856320D01*
X110916048Y-75866206D01*
X110904225Y-75874974D01*
X110891599Y-75882542D01*
X110878292Y-75888836D01*
X110864432Y-75893795D01*
X110850153Y-75897372D01*
X110835592Y-75899532D01*
X110820889Y-75900254D01*
X109170889Y-75900254D01*
X109156186Y-75899532D01*
X109141625Y-75897372D01*
X109127346Y-75893795D01*
X109113486Y-75888836D01*
X109100179Y-75882542D01*
X109087553Y-75874974D01*
X109075730Y-75866206D01*
X109064823Y-75856320D01*
X109054937Y-75845413D01*
X109046169Y-75833590D01*
X109038601Y-75820964D01*
X109032307Y-75807657D01*
X109027348Y-75793797D01*
X109023771Y-75779518D01*
X109021611Y-75764957D01*
X109020889Y-75750254D01*
X109020889Y-75450254D01*
X109021611Y-75435551D01*
X109023771Y-75420990D01*
X109027348Y-75406711D01*
X109032307Y-75392851D01*
X109038601Y-75379544D01*
X109046169Y-75366918D01*
X109054937Y-75355095D01*
X109064823Y-75344188D01*
X109075730Y-75334302D01*
X109087553Y-75325534D01*
X109100179Y-75317966D01*
X109113486Y-75311672D01*
X109127346Y-75306713D01*
X109141625Y-75303136D01*
X109156186Y-75300976D01*
X109170889Y-75300254D01*
X110820889Y-75300254D01*
X110835592Y-75300976D01*
X110835592Y-75300976D01*
G37*
D23*
X109995889Y-75600254D03*
D13*
G36*
X110835592Y-76570976D02*
G01*
X110850153Y-76573136D01*
X110864432Y-76576713D01*
X110878292Y-76581672D01*
X110891599Y-76587966D01*
X110904225Y-76595534D01*
X110916048Y-76604302D01*
X110926955Y-76614188D01*
X110936841Y-76625095D01*
X110945609Y-76636918D01*
X110953177Y-76649544D01*
X110959471Y-76662851D01*
X110964430Y-76676711D01*
X110968007Y-76690990D01*
X110970167Y-76705551D01*
X110970889Y-76720254D01*
X110970889Y-77020254D01*
X110970167Y-77034957D01*
X110968007Y-77049518D01*
X110964430Y-77063797D01*
X110959471Y-77077657D01*
X110953177Y-77090964D01*
X110945609Y-77103590D01*
X110936841Y-77115413D01*
X110926955Y-77126320D01*
X110916048Y-77136206D01*
X110904225Y-77144974D01*
X110891599Y-77152542D01*
X110878292Y-77158836D01*
X110864432Y-77163795D01*
X110850153Y-77167372D01*
X110835592Y-77169532D01*
X110820889Y-77170254D01*
X109170889Y-77170254D01*
X109156186Y-77169532D01*
X109141625Y-77167372D01*
X109127346Y-77163795D01*
X109113486Y-77158836D01*
X109100179Y-77152542D01*
X109087553Y-77144974D01*
X109075730Y-77136206D01*
X109064823Y-77126320D01*
X109054937Y-77115413D01*
X109046169Y-77103590D01*
X109038601Y-77090964D01*
X109032307Y-77077657D01*
X109027348Y-77063797D01*
X109023771Y-77049518D01*
X109021611Y-77034957D01*
X109020889Y-77020254D01*
X109020889Y-76720254D01*
X109021611Y-76705551D01*
X109023771Y-76690990D01*
X109027348Y-76676711D01*
X109032307Y-76662851D01*
X109038601Y-76649544D01*
X109046169Y-76636918D01*
X109054937Y-76625095D01*
X109064823Y-76614188D01*
X109075730Y-76604302D01*
X109087553Y-76595534D01*
X109100179Y-76587966D01*
X109113486Y-76581672D01*
X109127346Y-76576713D01*
X109141625Y-76573136D01*
X109156186Y-76570976D01*
X109170889Y-76570254D01*
X110820889Y-76570254D01*
X110835592Y-76570976D01*
X110835592Y-76570976D01*
G37*
D23*
X109995889Y-76870254D03*
D13*
G36*
X105885592Y-76570976D02*
G01*
X105900153Y-76573136D01*
X105914432Y-76576713D01*
X105928292Y-76581672D01*
X105941599Y-76587966D01*
X105954225Y-76595534D01*
X105966048Y-76604302D01*
X105976955Y-76614188D01*
X105986841Y-76625095D01*
X105995609Y-76636918D01*
X106003177Y-76649544D01*
X106009471Y-76662851D01*
X106014430Y-76676711D01*
X106018007Y-76690990D01*
X106020167Y-76705551D01*
X106020889Y-76720254D01*
X106020889Y-77020254D01*
X106020167Y-77034957D01*
X106018007Y-77049518D01*
X106014430Y-77063797D01*
X106009471Y-77077657D01*
X106003177Y-77090964D01*
X105995609Y-77103590D01*
X105986841Y-77115413D01*
X105976955Y-77126320D01*
X105966048Y-77136206D01*
X105954225Y-77144974D01*
X105941599Y-77152542D01*
X105928292Y-77158836D01*
X105914432Y-77163795D01*
X105900153Y-77167372D01*
X105885592Y-77169532D01*
X105870889Y-77170254D01*
X104220889Y-77170254D01*
X104206186Y-77169532D01*
X104191625Y-77167372D01*
X104177346Y-77163795D01*
X104163486Y-77158836D01*
X104150179Y-77152542D01*
X104137553Y-77144974D01*
X104125730Y-77136206D01*
X104114823Y-77126320D01*
X104104937Y-77115413D01*
X104096169Y-77103590D01*
X104088601Y-77090964D01*
X104082307Y-77077657D01*
X104077348Y-77063797D01*
X104073771Y-77049518D01*
X104071611Y-77034957D01*
X104070889Y-77020254D01*
X104070889Y-76720254D01*
X104071611Y-76705551D01*
X104073771Y-76690990D01*
X104077348Y-76676711D01*
X104082307Y-76662851D01*
X104088601Y-76649544D01*
X104096169Y-76636918D01*
X104104937Y-76625095D01*
X104114823Y-76614188D01*
X104125730Y-76604302D01*
X104137553Y-76595534D01*
X104150179Y-76587966D01*
X104163486Y-76581672D01*
X104177346Y-76576713D01*
X104191625Y-76573136D01*
X104206186Y-76570976D01*
X104220889Y-76570254D01*
X105870889Y-76570254D01*
X105885592Y-76570976D01*
X105885592Y-76570976D01*
G37*
D23*
X105045889Y-76870254D03*
D13*
G36*
X105885592Y-75300976D02*
G01*
X105900153Y-75303136D01*
X105914432Y-75306713D01*
X105928292Y-75311672D01*
X105941599Y-75317966D01*
X105954225Y-75325534D01*
X105966048Y-75334302D01*
X105976955Y-75344188D01*
X105986841Y-75355095D01*
X105995609Y-75366918D01*
X106003177Y-75379544D01*
X106009471Y-75392851D01*
X106014430Y-75406711D01*
X106018007Y-75420990D01*
X106020167Y-75435551D01*
X106020889Y-75450254D01*
X106020889Y-75750254D01*
X106020167Y-75764957D01*
X106018007Y-75779518D01*
X106014430Y-75793797D01*
X106009471Y-75807657D01*
X106003177Y-75820964D01*
X105995609Y-75833590D01*
X105986841Y-75845413D01*
X105976955Y-75856320D01*
X105966048Y-75866206D01*
X105954225Y-75874974D01*
X105941599Y-75882542D01*
X105928292Y-75888836D01*
X105914432Y-75893795D01*
X105900153Y-75897372D01*
X105885592Y-75899532D01*
X105870889Y-75900254D01*
X104220889Y-75900254D01*
X104206186Y-75899532D01*
X104191625Y-75897372D01*
X104177346Y-75893795D01*
X104163486Y-75888836D01*
X104150179Y-75882542D01*
X104137553Y-75874974D01*
X104125730Y-75866206D01*
X104114823Y-75856320D01*
X104104937Y-75845413D01*
X104096169Y-75833590D01*
X104088601Y-75820964D01*
X104082307Y-75807657D01*
X104077348Y-75793797D01*
X104073771Y-75779518D01*
X104071611Y-75764957D01*
X104070889Y-75750254D01*
X104070889Y-75450254D01*
X104071611Y-75435551D01*
X104073771Y-75420990D01*
X104077348Y-75406711D01*
X104082307Y-75392851D01*
X104088601Y-75379544D01*
X104096169Y-75366918D01*
X104104937Y-75355095D01*
X104114823Y-75344188D01*
X104125730Y-75334302D01*
X104137553Y-75325534D01*
X104150179Y-75317966D01*
X104163486Y-75311672D01*
X104177346Y-75306713D01*
X104191625Y-75303136D01*
X104206186Y-75300976D01*
X104220889Y-75300254D01*
X105870889Y-75300254D01*
X105885592Y-75300976D01*
X105885592Y-75300976D01*
G37*
D23*
X105045889Y-75600254D03*
D13*
G36*
X105885592Y-74030976D02*
G01*
X105900153Y-74033136D01*
X105914432Y-74036713D01*
X105928292Y-74041672D01*
X105941599Y-74047966D01*
X105954225Y-74055534D01*
X105966048Y-74064302D01*
X105976955Y-74074188D01*
X105986841Y-74085095D01*
X105995609Y-74096918D01*
X106003177Y-74109544D01*
X106009471Y-74122851D01*
X106014430Y-74136711D01*
X106018007Y-74150990D01*
X106020167Y-74165551D01*
X106020889Y-74180254D01*
X106020889Y-74480254D01*
X106020167Y-74494957D01*
X106018007Y-74509518D01*
X106014430Y-74523797D01*
X106009471Y-74537657D01*
X106003177Y-74550964D01*
X105995609Y-74563590D01*
X105986841Y-74575413D01*
X105976955Y-74586320D01*
X105966048Y-74596206D01*
X105954225Y-74604974D01*
X105941599Y-74612542D01*
X105928292Y-74618836D01*
X105914432Y-74623795D01*
X105900153Y-74627372D01*
X105885592Y-74629532D01*
X105870889Y-74630254D01*
X104220889Y-74630254D01*
X104206186Y-74629532D01*
X104191625Y-74627372D01*
X104177346Y-74623795D01*
X104163486Y-74618836D01*
X104150179Y-74612542D01*
X104137553Y-74604974D01*
X104125730Y-74596206D01*
X104114823Y-74586320D01*
X104104937Y-74575413D01*
X104096169Y-74563590D01*
X104088601Y-74550964D01*
X104082307Y-74537657D01*
X104077348Y-74523797D01*
X104073771Y-74509518D01*
X104071611Y-74494957D01*
X104070889Y-74480254D01*
X104070889Y-74180254D01*
X104071611Y-74165551D01*
X104073771Y-74150990D01*
X104077348Y-74136711D01*
X104082307Y-74122851D01*
X104088601Y-74109544D01*
X104096169Y-74096918D01*
X104104937Y-74085095D01*
X104114823Y-74074188D01*
X104125730Y-74064302D01*
X104137553Y-74055534D01*
X104150179Y-74047966D01*
X104163486Y-74041672D01*
X104177346Y-74036713D01*
X104191625Y-74033136D01*
X104206186Y-74030976D01*
X104220889Y-74030254D01*
X105870889Y-74030254D01*
X105885592Y-74030976D01*
X105885592Y-74030976D01*
G37*
D23*
X105045889Y-74330254D03*
D13*
G36*
X105885592Y-72760976D02*
G01*
X105900153Y-72763136D01*
X105914432Y-72766713D01*
X105928292Y-72771672D01*
X105941599Y-72777966D01*
X105954225Y-72785534D01*
X105966048Y-72794302D01*
X105976955Y-72804188D01*
X105986841Y-72815095D01*
X105995609Y-72826918D01*
X106003177Y-72839544D01*
X106009471Y-72852851D01*
X106014430Y-72866711D01*
X106018007Y-72880990D01*
X106020167Y-72895551D01*
X106020889Y-72910254D01*
X106020889Y-73210254D01*
X106020167Y-73224957D01*
X106018007Y-73239518D01*
X106014430Y-73253797D01*
X106009471Y-73267657D01*
X106003177Y-73280964D01*
X105995609Y-73293590D01*
X105986841Y-73305413D01*
X105976955Y-73316320D01*
X105966048Y-73326206D01*
X105954225Y-73334974D01*
X105941599Y-73342542D01*
X105928292Y-73348836D01*
X105914432Y-73353795D01*
X105900153Y-73357372D01*
X105885592Y-73359532D01*
X105870889Y-73360254D01*
X104220889Y-73360254D01*
X104206186Y-73359532D01*
X104191625Y-73357372D01*
X104177346Y-73353795D01*
X104163486Y-73348836D01*
X104150179Y-73342542D01*
X104137553Y-73334974D01*
X104125730Y-73326206D01*
X104114823Y-73316320D01*
X104104937Y-73305413D01*
X104096169Y-73293590D01*
X104088601Y-73280964D01*
X104082307Y-73267657D01*
X104077348Y-73253797D01*
X104073771Y-73239518D01*
X104071611Y-73224957D01*
X104070889Y-73210254D01*
X104070889Y-72910254D01*
X104071611Y-72895551D01*
X104073771Y-72880990D01*
X104077348Y-72866711D01*
X104082307Y-72852851D01*
X104088601Y-72839544D01*
X104096169Y-72826918D01*
X104104937Y-72815095D01*
X104114823Y-72804188D01*
X104125730Y-72794302D01*
X104137553Y-72785534D01*
X104150179Y-72777966D01*
X104163486Y-72771672D01*
X104177346Y-72766713D01*
X104191625Y-72763136D01*
X104206186Y-72760976D01*
X104220889Y-72760254D01*
X105870889Y-72760254D01*
X105885592Y-72760976D01*
X105885592Y-72760976D01*
G37*
D23*
X105045889Y-73060254D03*
D13*
G36*
X113845394Y-74266458D02*
G01*
X113869662Y-74270058D01*
X113893461Y-74276019D01*
X113916560Y-74284284D01*
X113938739Y-74294774D01*
X113959782Y-74307386D01*
X113979488Y-74322001D01*
X113997666Y-74338477D01*
X114014142Y-74356655D01*
X114028757Y-74376361D01*
X114041369Y-74397404D01*
X114051859Y-74419583D01*
X114060124Y-74442682D01*
X114066085Y-74466481D01*
X114069685Y-74490749D01*
X114070889Y-74515253D01*
X114070889Y-75415255D01*
X114069685Y-75439759D01*
X114066085Y-75464027D01*
X114060124Y-75487826D01*
X114051859Y-75510925D01*
X114041369Y-75533104D01*
X114028757Y-75554147D01*
X114014142Y-75573853D01*
X113997666Y-75592031D01*
X113979488Y-75608507D01*
X113959782Y-75623122D01*
X113938739Y-75635734D01*
X113916560Y-75646224D01*
X113893461Y-75654489D01*
X113869662Y-75660450D01*
X113845394Y-75664050D01*
X113820890Y-75665254D01*
X113170888Y-75665254D01*
X113146384Y-75664050D01*
X113122116Y-75660450D01*
X113098317Y-75654489D01*
X113075218Y-75646224D01*
X113053039Y-75635734D01*
X113031996Y-75623122D01*
X113012290Y-75608507D01*
X112994112Y-75592031D01*
X112977636Y-75573853D01*
X112963021Y-75554147D01*
X112950409Y-75533104D01*
X112939919Y-75510925D01*
X112931654Y-75487826D01*
X112925693Y-75464027D01*
X112922093Y-75439759D01*
X112920889Y-75415255D01*
X112920889Y-74515253D01*
X112922093Y-74490749D01*
X112925693Y-74466481D01*
X112931654Y-74442682D01*
X112939919Y-74419583D01*
X112950409Y-74397404D01*
X112963021Y-74376361D01*
X112977636Y-74356655D01*
X112994112Y-74338477D01*
X113012290Y-74322001D01*
X113031996Y-74307386D01*
X113053039Y-74294774D01*
X113075218Y-74284284D01*
X113098317Y-74276019D01*
X113122116Y-74270058D01*
X113146384Y-74266458D01*
X113170888Y-74265254D01*
X113820890Y-74265254D01*
X113845394Y-74266458D01*
X113845394Y-74266458D01*
G37*
D14*
X113495889Y-74965254D03*
D13*
G36*
X115895394Y-74266458D02*
G01*
X115919662Y-74270058D01*
X115943461Y-74276019D01*
X115966560Y-74284284D01*
X115988739Y-74294774D01*
X116009782Y-74307386D01*
X116029488Y-74322001D01*
X116047666Y-74338477D01*
X116064142Y-74356655D01*
X116078757Y-74376361D01*
X116091369Y-74397404D01*
X116101859Y-74419583D01*
X116110124Y-74442682D01*
X116116085Y-74466481D01*
X116119685Y-74490749D01*
X116120889Y-74515253D01*
X116120889Y-75415255D01*
X116119685Y-75439759D01*
X116116085Y-75464027D01*
X116110124Y-75487826D01*
X116101859Y-75510925D01*
X116091369Y-75533104D01*
X116078757Y-75554147D01*
X116064142Y-75573853D01*
X116047666Y-75592031D01*
X116029488Y-75608507D01*
X116009782Y-75623122D01*
X115988739Y-75635734D01*
X115966560Y-75646224D01*
X115943461Y-75654489D01*
X115919662Y-75660450D01*
X115895394Y-75664050D01*
X115870890Y-75665254D01*
X115220888Y-75665254D01*
X115196384Y-75664050D01*
X115172116Y-75660450D01*
X115148317Y-75654489D01*
X115125218Y-75646224D01*
X115103039Y-75635734D01*
X115081996Y-75623122D01*
X115062290Y-75608507D01*
X115044112Y-75592031D01*
X115027636Y-75573853D01*
X115013021Y-75554147D01*
X115000409Y-75533104D01*
X114989919Y-75510925D01*
X114981654Y-75487826D01*
X114975693Y-75464027D01*
X114972093Y-75439759D01*
X114970889Y-75415255D01*
X114970889Y-74515253D01*
X114972093Y-74490749D01*
X114975693Y-74466481D01*
X114981654Y-74442682D01*
X114989919Y-74419583D01*
X115000409Y-74397404D01*
X115013021Y-74376361D01*
X115027636Y-74356655D01*
X115044112Y-74338477D01*
X115062290Y-74322001D01*
X115081996Y-74307386D01*
X115103039Y-74294774D01*
X115125218Y-74284284D01*
X115148317Y-74276019D01*
X115172116Y-74270058D01*
X115196384Y-74266458D01*
X115220888Y-74265254D01*
X115870890Y-74265254D01*
X115895394Y-74266458D01*
X115895394Y-74266458D01*
G37*
D14*
X115545889Y-74965254D03*
D13*
G36*
X98245394Y-74666458D02*
G01*
X98269662Y-74670058D01*
X98293461Y-74676019D01*
X98316560Y-74684284D01*
X98338739Y-74694774D01*
X98359782Y-74707386D01*
X98379488Y-74722001D01*
X98397666Y-74738477D01*
X98414142Y-74756655D01*
X98428757Y-74776361D01*
X98441369Y-74797404D01*
X98451859Y-74819583D01*
X98460124Y-74842682D01*
X98466085Y-74866481D01*
X98469685Y-74890749D01*
X98470889Y-74915253D01*
X98470889Y-75565255D01*
X98469685Y-75589759D01*
X98466085Y-75614027D01*
X98460124Y-75637826D01*
X98451859Y-75660925D01*
X98441369Y-75683104D01*
X98428757Y-75704147D01*
X98414142Y-75723853D01*
X98397666Y-75742031D01*
X98379488Y-75758507D01*
X98359782Y-75773122D01*
X98338739Y-75785734D01*
X98316560Y-75796224D01*
X98293461Y-75804489D01*
X98269662Y-75810450D01*
X98245394Y-75814050D01*
X98220890Y-75815254D01*
X97320888Y-75815254D01*
X97296384Y-75814050D01*
X97272116Y-75810450D01*
X97248317Y-75804489D01*
X97225218Y-75796224D01*
X97203039Y-75785734D01*
X97181996Y-75773122D01*
X97162290Y-75758507D01*
X97144112Y-75742031D01*
X97127636Y-75723853D01*
X97113021Y-75704147D01*
X97100409Y-75683104D01*
X97089919Y-75660925D01*
X97081654Y-75637826D01*
X97075693Y-75614027D01*
X97072093Y-75589759D01*
X97070889Y-75565255D01*
X97070889Y-74915253D01*
X97072093Y-74890749D01*
X97075693Y-74866481D01*
X97081654Y-74842682D01*
X97089919Y-74819583D01*
X97100409Y-74797404D01*
X97113021Y-74776361D01*
X97127636Y-74756655D01*
X97144112Y-74738477D01*
X97162290Y-74722001D01*
X97181996Y-74707386D01*
X97203039Y-74694774D01*
X97225218Y-74684284D01*
X97248317Y-74676019D01*
X97272116Y-74670058D01*
X97296384Y-74666458D01*
X97320888Y-74665254D01*
X98220890Y-74665254D01*
X98245394Y-74666458D01*
X98245394Y-74666458D01*
G37*
D14*
X97770889Y-75240254D03*
D13*
G36*
X98245394Y-72616458D02*
G01*
X98269662Y-72620058D01*
X98293461Y-72626019D01*
X98316560Y-72634284D01*
X98338739Y-72644774D01*
X98359782Y-72657386D01*
X98379488Y-72672001D01*
X98397666Y-72688477D01*
X98414142Y-72706655D01*
X98428757Y-72726361D01*
X98441369Y-72747404D01*
X98451859Y-72769583D01*
X98460124Y-72792682D01*
X98466085Y-72816481D01*
X98469685Y-72840749D01*
X98470889Y-72865253D01*
X98470889Y-73515255D01*
X98469685Y-73539759D01*
X98466085Y-73564027D01*
X98460124Y-73587826D01*
X98451859Y-73610925D01*
X98441369Y-73633104D01*
X98428757Y-73654147D01*
X98414142Y-73673853D01*
X98397666Y-73692031D01*
X98379488Y-73708507D01*
X98359782Y-73723122D01*
X98338739Y-73735734D01*
X98316560Y-73746224D01*
X98293461Y-73754489D01*
X98269662Y-73760450D01*
X98245394Y-73764050D01*
X98220890Y-73765254D01*
X97320888Y-73765254D01*
X97296384Y-73764050D01*
X97272116Y-73760450D01*
X97248317Y-73754489D01*
X97225218Y-73746224D01*
X97203039Y-73735734D01*
X97181996Y-73723122D01*
X97162290Y-73708507D01*
X97144112Y-73692031D01*
X97127636Y-73673853D01*
X97113021Y-73654147D01*
X97100409Y-73633104D01*
X97089919Y-73610925D01*
X97081654Y-73587826D01*
X97075693Y-73564027D01*
X97072093Y-73539759D01*
X97070889Y-73515255D01*
X97070889Y-72865253D01*
X97072093Y-72840749D01*
X97075693Y-72816481D01*
X97081654Y-72792682D01*
X97089919Y-72769583D01*
X97100409Y-72747404D01*
X97113021Y-72726361D01*
X97127636Y-72706655D01*
X97144112Y-72688477D01*
X97162290Y-72672001D01*
X97181996Y-72657386D01*
X97203039Y-72644774D01*
X97225218Y-72634284D01*
X97248317Y-72626019D01*
X97272116Y-72620058D01*
X97296384Y-72616458D01*
X97320888Y-72615254D01*
X98220890Y-72615254D01*
X98245394Y-72616458D01*
X98245394Y-72616458D01*
G37*
D14*
X97770889Y-73190254D03*
D13*
G36*
X148774505Y-79901204D02*
G01*
X148798773Y-79904804D01*
X148822572Y-79910765D01*
X148845671Y-79919030D01*
X148867850Y-79929520D01*
X148888893Y-79942132D01*
X148908599Y-79956747D01*
X148926777Y-79973223D01*
X148943253Y-79991401D01*
X148957868Y-80011107D01*
X148970480Y-80032150D01*
X148980970Y-80054329D01*
X148989235Y-80077428D01*
X148995196Y-80101227D01*
X148998796Y-80125495D01*
X149000000Y-80149999D01*
X149000000Y-80800001D01*
X148998796Y-80824505D01*
X148995196Y-80848773D01*
X148989235Y-80872572D01*
X148980970Y-80895671D01*
X148970480Y-80917850D01*
X148957868Y-80938893D01*
X148943253Y-80958599D01*
X148926777Y-80976777D01*
X148908599Y-80993253D01*
X148888893Y-81007868D01*
X148867850Y-81020480D01*
X148845671Y-81030970D01*
X148822572Y-81039235D01*
X148798773Y-81045196D01*
X148774505Y-81048796D01*
X148750001Y-81050000D01*
X147849999Y-81050000D01*
X147825495Y-81048796D01*
X147801227Y-81045196D01*
X147777428Y-81039235D01*
X147754329Y-81030970D01*
X147732150Y-81020480D01*
X147711107Y-81007868D01*
X147691401Y-80993253D01*
X147673223Y-80976777D01*
X147656747Y-80958599D01*
X147642132Y-80938893D01*
X147629520Y-80917850D01*
X147619030Y-80895671D01*
X147610765Y-80872572D01*
X147604804Y-80848773D01*
X147601204Y-80824505D01*
X147600000Y-80800001D01*
X147600000Y-80149999D01*
X147601204Y-80125495D01*
X147604804Y-80101227D01*
X147610765Y-80077428D01*
X147619030Y-80054329D01*
X147629520Y-80032150D01*
X147642132Y-80011107D01*
X147656747Y-79991401D01*
X147673223Y-79973223D01*
X147691401Y-79956747D01*
X147711107Y-79942132D01*
X147732150Y-79929520D01*
X147754329Y-79919030D01*
X147777428Y-79910765D01*
X147801227Y-79904804D01*
X147825495Y-79901204D01*
X147849999Y-79900000D01*
X148750001Y-79900000D01*
X148774505Y-79901204D01*
X148774505Y-79901204D01*
G37*
D14*
X148300000Y-80475000D03*
D13*
G36*
X148774505Y-81951204D02*
G01*
X148798773Y-81954804D01*
X148822572Y-81960765D01*
X148845671Y-81969030D01*
X148867850Y-81979520D01*
X148888893Y-81992132D01*
X148908599Y-82006747D01*
X148926777Y-82023223D01*
X148943253Y-82041401D01*
X148957868Y-82061107D01*
X148970480Y-82082150D01*
X148980970Y-82104329D01*
X148989235Y-82127428D01*
X148995196Y-82151227D01*
X148998796Y-82175495D01*
X149000000Y-82199999D01*
X149000000Y-82850001D01*
X148998796Y-82874505D01*
X148995196Y-82898773D01*
X148989235Y-82922572D01*
X148980970Y-82945671D01*
X148970480Y-82967850D01*
X148957868Y-82988893D01*
X148943253Y-83008599D01*
X148926777Y-83026777D01*
X148908599Y-83043253D01*
X148888893Y-83057868D01*
X148867850Y-83070480D01*
X148845671Y-83080970D01*
X148822572Y-83089235D01*
X148798773Y-83095196D01*
X148774505Y-83098796D01*
X148750001Y-83100000D01*
X147849999Y-83100000D01*
X147825495Y-83098796D01*
X147801227Y-83095196D01*
X147777428Y-83089235D01*
X147754329Y-83080970D01*
X147732150Y-83070480D01*
X147711107Y-83057868D01*
X147691401Y-83043253D01*
X147673223Y-83026777D01*
X147656747Y-83008599D01*
X147642132Y-82988893D01*
X147629520Y-82967850D01*
X147619030Y-82945671D01*
X147610765Y-82922572D01*
X147604804Y-82898773D01*
X147601204Y-82874505D01*
X147600000Y-82850001D01*
X147600000Y-82199999D01*
X147601204Y-82175495D01*
X147604804Y-82151227D01*
X147610765Y-82127428D01*
X147619030Y-82104329D01*
X147629520Y-82082150D01*
X147642132Y-82061107D01*
X147656747Y-82041401D01*
X147673223Y-82023223D01*
X147691401Y-82006747D01*
X147711107Y-81992132D01*
X147732150Y-81979520D01*
X147754329Y-81969030D01*
X147777428Y-81960765D01*
X147801227Y-81954804D01*
X147825495Y-81951204D01*
X147849999Y-81950000D01*
X148750001Y-81950000D01*
X148774505Y-81951204D01*
X148774505Y-81951204D01*
G37*
D14*
X148300000Y-82525000D03*
D13*
G36*
X146374505Y-79901203D02*
G01*
X146398773Y-79904803D01*
X146422572Y-79910764D01*
X146445671Y-79919029D01*
X146467850Y-79929519D01*
X146488893Y-79942131D01*
X146508599Y-79956746D01*
X146526777Y-79973222D01*
X146543253Y-79991400D01*
X146557868Y-80011106D01*
X146570480Y-80032149D01*
X146580970Y-80054328D01*
X146589235Y-80077427D01*
X146595196Y-80101226D01*
X146598796Y-80125494D01*
X146600000Y-80149998D01*
X146600000Y-80800000D01*
X146598796Y-80824504D01*
X146595196Y-80848772D01*
X146589235Y-80872571D01*
X146580970Y-80895670D01*
X146570480Y-80917849D01*
X146557868Y-80938892D01*
X146543253Y-80958598D01*
X146526777Y-80976776D01*
X146508599Y-80993252D01*
X146488893Y-81007867D01*
X146467850Y-81020479D01*
X146445671Y-81030969D01*
X146422572Y-81039234D01*
X146398773Y-81045195D01*
X146374505Y-81048795D01*
X146350001Y-81049999D01*
X145449999Y-81049999D01*
X145425495Y-81048795D01*
X145401227Y-81045195D01*
X145377428Y-81039234D01*
X145354329Y-81030969D01*
X145332150Y-81020479D01*
X145311107Y-81007867D01*
X145291401Y-80993252D01*
X145273223Y-80976776D01*
X145256747Y-80958598D01*
X145242132Y-80938892D01*
X145229520Y-80917849D01*
X145219030Y-80895670D01*
X145210765Y-80872571D01*
X145204804Y-80848772D01*
X145201204Y-80824504D01*
X145200000Y-80800000D01*
X145200000Y-80149998D01*
X145201204Y-80125494D01*
X145204804Y-80101226D01*
X145210765Y-80077427D01*
X145219030Y-80054328D01*
X145229520Y-80032149D01*
X145242132Y-80011106D01*
X145256747Y-79991400D01*
X145273223Y-79973222D01*
X145291401Y-79956746D01*
X145311107Y-79942131D01*
X145332150Y-79929519D01*
X145354329Y-79919029D01*
X145377428Y-79910764D01*
X145401227Y-79904803D01*
X145425495Y-79901203D01*
X145449999Y-79899999D01*
X146350001Y-79899999D01*
X146374505Y-79901203D01*
X146374505Y-79901203D01*
G37*
D14*
X145900000Y-80474999D03*
D13*
G36*
X146374505Y-81951203D02*
G01*
X146398773Y-81954803D01*
X146422572Y-81960764D01*
X146445671Y-81969029D01*
X146467850Y-81979519D01*
X146488893Y-81992131D01*
X146508599Y-82006746D01*
X146526777Y-82023222D01*
X146543253Y-82041400D01*
X146557868Y-82061106D01*
X146570480Y-82082149D01*
X146580970Y-82104328D01*
X146589235Y-82127427D01*
X146595196Y-82151226D01*
X146598796Y-82175494D01*
X146600000Y-82199998D01*
X146600000Y-82850000D01*
X146598796Y-82874504D01*
X146595196Y-82898772D01*
X146589235Y-82922571D01*
X146580970Y-82945670D01*
X146570480Y-82967849D01*
X146557868Y-82988892D01*
X146543253Y-83008598D01*
X146526777Y-83026776D01*
X146508599Y-83043252D01*
X146488893Y-83057867D01*
X146467850Y-83070479D01*
X146445671Y-83080969D01*
X146422572Y-83089234D01*
X146398773Y-83095195D01*
X146374505Y-83098795D01*
X146350001Y-83099999D01*
X145449999Y-83099999D01*
X145425495Y-83098795D01*
X145401227Y-83095195D01*
X145377428Y-83089234D01*
X145354329Y-83080969D01*
X145332150Y-83070479D01*
X145311107Y-83057867D01*
X145291401Y-83043252D01*
X145273223Y-83026776D01*
X145256747Y-83008598D01*
X145242132Y-82988892D01*
X145229520Y-82967849D01*
X145219030Y-82945670D01*
X145210765Y-82922571D01*
X145204804Y-82898772D01*
X145201204Y-82874504D01*
X145200000Y-82850000D01*
X145200000Y-82199998D01*
X145201204Y-82175494D01*
X145204804Y-82151226D01*
X145210765Y-82127427D01*
X145219030Y-82104328D01*
X145229520Y-82082149D01*
X145242132Y-82061106D01*
X145256747Y-82041400D01*
X145273223Y-82023222D01*
X145291401Y-82006746D01*
X145311107Y-81992131D01*
X145332150Y-81979519D01*
X145354329Y-81969029D01*
X145377428Y-81960764D01*
X145401227Y-81954803D01*
X145425495Y-81951203D01*
X145449999Y-81949999D01*
X146350001Y-81949999D01*
X146374505Y-81951203D01*
X146374505Y-81951203D01*
G37*
D14*
X145900000Y-82524999D03*
D24*
X167175000Y-74925000D03*
X160825000Y-74925000D03*
X167175000Y-68575000D03*
D25*
X164000000Y-71750000D03*
D24*
X160825000Y-68575000D03*
X149175000Y-74925000D03*
X142825000Y-74925000D03*
X149175000Y-68575000D03*
D25*
X146000000Y-71750000D03*
D24*
X142825000Y-68575000D03*
D13*
G36*
X111374505Y-100301204D02*
G01*
X111398773Y-100304804D01*
X111422572Y-100310765D01*
X111445671Y-100319030D01*
X111467850Y-100329520D01*
X111488893Y-100342132D01*
X111508599Y-100356747D01*
X111526777Y-100373223D01*
X111543253Y-100391401D01*
X111557868Y-100411107D01*
X111570480Y-100432150D01*
X111580970Y-100454329D01*
X111589235Y-100477428D01*
X111595196Y-100501227D01*
X111598796Y-100525495D01*
X111600000Y-100549999D01*
X111600000Y-101450001D01*
X111598796Y-101474505D01*
X111595196Y-101498773D01*
X111589235Y-101522572D01*
X111580970Y-101545671D01*
X111570480Y-101567850D01*
X111557868Y-101588893D01*
X111543253Y-101608599D01*
X111526777Y-101626777D01*
X111508599Y-101643253D01*
X111488893Y-101657868D01*
X111467850Y-101670480D01*
X111445671Y-101680970D01*
X111422572Y-101689235D01*
X111398773Y-101695196D01*
X111374505Y-101698796D01*
X111350001Y-101700000D01*
X110699999Y-101700000D01*
X110675495Y-101698796D01*
X110651227Y-101695196D01*
X110627428Y-101689235D01*
X110604329Y-101680970D01*
X110582150Y-101670480D01*
X110561107Y-101657868D01*
X110541401Y-101643253D01*
X110523223Y-101626777D01*
X110506747Y-101608599D01*
X110492132Y-101588893D01*
X110479520Y-101567850D01*
X110469030Y-101545671D01*
X110460765Y-101522572D01*
X110454804Y-101498773D01*
X110451204Y-101474505D01*
X110450000Y-101450001D01*
X110450000Y-100549999D01*
X110451204Y-100525495D01*
X110454804Y-100501227D01*
X110460765Y-100477428D01*
X110469030Y-100454329D01*
X110479520Y-100432150D01*
X110492132Y-100411107D01*
X110506747Y-100391401D01*
X110523223Y-100373223D01*
X110541401Y-100356747D01*
X110561107Y-100342132D01*
X110582150Y-100329520D01*
X110604329Y-100319030D01*
X110627428Y-100310765D01*
X110651227Y-100304804D01*
X110675495Y-100301204D01*
X110699999Y-100300000D01*
X111350001Y-100300000D01*
X111374505Y-100301204D01*
X111374505Y-100301204D01*
G37*
D14*
X111025000Y-101000000D03*
D13*
G36*
X109324505Y-100301204D02*
G01*
X109348773Y-100304804D01*
X109372572Y-100310765D01*
X109395671Y-100319030D01*
X109417850Y-100329520D01*
X109438893Y-100342132D01*
X109458599Y-100356747D01*
X109476777Y-100373223D01*
X109493253Y-100391401D01*
X109507868Y-100411107D01*
X109520480Y-100432150D01*
X109530970Y-100454329D01*
X109539235Y-100477428D01*
X109545196Y-100501227D01*
X109548796Y-100525495D01*
X109550000Y-100549999D01*
X109550000Y-101450001D01*
X109548796Y-101474505D01*
X109545196Y-101498773D01*
X109539235Y-101522572D01*
X109530970Y-101545671D01*
X109520480Y-101567850D01*
X109507868Y-101588893D01*
X109493253Y-101608599D01*
X109476777Y-101626777D01*
X109458599Y-101643253D01*
X109438893Y-101657868D01*
X109417850Y-101670480D01*
X109395671Y-101680970D01*
X109372572Y-101689235D01*
X109348773Y-101695196D01*
X109324505Y-101698796D01*
X109300001Y-101700000D01*
X108649999Y-101700000D01*
X108625495Y-101698796D01*
X108601227Y-101695196D01*
X108577428Y-101689235D01*
X108554329Y-101680970D01*
X108532150Y-101670480D01*
X108511107Y-101657868D01*
X108491401Y-101643253D01*
X108473223Y-101626777D01*
X108456747Y-101608599D01*
X108442132Y-101588893D01*
X108429520Y-101567850D01*
X108419030Y-101545671D01*
X108410765Y-101522572D01*
X108404804Y-101498773D01*
X108401204Y-101474505D01*
X108400000Y-101450001D01*
X108400000Y-100549999D01*
X108401204Y-100525495D01*
X108404804Y-100501227D01*
X108410765Y-100477428D01*
X108419030Y-100454329D01*
X108429520Y-100432150D01*
X108442132Y-100411107D01*
X108456747Y-100391401D01*
X108473223Y-100373223D01*
X108491401Y-100356747D01*
X108511107Y-100342132D01*
X108532150Y-100329520D01*
X108554329Y-100319030D01*
X108577428Y-100310765D01*
X108601227Y-100304804D01*
X108625495Y-100301204D01*
X108649999Y-100300000D01*
X109300001Y-100300000D01*
X109324505Y-100301204D01*
X109324505Y-100301204D01*
G37*
D14*
X108975000Y-101000000D03*
D13*
G36*
X141474505Y-79901204D02*
G01*
X141498773Y-79904804D01*
X141522572Y-79910765D01*
X141545671Y-79919030D01*
X141567850Y-79929520D01*
X141588893Y-79942132D01*
X141608599Y-79956747D01*
X141626777Y-79973223D01*
X141643253Y-79991401D01*
X141657868Y-80011107D01*
X141670480Y-80032150D01*
X141680970Y-80054329D01*
X141689235Y-80077428D01*
X141695196Y-80101227D01*
X141698796Y-80125495D01*
X141700000Y-80149999D01*
X141700000Y-80800001D01*
X141698796Y-80824505D01*
X141695196Y-80848773D01*
X141689235Y-80872572D01*
X141680970Y-80895671D01*
X141670480Y-80917850D01*
X141657868Y-80938893D01*
X141643253Y-80958599D01*
X141626777Y-80976777D01*
X141608599Y-80993253D01*
X141588893Y-81007868D01*
X141567850Y-81020480D01*
X141545671Y-81030970D01*
X141522572Y-81039235D01*
X141498773Y-81045196D01*
X141474505Y-81048796D01*
X141450001Y-81050000D01*
X140549999Y-81050000D01*
X140525495Y-81048796D01*
X140501227Y-81045196D01*
X140477428Y-81039235D01*
X140454329Y-81030970D01*
X140432150Y-81020480D01*
X140411107Y-81007868D01*
X140391401Y-80993253D01*
X140373223Y-80976777D01*
X140356747Y-80958599D01*
X140342132Y-80938893D01*
X140329520Y-80917850D01*
X140319030Y-80895671D01*
X140310765Y-80872572D01*
X140304804Y-80848773D01*
X140301204Y-80824505D01*
X140300000Y-80800001D01*
X140300000Y-80149999D01*
X140301204Y-80125495D01*
X140304804Y-80101227D01*
X140310765Y-80077428D01*
X140319030Y-80054329D01*
X140329520Y-80032150D01*
X140342132Y-80011107D01*
X140356747Y-79991401D01*
X140373223Y-79973223D01*
X140391401Y-79956747D01*
X140411107Y-79942132D01*
X140432150Y-79929520D01*
X140454329Y-79919030D01*
X140477428Y-79910765D01*
X140501227Y-79904804D01*
X140525495Y-79901204D01*
X140549999Y-79900000D01*
X141450001Y-79900000D01*
X141474505Y-79901204D01*
X141474505Y-79901204D01*
G37*
D14*
X141000000Y-80475000D03*
D13*
G36*
X141474505Y-81951204D02*
G01*
X141498773Y-81954804D01*
X141522572Y-81960765D01*
X141545671Y-81969030D01*
X141567850Y-81979520D01*
X141588893Y-81992132D01*
X141608599Y-82006747D01*
X141626777Y-82023223D01*
X141643253Y-82041401D01*
X141657868Y-82061107D01*
X141670480Y-82082150D01*
X141680970Y-82104329D01*
X141689235Y-82127428D01*
X141695196Y-82151227D01*
X141698796Y-82175495D01*
X141700000Y-82199999D01*
X141700000Y-82850001D01*
X141698796Y-82874505D01*
X141695196Y-82898773D01*
X141689235Y-82922572D01*
X141680970Y-82945671D01*
X141670480Y-82967850D01*
X141657868Y-82988893D01*
X141643253Y-83008599D01*
X141626777Y-83026777D01*
X141608599Y-83043253D01*
X141588893Y-83057868D01*
X141567850Y-83070480D01*
X141545671Y-83080970D01*
X141522572Y-83089235D01*
X141498773Y-83095196D01*
X141474505Y-83098796D01*
X141450001Y-83100000D01*
X140549999Y-83100000D01*
X140525495Y-83098796D01*
X140501227Y-83095196D01*
X140477428Y-83089235D01*
X140454329Y-83080970D01*
X140432150Y-83070480D01*
X140411107Y-83057868D01*
X140391401Y-83043253D01*
X140373223Y-83026777D01*
X140356747Y-83008599D01*
X140342132Y-82988893D01*
X140329520Y-82967850D01*
X140319030Y-82945671D01*
X140310765Y-82922572D01*
X140304804Y-82898773D01*
X140301204Y-82874505D01*
X140300000Y-82850001D01*
X140300000Y-82199999D01*
X140301204Y-82175495D01*
X140304804Y-82151227D01*
X140310765Y-82127428D01*
X140319030Y-82104329D01*
X140329520Y-82082150D01*
X140342132Y-82061107D01*
X140356747Y-82041401D01*
X140373223Y-82023223D01*
X140391401Y-82006747D01*
X140411107Y-81992132D01*
X140432150Y-81979520D01*
X140454329Y-81969030D01*
X140477428Y-81960765D01*
X140501227Y-81954804D01*
X140525495Y-81951204D01*
X140549999Y-81950000D01*
X141450001Y-81950000D01*
X141474505Y-81951204D01*
X141474505Y-81951204D01*
G37*
D14*
X141000000Y-82525000D03*
D13*
G36*
X143974505Y-79901204D02*
G01*
X143998773Y-79904804D01*
X144022572Y-79910765D01*
X144045671Y-79919030D01*
X144067850Y-79929520D01*
X144088893Y-79942132D01*
X144108599Y-79956747D01*
X144126777Y-79973223D01*
X144143253Y-79991401D01*
X144157868Y-80011107D01*
X144170480Y-80032150D01*
X144180970Y-80054329D01*
X144189235Y-80077428D01*
X144195196Y-80101227D01*
X144198796Y-80125495D01*
X144200000Y-80149999D01*
X144200000Y-80800001D01*
X144198796Y-80824505D01*
X144195196Y-80848773D01*
X144189235Y-80872572D01*
X144180970Y-80895671D01*
X144170480Y-80917850D01*
X144157868Y-80938893D01*
X144143253Y-80958599D01*
X144126777Y-80976777D01*
X144108599Y-80993253D01*
X144088893Y-81007868D01*
X144067850Y-81020480D01*
X144045671Y-81030970D01*
X144022572Y-81039235D01*
X143998773Y-81045196D01*
X143974505Y-81048796D01*
X143950001Y-81050000D01*
X143049999Y-81050000D01*
X143025495Y-81048796D01*
X143001227Y-81045196D01*
X142977428Y-81039235D01*
X142954329Y-81030970D01*
X142932150Y-81020480D01*
X142911107Y-81007868D01*
X142891401Y-80993253D01*
X142873223Y-80976777D01*
X142856747Y-80958599D01*
X142842132Y-80938893D01*
X142829520Y-80917850D01*
X142819030Y-80895671D01*
X142810765Y-80872572D01*
X142804804Y-80848773D01*
X142801204Y-80824505D01*
X142800000Y-80800001D01*
X142800000Y-80149999D01*
X142801204Y-80125495D01*
X142804804Y-80101227D01*
X142810765Y-80077428D01*
X142819030Y-80054329D01*
X142829520Y-80032150D01*
X142842132Y-80011107D01*
X142856747Y-79991401D01*
X142873223Y-79973223D01*
X142891401Y-79956747D01*
X142911107Y-79942132D01*
X142932150Y-79929520D01*
X142954329Y-79919030D01*
X142977428Y-79910765D01*
X143001227Y-79904804D01*
X143025495Y-79901204D01*
X143049999Y-79900000D01*
X143950001Y-79900000D01*
X143974505Y-79901204D01*
X143974505Y-79901204D01*
G37*
D14*
X143500000Y-80475000D03*
D13*
G36*
X143974505Y-81951204D02*
G01*
X143998773Y-81954804D01*
X144022572Y-81960765D01*
X144045671Y-81969030D01*
X144067850Y-81979520D01*
X144088893Y-81992132D01*
X144108599Y-82006747D01*
X144126777Y-82023223D01*
X144143253Y-82041401D01*
X144157868Y-82061107D01*
X144170480Y-82082150D01*
X144180970Y-82104329D01*
X144189235Y-82127428D01*
X144195196Y-82151227D01*
X144198796Y-82175495D01*
X144200000Y-82199999D01*
X144200000Y-82850001D01*
X144198796Y-82874505D01*
X144195196Y-82898773D01*
X144189235Y-82922572D01*
X144180970Y-82945671D01*
X144170480Y-82967850D01*
X144157868Y-82988893D01*
X144143253Y-83008599D01*
X144126777Y-83026777D01*
X144108599Y-83043253D01*
X144088893Y-83057868D01*
X144067850Y-83070480D01*
X144045671Y-83080970D01*
X144022572Y-83089235D01*
X143998773Y-83095196D01*
X143974505Y-83098796D01*
X143950001Y-83100000D01*
X143049999Y-83100000D01*
X143025495Y-83098796D01*
X143001227Y-83095196D01*
X142977428Y-83089235D01*
X142954329Y-83080970D01*
X142932150Y-83070480D01*
X142911107Y-83057868D01*
X142891401Y-83043253D01*
X142873223Y-83026777D01*
X142856747Y-83008599D01*
X142842132Y-82988893D01*
X142829520Y-82967850D01*
X142819030Y-82945671D01*
X142810765Y-82922572D01*
X142804804Y-82898773D01*
X142801204Y-82874505D01*
X142800000Y-82850001D01*
X142800000Y-82199999D01*
X142801204Y-82175495D01*
X142804804Y-82151227D01*
X142810765Y-82127428D01*
X142819030Y-82104329D01*
X142829520Y-82082150D01*
X142842132Y-82061107D01*
X142856747Y-82041401D01*
X142873223Y-82023223D01*
X142891401Y-82006747D01*
X142911107Y-81992132D01*
X142932150Y-81979520D01*
X142954329Y-81969030D01*
X142977428Y-81960765D01*
X143001227Y-81954804D01*
X143025495Y-81951204D01*
X143049999Y-81950000D01*
X143950001Y-81950000D01*
X143974505Y-81951204D01*
X143974505Y-81951204D01*
G37*
D14*
X143500000Y-82525000D03*
D24*
X167250000Y-94675000D03*
X160900000Y-94675000D03*
X167250000Y-88325000D03*
D25*
X164075000Y-91500000D03*
D24*
X160900000Y-88325000D03*
D26*
X121765000Y-122226000D03*
X121765000Y-124766000D03*
X121765000Y-127306000D03*
D27*
X89750000Y-90080000D03*
X89750000Y-87540000D03*
D28*
X89750000Y-85000000D03*
D13*
G36*
X86010765Y-74254213D02*
G01*
X86095704Y-74266813D01*
X86178999Y-74287677D01*
X86259848Y-74316605D01*
X86337472Y-74353319D01*
X86411124Y-74397464D01*
X86480094Y-74448616D01*
X86543718Y-74506282D01*
X86601384Y-74569906D01*
X86652536Y-74638876D01*
X86696681Y-74712528D01*
X86733395Y-74790152D01*
X86762323Y-74871001D01*
X86783187Y-74954296D01*
X86795787Y-75039235D01*
X86800000Y-75125000D01*
X86800000Y-76875000D01*
X86795787Y-76960765D01*
X86783187Y-77045704D01*
X86762323Y-77128999D01*
X86733395Y-77209848D01*
X86696681Y-77287472D01*
X86652536Y-77361124D01*
X86601384Y-77430094D01*
X86543718Y-77493718D01*
X86480094Y-77551384D01*
X86411124Y-77602536D01*
X86337472Y-77646681D01*
X86259848Y-77683395D01*
X86178999Y-77712323D01*
X86095704Y-77733187D01*
X86010765Y-77745787D01*
X85925000Y-77750000D01*
X84175000Y-77750000D01*
X84089235Y-77745787D01*
X84004296Y-77733187D01*
X83921001Y-77712323D01*
X83840152Y-77683395D01*
X83762528Y-77646681D01*
X83688876Y-77602536D01*
X83619906Y-77551384D01*
X83556282Y-77493718D01*
X83498616Y-77430094D01*
X83447464Y-77361124D01*
X83403319Y-77287472D01*
X83366605Y-77209848D01*
X83337677Y-77128999D01*
X83316813Y-77045704D01*
X83304213Y-76960765D01*
X83300000Y-76875000D01*
X83300000Y-75125000D01*
X83304213Y-75039235D01*
X83316813Y-74954296D01*
X83337677Y-74871001D01*
X83366605Y-74790152D01*
X83403319Y-74712528D01*
X83447464Y-74638876D01*
X83498616Y-74569906D01*
X83556282Y-74506282D01*
X83619906Y-74448616D01*
X83688876Y-74397464D01*
X83762528Y-74353319D01*
X83840152Y-74316605D01*
X83921001Y-74287677D01*
X84004296Y-74266813D01*
X84089235Y-74254213D01*
X84175000Y-74250000D01*
X85925000Y-74250000D01*
X86010765Y-74254213D01*
X86010765Y-74254213D01*
G37*
D29*
X85050000Y-76000000D03*
D13*
G36*
X90823513Y-71503611D02*
G01*
X90896318Y-71514411D01*
X90967714Y-71532295D01*
X91037013Y-71557090D01*
X91103548Y-71588559D01*
X91166678Y-71626398D01*
X91225795Y-71670242D01*
X91280330Y-71719670D01*
X91329758Y-71774205D01*
X91373602Y-71833322D01*
X91411441Y-71896452D01*
X91442910Y-71962987D01*
X91467705Y-72032286D01*
X91485589Y-72103682D01*
X91496389Y-72176487D01*
X91500000Y-72250000D01*
X91500000Y-73750000D01*
X91496389Y-73823513D01*
X91485589Y-73896318D01*
X91467705Y-73967714D01*
X91442910Y-74037013D01*
X91411441Y-74103548D01*
X91373602Y-74166678D01*
X91329758Y-74225795D01*
X91280330Y-74280330D01*
X91225795Y-74329758D01*
X91166678Y-74373602D01*
X91103548Y-74411441D01*
X91037013Y-74442910D01*
X90967714Y-74467705D01*
X90896318Y-74485589D01*
X90823513Y-74496389D01*
X90750000Y-74500000D01*
X88750000Y-74500000D01*
X88676487Y-74496389D01*
X88603682Y-74485589D01*
X88532286Y-74467705D01*
X88462987Y-74442910D01*
X88396452Y-74411441D01*
X88333322Y-74373602D01*
X88274205Y-74329758D01*
X88219670Y-74280330D01*
X88170242Y-74225795D01*
X88126398Y-74166678D01*
X88088559Y-74103548D01*
X88057090Y-74037013D01*
X88032295Y-73967714D01*
X88014411Y-73896318D01*
X88003611Y-73823513D01*
X88000000Y-73750000D01*
X88000000Y-72250000D01*
X88003611Y-72176487D01*
X88014411Y-72103682D01*
X88032295Y-72032286D01*
X88057090Y-71962987D01*
X88088559Y-71896452D01*
X88126398Y-71833322D01*
X88170242Y-71774205D01*
X88219670Y-71719670D01*
X88274205Y-71670242D01*
X88333322Y-71626398D01*
X88396452Y-71588559D01*
X88462987Y-71557090D01*
X88532286Y-71532295D01*
X88603682Y-71514411D01*
X88676487Y-71503611D01*
X88750000Y-71500000D01*
X90750000Y-71500000D01*
X90823513Y-71503611D01*
X90823513Y-71503611D01*
G37*
D30*
X89750000Y-73000000D03*
D31*
X89750000Y-79000000D03*
D32*
X75500000Y-87250000D03*
X75500000Y-92330000D03*
X75500000Y-97410000D03*
X75500000Y-102490000D03*
X75500000Y-107570000D03*
X75500000Y-112650000D03*
X75500000Y-117730000D03*
D33*
X75500000Y-122810000D03*
D34*
X105350000Y-96500000D03*
X105350000Y-97450000D03*
X105350000Y-95550000D03*
X103150000Y-95550000D03*
X103150000Y-96500000D03*
X103150000Y-97450000D03*
D13*
G36*
X101349505Y-100801204D02*
G01*
X101373773Y-100804804D01*
X101397572Y-100810765D01*
X101420671Y-100819030D01*
X101442850Y-100829520D01*
X101463893Y-100842132D01*
X101483599Y-100856747D01*
X101501777Y-100873223D01*
X101518253Y-100891401D01*
X101532868Y-100911107D01*
X101545480Y-100932150D01*
X101555970Y-100954329D01*
X101564235Y-100977428D01*
X101570196Y-101001227D01*
X101573796Y-101025495D01*
X101575000Y-101049999D01*
X101575000Y-101950001D01*
X101573796Y-101974505D01*
X101570196Y-101998773D01*
X101564235Y-102022572D01*
X101555970Y-102045671D01*
X101545480Y-102067850D01*
X101532868Y-102088893D01*
X101518253Y-102108599D01*
X101501777Y-102126777D01*
X101483599Y-102143253D01*
X101463893Y-102157868D01*
X101442850Y-102170480D01*
X101420671Y-102180970D01*
X101397572Y-102189235D01*
X101373773Y-102195196D01*
X101349505Y-102198796D01*
X101325001Y-102200000D01*
X100674999Y-102200000D01*
X100650495Y-102198796D01*
X100626227Y-102195196D01*
X100602428Y-102189235D01*
X100579329Y-102180970D01*
X100557150Y-102170480D01*
X100536107Y-102157868D01*
X100516401Y-102143253D01*
X100498223Y-102126777D01*
X100481747Y-102108599D01*
X100467132Y-102088893D01*
X100454520Y-102067850D01*
X100444030Y-102045671D01*
X100435765Y-102022572D01*
X100429804Y-101998773D01*
X100426204Y-101974505D01*
X100425000Y-101950001D01*
X100425000Y-101049999D01*
X100426204Y-101025495D01*
X100429804Y-101001227D01*
X100435765Y-100977428D01*
X100444030Y-100954329D01*
X100454520Y-100932150D01*
X100467132Y-100911107D01*
X100481747Y-100891401D01*
X100498223Y-100873223D01*
X100516401Y-100856747D01*
X100536107Y-100842132D01*
X100557150Y-100829520D01*
X100579329Y-100819030D01*
X100602428Y-100810765D01*
X100626227Y-100804804D01*
X100650495Y-100801204D01*
X100674999Y-100800000D01*
X101325001Y-100800000D01*
X101349505Y-100801204D01*
X101349505Y-100801204D01*
G37*
D14*
X101000000Y-101500000D03*
D13*
G36*
X103399505Y-100801204D02*
G01*
X103423773Y-100804804D01*
X103447572Y-100810765D01*
X103470671Y-100819030D01*
X103492850Y-100829520D01*
X103513893Y-100842132D01*
X103533599Y-100856747D01*
X103551777Y-100873223D01*
X103568253Y-100891401D01*
X103582868Y-100911107D01*
X103595480Y-100932150D01*
X103605970Y-100954329D01*
X103614235Y-100977428D01*
X103620196Y-101001227D01*
X103623796Y-101025495D01*
X103625000Y-101049999D01*
X103625000Y-101950001D01*
X103623796Y-101974505D01*
X103620196Y-101998773D01*
X103614235Y-102022572D01*
X103605970Y-102045671D01*
X103595480Y-102067850D01*
X103582868Y-102088893D01*
X103568253Y-102108599D01*
X103551777Y-102126777D01*
X103533599Y-102143253D01*
X103513893Y-102157868D01*
X103492850Y-102170480D01*
X103470671Y-102180970D01*
X103447572Y-102189235D01*
X103423773Y-102195196D01*
X103399505Y-102198796D01*
X103375001Y-102200000D01*
X102724999Y-102200000D01*
X102700495Y-102198796D01*
X102676227Y-102195196D01*
X102652428Y-102189235D01*
X102629329Y-102180970D01*
X102607150Y-102170480D01*
X102586107Y-102157868D01*
X102566401Y-102143253D01*
X102548223Y-102126777D01*
X102531747Y-102108599D01*
X102517132Y-102088893D01*
X102504520Y-102067850D01*
X102494030Y-102045671D01*
X102485765Y-102022572D01*
X102479804Y-101998773D01*
X102476204Y-101974505D01*
X102475000Y-101950001D01*
X102475000Y-101049999D01*
X102476204Y-101025495D01*
X102479804Y-101001227D01*
X102485765Y-100977428D01*
X102494030Y-100954329D01*
X102504520Y-100932150D01*
X102517132Y-100911107D01*
X102531747Y-100891401D01*
X102548223Y-100873223D01*
X102566401Y-100856747D01*
X102586107Y-100842132D01*
X102607150Y-100829520D01*
X102629329Y-100819030D01*
X102652428Y-100810765D01*
X102676227Y-100804804D01*
X102700495Y-100801204D01*
X102724999Y-100800000D01*
X103375001Y-100800000D01*
X103399505Y-100801204D01*
X103399505Y-100801204D01*
G37*
D14*
X103050000Y-101500000D03*
D13*
G36*
X107724505Y-95426204D02*
G01*
X107748773Y-95429804D01*
X107772572Y-95435765D01*
X107795671Y-95444030D01*
X107817850Y-95454520D01*
X107838893Y-95467132D01*
X107858599Y-95481747D01*
X107876777Y-95498223D01*
X107893253Y-95516401D01*
X107907868Y-95536107D01*
X107920480Y-95557150D01*
X107930970Y-95579329D01*
X107939235Y-95602428D01*
X107945196Y-95626227D01*
X107948796Y-95650495D01*
X107950000Y-95674999D01*
X107950000Y-96325001D01*
X107948796Y-96349505D01*
X107945196Y-96373773D01*
X107939235Y-96397572D01*
X107930970Y-96420671D01*
X107920480Y-96442850D01*
X107907868Y-96463893D01*
X107893253Y-96483599D01*
X107876777Y-96501777D01*
X107858599Y-96518253D01*
X107838893Y-96532868D01*
X107817850Y-96545480D01*
X107795671Y-96555970D01*
X107772572Y-96564235D01*
X107748773Y-96570196D01*
X107724505Y-96573796D01*
X107700001Y-96575000D01*
X106799999Y-96575000D01*
X106775495Y-96573796D01*
X106751227Y-96570196D01*
X106727428Y-96564235D01*
X106704329Y-96555970D01*
X106682150Y-96545480D01*
X106661107Y-96532868D01*
X106641401Y-96518253D01*
X106623223Y-96501777D01*
X106606747Y-96483599D01*
X106592132Y-96463893D01*
X106579520Y-96442850D01*
X106569030Y-96420671D01*
X106560765Y-96397572D01*
X106554804Y-96373773D01*
X106551204Y-96349505D01*
X106550000Y-96325001D01*
X106550000Y-95674999D01*
X106551204Y-95650495D01*
X106554804Y-95626227D01*
X106560765Y-95602428D01*
X106569030Y-95579329D01*
X106579520Y-95557150D01*
X106592132Y-95536107D01*
X106606747Y-95516401D01*
X106623223Y-95498223D01*
X106641401Y-95481747D01*
X106661107Y-95467132D01*
X106682150Y-95454520D01*
X106704329Y-95444030D01*
X106727428Y-95435765D01*
X106751227Y-95429804D01*
X106775495Y-95426204D01*
X106799999Y-95425000D01*
X107700001Y-95425000D01*
X107724505Y-95426204D01*
X107724505Y-95426204D01*
G37*
D14*
X107250000Y-96000000D03*
D13*
G36*
X107724505Y-97476204D02*
G01*
X107748773Y-97479804D01*
X107772572Y-97485765D01*
X107795671Y-97494030D01*
X107817850Y-97504520D01*
X107838893Y-97517132D01*
X107858599Y-97531747D01*
X107876777Y-97548223D01*
X107893253Y-97566401D01*
X107907868Y-97586107D01*
X107920480Y-97607150D01*
X107930970Y-97629329D01*
X107939235Y-97652428D01*
X107945196Y-97676227D01*
X107948796Y-97700495D01*
X107950000Y-97724999D01*
X107950000Y-98375001D01*
X107948796Y-98399505D01*
X107945196Y-98423773D01*
X107939235Y-98447572D01*
X107930970Y-98470671D01*
X107920480Y-98492850D01*
X107907868Y-98513893D01*
X107893253Y-98533599D01*
X107876777Y-98551777D01*
X107858599Y-98568253D01*
X107838893Y-98582868D01*
X107817850Y-98595480D01*
X107795671Y-98605970D01*
X107772572Y-98614235D01*
X107748773Y-98620196D01*
X107724505Y-98623796D01*
X107700001Y-98625000D01*
X106799999Y-98625000D01*
X106775495Y-98623796D01*
X106751227Y-98620196D01*
X106727428Y-98614235D01*
X106704329Y-98605970D01*
X106682150Y-98595480D01*
X106661107Y-98582868D01*
X106641401Y-98568253D01*
X106623223Y-98551777D01*
X106606747Y-98533599D01*
X106592132Y-98513893D01*
X106579520Y-98492850D01*
X106569030Y-98470671D01*
X106560765Y-98447572D01*
X106554804Y-98423773D01*
X106551204Y-98399505D01*
X106550000Y-98375001D01*
X106550000Y-97724999D01*
X106551204Y-97700495D01*
X106554804Y-97676227D01*
X106560765Y-97652428D01*
X106569030Y-97629329D01*
X106579520Y-97607150D01*
X106592132Y-97586107D01*
X106606747Y-97566401D01*
X106623223Y-97548223D01*
X106641401Y-97531747D01*
X106661107Y-97517132D01*
X106682150Y-97504520D01*
X106704329Y-97494030D01*
X106727428Y-97485765D01*
X106751227Y-97479804D01*
X106775495Y-97476204D01*
X106799999Y-97475000D01*
X107700001Y-97475000D01*
X107724505Y-97476204D01*
X107724505Y-97476204D01*
G37*
D14*
X107250000Y-98050000D03*
D13*
G36*
X95224505Y-97901204D02*
G01*
X95248773Y-97904804D01*
X95272572Y-97910765D01*
X95295671Y-97919030D01*
X95317850Y-97929520D01*
X95338893Y-97942132D01*
X95358599Y-97956747D01*
X95376777Y-97973223D01*
X95393253Y-97991401D01*
X95407868Y-98011107D01*
X95420480Y-98032150D01*
X95430970Y-98054329D01*
X95439235Y-98077428D01*
X95445196Y-98101227D01*
X95448796Y-98125495D01*
X95450000Y-98149999D01*
X95450000Y-98800001D01*
X95448796Y-98824505D01*
X95445196Y-98848773D01*
X95439235Y-98872572D01*
X95430970Y-98895671D01*
X95420480Y-98917850D01*
X95407868Y-98938893D01*
X95393253Y-98958599D01*
X95376777Y-98976777D01*
X95358599Y-98993253D01*
X95338893Y-99007868D01*
X95317850Y-99020480D01*
X95295671Y-99030970D01*
X95272572Y-99039235D01*
X95248773Y-99045196D01*
X95224505Y-99048796D01*
X95200001Y-99050000D01*
X94299999Y-99050000D01*
X94275495Y-99048796D01*
X94251227Y-99045196D01*
X94227428Y-99039235D01*
X94204329Y-99030970D01*
X94182150Y-99020480D01*
X94161107Y-99007868D01*
X94141401Y-98993253D01*
X94123223Y-98976777D01*
X94106747Y-98958599D01*
X94092132Y-98938893D01*
X94079520Y-98917850D01*
X94069030Y-98895671D01*
X94060765Y-98872572D01*
X94054804Y-98848773D01*
X94051204Y-98824505D01*
X94050000Y-98800001D01*
X94050000Y-98149999D01*
X94051204Y-98125495D01*
X94054804Y-98101227D01*
X94060765Y-98077428D01*
X94069030Y-98054329D01*
X94079520Y-98032150D01*
X94092132Y-98011107D01*
X94106747Y-97991401D01*
X94123223Y-97973223D01*
X94141401Y-97956747D01*
X94161107Y-97942132D01*
X94182150Y-97929520D01*
X94204329Y-97919030D01*
X94227428Y-97910765D01*
X94251227Y-97904804D01*
X94275495Y-97901204D01*
X94299999Y-97900000D01*
X95200001Y-97900000D01*
X95224505Y-97901204D01*
X95224505Y-97901204D01*
G37*
D14*
X94750000Y-98475000D03*
D13*
G36*
X95224505Y-99951204D02*
G01*
X95248773Y-99954804D01*
X95272572Y-99960765D01*
X95295671Y-99969030D01*
X95317850Y-99979520D01*
X95338893Y-99992132D01*
X95358599Y-100006747D01*
X95376777Y-100023223D01*
X95393253Y-100041401D01*
X95407868Y-100061107D01*
X95420480Y-100082150D01*
X95430970Y-100104329D01*
X95439235Y-100127428D01*
X95445196Y-100151227D01*
X95448796Y-100175495D01*
X95450000Y-100199999D01*
X95450000Y-100850001D01*
X95448796Y-100874505D01*
X95445196Y-100898773D01*
X95439235Y-100922572D01*
X95430970Y-100945671D01*
X95420480Y-100967850D01*
X95407868Y-100988893D01*
X95393253Y-101008599D01*
X95376777Y-101026777D01*
X95358599Y-101043253D01*
X95338893Y-101057868D01*
X95317850Y-101070480D01*
X95295671Y-101080970D01*
X95272572Y-101089235D01*
X95248773Y-101095196D01*
X95224505Y-101098796D01*
X95200001Y-101100000D01*
X94299999Y-101100000D01*
X94275495Y-101098796D01*
X94251227Y-101095196D01*
X94227428Y-101089235D01*
X94204329Y-101080970D01*
X94182150Y-101070480D01*
X94161107Y-101057868D01*
X94141401Y-101043253D01*
X94123223Y-101026777D01*
X94106747Y-101008599D01*
X94092132Y-100988893D01*
X94079520Y-100967850D01*
X94069030Y-100945671D01*
X94060765Y-100922572D01*
X94054804Y-100898773D01*
X94051204Y-100874505D01*
X94050000Y-100850001D01*
X94050000Y-100199999D01*
X94051204Y-100175495D01*
X94054804Y-100151227D01*
X94060765Y-100127428D01*
X94069030Y-100104329D01*
X94079520Y-100082150D01*
X94092132Y-100061107D01*
X94106747Y-100041401D01*
X94123223Y-100023223D01*
X94141401Y-100006747D01*
X94161107Y-99992132D01*
X94182150Y-99979520D01*
X94204329Y-99969030D01*
X94227428Y-99960765D01*
X94251227Y-99954804D01*
X94275495Y-99951204D01*
X94299999Y-99950000D01*
X95200001Y-99950000D01*
X95224505Y-99951204D01*
X95224505Y-99951204D01*
G37*
D14*
X94750000Y-100525000D03*
D13*
G36*
X97224505Y-97901204D02*
G01*
X97248773Y-97904804D01*
X97272572Y-97910765D01*
X97295671Y-97919030D01*
X97317850Y-97929520D01*
X97338893Y-97942132D01*
X97358599Y-97956747D01*
X97376777Y-97973223D01*
X97393253Y-97991401D01*
X97407868Y-98011107D01*
X97420480Y-98032150D01*
X97430970Y-98054329D01*
X97439235Y-98077428D01*
X97445196Y-98101227D01*
X97448796Y-98125495D01*
X97450000Y-98149999D01*
X97450000Y-98800001D01*
X97448796Y-98824505D01*
X97445196Y-98848773D01*
X97439235Y-98872572D01*
X97430970Y-98895671D01*
X97420480Y-98917850D01*
X97407868Y-98938893D01*
X97393253Y-98958599D01*
X97376777Y-98976777D01*
X97358599Y-98993253D01*
X97338893Y-99007868D01*
X97317850Y-99020480D01*
X97295671Y-99030970D01*
X97272572Y-99039235D01*
X97248773Y-99045196D01*
X97224505Y-99048796D01*
X97200001Y-99050000D01*
X96299999Y-99050000D01*
X96275495Y-99048796D01*
X96251227Y-99045196D01*
X96227428Y-99039235D01*
X96204329Y-99030970D01*
X96182150Y-99020480D01*
X96161107Y-99007868D01*
X96141401Y-98993253D01*
X96123223Y-98976777D01*
X96106747Y-98958599D01*
X96092132Y-98938893D01*
X96079520Y-98917850D01*
X96069030Y-98895671D01*
X96060765Y-98872572D01*
X96054804Y-98848773D01*
X96051204Y-98824505D01*
X96050000Y-98800001D01*
X96050000Y-98149999D01*
X96051204Y-98125495D01*
X96054804Y-98101227D01*
X96060765Y-98077428D01*
X96069030Y-98054329D01*
X96079520Y-98032150D01*
X96092132Y-98011107D01*
X96106747Y-97991401D01*
X96123223Y-97973223D01*
X96141401Y-97956747D01*
X96161107Y-97942132D01*
X96182150Y-97929520D01*
X96204329Y-97919030D01*
X96227428Y-97910765D01*
X96251227Y-97904804D01*
X96275495Y-97901204D01*
X96299999Y-97900000D01*
X97200001Y-97900000D01*
X97224505Y-97901204D01*
X97224505Y-97901204D01*
G37*
D14*
X96750000Y-98475000D03*
D13*
G36*
X97224505Y-99951204D02*
G01*
X97248773Y-99954804D01*
X97272572Y-99960765D01*
X97295671Y-99969030D01*
X97317850Y-99979520D01*
X97338893Y-99992132D01*
X97358599Y-100006747D01*
X97376777Y-100023223D01*
X97393253Y-100041401D01*
X97407868Y-100061107D01*
X97420480Y-100082150D01*
X97430970Y-100104329D01*
X97439235Y-100127428D01*
X97445196Y-100151227D01*
X97448796Y-100175495D01*
X97450000Y-100199999D01*
X97450000Y-100850001D01*
X97448796Y-100874505D01*
X97445196Y-100898773D01*
X97439235Y-100922572D01*
X97430970Y-100945671D01*
X97420480Y-100967850D01*
X97407868Y-100988893D01*
X97393253Y-101008599D01*
X97376777Y-101026777D01*
X97358599Y-101043253D01*
X97338893Y-101057868D01*
X97317850Y-101070480D01*
X97295671Y-101080970D01*
X97272572Y-101089235D01*
X97248773Y-101095196D01*
X97224505Y-101098796D01*
X97200001Y-101100000D01*
X96299999Y-101100000D01*
X96275495Y-101098796D01*
X96251227Y-101095196D01*
X96227428Y-101089235D01*
X96204329Y-101080970D01*
X96182150Y-101070480D01*
X96161107Y-101057868D01*
X96141401Y-101043253D01*
X96123223Y-101026777D01*
X96106747Y-101008599D01*
X96092132Y-100988893D01*
X96079520Y-100967850D01*
X96069030Y-100945671D01*
X96060765Y-100922572D01*
X96054804Y-100898773D01*
X96051204Y-100874505D01*
X96050000Y-100850001D01*
X96050000Y-100199999D01*
X96051204Y-100175495D01*
X96054804Y-100151227D01*
X96060765Y-100127428D01*
X96069030Y-100104329D01*
X96079520Y-100082150D01*
X96092132Y-100061107D01*
X96106747Y-100041401D01*
X96123223Y-100023223D01*
X96141401Y-100006747D01*
X96161107Y-99992132D01*
X96182150Y-99979520D01*
X96204329Y-99969030D01*
X96227428Y-99960765D01*
X96251227Y-99954804D01*
X96275495Y-99951204D01*
X96299999Y-99950000D01*
X97200001Y-99950000D01*
X97224505Y-99951204D01*
X97224505Y-99951204D01*
G37*
D14*
X96750000Y-100525000D03*
D13*
G36*
X99224505Y-97901204D02*
G01*
X99248773Y-97904804D01*
X99272572Y-97910765D01*
X99295671Y-97919030D01*
X99317850Y-97929520D01*
X99338893Y-97942132D01*
X99358599Y-97956747D01*
X99376777Y-97973223D01*
X99393253Y-97991401D01*
X99407868Y-98011107D01*
X99420480Y-98032150D01*
X99430970Y-98054329D01*
X99439235Y-98077428D01*
X99445196Y-98101227D01*
X99448796Y-98125495D01*
X99450000Y-98149999D01*
X99450000Y-98800001D01*
X99448796Y-98824505D01*
X99445196Y-98848773D01*
X99439235Y-98872572D01*
X99430970Y-98895671D01*
X99420480Y-98917850D01*
X99407868Y-98938893D01*
X99393253Y-98958599D01*
X99376777Y-98976777D01*
X99358599Y-98993253D01*
X99338893Y-99007868D01*
X99317850Y-99020480D01*
X99295671Y-99030970D01*
X99272572Y-99039235D01*
X99248773Y-99045196D01*
X99224505Y-99048796D01*
X99200001Y-99050000D01*
X98299999Y-99050000D01*
X98275495Y-99048796D01*
X98251227Y-99045196D01*
X98227428Y-99039235D01*
X98204329Y-99030970D01*
X98182150Y-99020480D01*
X98161107Y-99007868D01*
X98141401Y-98993253D01*
X98123223Y-98976777D01*
X98106747Y-98958599D01*
X98092132Y-98938893D01*
X98079520Y-98917850D01*
X98069030Y-98895671D01*
X98060765Y-98872572D01*
X98054804Y-98848773D01*
X98051204Y-98824505D01*
X98050000Y-98800001D01*
X98050000Y-98149999D01*
X98051204Y-98125495D01*
X98054804Y-98101227D01*
X98060765Y-98077428D01*
X98069030Y-98054329D01*
X98079520Y-98032150D01*
X98092132Y-98011107D01*
X98106747Y-97991401D01*
X98123223Y-97973223D01*
X98141401Y-97956747D01*
X98161107Y-97942132D01*
X98182150Y-97929520D01*
X98204329Y-97919030D01*
X98227428Y-97910765D01*
X98251227Y-97904804D01*
X98275495Y-97901204D01*
X98299999Y-97900000D01*
X99200001Y-97900000D01*
X99224505Y-97901204D01*
X99224505Y-97901204D01*
G37*
D14*
X98750000Y-98475000D03*
D13*
G36*
X99224505Y-99951204D02*
G01*
X99248773Y-99954804D01*
X99272572Y-99960765D01*
X99295671Y-99969030D01*
X99317850Y-99979520D01*
X99338893Y-99992132D01*
X99358599Y-100006747D01*
X99376777Y-100023223D01*
X99393253Y-100041401D01*
X99407868Y-100061107D01*
X99420480Y-100082150D01*
X99430970Y-100104329D01*
X99439235Y-100127428D01*
X99445196Y-100151227D01*
X99448796Y-100175495D01*
X99450000Y-100199999D01*
X99450000Y-100850001D01*
X99448796Y-100874505D01*
X99445196Y-100898773D01*
X99439235Y-100922572D01*
X99430970Y-100945671D01*
X99420480Y-100967850D01*
X99407868Y-100988893D01*
X99393253Y-101008599D01*
X99376777Y-101026777D01*
X99358599Y-101043253D01*
X99338893Y-101057868D01*
X99317850Y-101070480D01*
X99295671Y-101080970D01*
X99272572Y-101089235D01*
X99248773Y-101095196D01*
X99224505Y-101098796D01*
X99200001Y-101100000D01*
X98299999Y-101100000D01*
X98275495Y-101098796D01*
X98251227Y-101095196D01*
X98227428Y-101089235D01*
X98204329Y-101080970D01*
X98182150Y-101070480D01*
X98161107Y-101057868D01*
X98141401Y-101043253D01*
X98123223Y-101026777D01*
X98106747Y-101008599D01*
X98092132Y-100988893D01*
X98079520Y-100967850D01*
X98069030Y-100945671D01*
X98060765Y-100922572D01*
X98054804Y-100898773D01*
X98051204Y-100874505D01*
X98050000Y-100850001D01*
X98050000Y-100199999D01*
X98051204Y-100175495D01*
X98054804Y-100151227D01*
X98060765Y-100127428D01*
X98069030Y-100104329D01*
X98079520Y-100082150D01*
X98092132Y-100061107D01*
X98106747Y-100041401D01*
X98123223Y-100023223D01*
X98141401Y-100006747D01*
X98161107Y-99992132D01*
X98182150Y-99979520D01*
X98204329Y-99969030D01*
X98227428Y-99960765D01*
X98251227Y-99954804D01*
X98275495Y-99951204D01*
X98299999Y-99950000D01*
X99200001Y-99950000D01*
X99224505Y-99951204D01*
X99224505Y-99951204D01*
G37*
D14*
X98750000Y-100525000D03*
D13*
G36*
X96124505Y-95301204D02*
G01*
X96148773Y-95304804D01*
X96172572Y-95310765D01*
X96195671Y-95319030D01*
X96217850Y-95329520D01*
X96238893Y-95342132D01*
X96258599Y-95356747D01*
X96276777Y-95373223D01*
X96293253Y-95391401D01*
X96307868Y-95411107D01*
X96320480Y-95432150D01*
X96330970Y-95454329D01*
X96339235Y-95477428D01*
X96345196Y-95501227D01*
X96348796Y-95525495D01*
X96350000Y-95549999D01*
X96350000Y-96450001D01*
X96348796Y-96474505D01*
X96345196Y-96498773D01*
X96339235Y-96522572D01*
X96330970Y-96545671D01*
X96320480Y-96567850D01*
X96307868Y-96588893D01*
X96293253Y-96608599D01*
X96276777Y-96626777D01*
X96258599Y-96643253D01*
X96238893Y-96657868D01*
X96217850Y-96670480D01*
X96195671Y-96680970D01*
X96172572Y-96689235D01*
X96148773Y-96695196D01*
X96124505Y-96698796D01*
X96100001Y-96700000D01*
X95449999Y-96700000D01*
X95425495Y-96698796D01*
X95401227Y-96695196D01*
X95377428Y-96689235D01*
X95354329Y-96680970D01*
X95332150Y-96670480D01*
X95311107Y-96657868D01*
X95291401Y-96643253D01*
X95273223Y-96626777D01*
X95256747Y-96608599D01*
X95242132Y-96588893D01*
X95229520Y-96567850D01*
X95219030Y-96545671D01*
X95210765Y-96522572D01*
X95204804Y-96498773D01*
X95201204Y-96474505D01*
X95200000Y-96450001D01*
X95200000Y-95549999D01*
X95201204Y-95525495D01*
X95204804Y-95501227D01*
X95210765Y-95477428D01*
X95219030Y-95454329D01*
X95229520Y-95432150D01*
X95242132Y-95411107D01*
X95256747Y-95391401D01*
X95273223Y-95373223D01*
X95291401Y-95356747D01*
X95311107Y-95342132D01*
X95332150Y-95329520D01*
X95354329Y-95319030D01*
X95377428Y-95310765D01*
X95401227Y-95304804D01*
X95425495Y-95301204D01*
X95449999Y-95300000D01*
X96100001Y-95300000D01*
X96124505Y-95301204D01*
X96124505Y-95301204D01*
G37*
D14*
X95775000Y-96000000D03*
D13*
G36*
X94074505Y-95301204D02*
G01*
X94098773Y-95304804D01*
X94122572Y-95310765D01*
X94145671Y-95319030D01*
X94167850Y-95329520D01*
X94188893Y-95342132D01*
X94208599Y-95356747D01*
X94226777Y-95373223D01*
X94243253Y-95391401D01*
X94257868Y-95411107D01*
X94270480Y-95432150D01*
X94280970Y-95454329D01*
X94289235Y-95477428D01*
X94295196Y-95501227D01*
X94298796Y-95525495D01*
X94300000Y-95549999D01*
X94300000Y-96450001D01*
X94298796Y-96474505D01*
X94295196Y-96498773D01*
X94289235Y-96522572D01*
X94280970Y-96545671D01*
X94270480Y-96567850D01*
X94257868Y-96588893D01*
X94243253Y-96608599D01*
X94226777Y-96626777D01*
X94208599Y-96643253D01*
X94188893Y-96657868D01*
X94167850Y-96670480D01*
X94145671Y-96680970D01*
X94122572Y-96689235D01*
X94098773Y-96695196D01*
X94074505Y-96698796D01*
X94050001Y-96700000D01*
X93399999Y-96700000D01*
X93375495Y-96698796D01*
X93351227Y-96695196D01*
X93327428Y-96689235D01*
X93304329Y-96680970D01*
X93282150Y-96670480D01*
X93261107Y-96657868D01*
X93241401Y-96643253D01*
X93223223Y-96626777D01*
X93206747Y-96608599D01*
X93192132Y-96588893D01*
X93179520Y-96567850D01*
X93169030Y-96545671D01*
X93160765Y-96522572D01*
X93154804Y-96498773D01*
X93151204Y-96474505D01*
X93150000Y-96450001D01*
X93150000Y-95549999D01*
X93151204Y-95525495D01*
X93154804Y-95501227D01*
X93160765Y-95477428D01*
X93169030Y-95454329D01*
X93179520Y-95432150D01*
X93192132Y-95411107D01*
X93206747Y-95391401D01*
X93223223Y-95373223D01*
X93241401Y-95356747D01*
X93261107Y-95342132D01*
X93282150Y-95329520D01*
X93304329Y-95319030D01*
X93327428Y-95310765D01*
X93351227Y-95304804D01*
X93375495Y-95301204D01*
X93399999Y-95300000D01*
X94050001Y-95300000D01*
X94074505Y-95301204D01*
X94074505Y-95301204D01*
G37*
D14*
X93725000Y-96000000D03*
D13*
G36*
X89974505Y-97426204D02*
G01*
X89998773Y-97429804D01*
X90022572Y-97435765D01*
X90045671Y-97444030D01*
X90067850Y-97454520D01*
X90088893Y-97467132D01*
X90108599Y-97481747D01*
X90126777Y-97498223D01*
X90143253Y-97516401D01*
X90157868Y-97536107D01*
X90170480Y-97557150D01*
X90180970Y-97579329D01*
X90189235Y-97602428D01*
X90195196Y-97626227D01*
X90198796Y-97650495D01*
X90200000Y-97674999D01*
X90200000Y-98325001D01*
X90198796Y-98349505D01*
X90195196Y-98373773D01*
X90189235Y-98397572D01*
X90180970Y-98420671D01*
X90170480Y-98442850D01*
X90157868Y-98463893D01*
X90143253Y-98483599D01*
X90126777Y-98501777D01*
X90108599Y-98518253D01*
X90088893Y-98532868D01*
X90067850Y-98545480D01*
X90045671Y-98555970D01*
X90022572Y-98564235D01*
X89998773Y-98570196D01*
X89974505Y-98573796D01*
X89950001Y-98575000D01*
X89049999Y-98575000D01*
X89025495Y-98573796D01*
X89001227Y-98570196D01*
X88977428Y-98564235D01*
X88954329Y-98555970D01*
X88932150Y-98545480D01*
X88911107Y-98532868D01*
X88891401Y-98518253D01*
X88873223Y-98501777D01*
X88856747Y-98483599D01*
X88842132Y-98463893D01*
X88829520Y-98442850D01*
X88819030Y-98420671D01*
X88810765Y-98397572D01*
X88804804Y-98373773D01*
X88801204Y-98349505D01*
X88800000Y-98325001D01*
X88800000Y-97674999D01*
X88801204Y-97650495D01*
X88804804Y-97626227D01*
X88810765Y-97602428D01*
X88819030Y-97579329D01*
X88829520Y-97557150D01*
X88842132Y-97536107D01*
X88856747Y-97516401D01*
X88873223Y-97498223D01*
X88891401Y-97481747D01*
X88911107Y-97467132D01*
X88932150Y-97454520D01*
X88954329Y-97444030D01*
X88977428Y-97435765D01*
X89001227Y-97429804D01*
X89025495Y-97426204D01*
X89049999Y-97425000D01*
X89950001Y-97425000D01*
X89974505Y-97426204D01*
X89974505Y-97426204D01*
G37*
D14*
X89500000Y-98000000D03*
D13*
G36*
X89974505Y-95376204D02*
G01*
X89998773Y-95379804D01*
X90022572Y-95385765D01*
X90045671Y-95394030D01*
X90067850Y-95404520D01*
X90088893Y-95417132D01*
X90108599Y-95431747D01*
X90126777Y-95448223D01*
X90143253Y-95466401D01*
X90157868Y-95486107D01*
X90170480Y-95507150D01*
X90180970Y-95529329D01*
X90189235Y-95552428D01*
X90195196Y-95576227D01*
X90198796Y-95600495D01*
X90200000Y-95624999D01*
X90200000Y-96275001D01*
X90198796Y-96299505D01*
X90195196Y-96323773D01*
X90189235Y-96347572D01*
X90180970Y-96370671D01*
X90170480Y-96392850D01*
X90157868Y-96413893D01*
X90143253Y-96433599D01*
X90126777Y-96451777D01*
X90108599Y-96468253D01*
X90088893Y-96482868D01*
X90067850Y-96495480D01*
X90045671Y-96505970D01*
X90022572Y-96514235D01*
X89998773Y-96520196D01*
X89974505Y-96523796D01*
X89950001Y-96525000D01*
X89049999Y-96525000D01*
X89025495Y-96523796D01*
X89001227Y-96520196D01*
X88977428Y-96514235D01*
X88954329Y-96505970D01*
X88932150Y-96495480D01*
X88911107Y-96482868D01*
X88891401Y-96468253D01*
X88873223Y-96451777D01*
X88856747Y-96433599D01*
X88842132Y-96413893D01*
X88829520Y-96392850D01*
X88819030Y-96370671D01*
X88810765Y-96347572D01*
X88804804Y-96323773D01*
X88801204Y-96299505D01*
X88800000Y-96275001D01*
X88800000Y-95624999D01*
X88801204Y-95600495D01*
X88804804Y-95576227D01*
X88810765Y-95552428D01*
X88819030Y-95529329D01*
X88829520Y-95507150D01*
X88842132Y-95486107D01*
X88856747Y-95466401D01*
X88873223Y-95448223D01*
X88891401Y-95431747D01*
X88911107Y-95417132D01*
X88932150Y-95404520D01*
X88954329Y-95394030D01*
X88977428Y-95385765D01*
X89001227Y-95379804D01*
X89025495Y-95376204D01*
X89049999Y-95375000D01*
X89950001Y-95375000D01*
X89974505Y-95376204D01*
X89974505Y-95376204D01*
G37*
D14*
X89500000Y-95950000D03*
D13*
G36*
X92724505Y-86701204D02*
G01*
X92748773Y-86704804D01*
X92772572Y-86710765D01*
X92795671Y-86719030D01*
X92817850Y-86729520D01*
X92838893Y-86742132D01*
X92858599Y-86756747D01*
X92876777Y-86773223D01*
X92893253Y-86791401D01*
X92907868Y-86811107D01*
X92920480Y-86832150D01*
X92930970Y-86854329D01*
X92939235Y-86877428D01*
X92945196Y-86901227D01*
X92948796Y-86925495D01*
X92950000Y-86949999D01*
X92950000Y-87600001D01*
X92948796Y-87624505D01*
X92945196Y-87648773D01*
X92939235Y-87672572D01*
X92930970Y-87695671D01*
X92920480Y-87717850D01*
X92907868Y-87738893D01*
X92893253Y-87758599D01*
X92876777Y-87776777D01*
X92858599Y-87793253D01*
X92838893Y-87807868D01*
X92817850Y-87820480D01*
X92795671Y-87830970D01*
X92772572Y-87839235D01*
X92748773Y-87845196D01*
X92724505Y-87848796D01*
X92700001Y-87850000D01*
X91799999Y-87850000D01*
X91775495Y-87848796D01*
X91751227Y-87845196D01*
X91727428Y-87839235D01*
X91704329Y-87830970D01*
X91682150Y-87820480D01*
X91661107Y-87807868D01*
X91641401Y-87793253D01*
X91623223Y-87776777D01*
X91606747Y-87758599D01*
X91592132Y-87738893D01*
X91579520Y-87717850D01*
X91569030Y-87695671D01*
X91560765Y-87672572D01*
X91554804Y-87648773D01*
X91551204Y-87624505D01*
X91550000Y-87600001D01*
X91550000Y-86949999D01*
X91551204Y-86925495D01*
X91554804Y-86901227D01*
X91560765Y-86877428D01*
X91569030Y-86854329D01*
X91579520Y-86832150D01*
X91592132Y-86811107D01*
X91606747Y-86791401D01*
X91623223Y-86773223D01*
X91641401Y-86756747D01*
X91661107Y-86742132D01*
X91682150Y-86729520D01*
X91704329Y-86719030D01*
X91727428Y-86710765D01*
X91751227Y-86704804D01*
X91775495Y-86701204D01*
X91799999Y-86700000D01*
X92700001Y-86700000D01*
X92724505Y-86701204D01*
X92724505Y-86701204D01*
G37*
D14*
X92250000Y-87275000D03*
D13*
G36*
X92724505Y-84651204D02*
G01*
X92748773Y-84654804D01*
X92772572Y-84660765D01*
X92795671Y-84669030D01*
X92817850Y-84679520D01*
X92838893Y-84692132D01*
X92858599Y-84706747D01*
X92876777Y-84723223D01*
X92893253Y-84741401D01*
X92907868Y-84761107D01*
X92920480Y-84782150D01*
X92930970Y-84804329D01*
X92939235Y-84827428D01*
X92945196Y-84851227D01*
X92948796Y-84875495D01*
X92950000Y-84899999D01*
X92950000Y-85550001D01*
X92948796Y-85574505D01*
X92945196Y-85598773D01*
X92939235Y-85622572D01*
X92930970Y-85645671D01*
X92920480Y-85667850D01*
X92907868Y-85688893D01*
X92893253Y-85708599D01*
X92876777Y-85726777D01*
X92858599Y-85743253D01*
X92838893Y-85757868D01*
X92817850Y-85770480D01*
X92795671Y-85780970D01*
X92772572Y-85789235D01*
X92748773Y-85795196D01*
X92724505Y-85798796D01*
X92700001Y-85800000D01*
X91799999Y-85800000D01*
X91775495Y-85798796D01*
X91751227Y-85795196D01*
X91727428Y-85789235D01*
X91704329Y-85780970D01*
X91682150Y-85770480D01*
X91661107Y-85757868D01*
X91641401Y-85743253D01*
X91623223Y-85726777D01*
X91606747Y-85708599D01*
X91592132Y-85688893D01*
X91579520Y-85667850D01*
X91569030Y-85645671D01*
X91560765Y-85622572D01*
X91554804Y-85598773D01*
X91551204Y-85574505D01*
X91550000Y-85550001D01*
X91550000Y-84899999D01*
X91551204Y-84875495D01*
X91554804Y-84851227D01*
X91560765Y-84827428D01*
X91569030Y-84804329D01*
X91579520Y-84782150D01*
X91592132Y-84761107D01*
X91606747Y-84741401D01*
X91623223Y-84723223D01*
X91641401Y-84706747D01*
X91661107Y-84692132D01*
X91682150Y-84679520D01*
X91704329Y-84669030D01*
X91727428Y-84660765D01*
X91751227Y-84654804D01*
X91775495Y-84651204D01*
X91799999Y-84650000D01*
X92700001Y-84650000D01*
X92724505Y-84651204D01*
X92724505Y-84651204D01*
G37*
D14*
X92250000Y-85225000D03*
D13*
G36*
X87474505Y-86726204D02*
G01*
X87498773Y-86729804D01*
X87522572Y-86735765D01*
X87545671Y-86744030D01*
X87567850Y-86754520D01*
X87588893Y-86767132D01*
X87608599Y-86781747D01*
X87626777Y-86798223D01*
X87643253Y-86816401D01*
X87657868Y-86836107D01*
X87670480Y-86857150D01*
X87680970Y-86879329D01*
X87689235Y-86902428D01*
X87695196Y-86926227D01*
X87698796Y-86950495D01*
X87700000Y-86974999D01*
X87700000Y-87625001D01*
X87698796Y-87649505D01*
X87695196Y-87673773D01*
X87689235Y-87697572D01*
X87680970Y-87720671D01*
X87670480Y-87742850D01*
X87657868Y-87763893D01*
X87643253Y-87783599D01*
X87626777Y-87801777D01*
X87608599Y-87818253D01*
X87588893Y-87832868D01*
X87567850Y-87845480D01*
X87545671Y-87855970D01*
X87522572Y-87864235D01*
X87498773Y-87870196D01*
X87474505Y-87873796D01*
X87450001Y-87875000D01*
X86549999Y-87875000D01*
X86525495Y-87873796D01*
X86501227Y-87870196D01*
X86477428Y-87864235D01*
X86454329Y-87855970D01*
X86432150Y-87845480D01*
X86411107Y-87832868D01*
X86391401Y-87818253D01*
X86373223Y-87801777D01*
X86356747Y-87783599D01*
X86342132Y-87763893D01*
X86329520Y-87742850D01*
X86319030Y-87720671D01*
X86310765Y-87697572D01*
X86304804Y-87673773D01*
X86301204Y-87649505D01*
X86300000Y-87625001D01*
X86300000Y-86974999D01*
X86301204Y-86950495D01*
X86304804Y-86926227D01*
X86310765Y-86902428D01*
X86319030Y-86879329D01*
X86329520Y-86857150D01*
X86342132Y-86836107D01*
X86356747Y-86816401D01*
X86373223Y-86798223D01*
X86391401Y-86781747D01*
X86411107Y-86767132D01*
X86432150Y-86754520D01*
X86454329Y-86744030D01*
X86477428Y-86735765D01*
X86501227Y-86729804D01*
X86525495Y-86726204D01*
X86549999Y-86725000D01*
X87450001Y-86725000D01*
X87474505Y-86726204D01*
X87474505Y-86726204D01*
G37*
D14*
X87000000Y-87300000D03*
D13*
G36*
X87474505Y-84676204D02*
G01*
X87498773Y-84679804D01*
X87522572Y-84685765D01*
X87545671Y-84694030D01*
X87567850Y-84704520D01*
X87588893Y-84717132D01*
X87608599Y-84731747D01*
X87626777Y-84748223D01*
X87643253Y-84766401D01*
X87657868Y-84786107D01*
X87670480Y-84807150D01*
X87680970Y-84829329D01*
X87689235Y-84852428D01*
X87695196Y-84876227D01*
X87698796Y-84900495D01*
X87700000Y-84924999D01*
X87700000Y-85575001D01*
X87698796Y-85599505D01*
X87695196Y-85623773D01*
X87689235Y-85647572D01*
X87680970Y-85670671D01*
X87670480Y-85692850D01*
X87657868Y-85713893D01*
X87643253Y-85733599D01*
X87626777Y-85751777D01*
X87608599Y-85768253D01*
X87588893Y-85782868D01*
X87567850Y-85795480D01*
X87545671Y-85805970D01*
X87522572Y-85814235D01*
X87498773Y-85820196D01*
X87474505Y-85823796D01*
X87450001Y-85825000D01*
X86549999Y-85825000D01*
X86525495Y-85823796D01*
X86501227Y-85820196D01*
X86477428Y-85814235D01*
X86454329Y-85805970D01*
X86432150Y-85795480D01*
X86411107Y-85782868D01*
X86391401Y-85768253D01*
X86373223Y-85751777D01*
X86356747Y-85733599D01*
X86342132Y-85713893D01*
X86329520Y-85692850D01*
X86319030Y-85670671D01*
X86310765Y-85647572D01*
X86304804Y-85623773D01*
X86301204Y-85599505D01*
X86300000Y-85575001D01*
X86300000Y-84924999D01*
X86301204Y-84900495D01*
X86304804Y-84876227D01*
X86310765Y-84852428D01*
X86319030Y-84829329D01*
X86329520Y-84807150D01*
X86342132Y-84786107D01*
X86356747Y-84766401D01*
X86373223Y-84748223D01*
X86391401Y-84731747D01*
X86411107Y-84717132D01*
X86432150Y-84704520D01*
X86454329Y-84694030D01*
X86477428Y-84685765D01*
X86501227Y-84679804D01*
X86525495Y-84676204D01*
X86549999Y-84675000D01*
X87450001Y-84675000D01*
X87474505Y-84676204D01*
X87474505Y-84676204D01*
G37*
D14*
X87000000Y-85250000D03*
D24*
X167250000Y-110675000D03*
D25*
X164075000Y-107500000D03*
D24*
X160900000Y-110675000D03*
X167250000Y-104325000D03*
X160900000Y-104325000D03*
D35*
X125175000Y-126100000D03*
X125825000Y-126100000D03*
X126475000Y-126100000D03*
X127125000Y-126100000D03*
X127775000Y-126100000D03*
X128425000Y-126100000D03*
X129075000Y-126100000D03*
X129725000Y-126100000D03*
X130375000Y-126100000D03*
X131025000Y-126100000D03*
X131675000Y-126100000D03*
X132325000Y-126100000D03*
X132325000Y-118900000D03*
X131675000Y-118900000D03*
X131025000Y-118900000D03*
X130375000Y-118900000D03*
X129725000Y-118900000D03*
X129075000Y-118900000D03*
X128425000Y-118900000D03*
X127775000Y-118900000D03*
X127125000Y-118900000D03*
X126475000Y-118900000D03*
X125825000Y-118900000D03*
X125175000Y-118900000D03*
D13*
G36*
X119974505Y-125176204D02*
G01*
X119998773Y-125179804D01*
X120022572Y-125185765D01*
X120045671Y-125194030D01*
X120067850Y-125204520D01*
X120088893Y-125217132D01*
X120108599Y-125231747D01*
X120126777Y-125248223D01*
X120143253Y-125266401D01*
X120157868Y-125286107D01*
X120170480Y-125307150D01*
X120180970Y-125329329D01*
X120189235Y-125352428D01*
X120195196Y-125376227D01*
X120198796Y-125400495D01*
X120200000Y-125424999D01*
X120200000Y-126075001D01*
X120198796Y-126099505D01*
X120195196Y-126123773D01*
X120189235Y-126147572D01*
X120180970Y-126170671D01*
X120170480Y-126192850D01*
X120157868Y-126213893D01*
X120143253Y-126233599D01*
X120126777Y-126251777D01*
X120108599Y-126268253D01*
X120088893Y-126282868D01*
X120067850Y-126295480D01*
X120045671Y-126305970D01*
X120022572Y-126314235D01*
X119998773Y-126320196D01*
X119974505Y-126323796D01*
X119950001Y-126325000D01*
X119049999Y-126325000D01*
X119025495Y-126323796D01*
X119001227Y-126320196D01*
X118977428Y-126314235D01*
X118954329Y-126305970D01*
X118932150Y-126295480D01*
X118911107Y-126282868D01*
X118891401Y-126268253D01*
X118873223Y-126251777D01*
X118856747Y-126233599D01*
X118842132Y-126213893D01*
X118829520Y-126192850D01*
X118819030Y-126170671D01*
X118810765Y-126147572D01*
X118804804Y-126123773D01*
X118801204Y-126099505D01*
X118800000Y-126075001D01*
X118800000Y-125424999D01*
X118801204Y-125400495D01*
X118804804Y-125376227D01*
X118810765Y-125352428D01*
X118819030Y-125329329D01*
X118829520Y-125307150D01*
X118842132Y-125286107D01*
X118856747Y-125266401D01*
X118873223Y-125248223D01*
X118891401Y-125231747D01*
X118911107Y-125217132D01*
X118932150Y-125204520D01*
X118954329Y-125194030D01*
X118977428Y-125185765D01*
X119001227Y-125179804D01*
X119025495Y-125176204D01*
X119049999Y-125175000D01*
X119950001Y-125175000D01*
X119974505Y-125176204D01*
X119974505Y-125176204D01*
G37*
D14*
X119500000Y-125750000D03*
D13*
G36*
X119974505Y-123126204D02*
G01*
X119998773Y-123129804D01*
X120022572Y-123135765D01*
X120045671Y-123144030D01*
X120067850Y-123154520D01*
X120088893Y-123167132D01*
X120108599Y-123181747D01*
X120126777Y-123198223D01*
X120143253Y-123216401D01*
X120157868Y-123236107D01*
X120170480Y-123257150D01*
X120180970Y-123279329D01*
X120189235Y-123302428D01*
X120195196Y-123326227D01*
X120198796Y-123350495D01*
X120200000Y-123374999D01*
X120200000Y-124025001D01*
X120198796Y-124049505D01*
X120195196Y-124073773D01*
X120189235Y-124097572D01*
X120180970Y-124120671D01*
X120170480Y-124142850D01*
X120157868Y-124163893D01*
X120143253Y-124183599D01*
X120126777Y-124201777D01*
X120108599Y-124218253D01*
X120088893Y-124232868D01*
X120067850Y-124245480D01*
X120045671Y-124255970D01*
X120022572Y-124264235D01*
X119998773Y-124270196D01*
X119974505Y-124273796D01*
X119950001Y-124275000D01*
X119049999Y-124275000D01*
X119025495Y-124273796D01*
X119001227Y-124270196D01*
X118977428Y-124264235D01*
X118954329Y-124255970D01*
X118932150Y-124245480D01*
X118911107Y-124232868D01*
X118891401Y-124218253D01*
X118873223Y-124201777D01*
X118856747Y-124183599D01*
X118842132Y-124163893D01*
X118829520Y-124142850D01*
X118819030Y-124120671D01*
X118810765Y-124097572D01*
X118804804Y-124073773D01*
X118801204Y-124049505D01*
X118800000Y-124025001D01*
X118800000Y-123374999D01*
X118801204Y-123350495D01*
X118804804Y-123326227D01*
X118810765Y-123302428D01*
X118819030Y-123279329D01*
X118829520Y-123257150D01*
X118842132Y-123236107D01*
X118856747Y-123216401D01*
X118873223Y-123198223D01*
X118891401Y-123181747D01*
X118911107Y-123167132D01*
X118932150Y-123154520D01*
X118954329Y-123144030D01*
X118977428Y-123135765D01*
X119001227Y-123129804D01*
X119025495Y-123126204D01*
X119049999Y-123125000D01*
X119950001Y-123125000D01*
X119974505Y-123126204D01*
X119974505Y-123126204D01*
G37*
D14*
X119500000Y-123700000D03*
D13*
G36*
X134324505Y-106801204D02*
G01*
X134348773Y-106804804D01*
X134372572Y-106810765D01*
X134395671Y-106819030D01*
X134417850Y-106829520D01*
X134438893Y-106842132D01*
X134458599Y-106856747D01*
X134476777Y-106873223D01*
X134493253Y-106891401D01*
X134507868Y-106911107D01*
X134520480Y-106932150D01*
X134530970Y-106954329D01*
X134539235Y-106977428D01*
X134545196Y-107001227D01*
X134548796Y-107025495D01*
X134550000Y-107049999D01*
X134550000Y-107950001D01*
X134548796Y-107974505D01*
X134545196Y-107998773D01*
X134539235Y-108022572D01*
X134530970Y-108045671D01*
X134520480Y-108067850D01*
X134507868Y-108088893D01*
X134493253Y-108108599D01*
X134476777Y-108126777D01*
X134458599Y-108143253D01*
X134438893Y-108157868D01*
X134417850Y-108170480D01*
X134395671Y-108180970D01*
X134372572Y-108189235D01*
X134348773Y-108195196D01*
X134324505Y-108198796D01*
X134300001Y-108200000D01*
X133649999Y-108200000D01*
X133625495Y-108198796D01*
X133601227Y-108195196D01*
X133577428Y-108189235D01*
X133554329Y-108180970D01*
X133532150Y-108170480D01*
X133511107Y-108157868D01*
X133491401Y-108143253D01*
X133473223Y-108126777D01*
X133456747Y-108108599D01*
X133442132Y-108088893D01*
X133429520Y-108067850D01*
X133419030Y-108045671D01*
X133410765Y-108022572D01*
X133404804Y-107998773D01*
X133401204Y-107974505D01*
X133400000Y-107950001D01*
X133400000Y-107049999D01*
X133401204Y-107025495D01*
X133404804Y-107001227D01*
X133410765Y-106977428D01*
X133419030Y-106954329D01*
X133429520Y-106932150D01*
X133442132Y-106911107D01*
X133456747Y-106891401D01*
X133473223Y-106873223D01*
X133491401Y-106856747D01*
X133511107Y-106842132D01*
X133532150Y-106829520D01*
X133554329Y-106819030D01*
X133577428Y-106810765D01*
X133601227Y-106804804D01*
X133625495Y-106801204D01*
X133649999Y-106800000D01*
X134300001Y-106800000D01*
X134324505Y-106801204D01*
X134324505Y-106801204D01*
G37*
D14*
X133975000Y-107500000D03*
D13*
G36*
X136374505Y-106801204D02*
G01*
X136398773Y-106804804D01*
X136422572Y-106810765D01*
X136445671Y-106819030D01*
X136467850Y-106829520D01*
X136488893Y-106842132D01*
X136508599Y-106856747D01*
X136526777Y-106873223D01*
X136543253Y-106891401D01*
X136557868Y-106911107D01*
X136570480Y-106932150D01*
X136580970Y-106954329D01*
X136589235Y-106977428D01*
X136595196Y-107001227D01*
X136598796Y-107025495D01*
X136600000Y-107049999D01*
X136600000Y-107950001D01*
X136598796Y-107974505D01*
X136595196Y-107998773D01*
X136589235Y-108022572D01*
X136580970Y-108045671D01*
X136570480Y-108067850D01*
X136557868Y-108088893D01*
X136543253Y-108108599D01*
X136526777Y-108126777D01*
X136508599Y-108143253D01*
X136488893Y-108157868D01*
X136467850Y-108170480D01*
X136445671Y-108180970D01*
X136422572Y-108189235D01*
X136398773Y-108195196D01*
X136374505Y-108198796D01*
X136350001Y-108200000D01*
X135699999Y-108200000D01*
X135675495Y-108198796D01*
X135651227Y-108195196D01*
X135627428Y-108189235D01*
X135604329Y-108180970D01*
X135582150Y-108170480D01*
X135561107Y-108157868D01*
X135541401Y-108143253D01*
X135523223Y-108126777D01*
X135506747Y-108108599D01*
X135492132Y-108088893D01*
X135479520Y-108067850D01*
X135469030Y-108045671D01*
X135460765Y-108022572D01*
X135454804Y-107998773D01*
X135451204Y-107974505D01*
X135450000Y-107950001D01*
X135450000Y-107049999D01*
X135451204Y-107025495D01*
X135454804Y-107001227D01*
X135460765Y-106977428D01*
X135469030Y-106954329D01*
X135479520Y-106932150D01*
X135492132Y-106911107D01*
X135506747Y-106891401D01*
X135523223Y-106873223D01*
X135541401Y-106856747D01*
X135561107Y-106842132D01*
X135582150Y-106829520D01*
X135604329Y-106819030D01*
X135627428Y-106810765D01*
X135651227Y-106804804D01*
X135675495Y-106801204D01*
X135699999Y-106800000D01*
X136350001Y-106800000D01*
X136374505Y-106801204D01*
X136374505Y-106801204D01*
G37*
D14*
X136025000Y-107500000D03*
D13*
G36*
X134324505Y-108801204D02*
G01*
X134348773Y-108804804D01*
X134372572Y-108810765D01*
X134395671Y-108819030D01*
X134417850Y-108829520D01*
X134438893Y-108842132D01*
X134458599Y-108856747D01*
X134476777Y-108873223D01*
X134493253Y-108891401D01*
X134507868Y-108911107D01*
X134520480Y-108932150D01*
X134530970Y-108954329D01*
X134539235Y-108977428D01*
X134545196Y-109001227D01*
X134548796Y-109025495D01*
X134550000Y-109049999D01*
X134550000Y-109950001D01*
X134548796Y-109974505D01*
X134545196Y-109998773D01*
X134539235Y-110022572D01*
X134530970Y-110045671D01*
X134520480Y-110067850D01*
X134507868Y-110088893D01*
X134493253Y-110108599D01*
X134476777Y-110126777D01*
X134458599Y-110143253D01*
X134438893Y-110157868D01*
X134417850Y-110170480D01*
X134395671Y-110180970D01*
X134372572Y-110189235D01*
X134348773Y-110195196D01*
X134324505Y-110198796D01*
X134300001Y-110200000D01*
X133649999Y-110200000D01*
X133625495Y-110198796D01*
X133601227Y-110195196D01*
X133577428Y-110189235D01*
X133554329Y-110180970D01*
X133532150Y-110170480D01*
X133511107Y-110157868D01*
X133491401Y-110143253D01*
X133473223Y-110126777D01*
X133456747Y-110108599D01*
X133442132Y-110088893D01*
X133429520Y-110067850D01*
X133419030Y-110045671D01*
X133410765Y-110022572D01*
X133404804Y-109998773D01*
X133401204Y-109974505D01*
X133400000Y-109950001D01*
X133400000Y-109049999D01*
X133401204Y-109025495D01*
X133404804Y-109001227D01*
X133410765Y-108977428D01*
X133419030Y-108954329D01*
X133429520Y-108932150D01*
X133442132Y-108911107D01*
X133456747Y-108891401D01*
X133473223Y-108873223D01*
X133491401Y-108856747D01*
X133511107Y-108842132D01*
X133532150Y-108829520D01*
X133554329Y-108819030D01*
X133577428Y-108810765D01*
X133601227Y-108804804D01*
X133625495Y-108801204D01*
X133649999Y-108800000D01*
X134300001Y-108800000D01*
X134324505Y-108801204D01*
X134324505Y-108801204D01*
G37*
D14*
X133975000Y-109500000D03*
D13*
G36*
X136374505Y-108801204D02*
G01*
X136398773Y-108804804D01*
X136422572Y-108810765D01*
X136445671Y-108819030D01*
X136467850Y-108829520D01*
X136488893Y-108842132D01*
X136508599Y-108856747D01*
X136526777Y-108873223D01*
X136543253Y-108891401D01*
X136557868Y-108911107D01*
X136570480Y-108932150D01*
X136580970Y-108954329D01*
X136589235Y-108977428D01*
X136595196Y-109001227D01*
X136598796Y-109025495D01*
X136600000Y-109049999D01*
X136600000Y-109950001D01*
X136598796Y-109974505D01*
X136595196Y-109998773D01*
X136589235Y-110022572D01*
X136580970Y-110045671D01*
X136570480Y-110067850D01*
X136557868Y-110088893D01*
X136543253Y-110108599D01*
X136526777Y-110126777D01*
X136508599Y-110143253D01*
X136488893Y-110157868D01*
X136467850Y-110170480D01*
X136445671Y-110180970D01*
X136422572Y-110189235D01*
X136398773Y-110195196D01*
X136374505Y-110198796D01*
X136350001Y-110200000D01*
X135699999Y-110200000D01*
X135675495Y-110198796D01*
X135651227Y-110195196D01*
X135627428Y-110189235D01*
X135604329Y-110180970D01*
X135582150Y-110170480D01*
X135561107Y-110157868D01*
X135541401Y-110143253D01*
X135523223Y-110126777D01*
X135506747Y-110108599D01*
X135492132Y-110088893D01*
X135479520Y-110067850D01*
X135469030Y-110045671D01*
X135460765Y-110022572D01*
X135454804Y-109998773D01*
X135451204Y-109974505D01*
X135450000Y-109950001D01*
X135450000Y-109049999D01*
X135451204Y-109025495D01*
X135454804Y-109001227D01*
X135460765Y-108977428D01*
X135469030Y-108954329D01*
X135479520Y-108932150D01*
X135492132Y-108911107D01*
X135506747Y-108891401D01*
X135523223Y-108873223D01*
X135541401Y-108856747D01*
X135561107Y-108842132D01*
X135582150Y-108829520D01*
X135604329Y-108819030D01*
X135627428Y-108810765D01*
X135651227Y-108804804D01*
X135675495Y-108801204D01*
X135699999Y-108800000D01*
X136350001Y-108800000D01*
X136374505Y-108801204D01*
X136374505Y-108801204D01*
G37*
D14*
X136025000Y-109500000D03*
D13*
G36*
X129474505Y-106151204D02*
G01*
X129498773Y-106154804D01*
X129522572Y-106160765D01*
X129545671Y-106169030D01*
X129567850Y-106179520D01*
X129588893Y-106192132D01*
X129608599Y-106206747D01*
X129626777Y-106223223D01*
X129643253Y-106241401D01*
X129657868Y-106261107D01*
X129670480Y-106282150D01*
X129680970Y-106304329D01*
X129689235Y-106327428D01*
X129695196Y-106351227D01*
X129698796Y-106375495D01*
X129700000Y-106399999D01*
X129700000Y-107050001D01*
X129698796Y-107074505D01*
X129695196Y-107098773D01*
X129689235Y-107122572D01*
X129680970Y-107145671D01*
X129670480Y-107167850D01*
X129657868Y-107188893D01*
X129643253Y-107208599D01*
X129626777Y-107226777D01*
X129608599Y-107243253D01*
X129588893Y-107257868D01*
X129567850Y-107270480D01*
X129545671Y-107280970D01*
X129522572Y-107289235D01*
X129498773Y-107295196D01*
X129474505Y-107298796D01*
X129450001Y-107300000D01*
X128549999Y-107300000D01*
X128525495Y-107298796D01*
X128501227Y-107295196D01*
X128477428Y-107289235D01*
X128454329Y-107280970D01*
X128432150Y-107270480D01*
X128411107Y-107257868D01*
X128391401Y-107243253D01*
X128373223Y-107226777D01*
X128356747Y-107208599D01*
X128342132Y-107188893D01*
X128329520Y-107167850D01*
X128319030Y-107145671D01*
X128310765Y-107122572D01*
X128304804Y-107098773D01*
X128301204Y-107074505D01*
X128300000Y-107050001D01*
X128300000Y-106399999D01*
X128301204Y-106375495D01*
X128304804Y-106351227D01*
X128310765Y-106327428D01*
X128319030Y-106304329D01*
X128329520Y-106282150D01*
X128342132Y-106261107D01*
X128356747Y-106241401D01*
X128373223Y-106223223D01*
X128391401Y-106206747D01*
X128411107Y-106192132D01*
X128432150Y-106179520D01*
X128454329Y-106169030D01*
X128477428Y-106160765D01*
X128501227Y-106154804D01*
X128525495Y-106151204D01*
X128549999Y-106150000D01*
X129450001Y-106150000D01*
X129474505Y-106151204D01*
X129474505Y-106151204D01*
G37*
D14*
X129000000Y-106725000D03*
D13*
G36*
X129474505Y-108201204D02*
G01*
X129498773Y-108204804D01*
X129522572Y-108210765D01*
X129545671Y-108219030D01*
X129567850Y-108229520D01*
X129588893Y-108242132D01*
X129608599Y-108256747D01*
X129626777Y-108273223D01*
X129643253Y-108291401D01*
X129657868Y-108311107D01*
X129670480Y-108332150D01*
X129680970Y-108354329D01*
X129689235Y-108377428D01*
X129695196Y-108401227D01*
X129698796Y-108425495D01*
X129700000Y-108449999D01*
X129700000Y-109100001D01*
X129698796Y-109124505D01*
X129695196Y-109148773D01*
X129689235Y-109172572D01*
X129680970Y-109195671D01*
X129670480Y-109217850D01*
X129657868Y-109238893D01*
X129643253Y-109258599D01*
X129626777Y-109276777D01*
X129608599Y-109293253D01*
X129588893Y-109307868D01*
X129567850Y-109320480D01*
X129545671Y-109330970D01*
X129522572Y-109339235D01*
X129498773Y-109345196D01*
X129474505Y-109348796D01*
X129450001Y-109350000D01*
X128549999Y-109350000D01*
X128525495Y-109348796D01*
X128501227Y-109345196D01*
X128477428Y-109339235D01*
X128454329Y-109330970D01*
X128432150Y-109320480D01*
X128411107Y-109307868D01*
X128391401Y-109293253D01*
X128373223Y-109276777D01*
X128356747Y-109258599D01*
X128342132Y-109238893D01*
X128329520Y-109217850D01*
X128319030Y-109195671D01*
X128310765Y-109172572D01*
X128304804Y-109148773D01*
X128301204Y-109124505D01*
X128300000Y-109100001D01*
X128300000Y-108449999D01*
X128301204Y-108425495D01*
X128304804Y-108401227D01*
X128310765Y-108377428D01*
X128319030Y-108354329D01*
X128329520Y-108332150D01*
X128342132Y-108311107D01*
X128356747Y-108291401D01*
X128373223Y-108273223D01*
X128391401Y-108256747D01*
X128411107Y-108242132D01*
X128432150Y-108229520D01*
X128454329Y-108219030D01*
X128477428Y-108210765D01*
X128501227Y-108204804D01*
X128525495Y-108201204D01*
X128549999Y-108200000D01*
X129450001Y-108200000D01*
X129474505Y-108201204D01*
X129474505Y-108201204D01*
G37*
D14*
X129000000Y-108775000D03*
D13*
G36*
X127474505Y-106151204D02*
G01*
X127498773Y-106154804D01*
X127522572Y-106160765D01*
X127545671Y-106169030D01*
X127567850Y-106179520D01*
X127588893Y-106192132D01*
X127608599Y-106206747D01*
X127626777Y-106223223D01*
X127643253Y-106241401D01*
X127657868Y-106261107D01*
X127670480Y-106282150D01*
X127680970Y-106304329D01*
X127689235Y-106327428D01*
X127695196Y-106351227D01*
X127698796Y-106375495D01*
X127700000Y-106399999D01*
X127700000Y-107050001D01*
X127698796Y-107074505D01*
X127695196Y-107098773D01*
X127689235Y-107122572D01*
X127680970Y-107145671D01*
X127670480Y-107167850D01*
X127657868Y-107188893D01*
X127643253Y-107208599D01*
X127626777Y-107226777D01*
X127608599Y-107243253D01*
X127588893Y-107257868D01*
X127567850Y-107270480D01*
X127545671Y-107280970D01*
X127522572Y-107289235D01*
X127498773Y-107295196D01*
X127474505Y-107298796D01*
X127450001Y-107300000D01*
X126549999Y-107300000D01*
X126525495Y-107298796D01*
X126501227Y-107295196D01*
X126477428Y-107289235D01*
X126454329Y-107280970D01*
X126432150Y-107270480D01*
X126411107Y-107257868D01*
X126391401Y-107243253D01*
X126373223Y-107226777D01*
X126356747Y-107208599D01*
X126342132Y-107188893D01*
X126329520Y-107167850D01*
X126319030Y-107145671D01*
X126310765Y-107122572D01*
X126304804Y-107098773D01*
X126301204Y-107074505D01*
X126300000Y-107050001D01*
X126300000Y-106399999D01*
X126301204Y-106375495D01*
X126304804Y-106351227D01*
X126310765Y-106327428D01*
X126319030Y-106304329D01*
X126329520Y-106282150D01*
X126342132Y-106261107D01*
X126356747Y-106241401D01*
X126373223Y-106223223D01*
X126391401Y-106206747D01*
X126411107Y-106192132D01*
X126432150Y-106179520D01*
X126454329Y-106169030D01*
X126477428Y-106160765D01*
X126501227Y-106154804D01*
X126525495Y-106151204D01*
X126549999Y-106150000D01*
X127450001Y-106150000D01*
X127474505Y-106151204D01*
X127474505Y-106151204D01*
G37*
D14*
X127000000Y-106725000D03*
D13*
G36*
X127474505Y-108201204D02*
G01*
X127498773Y-108204804D01*
X127522572Y-108210765D01*
X127545671Y-108219030D01*
X127567850Y-108229520D01*
X127588893Y-108242132D01*
X127608599Y-108256747D01*
X127626777Y-108273223D01*
X127643253Y-108291401D01*
X127657868Y-108311107D01*
X127670480Y-108332150D01*
X127680970Y-108354329D01*
X127689235Y-108377428D01*
X127695196Y-108401227D01*
X127698796Y-108425495D01*
X127700000Y-108449999D01*
X127700000Y-109100001D01*
X127698796Y-109124505D01*
X127695196Y-109148773D01*
X127689235Y-109172572D01*
X127680970Y-109195671D01*
X127670480Y-109217850D01*
X127657868Y-109238893D01*
X127643253Y-109258599D01*
X127626777Y-109276777D01*
X127608599Y-109293253D01*
X127588893Y-109307868D01*
X127567850Y-109320480D01*
X127545671Y-109330970D01*
X127522572Y-109339235D01*
X127498773Y-109345196D01*
X127474505Y-109348796D01*
X127450001Y-109350000D01*
X126549999Y-109350000D01*
X126525495Y-109348796D01*
X126501227Y-109345196D01*
X126477428Y-109339235D01*
X126454329Y-109330970D01*
X126432150Y-109320480D01*
X126411107Y-109307868D01*
X126391401Y-109293253D01*
X126373223Y-109276777D01*
X126356747Y-109258599D01*
X126342132Y-109238893D01*
X126329520Y-109217850D01*
X126319030Y-109195671D01*
X126310765Y-109172572D01*
X126304804Y-109148773D01*
X126301204Y-109124505D01*
X126300000Y-109100001D01*
X126300000Y-108449999D01*
X126301204Y-108425495D01*
X126304804Y-108401227D01*
X126310765Y-108377428D01*
X126319030Y-108354329D01*
X126329520Y-108332150D01*
X126342132Y-108311107D01*
X126356747Y-108291401D01*
X126373223Y-108273223D01*
X126391401Y-108256747D01*
X126411107Y-108242132D01*
X126432150Y-108229520D01*
X126454329Y-108219030D01*
X126477428Y-108210765D01*
X126501227Y-108204804D01*
X126525495Y-108201204D01*
X126549999Y-108200000D01*
X127450001Y-108200000D01*
X127474505Y-108201204D01*
X127474505Y-108201204D01*
G37*
D14*
X127000000Y-108775000D03*
D13*
G36*
X145974505Y-102651204D02*
G01*
X145998773Y-102654804D01*
X146022572Y-102660765D01*
X146045671Y-102669030D01*
X146067850Y-102679520D01*
X146088893Y-102692132D01*
X146108599Y-102706747D01*
X146126777Y-102723223D01*
X146143253Y-102741401D01*
X146157868Y-102761107D01*
X146170480Y-102782150D01*
X146180970Y-102804329D01*
X146189235Y-102827428D01*
X146195196Y-102851227D01*
X146198796Y-102875495D01*
X146200000Y-102899999D01*
X146200000Y-103550001D01*
X146198796Y-103574505D01*
X146195196Y-103598773D01*
X146189235Y-103622572D01*
X146180970Y-103645671D01*
X146170480Y-103667850D01*
X146157868Y-103688893D01*
X146143253Y-103708599D01*
X146126777Y-103726777D01*
X146108599Y-103743253D01*
X146088893Y-103757868D01*
X146067850Y-103770480D01*
X146045671Y-103780970D01*
X146022572Y-103789235D01*
X145998773Y-103795196D01*
X145974505Y-103798796D01*
X145950001Y-103800000D01*
X145049999Y-103800000D01*
X145025495Y-103798796D01*
X145001227Y-103795196D01*
X144977428Y-103789235D01*
X144954329Y-103780970D01*
X144932150Y-103770480D01*
X144911107Y-103757868D01*
X144891401Y-103743253D01*
X144873223Y-103726777D01*
X144856747Y-103708599D01*
X144842132Y-103688893D01*
X144829520Y-103667850D01*
X144819030Y-103645671D01*
X144810765Y-103622572D01*
X144804804Y-103598773D01*
X144801204Y-103574505D01*
X144800000Y-103550001D01*
X144800000Y-102899999D01*
X144801204Y-102875495D01*
X144804804Y-102851227D01*
X144810765Y-102827428D01*
X144819030Y-102804329D01*
X144829520Y-102782150D01*
X144842132Y-102761107D01*
X144856747Y-102741401D01*
X144873223Y-102723223D01*
X144891401Y-102706747D01*
X144911107Y-102692132D01*
X144932150Y-102679520D01*
X144954329Y-102669030D01*
X144977428Y-102660765D01*
X145001227Y-102654804D01*
X145025495Y-102651204D01*
X145049999Y-102650000D01*
X145950001Y-102650000D01*
X145974505Y-102651204D01*
X145974505Y-102651204D01*
G37*
D14*
X145500000Y-103225000D03*
D13*
G36*
X145974505Y-104701204D02*
G01*
X145998773Y-104704804D01*
X146022572Y-104710765D01*
X146045671Y-104719030D01*
X146067850Y-104729520D01*
X146088893Y-104742132D01*
X146108599Y-104756747D01*
X146126777Y-104773223D01*
X146143253Y-104791401D01*
X146157868Y-104811107D01*
X146170480Y-104832150D01*
X146180970Y-104854329D01*
X146189235Y-104877428D01*
X146195196Y-104901227D01*
X146198796Y-104925495D01*
X146200000Y-104949999D01*
X146200000Y-105600001D01*
X146198796Y-105624505D01*
X146195196Y-105648773D01*
X146189235Y-105672572D01*
X146180970Y-105695671D01*
X146170480Y-105717850D01*
X146157868Y-105738893D01*
X146143253Y-105758599D01*
X146126777Y-105776777D01*
X146108599Y-105793253D01*
X146088893Y-105807868D01*
X146067850Y-105820480D01*
X146045671Y-105830970D01*
X146022572Y-105839235D01*
X145998773Y-105845196D01*
X145974505Y-105848796D01*
X145950001Y-105850000D01*
X145049999Y-105850000D01*
X145025495Y-105848796D01*
X145001227Y-105845196D01*
X144977428Y-105839235D01*
X144954329Y-105830970D01*
X144932150Y-105820480D01*
X144911107Y-105807868D01*
X144891401Y-105793253D01*
X144873223Y-105776777D01*
X144856747Y-105758599D01*
X144842132Y-105738893D01*
X144829520Y-105717850D01*
X144819030Y-105695671D01*
X144810765Y-105672572D01*
X144804804Y-105648773D01*
X144801204Y-105624505D01*
X144800000Y-105600001D01*
X144800000Y-104949999D01*
X144801204Y-104925495D01*
X144804804Y-104901227D01*
X144810765Y-104877428D01*
X144819030Y-104854329D01*
X144829520Y-104832150D01*
X144842132Y-104811107D01*
X144856747Y-104791401D01*
X144873223Y-104773223D01*
X144891401Y-104756747D01*
X144911107Y-104742132D01*
X144932150Y-104729520D01*
X144954329Y-104719030D01*
X144977428Y-104710765D01*
X145001227Y-104704804D01*
X145025495Y-104701204D01*
X145049999Y-104700000D01*
X145950001Y-104700000D01*
X145974505Y-104701204D01*
X145974505Y-104701204D01*
G37*
D14*
X145500000Y-105275000D03*
D13*
G36*
X143974505Y-102651204D02*
G01*
X143998773Y-102654804D01*
X144022572Y-102660765D01*
X144045671Y-102669030D01*
X144067850Y-102679520D01*
X144088893Y-102692132D01*
X144108599Y-102706747D01*
X144126777Y-102723223D01*
X144143253Y-102741401D01*
X144157868Y-102761107D01*
X144170480Y-102782150D01*
X144180970Y-102804329D01*
X144189235Y-102827428D01*
X144195196Y-102851227D01*
X144198796Y-102875495D01*
X144200000Y-102899999D01*
X144200000Y-103550001D01*
X144198796Y-103574505D01*
X144195196Y-103598773D01*
X144189235Y-103622572D01*
X144180970Y-103645671D01*
X144170480Y-103667850D01*
X144157868Y-103688893D01*
X144143253Y-103708599D01*
X144126777Y-103726777D01*
X144108599Y-103743253D01*
X144088893Y-103757868D01*
X144067850Y-103770480D01*
X144045671Y-103780970D01*
X144022572Y-103789235D01*
X143998773Y-103795196D01*
X143974505Y-103798796D01*
X143950001Y-103800000D01*
X143049999Y-103800000D01*
X143025495Y-103798796D01*
X143001227Y-103795196D01*
X142977428Y-103789235D01*
X142954329Y-103780970D01*
X142932150Y-103770480D01*
X142911107Y-103757868D01*
X142891401Y-103743253D01*
X142873223Y-103726777D01*
X142856747Y-103708599D01*
X142842132Y-103688893D01*
X142829520Y-103667850D01*
X142819030Y-103645671D01*
X142810765Y-103622572D01*
X142804804Y-103598773D01*
X142801204Y-103574505D01*
X142800000Y-103550001D01*
X142800000Y-102899999D01*
X142801204Y-102875495D01*
X142804804Y-102851227D01*
X142810765Y-102827428D01*
X142819030Y-102804329D01*
X142829520Y-102782150D01*
X142842132Y-102761107D01*
X142856747Y-102741401D01*
X142873223Y-102723223D01*
X142891401Y-102706747D01*
X142911107Y-102692132D01*
X142932150Y-102679520D01*
X142954329Y-102669030D01*
X142977428Y-102660765D01*
X143001227Y-102654804D01*
X143025495Y-102651204D01*
X143049999Y-102650000D01*
X143950001Y-102650000D01*
X143974505Y-102651204D01*
X143974505Y-102651204D01*
G37*
D14*
X143500000Y-103225000D03*
D13*
G36*
X143974505Y-104701204D02*
G01*
X143998773Y-104704804D01*
X144022572Y-104710765D01*
X144045671Y-104719030D01*
X144067850Y-104729520D01*
X144088893Y-104742132D01*
X144108599Y-104756747D01*
X144126777Y-104773223D01*
X144143253Y-104791401D01*
X144157868Y-104811107D01*
X144170480Y-104832150D01*
X144180970Y-104854329D01*
X144189235Y-104877428D01*
X144195196Y-104901227D01*
X144198796Y-104925495D01*
X144200000Y-104949999D01*
X144200000Y-105600001D01*
X144198796Y-105624505D01*
X144195196Y-105648773D01*
X144189235Y-105672572D01*
X144180970Y-105695671D01*
X144170480Y-105717850D01*
X144157868Y-105738893D01*
X144143253Y-105758599D01*
X144126777Y-105776777D01*
X144108599Y-105793253D01*
X144088893Y-105807868D01*
X144067850Y-105820480D01*
X144045671Y-105830970D01*
X144022572Y-105839235D01*
X143998773Y-105845196D01*
X143974505Y-105848796D01*
X143950001Y-105850000D01*
X143049999Y-105850000D01*
X143025495Y-105848796D01*
X143001227Y-105845196D01*
X142977428Y-105839235D01*
X142954329Y-105830970D01*
X142932150Y-105820480D01*
X142911107Y-105807868D01*
X142891401Y-105793253D01*
X142873223Y-105776777D01*
X142856747Y-105758599D01*
X142842132Y-105738893D01*
X142829520Y-105717850D01*
X142819030Y-105695671D01*
X142810765Y-105672572D01*
X142804804Y-105648773D01*
X142801204Y-105624505D01*
X142800000Y-105600001D01*
X142800000Y-104949999D01*
X142801204Y-104925495D01*
X142804804Y-104901227D01*
X142810765Y-104877428D01*
X142819030Y-104854329D01*
X142829520Y-104832150D01*
X142842132Y-104811107D01*
X142856747Y-104791401D01*
X142873223Y-104773223D01*
X142891401Y-104756747D01*
X142911107Y-104742132D01*
X142932150Y-104729520D01*
X142954329Y-104719030D01*
X142977428Y-104710765D01*
X143001227Y-104704804D01*
X143025495Y-104701204D01*
X143049999Y-104700000D01*
X143950001Y-104700000D01*
X143974505Y-104701204D01*
X143974505Y-104701204D01*
G37*
D14*
X143500000Y-105275000D03*
D13*
G36*
X134349505Y-101051204D02*
G01*
X134373773Y-101054804D01*
X134397572Y-101060765D01*
X134420671Y-101069030D01*
X134442850Y-101079520D01*
X134463893Y-101092132D01*
X134483599Y-101106747D01*
X134501777Y-101123223D01*
X134518253Y-101141401D01*
X134532868Y-101161107D01*
X134545480Y-101182150D01*
X134555970Y-101204329D01*
X134564235Y-101227428D01*
X134570196Y-101251227D01*
X134573796Y-101275495D01*
X134575000Y-101299999D01*
X134575000Y-102200001D01*
X134573796Y-102224505D01*
X134570196Y-102248773D01*
X134564235Y-102272572D01*
X134555970Y-102295671D01*
X134545480Y-102317850D01*
X134532868Y-102338893D01*
X134518253Y-102358599D01*
X134501777Y-102376777D01*
X134483599Y-102393253D01*
X134463893Y-102407868D01*
X134442850Y-102420480D01*
X134420671Y-102430970D01*
X134397572Y-102439235D01*
X134373773Y-102445196D01*
X134349505Y-102448796D01*
X134325001Y-102450000D01*
X133674999Y-102450000D01*
X133650495Y-102448796D01*
X133626227Y-102445196D01*
X133602428Y-102439235D01*
X133579329Y-102430970D01*
X133557150Y-102420480D01*
X133536107Y-102407868D01*
X133516401Y-102393253D01*
X133498223Y-102376777D01*
X133481747Y-102358599D01*
X133467132Y-102338893D01*
X133454520Y-102317850D01*
X133444030Y-102295671D01*
X133435765Y-102272572D01*
X133429804Y-102248773D01*
X133426204Y-102224505D01*
X133425000Y-102200001D01*
X133425000Y-101299999D01*
X133426204Y-101275495D01*
X133429804Y-101251227D01*
X133435765Y-101227428D01*
X133444030Y-101204329D01*
X133454520Y-101182150D01*
X133467132Y-101161107D01*
X133481747Y-101141401D01*
X133498223Y-101123223D01*
X133516401Y-101106747D01*
X133536107Y-101092132D01*
X133557150Y-101079520D01*
X133579329Y-101069030D01*
X133602428Y-101060765D01*
X133626227Y-101054804D01*
X133650495Y-101051204D01*
X133674999Y-101050000D01*
X134325001Y-101050000D01*
X134349505Y-101051204D01*
X134349505Y-101051204D01*
G37*
D14*
X134000000Y-101750000D03*
D13*
G36*
X136399505Y-101051204D02*
G01*
X136423773Y-101054804D01*
X136447572Y-101060765D01*
X136470671Y-101069030D01*
X136492850Y-101079520D01*
X136513893Y-101092132D01*
X136533599Y-101106747D01*
X136551777Y-101123223D01*
X136568253Y-101141401D01*
X136582868Y-101161107D01*
X136595480Y-101182150D01*
X136605970Y-101204329D01*
X136614235Y-101227428D01*
X136620196Y-101251227D01*
X136623796Y-101275495D01*
X136625000Y-101299999D01*
X136625000Y-102200001D01*
X136623796Y-102224505D01*
X136620196Y-102248773D01*
X136614235Y-102272572D01*
X136605970Y-102295671D01*
X136595480Y-102317850D01*
X136582868Y-102338893D01*
X136568253Y-102358599D01*
X136551777Y-102376777D01*
X136533599Y-102393253D01*
X136513893Y-102407868D01*
X136492850Y-102420480D01*
X136470671Y-102430970D01*
X136447572Y-102439235D01*
X136423773Y-102445196D01*
X136399505Y-102448796D01*
X136375001Y-102450000D01*
X135724999Y-102450000D01*
X135700495Y-102448796D01*
X135676227Y-102445196D01*
X135652428Y-102439235D01*
X135629329Y-102430970D01*
X135607150Y-102420480D01*
X135586107Y-102407868D01*
X135566401Y-102393253D01*
X135548223Y-102376777D01*
X135531747Y-102358599D01*
X135517132Y-102338893D01*
X135504520Y-102317850D01*
X135494030Y-102295671D01*
X135485765Y-102272572D01*
X135479804Y-102248773D01*
X135476204Y-102224505D01*
X135475000Y-102200001D01*
X135475000Y-101299999D01*
X135476204Y-101275495D01*
X135479804Y-101251227D01*
X135485765Y-101227428D01*
X135494030Y-101204329D01*
X135504520Y-101182150D01*
X135517132Y-101161107D01*
X135531747Y-101141401D01*
X135548223Y-101123223D01*
X135566401Y-101106747D01*
X135586107Y-101092132D01*
X135607150Y-101079520D01*
X135629329Y-101069030D01*
X135652428Y-101060765D01*
X135676227Y-101054804D01*
X135700495Y-101051204D01*
X135724999Y-101050000D01*
X136375001Y-101050000D01*
X136399505Y-101051204D01*
X136399505Y-101051204D01*
G37*
D14*
X136050000Y-101750000D03*
D13*
G36*
X134349505Y-99051204D02*
G01*
X134373773Y-99054804D01*
X134397572Y-99060765D01*
X134420671Y-99069030D01*
X134442850Y-99079520D01*
X134463893Y-99092132D01*
X134483599Y-99106747D01*
X134501777Y-99123223D01*
X134518253Y-99141401D01*
X134532868Y-99161107D01*
X134545480Y-99182150D01*
X134555970Y-99204329D01*
X134564235Y-99227428D01*
X134570196Y-99251227D01*
X134573796Y-99275495D01*
X134575000Y-99299999D01*
X134575000Y-100200001D01*
X134573796Y-100224505D01*
X134570196Y-100248773D01*
X134564235Y-100272572D01*
X134555970Y-100295671D01*
X134545480Y-100317850D01*
X134532868Y-100338893D01*
X134518253Y-100358599D01*
X134501777Y-100376777D01*
X134483599Y-100393253D01*
X134463893Y-100407868D01*
X134442850Y-100420480D01*
X134420671Y-100430970D01*
X134397572Y-100439235D01*
X134373773Y-100445196D01*
X134349505Y-100448796D01*
X134325001Y-100450000D01*
X133674999Y-100450000D01*
X133650495Y-100448796D01*
X133626227Y-100445196D01*
X133602428Y-100439235D01*
X133579329Y-100430970D01*
X133557150Y-100420480D01*
X133536107Y-100407868D01*
X133516401Y-100393253D01*
X133498223Y-100376777D01*
X133481747Y-100358599D01*
X133467132Y-100338893D01*
X133454520Y-100317850D01*
X133444030Y-100295671D01*
X133435765Y-100272572D01*
X133429804Y-100248773D01*
X133426204Y-100224505D01*
X133425000Y-100200001D01*
X133425000Y-99299999D01*
X133426204Y-99275495D01*
X133429804Y-99251227D01*
X133435765Y-99227428D01*
X133444030Y-99204329D01*
X133454520Y-99182150D01*
X133467132Y-99161107D01*
X133481747Y-99141401D01*
X133498223Y-99123223D01*
X133516401Y-99106747D01*
X133536107Y-99092132D01*
X133557150Y-99079520D01*
X133579329Y-99069030D01*
X133602428Y-99060765D01*
X133626227Y-99054804D01*
X133650495Y-99051204D01*
X133674999Y-99050000D01*
X134325001Y-99050000D01*
X134349505Y-99051204D01*
X134349505Y-99051204D01*
G37*
D14*
X134000000Y-99750000D03*
D13*
G36*
X136399505Y-99051204D02*
G01*
X136423773Y-99054804D01*
X136447572Y-99060765D01*
X136470671Y-99069030D01*
X136492850Y-99079520D01*
X136513893Y-99092132D01*
X136533599Y-99106747D01*
X136551777Y-99123223D01*
X136568253Y-99141401D01*
X136582868Y-99161107D01*
X136595480Y-99182150D01*
X136605970Y-99204329D01*
X136614235Y-99227428D01*
X136620196Y-99251227D01*
X136623796Y-99275495D01*
X136625000Y-99299999D01*
X136625000Y-100200001D01*
X136623796Y-100224505D01*
X136620196Y-100248773D01*
X136614235Y-100272572D01*
X136605970Y-100295671D01*
X136595480Y-100317850D01*
X136582868Y-100338893D01*
X136568253Y-100358599D01*
X136551777Y-100376777D01*
X136533599Y-100393253D01*
X136513893Y-100407868D01*
X136492850Y-100420480D01*
X136470671Y-100430970D01*
X136447572Y-100439235D01*
X136423773Y-100445196D01*
X136399505Y-100448796D01*
X136375001Y-100450000D01*
X135724999Y-100450000D01*
X135700495Y-100448796D01*
X135676227Y-100445196D01*
X135652428Y-100439235D01*
X135629329Y-100430970D01*
X135607150Y-100420480D01*
X135586107Y-100407868D01*
X135566401Y-100393253D01*
X135548223Y-100376777D01*
X135531747Y-100358599D01*
X135517132Y-100338893D01*
X135504520Y-100317850D01*
X135494030Y-100295671D01*
X135485765Y-100272572D01*
X135479804Y-100248773D01*
X135476204Y-100224505D01*
X135475000Y-100200001D01*
X135475000Y-99299999D01*
X135476204Y-99275495D01*
X135479804Y-99251227D01*
X135485765Y-99227428D01*
X135494030Y-99204329D01*
X135504520Y-99182150D01*
X135517132Y-99161107D01*
X135531747Y-99141401D01*
X135548223Y-99123223D01*
X135566401Y-99106747D01*
X135586107Y-99092132D01*
X135607150Y-99079520D01*
X135629329Y-99069030D01*
X135652428Y-99060765D01*
X135676227Y-99054804D01*
X135700495Y-99051204D01*
X135724999Y-99050000D01*
X136375001Y-99050000D01*
X136399505Y-99051204D01*
X136399505Y-99051204D01*
G37*
D14*
X136050000Y-99750000D03*
D13*
G36*
X148424505Y-85051204D02*
G01*
X148448773Y-85054804D01*
X148472572Y-85060765D01*
X148495671Y-85069030D01*
X148517850Y-85079520D01*
X148538893Y-85092132D01*
X148558599Y-85106747D01*
X148576777Y-85123223D01*
X148593253Y-85141401D01*
X148607868Y-85161107D01*
X148620480Y-85182150D01*
X148630970Y-85204329D01*
X148639235Y-85227428D01*
X148645196Y-85251227D01*
X148648796Y-85275495D01*
X148650000Y-85299999D01*
X148650000Y-86200001D01*
X148648796Y-86224505D01*
X148645196Y-86248773D01*
X148639235Y-86272572D01*
X148630970Y-86295671D01*
X148620480Y-86317850D01*
X148607868Y-86338893D01*
X148593253Y-86358599D01*
X148576777Y-86376777D01*
X148558599Y-86393253D01*
X148538893Y-86407868D01*
X148517850Y-86420480D01*
X148495671Y-86430970D01*
X148472572Y-86439235D01*
X148448773Y-86445196D01*
X148424505Y-86448796D01*
X148400001Y-86450000D01*
X147749999Y-86450000D01*
X147725495Y-86448796D01*
X147701227Y-86445196D01*
X147677428Y-86439235D01*
X147654329Y-86430970D01*
X147632150Y-86420480D01*
X147611107Y-86407868D01*
X147591401Y-86393253D01*
X147573223Y-86376777D01*
X147556747Y-86358599D01*
X147542132Y-86338893D01*
X147529520Y-86317850D01*
X147519030Y-86295671D01*
X147510765Y-86272572D01*
X147504804Y-86248773D01*
X147501204Y-86224505D01*
X147500000Y-86200001D01*
X147500000Y-85299999D01*
X147501204Y-85275495D01*
X147504804Y-85251227D01*
X147510765Y-85227428D01*
X147519030Y-85204329D01*
X147529520Y-85182150D01*
X147542132Y-85161107D01*
X147556747Y-85141401D01*
X147573223Y-85123223D01*
X147591401Y-85106747D01*
X147611107Y-85092132D01*
X147632150Y-85079520D01*
X147654329Y-85069030D01*
X147677428Y-85060765D01*
X147701227Y-85054804D01*
X147725495Y-85051204D01*
X147749999Y-85050000D01*
X148400001Y-85050000D01*
X148424505Y-85051204D01*
X148424505Y-85051204D01*
G37*
D14*
X148075000Y-85750000D03*
D13*
G36*
X150474505Y-85051204D02*
G01*
X150498773Y-85054804D01*
X150522572Y-85060765D01*
X150545671Y-85069030D01*
X150567850Y-85079520D01*
X150588893Y-85092132D01*
X150608599Y-85106747D01*
X150626777Y-85123223D01*
X150643253Y-85141401D01*
X150657868Y-85161107D01*
X150670480Y-85182150D01*
X150680970Y-85204329D01*
X150689235Y-85227428D01*
X150695196Y-85251227D01*
X150698796Y-85275495D01*
X150700000Y-85299999D01*
X150700000Y-86200001D01*
X150698796Y-86224505D01*
X150695196Y-86248773D01*
X150689235Y-86272572D01*
X150680970Y-86295671D01*
X150670480Y-86317850D01*
X150657868Y-86338893D01*
X150643253Y-86358599D01*
X150626777Y-86376777D01*
X150608599Y-86393253D01*
X150588893Y-86407868D01*
X150567850Y-86420480D01*
X150545671Y-86430970D01*
X150522572Y-86439235D01*
X150498773Y-86445196D01*
X150474505Y-86448796D01*
X150450001Y-86450000D01*
X149799999Y-86450000D01*
X149775495Y-86448796D01*
X149751227Y-86445196D01*
X149727428Y-86439235D01*
X149704329Y-86430970D01*
X149682150Y-86420480D01*
X149661107Y-86407868D01*
X149641401Y-86393253D01*
X149623223Y-86376777D01*
X149606747Y-86358599D01*
X149592132Y-86338893D01*
X149579520Y-86317850D01*
X149569030Y-86295671D01*
X149560765Y-86272572D01*
X149554804Y-86248773D01*
X149551204Y-86224505D01*
X149550000Y-86200001D01*
X149550000Y-85299999D01*
X149551204Y-85275495D01*
X149554804Y-85251227D01*
X149560765Y-85227428D01*
X149569030Y-85204329D01*
X149579520Y-85182150D01*
X149592132Y-85161107D01*
X149606747Y-85141401D01*
X149623223Y-85123223D01*
X149641401Y-85106747D01*
X149661107Y-85092132D01*
X149682150Y-85079520D01*
X149704329Y-85069030D01*
X149727428Y-85060765D01*
X149751227Y-85054804D01*
X149775495Y-85051204D01*
X149799999Y-85050000D01*
X150450001Y-85050000D01*
X150474505Y-85051204D01*
X150474505Y-85051204D01*
G37*
D14*
X150125000Y-85750000D03*
D13*
G36*
X143999505Y-87551204D02*
G01*
X144023773Y-87554804D01*
X144047572Y-87560765D01*
X144070671Y-87569030D01*
X144092850Y-87579520D01*
X144113893Y-87592132D01*
X144133599Y-87606747D01*
X144151777Y-87623223D01*
X144168253Y-87641401D01*
X144182868Y-87661107D01*
X144195480Y-87682150D01*
X144205970Y-87704329D01*
X144214235Y-87727428D01*
X144220196Y-87751227D01*
X144223796Y-87775495D01*
X144225000Y-87799999D01*
X144225000Y-88700001D01*
X144223796Y-88724505D01*
X144220196Y-88748773D01*
X144214235Y-88772572D01*
X144205970Y-88795671D01*
X144195480Y-88817850D01*
X144182868Y-88838893D01*
X144168253Y-88858599D01*
X144151777Y-88876777D01*
X144133599Y-88893253D01*
X144113893Y-88907868D01*
X144092850Y-88920480D01*
X144070671Y-88930970D01*
X144047572Y-88939235D01*
X144023773Y-88945196D01*
X143999505Y-88948796D01*
X143975001Y-88950000D01*
X143324999Y-88950000D01*
X143300495Y-88948796D01*
X143276227Y-88945196D01*
X143252428Y-88939235D01*
X143229329Y-88930970D01*
X143207150Y-88920480D01*
X143186107Y-88907868D01*
X143166401Y-88893253D01*
X143148223Y-88876777D01*
X143131747Y-88858599D01*
X143117132Y-88838893D01*
X143104520Y-88817850D01*
X143094030Y-88795671D01*
X143085765Y-88772572D01*
X143079804Y-88748773D01*
X143076204Y-88724505D01*
X143075000Y-88700001D01*
X143075000Y-87799999D01*
X143076204Y-87775495D01*
X143079804Y-87751227D01*
X143085765Y-87727428D01*
X143094030Y-87704329D01*
X143104520Y-87682150D01*
X143117132Y-87661107D01*
X143131747Y-87641401D01*
X143148223Y-87623223D01*
X143166401Y-87606747D01*
X143186107Y-87592132D01*
X143207150Y-87579520D01*
X143229329Y-87569030D01*
X143252428Y-87560765D01*
X143276227Y-87554804D01*
X143300495Y-87551204D01*
X143324999Y-87550000D01*
X143975001Y-87550000D01*
X143999505Y-87551204D01*
X143999505Y-87551204D01*
G37*
D14*
X143650000Y-88250000D03*
D13*
G36*
X146049505Y-87551204D02*
G01*
X146073773Y-87554804D01*
X146097572Y-87560765D01*
X146120671Y-87569030D01*
X146142850Y-87579520D01*
X146163893Y-87592132D01*
X146183599Y-87606747D01*
X146201777Y-87623223D01*
X146218253Y-87641401D01*
X146232868Y-87661107D01*
X146245480Y-87682150D01*
X146255970Y-87704329D01*
X146264235Y-87727428D01*
X146270196Y-87751227D01*
X146273796Y-87775495D01*
X146275000Y-87799999D01*
X146275000Y-88700001D01*
X146273796Y-88724505D01*
X146270196Y-88748773D01*
X146264235Y-88772572D01*
X146255970Y-88795671D01*
X146245480Y-88817850D01*
X146232868Y-88838893D01*
X146218253Y-88858599D01*
X146201777Y-88876777D01*
X146183599Y-88893253D01*
X146163893Y-88907868D01*
X146142850Y-88920480D01*
X146120671Y-88930970D01*
X146097572Y-88939235D01*
X146073773Y-88945196D01*
X146049505Y-88948796D01*
X146025001Y-88950000D01*
X145374999Y-88950000D01*
X145350495Y-88948796D01*
X145326227Y-88945196D01*
X145302428Y-88939235D01*
X145279329Y-88930970D01*
X145257150Y-88920480D01*
X145236107Y-88907868D01*
X145216401Y-88893253D01*
X145198223Y-88876777D01*
X145181747Y-88858599D01*
X145167132Y-88838893D01*
X145154520Y-88817850D01*
X145144030Y-88795671D01*
X145135765Y-88772572D01*
X145129804Y-88748773D01*
X145126204Y-88724505D01*
X145125000Y-88700001D01*
X145125000Y-87799999D01*
X145126204Y-87775495D01*
X145129804Y-87751227D01*
X145135765Y-87727428D01*
X145144030Y-87704329D01*
X145154520Y-87682150D01*
X145167132Y-87661107D01*
X145181747Y-87641401D01*
X145198223Y-87623223D01*
X145216401Y-87606747D01*
X145236107Y-87592132D01*
X145257150Y-87579520D01*
X145279329Y-87569030D01*
X145302428Y-87560765D01*
X145326227Y-87554804D01*
X145350495Y-87551204D01*
X145374999Y-87550000D01*
X146025001Y-87550000D01*
X146049505Y-87551204D01*
X146049505Y-87551204D01*
G37*
D14*
X145700000Y-88250000D03*
D13*
G36*
X148424505Y-87551204D02*
G01*
X148448773Y-87554804D01*
X148472572Y-87560765D01*
X148495671Y-87569030D01*
X148517850Y-87579520D01*
X148538893Y-87592132D01*
X148558599Y-87606747D01*
X148576777Y-87623223D01*
X148593253Y-87641401D01*
X148607868Y-87661107D01*
X148620480Y-87682150D01*
X148630970Y-87704329D01*
X148639235Y-87727428D01*
X148645196Y-87751227D01*
X148648796Y-87775495D01*
X148650000Y-87799999D01*
X148650000Y-88700001D01*
X148648796Y-88724505D01*
X148645196Y-88748773D01*
X148639235Y-88772572D01*
X148630970Y-88795671D01*
X148620480Y-88817850D01*
X148607868Y-88838893D01*
X148593253Y-88858599D01*
X148576777Y-88876777D01*
X148558599Y-88893253D01*
X148538893Y-88907868D01*
X148517850Y-88920480D01*
X148495671Y-88930970D01*
X148472572Y-88939235D01*
X148448773Y-88945196D01*
X148424505Y-88948796D01*
X148400001Y-88950000D01*
X147749999Y-88950000D01*
X147725495Y-88948796D01*
X147701227Y-88945196D01*
X147677428Y-88939235D01*
X147654329Y-88930970D01*
X147632150Y-88920480D01*
X147611107Y-88907868D01*
X147591401Y-88893253D01*
X147573223Y-88876777D01*
X147556747Y-88858599D01*
X147542132Y-88838893D01*
X147529520Y-88817850D01*
X147519030Y-88795671D01*
X147510765Y-88772572D01*
X147504804Y-88748773D01*
X147501204Y-88724505D01*
X147500000Y-88700001D01*
X147500000Y-87799999D01*
X147501204Y-87775495D01*
X147504804Y-87751227D01*
X147510765Y-87727428D01*
X147519030Y-87704329D01*
X147529520Y-87682150D01*
X147542132Y-87661107D01*
X147556747Y-87641401D01*
X147573223Y-87623223D01*
X147591401Y-87606747D01*
X147611107Y-87592132D01*
X147632150Y-87579520D01*
X147654329Y-87569030D01*
X147677428Y-87560765D01*
X147701227Y-87554804D01*
X147725495Y-87551204D01*
X147749999Y-87550000D01*
X148400001Y-87550000D01*
X148424505Y-87551204D01*
X148424505Y-87551204D01*
G37*
D14*
X148075000Y-88250000D03*
D13*
G36*
X150474505Y-87551204D02*
G01*
X150498773Y-87554804D01*
X150522572Y-87560765D01*
X150545671Y-87569030D01*
X150567850Y-87579520D01*
X150588893Y-87592132D01*
X150608599Y-87606747D01*
X150626777Y-87623223D01*
X150643253Y-87641401D01*
X150657868Y-87661107D01*
X150670480Y-87682150D01*
X150680970Y-87704329D01*
X150689235Y-87727428D01*
X150695196Y-87751227D01*
X150698796Y-87775495D01*
X150700000Y-87799999D01*
X150700000Y-88700001D01*
X150698796Y-88724505D01*
X150695196Y-88748773D01*
X150689235Y-88772572D01*
X150680970Y-88795671D01*
X150670480Y-88817850D01*
X150657868Y-88838893D01*
X150643253Y-88858599D01*
X150626777Y-88876777D01*
X150608599Y-88893253D01*
X150588893Y-88907868D01*
X150567850Y-88920480D01*
X150545671Y-88930970D01*
X150522572Y-88939235D01*
X150498773Y-88945196D01*
X150474505Y-88948796D01*
X150450001Y-88950000D01*
X149799999Y-88950000D01*
X149775495Y-88948796D01*
X149751227Y-88945196D01*
X149727428Y-88939235D01*
X149704329Y-88930970D01*
X149682150Y-88920480D01*
X149661107Y-88907868D01*
X149641401Y-88893253D01*
X149623223Y-88876777D01*
X149606747Y-88858599D01*
X149592132Y-88838893D01*
X149579520Y-88817850D01*
X149569030Y-88795671D01*
X149560765Y-88772572D01*
X149554804Y-88748773D01*
X149551204Y-88724505D01*
X149550000Y-88700001D01*
X149550000Y-87799999D01*
X149551204Y-87775495D01*
X149554804Y-87751227D01*
X149560765Y-87727428D01*
X149569030Y-87704329D01*
X149579520Y-87682150D01*
X149592132Y-87661107D01*
X149606747Y-87641401D01*
X149623223Y-87623223D01*
X149641401Y-87606747D01*
X149661107Y-87592132D01*
X149682150Y-87579520D01*
X149704329Y-87569030D01*
X149727428Y-87560765D01*
X149751227Y-87554804D01*
X149775495Y-87551204D01*
X149799999Y-87550000D01*
X150450001Y-87550000D01*
X150474505Y-87551204D01*
X150474505Y-87551204D01*
G37*
D14*
X150125000Y-88250000D03*
D13*
G36*
X143999505Y-85051204D02*
G01*
X144023773Y-85054804D01*
X144047572Y-85060765D01*
X144070671Y-85069030D01*
X144092850Y-85079520D01*
X144113893Y-85092132D01*
X144133599Y-85106747D01*
X144151777Y-85123223D01*
X144168253Y-85141401D01*
X144182868Y-85161107D01*
X144195480Y-85182150D01*
X144205970Y-85204329D01*
X144214235Y-85227428D01*
X144220196Y-85251227D01*
X144223796Y-85275495D01*
X144225000Y-85299999D01*
X144225000Y-86200001D01*
X144223796Y-86224505D01*
X144220196Y-86248773D01*
X144214235Y-86272572D01*
X144205970Y-86295671D01*
X144195480Y-86317850D01*
X144182868Y-86338893D01*
X144168253Y-86358599D01*
X144151777Y-86376777D01*
X144133599Y-86393253D01*
X144113893Y-86407868D01*
X144092850Y-86420480D01*
X144070671Y-86430970D01*
X144047572Y-86439235D01*
X144023773Y-86445196D01*
X143999505Y-86448796D01*
X143975001Y-86450000D01*
X143324999Y-86450000D01*
X143300495Y-86448796D01*
X143276227Y-86445196D01*
X143252428Y-86439235D01*
X143229329Y-86430970D01*
X143207150Y-86420480D01*
X143186107Y-86407868D01*
X143166401Y-86393253D01*
X143148223Y-86376777D01*
X143131747Y-86358599D01*
X143117132Y-86338893D01*
X143104520Y-86317850D01*
X143094030Y-86295671D01*
X143085765Y-86272572D01*
X143079804Y-86248773D01*
X143076204Y-86224505D01*
X143075000Y-86200001D01*
X143075000Y-85299999D01*
X143076204Y-85275495D01*
X143079804Y-85251227D01*
X143085765Y-85227428D01*
X143094030Y-85204329D01*
X143104520Y-85182150D01*
X143117132Y-85161107D01*
X143131747Y-85141401D01*
X143148223Y-85123223D01*
X143166401Y-85106747D01*
X143186107Y-85092132D01*
X143207150Y-85079520D01*
X143229329Y-85069030D01*
X143252428Y-85060765D01*
X143276227Y-85054804D01*
X143300495Y-85051204D01*
X143324999Y-85050000D01*
X143975001Y-85050000D01*
X143999505Y-85051204D01*
X143999505Y-85051204D01*
G37*
D14*
X143650000Y-85750000D03*
D13*
G36*
X146049505Y-85051204D02*
G01*
X146073773Y-85054804D01*
X146097572Y-85060765D01*
X146120671Y-85069030D01*
X146142850Y-85079520D01*
X146163893Y-85092132D01*
X146183599Y-85106747D01*
X146201777Y-85123223D01*
X146218253Y-85141401D01*
X146232868Y-85161107D01*
X146245480Y-85182150D01*
X146255970Y-85204329D01*
X146264235Y-85227428D01*
X146270196Y-85251227D01*
X146273796Y-85275495D01*
X146275000Y-85299999D01*
X146275000Y-86200001D01*
X146273796Y-86224505D01*
X146270196Y-86248773D01*
X146264235Y-86272572D01*
X146255970Y-86295671D01*
X146245480Y-86317850D01*
X146232868Y-86338893D01*
X146218253Y-86358599D01*
X146201777Y-86376777D01*
X146183599Y-86393253D01*
X146163893Y-86407868D01*
X146142850Y-86420480D01*
X146120671Y-86430970D01*
X146097572Y-86439235D01*
X146073773Y-86445196D01*
X146049505Y-86448796D01*
X146025001Y-86450000D01*
X145374999Y-86450000D01*
X145350495Y-86448796D01*
X145326227Y-86445196D01*
X145302428Y-86439235D01*
X145279329Y-86430970D01*
X145257150Y-86420480D01*
X145236107Y-86407868D01*
X145216401Y-86393253D01*
X145198223Y-86376777D01*
X145181747Y-86358599D01*
X145167132Y-86338893D01*
X145154520Y-86317850D01*
X145144030Y-86295671D01*
X145135765Y-86272572D01*
X145129804Y-86248773D01*
X145126204Y-86224505D01*
X145125000Y-86200001D01*
X145125000Y-85299999D01*
X145126204Y-85275495D01*
X145129804Y-85251227D01*
X145135765Y-85227428D01*
X145144030Y-85204329D01*
X145154520Y-85182150D01*
X145167132Y-85161107D01*
X145181747Y-85141401D01*
X145198223Y-85123223D01*
X145216401Y-85106747D01*
X145236107Y-85092132D01*
X145257150Y-85079520D01*
X145279329Y-85069030D01*
X145302428Y-85060765D01*
X145326227Y-85054804D01*
X145350495Y-85051204D01*
X145374999Y-85050000D01*
X146025001Y-85050000D01*
X146049505Y-85051204D01*
X146049505Y-85051204D01*
G37*
D14*
X145700000Y-85750000D03*
D13*
G36*
X131974505Y-86726204D02*
G01*
X131998773Y-86729804D01*
X132022572Y-86735765D01*
X132045671Y-86744030D01*
X132067850Y-86754520D01*
X132088893Y-86767132D01*
X132108599Y-86781747D01*
X132126777Y-86798223D01*
X132143253Y-86816401D01*
X132157868Y-86836107D01*
X132170480Y-86857150D01*
X132180970Y-86879329D01*
X132189235Y-86902428D01*
X132195196Y-86926227D01*
X132198796Y-86950495D01*
X132200000Y-86974999D01*
X132200000Y-87625001D01*
X132198796Y-87649505D01*
X132195196Y-87673773D01*
X132189235Y-87697572D01*
X132180970Y-87720671D01*
X132170480Y-87742850D01*
X132157868Y-87763893D01*
X132143253Y-87783599D01*
X132126777Y-87801777D01*
X132108599Y-87818253D01*
X132088893Y-87832868D01*
X132067850Y-87845480D01*
X132045671Y-87855970D01*
X132022572Y-87864235D01*
X131998773Y-87870196D01*
X131974505Y-87873796D01*
X131950001Y-87875000D01*
X131049999Y-87875000D01*
X131025495Y-87873796D01*
X131001227Y-87870196D01*
X130977428Y-87864235D01*
X130954329Y-87855970D01*
X130932150Y-87845480D01*
X130911107Y-87832868D01*
X130891401Y-87818253D01*
X130873223Y-87801777D01*
X130856747Y-87783599D01*
X130842132Y-87763893D01*
X130829520Y-87742850D01*
X130819030Y-87720671D01*
X130810765Y-87697572D01*
X130804804Y-87673773D01*
X130801204Y-87649505D01*
X130800000Y-87625001D01*
X130800000Y-86974999D01*
X130801204Y-86950495D01*
X130804804Y-86926227D01*
X130810765Y-86902428D01*
X130819030Y-86879329D01*
X130829520Y-86857150D01*
X130842132Y-86836107D01*
X130856747Y-86816401D01*
X130873223Y-86798223D01*
X130891401Y-86781747D01*
X130911107Y-86767132D01*
X130932150Y-86754520D01*
X130954329Y-86744030D01*
X130977428Y-86735765D01*
X131001227Y-86729804D01*
X131025495Y-86726204D01*
X131049999Y-86725000D01*
X131950001Y-86725000D01*
X131974505Y-86726204D01*
X131974505Y-86726204D01*
G37*
D14*
X131500000Y-87300000D03*
D13*
G36*
X131974505Y-84676204D02*
G01*
X131998773Y-84679804D01*
X132022572Y-84685765D01*
X132045671Y-84694030D01*
X132067850Y-84704520D01*
X132088893Y-84717132D01*
X132108599Y-84731747D01*
X132126777Y-84748223D01*
X132143253Y-84766401D01*
X132157868Y-84786107D01*
X132170480Y-84807150D01*
X132180970Y-84829329D01*
X132189235Y-84852428D01*
X132195196Y-84876227D01*
X132198796Y-84900495D01*
X132200000Y-84924999D01*
X132200000Y-85575001D01*
X132198796Y-85599505D01*
X132195196Y-85623773D01*
X132189235Y-85647572D01*
X132180970Y-85670671D01*
X132170480Y-85692850D01*
X132157868Y-85713893D01*
X132143253Y-85733599D01*
X132126777Y-85751777D01*
X132108599Y-85768253D01*
X132088893Y-85782868D01*
X132067850Y-85795480D01*
X132045671Y-85805970D01*
X132022572Y-85814235D01*
X131998773Y-85820196D01*
X131974505Y-85823796D01*
X131950001Y-85825000D01*
X131049999Y-85825000D01*
X131025495Y-85823796D01*
X131001227Y-85820196D01*
X130977428Y-85814235D01*
X130954329Y-85805970D01*
X130932150Y-85795480D01*
X130911107Y-85782868D01*
X130891401Y-85768253D01*
X130873223Y-85751777D01*
X130856747Y-85733599D01*
X130842132Y-85713893D01*
X130829520Y-85692850D01*
X130819030Y-85670671D01*
X130810765Y-85647572D01*
X130804804Y-85623773D01*
X130801204Y-85599505D01*
X130800000Y-85575001D01*
X130800000Y-84924999D01*
X130801204Y-84900495D01*
X130804804Y-84876227D01*
X130810765Y-84852428D01*
X130819030Y-84829329D01*
X130829520Y-84807150D01*
X130842132Y-84786107D01*
X130856747Y-84766401D01*
X130873223Y-84748223D01*
X130891401Y-84731747D01*
X130911107Y-84717132D01*
X130932150Y-84704520D01*
X130954329Y-84694030D01*
X130977428Y-84685765D01*
X131001227Y-84679804D01*
X131025495Y-84676204D01*
X131049999Y-84675000D01*
X131950001Y-84675000D01*
X131974505Y-84676204D01*
X131974505Y-84676204D01*
G37*
D14*
X131500000Y-85250000D03*
D24*
X121575000Y-68575000D03*
X127925000Y-68575000D03*
X121575000Y-74925000D03*
D25*
X124750000Y-71750000D03*
D24*
X127925000Y-74925000D03*
D36*
X133460000Y-68500000D03*
D37*
X136000000Y-68500000D03*
D38*
X144750000Y-98500000D03*
X139750000Y-86250000D03*
X110750000Y-71250000D03*
X100500000Y-93750000D03*
X101500000Y-93750000D03*
X91250000Y-96000000D03*
X130500000Y-124699998D03*
X124500000Y-84000000D03*
X112500000Y-93750000D03*
X120750000Y-117250000D03*
X121750000Y-117250000D03*
X107520889Y-72715254D03*
X97770889Y-71715254D03*
X133250000Y-76000000D03*
X142250000Y-82500000D03*
D39*
X96550000Y-102200000D03*
X96550000Y-104200000D03*
X94800000Y-104200000D03*
X93050000Y-104200000D03*
X93050000Y-102200000D03*
X93050000Y-100450000D03*
X94800000Y-102200000D03*
D38*
X134000000Y-89500000D03*
X135500000Y-98500000D03*
X125750000Y-109000000D03*
X134000000Y-110750000D03*
X142000000Y-105750000D03*
X146250000Y-87000000D03*
X150150000Y-87050000D03*
X148750000Y-95400000D03*
X142250000Y-96250000D03*
X103025000Y-98225000D03*
X126500000Y-124699998D03*
X119987500Y-118262500D03*
X107520889Y-77215254D03*
X119000000Y-118250000D03*
X106750000Y-101000000D03*
X107500000Y-101000000D03*
X139750000Y-73500000D03*
X139200000Y-83700000D03*
X134150000Y-78500000D03*
X130150046Y-77150046D03*
X130500000Y-73250000D03*
X139750000Y-96750000D03*
X145250000Y-87000000D03*
X142250000Y-81300000D03*
X122900000Y-79200000D03*
X138000000Y-77500000D03*
X131500000Y-83750000D03*
X128469691Y-124738140D03*
X100770889Y-70715256D03*
X132325000Y-120425000D03*
X136500000Y-74750000D03*
X117781297Y-78318808D03*
X101900000Y-96650000D03*
X101000000Y-102750000D03*
X89500000Y-99250000D03*
X134500000Y-98500000D03*
X125750000Y-106750000D03*
X136250000Y-110750000D03*
X142000000Y-102750000D03*
X127000000Y-110750000D03*
X123500000Y-115250000D03*
D39*
X94750000Y-87500000D03*
X96500000Y-85750000D03*
X96500000Y-89250000D03*
X98250000Y-87500000D03*
X100000000Y-85750000D03*
X101750000Y-87500000D03*
X100000000Y-89250000D03*
X98250000Y-91000000D03*
X98250000Y-84000000D03*
X101750000Y-91000000D03*
X103500000Y-85750000D03*
X101750000Y-84000000D03*
X103500000Y-89250000D03*
X105250000Y-91000000D03*
X105250000Y-84000000D03*
X94750000Y-84000000D03*
X94750000Y-91000000D03*
X108250000Y-91000000D03*
X108250000Y-84000000D03*
D38*
X111000000Y-102500000D03*
X137500000Y-72750000D03*
X134150000Y-79800000D03*
X149100000Y-87050000D03*
X145900000Y-79300000D03*
X130650000Y-110791000D03*
X122000000Y-104250000D03*
X98875000Y-96625000D03*
X124500000Y-82000000D03*
X148300000Y-79300000D03*
X151584620Y-89584620D03*
X139500000Y-95250000D03*
X101750000Y-79750000D03*
X100770890Y-75965254D03*
X146400000Y-84400000D03*
X147050000Y-81350000D03*
X125250000Y-115250000D03*
X126250000Y-116250000D03*
X127250000Y-115250000D03*
X128250000Y-116250000D03*
X129250000Y-115250000D03*
X130250000Y-116250000D03*
X131250000Y-115250000D03*
X132250000Y-116250000D03*
X133250000Y-115250000D03*
X134250000Y-116250000D03*
X135250000Y-115250000D03*
X136250000Y-116250000D03*
X137250000Y-115250000D03*
X138250000Y-116250000D03*
X130750000Y-79250000D03*
X133624954Y-74824954D03*
X111770890Y-74330255D03*
X138250000Y-94750000D03*
X103270889Y-74215255D03*
X148500000Y-78250000D03*
X142250000Y-78250000D03*
X141750000Y-84000000D03*
X145250000Y-90000000D03*
X148750000Y-90750000D03*
X145250000Y-91000000D03*
X132500000Y-122250000D03*
X130750000Y-121500000D03*
X150225000Y-104275000D03*
X138500000Y-93500000D03*
X145176700Y-109073300D03*
X103270890Y-75715255D03*
X115520889Y-76465254D03*
D40*
X120750000Y-117250000D02*
X121750000Y-117250000D01*
X103150000Y-95550000D02*
X105350000Y-95550000D01*
X101050000Y-95550000D02*
X101000000Y-95500000D01*
X103150000Y-95550000D02*
X101050000Y-95550000D01*
X100500000Y-93750000D02*
X101500000Y-93750000D01*
X100500000Y-93750000D02*
X101000000Y-94250000D01*
X101175001Y-94074999D02*
X101000000Y-94250000D01*
X101500000Y-93750000D02*
X101175001Y-94074999D01*
X93725000Y-96000000D02*
X91250000Y-96000000D01*
X91200000Y-95950000D02*
X91250000Y-96000000D01*
X89500000Y-95950000D02*
X91200000Y-95950000D01*
X101000000Y-94250000D02*
X101000000Y-95500000D01*
D41*
X129350002Y-124699998D02*
X130500000Y-124699998D01*
X129075000Y-126100000D02*
X129075000Y-124975000D01*
X129075000Y-124975000D02*
X129350002Y-124699998D01*
D40*
X107175889Y-73060254D02*
X107520889Y-72715254D01*
X105045890Y-73060255D02*
X107175889Y-73060254D01*
D42*
X97770889Y-73190254D02*
X97770889Y-71715254D01*
D40*
X114750000Y-93750000D02*
X114000000Y-93750000D01*
X124500000Y-84000000D02*
X114750000Y-93750000D01*
X112500000Y-93750000D02*
X114000000Y-93750000D01*
X112500000Y-93750000D02*
X112500000Y-109000000D01*
X112500000Y-109000000D02*
X120750000Y-117250000D01*
D41*
X133250000Y-76000000D02*
X134450000Y-76000000D01*
X89500000Y-95950000D02*
X87800000Y-95950000D01*
X86142822Y-97607178D02*
X86142822Y-99142822D01*
X87800000Y-95950000D02*
X86142822Y-97607178D01*
D40*
X96750000Y-104000000D02*
X96550000Y-104200000D01*
X94750000Y-100500000D02*
X96750000Y-100500000D01*
X96750000Y-100500000D02*
X98750000Y-100500000D01*
X96750000Y-102000000D02*
X96550000Y-102200000D01*
X96750000Y-100500000D02*
X96750000Y-102000000D01*
X136050000Y-99750000D02*
X136050000Y-101750000D01*
D41*
X136050000Y-99750000D02*
X136050000Y-99050000D01*
X136050000Y-99050000D02*
X135500000Y-98500000D01*
X127000000Y-108775000D02*
X125975000Y-108775000D01*
X125975000Y-108775000D02*
X125750000Y-109000000D01*
D40*
X127000000Y-108775000D02*
X129000000Y-108775000D01*
X133975000Y-107500000D02*
X133975000Y-109500000D01*
D41*
X133975000Y-109500000D02*
X133975000Y-110725000D01*
X133975000Y-110725000D02*
X134000000Y-110750000D01*
D40*
X143025000Y-105750000D02*
X143500000Y-105275000D01*
X142000000Y-105750000D02*
X143025000Y-105750000D01*
X143500000Y-105275000D02*
X145500000Y-105275000D01*
D41*
X148150000Y-115600000D02*
X149100000Y-114650000D01*
X146750000Y-115600000D02*
X148150000Y-115600000D01*
X145050000Y-115050000D02*
X144000000Y-115050000D01*
X146750000Y-115600000D02*
X145600000Y-115600000D01*
X145600000Y-115600000D02*
X145050000Y-115050000D01*
D40*
X131800000Y-87300000D02*
X134000000Y-89500000D01*
X131500000Y-87300000D02*
X131800000Y-87300000D01*
X141025000Y-82500000D02*
X141000000Y-82525000D01*
X142250000Y-82500000D02*
X141025000Y-82500000D01*
X143475000Y-82500000D02*
X143500000Y-82525000D01*
X142250000Y-82500000D02*
X143475000Y-82500000D01*
X150125000Y-88250000D02*
X150125000Y-87075000D01*
X150125000Y-87075000D02*
X150150000Y-87050000D01*
X150125000Y-87025000D02*
X150150000Y-87050000D01*
X150125000Y-85750000D02*
X150125000Y-87025000D01*
D41*
X145500000Y-105275000D02*
X145500000Y-106500000D01*
X145500000Y-106500000D02*
X145850000Y-106850000D01*
D40*
X146250000Y-87700000D02*
X145700000Y-88250000D01*
X146250000Y-87000000D02*
X146250000Y-87700000D01*
X146250000Y-86300000D02*
X145700000Y-85750000D01*
X146250000Y-87000000D02*
X146250000Y-86300000D01*
X141250000Y-97275000D02*
X141250000Y-97250000D01*
X141250000Y-97250000D02*
X142250000Y-96250000D01*
D41*
X145850000Y-106850000D02*
X147500000Y-106850000D01*
D40*
X103025000Y-101500000D02*
X103025000Y-98225000D01*
X103150000Y-98100000D02*
X103150000Y-97450000D01*
X103025000Y-98225000D02*
X103025000Y-98225000D01*
X103025000Y-98225000D02*
X103150000Y-98100000D01*
X103150000Y-97450000D02*
X103200000Y-97450000D01*
X103599999Y-97900001D02*
X103625000Y-97875000D01*
X103349999Y-97900001D02*
X103599999Y-97900001D01*
X103025000Y-98225000D02*
X103349999Y-97900001D01*
X103200000Y-97450000D02*
X103625000Y-97875000D01*
X103625000Y-97875000D02*
X104500000Y-98750000D01*
D41*
X126849998Y-124699998D02*
X126500000Y-124699998D01*
X127125000Y-126100000D02*
X127125000Y-124975000D01*
X127125000Y-124975000D02*
X126849998Y-124699998D01*
D40*
X104500000Y-98750000D02*
X105750000Y-100000000D01*
X75500000Y-102490000D02*
X79260000Y-106250000D01*
X79260000Y-106250000D02*
X101500000Y-106250000D01*
X106500000Y-100750000D02*
X107000000Y-100750000D01*
X107000000Y-100750000D02*
X106750000Y-101000000D01*
X106500000Y-100750000D02*
X106750000Y-101000000D01*
X105750000Y-100000000D02*
X106500000Y-100750000D01*
X107000000Y-100750000D02*
X107000000Y-101250000D01*
X106750000Y-101000000D02*
X107000000Y-101250000D01*
X107000000Y-101250000D02*
X106500000Y-101250000D01*
X101500000Y-106250000D02*
X106500000Y-101250000D01*
X106500000Y-101250000D02*
X106750000Y-101000000D01*
X106500000Y-101250000D02*
X106500000Y-100750000D01*
X119000000Y-118250000D02*
X119000000Y-118250000D01*
X107865890Y-76870254D02*
X107520889Y-77215254D01*
X109995889Y-76870254D02*
X107865890Y-76870254D01*
X119000000Y-118250000D02*
X120000000Y-118250000D01*
X119000000Y-118250000D02*
X107750000Y-107000000D01*
X107750000Y-107000000D02*
X107750000Y-102000000D01*
X107500000Y-100250000D02*
X111250000Y-96500000D01*
X107000000Y-100750000D02*
X107500000Y-100250000D01*
X107750000Y-102000000D02*
X107500000Y-101750000D01*
D41*
X107375000Y-101625000D02*
X108000000Y-101000000D01*
D40*
X108000000Y-101000000D02*
X107500000Y-101000000D01*
X108975000Y-101000000D02*
X108000000Y-101000000D01*
X107375000Y-101625000D02*
X106750000Y-101000000D01*
X107500000Y-101750000D02*
X107375000Y-101625000D01*
D41*
X108000000Y-101000000D02*
X107500000Y-100500000D01*
D40*
X107500000Y-101750000D02*
X107500000Y-100500000D01*
X107500000Y-100500000D02*
X107500000Y-100250000D01*
X107500000Y-101000000D02*
X106750000Y-101000000D01*
D41*
X139750000Y-73500000D02*
X138550000Y-73500000D01*
D40*
X111250000Y-80944365D02*
X107520889Y-77215254D01*
X111250000Y-93750000D02*
X111250000Y-93500000D01*
X111250000Y-96500000D02*
X111250000Y-93750000D01*
X123974999Y-82775001D02*
X114250000Y-92500000D01*
X111250000Y-93000000D02*
X111750000Y-92500000D01*
X111250000Y-93250000D02*
X111250000Y-93000000D01*
X111750000Y-92500000D02*
X111250000Y-92500000D01*
X114250000Y-92500000D02*
X111750000Y-92500000D01*
X111250000Y-93250000D02*
X111250000Y-92500000D01*
X111250000Y-93750000D02*
X111250000Y-93250000D01*
X111250000Y-92000000D02*
X111750000Y-92500000D01*
X111250000Y-91750000D02*
X111250000Y-92000000D01*
X111250000Y-91750000D02*
X111250000Y-80944365D01*
X111250000Y-92500000D02*
X111250000Y-91750000D01*
X136375001Y-82775001D02*
X138275001Y-82775001D01*
X136375001Y-82775001D02*
X123974999Y-82775001D01*
X136974999Y-82775001D02*
X136375001Y-82775001D01*
X139250000Y-83650000D02*
X139200000Y-83700000D01*
X138550000Y-73500000D02*
X139250000Y-74200000D01*
X138275001Y-82775001D02*
X138275001Y-82774999D01*
X139250000Y-74200000D02*
X139250000Y-81800000D01*
D41*
X138600000Y-82650000D02*
X138500000Y-82550000D01*
X138600000Y-83100000D02*
X138600000Y-82650000D01*
D40*
X138500000Y-82550000D02*
X139250000Y-81800000D01*
X138275001Y-82774999D02*
X138500000Y-82550000D01*
X138600000Y-83100000D02*
X139200000Y-83700000D01*
X138275001Y-82775001D02*
X138600000Y-83100000D01*
D41*
X75500000Y-102490000D02*
X82740000Y-102490000D01*
X83607178Y-103357178D02*
X86142822Y-103357178D01*
X82740000Y-102490000D02*
X83607178Y-103357178D01*
X134150000Y-78500000D02*
X131500000Y-78500000D01*
X131500000Y-78500000D02*
X130150046Y-77150046D01*
X130500000Y-71460000D02*
X133460000Y-68500000D01*
X130500000Y-73250000D02*
X130500000Y-71460000D01*
D42*
X124500000Y-116406630D02*
X125825000Y-117731630D01*
X125825000Y-117731630D02*
X125825000Y-118900000D01*
X139750000Y-96750000D02*
X139750000Y-96750000D01*
D43*
X139750000Y-96750000D02*
X137750000Y-98750000D01*
X137750000Y-101300000D02*
X137750000Y-101834428D01*
X137750000Y-98750000D02*
X137750000Y-101300000D01*
D44*
X137750000Y-101834428D02*
X137417214Y-102167214D01*
D40*
X137417214Y-102167214D02*
X129506114Y-110078314D01*
X127475316Y-110078314D02*
X127621686Y-110078314D01*
X129506114Y-110078314D02*
X127475316Y-110078314D01*
D42*
X127621686Y-110078314D02*
X126421686Y-110078314D01*
D40*
X126421686Y-110078314D02*
X124500000Y-112000000D01*
X124500000Y-112000000D02*
X124500000Y-114850000D01*
D42*
X124500000Y-114850000D02*
X124500000Y-116406630D01*
D40*
X126421686Y-110078314D02*
X126524684Y-110078314D01*
X131525216Y-83775216D02*
X131500000Y-83750000D01*
D41*
X132325000Y-118900000D02*
X132325000Y-120425000D01*
X128425000Y-126100000D02*
X128425000Y-124782831D01*
X128425000Y-124782831D02*
X128469691Y-124738140D01*
X119500000Y-122750000D02*
X119500000Y-123700000D01*
X120024000Y-122226000D02*
X119500000Y-122750000D01*
D40*
X100770889Y-72215254D02*
X100770889Y-70715256D01*
D41*
X132325000Y-120425000D02*
X132325000Y-120425000D01*
X136500000Y-74750000D02*
X136500000Y-73525000D01*
X136500000Y-74750000D02*
X136500000Y-75975000D01*
X121765000Y-122226000D02*
X120024000Y-122226000D01*
D40*
X131500000Y-83750000D02*
X131500000Y-85250000D01*
X102050000Y-96500000D02*
X101900000Y-96650000D01*
X103150000Y-96500000D02*
X102050000Y-96500000D01*
X101900000Y-96650000D02*
X101000000Y-97550000D01*
X100975000Y-97575000D02*
X101000000Y-97550000D01*
X100975000Y-101500000D02*
X100975000Y-97575000D01*
X100975000Y-102725000D02*
X101000000Y-102750000D01*
X100975000Y-101500000D02*
X100975000Y-102725000D01*
X96750000Y-98450000D02*
X94750000Y-98450000D01*
X96750000Y-98450000D02*
X98750000Y-98450000D01*
X98750000Y-96750000D02*
X98875000Y-96625000D01*
X98750000Y-98450000D02*
X98750000Y-96750000D01*
X89750000Y-87540000D02*
X90960000Y-87540000D01*
X91225000Y-87275000D02*
X92250000Y-87275000D01*
X90960000Y-87540000D02*
X91225000Y-87275000D01*
X88050000Y-87300000D02*
X87000000Y-87300000D01*
X89750000Y-87540000D02*
X88290000Y-87540000D01*
X88290000Y-87540000D02*
X88050000Y-87300000D01*
X95775000Y-96000000D02*
X98250000Y-96000000D01*
X89500000Y-99250000D02*
X89500000Y-98000000D01*
X134000000Y-101750000D02*
X134000000Y-99750000D01*
D41*
X134000000Y-99750000D02*
X134000000Y-99000000D01*
X134000000Y-99000000D02*
X134500000Y-98500000D01*
X127000000Y-106725000D02*
X125775000Y-106725000D01*
X125775000Y-106725000D02*
X125750000Y-106750000D01*
D40*
X127000000Y-106725000D02*
X129000000Y-106725000D01*
X136025000Y-107500000D02*
X136025000Y-109500000D01*
D41*
X136025000Y-109500000D02*
X136025000Y-110525000D01*
X136025000Y-110525000D02*
X136250000Y-110750000D01*
D40*
X143025000Y-102750000D02*
X143500000Y-103225000D01*
X142000000Y-102750000D02*
X143025000Y-102750000D01*
X143500000Y-103225000D02*
X145500000Y-103225000D01*
D41*
X146750000Y-125225000D02*
X146750000Y-124550000D01*
X146750000Y-126100000D02*
X146750000Y-125225000D01*
X145100000Y-127750000D02*
X146750000Y-126100000D01*
X144000000Y-127750000D02*
X145100000Y-127750000D01*
D40*
X100410000Y-129079640D02*
X102950000Y-129079640D01*
X111025000Y-102475000D02*
X111000000Y-102500000D01*
X111025000Y-101000000D02*
X111025000Y-102475000D01*
D42*
X137250000Y-72750000D02*
X136500000Y-73500000D01*
X137500000Y-72750000D02*
X137250000Y-72750000D01*
D41*
X138000000Y-78750000D02*
X138000000Y-77500000D01*
X134150000Y-79800000D02*
X136950000Y-79800000D01*
X136950000Y-79800000D02*
X138000000Y-78750000D01*
D40*
X142675000Y-81300000D02*
X143500000Y-80475000D01*
X142250000Y-81300000D02*
X142675000Y-81300000D01*
X141825000Y-81300000D02*
X141000000Y-80475000D01*
X142250000Y-81300000D02*
X141825000Y-81300000D01*
X149100000Y-87225000D02*
X148075000Y-88250000D01*
X149100000Y-87050000D02*
X149100000Y-87225000D01*
X149100000Y-86775000D02*
X148075000Y-85750000D01*
X149100000Y-87050000D02*
X149100000Y-86775000D01*
X145900000Y-80474999D02*
X145900000Y-79300000D01*
X98875000Y-96625000D02*
X98875000Y-96625000D01*
X98750000Y-96500000D02*
X98500000Y-96250000D01*
X98750000Y-98475000D02*
X98750000Y-96500000D01*
X98250000Y-96000000D02*
X98500000Y-96250000D01*
X98500000Y-96250000D02*
X98875000Y-96625000D01*
X148300000Y-80475000D02*
X148300000Y-79300000D01*
X144900000Y-87000000D02*
X145250000Y-87000000D01*
X144575000Y-87325000D02*
X144575000Y-86675000D01*
X144575000Y-86675000D02*
X144900000Y-87000000D01*
X143650000Y-85750000D02*
X144575000Y-86675000D01*
X144575000Y-87325000D02*
X144900000Y-87000000D01*
X143650000Y-88250000D02*
X144575000Y-87325000D01*
X141250000Y-95225000D02*
X139525000Y-95225000D01*
X139525000Y-95225000D02*
X139500000Y-95250000D01*
D41*
X149000000Y-108750000D02*
X149600000Y-108750000D01*
X148750000Y-108500000D02*
X149000000Y-108750000D01*
X145500000Y-103225000D02*
X148750000Y-106475000D01*
X148750000Y-106475000D02*
X148750000Y-108500000D01*
D42*
X132425000Y-81525000D02*
X134150000Y-79800000D01*
X132250000Y-81525000D02*
X132425000Y-81525000D01*
D41*
X101720888Y-75215255D02*
X101020889Y-75215255D01*
X101020889Y-75215255D02*
X100770889Y-75465254D01*
X100770889Y-75465254D02*
X100770890Y-75965254D01*
D42*
X148300000Y-82525000D02*
X148275000Y-82525000D01*
X148275000Y-82525000D02*
X146400000Y-84400000D01*
X164000000Y-71750000D02*
X164000000Y-75992400D01*
X160952300Y-79040100D02*
X151784900Y-79040100D01*
X164000000Y-75992400D02*
X160952300Y-79040100D01*
X151784900Y-79040100D02*
X148300000Y-82525000D01*
X147050000Y-81374999D02*
X145900000Y-82524999D01*
X147050000Y-81350000D02*
X147050000Y-81374999D01*
D41*
X126475000Y-117669999D02*
X126475000Y-118900000D01*
X125250000Y-115250000D02*
X125250000Y-115250000D01*
X125250000Y-116444999D02*
X126475000Y-117669999D01*
X125250000Y-115250000D02*
X125250000Y-116444999D01*
X127125000Y-117125000D02*
X127125000Y-118900000D01*
X126250000Y-116250000D02*
X126250000Y-116250000D01*
X126250000Y-116250000D02*
X127125000Y-117125000D01*
X127775000Y-117775000D02*
X127775000Y-118900000D01*
X127775000Y-117138590D02*
X127775000Y-117775000D01*
X127250000Y-115250000D02*
X127250000Y-115250000D01*
X127250000Y-116613590D02*
X127775000Y-117138590D01*
X127250000Y-115250000D02*
X127250000Y-116613590D01*
X128425000Y-117775000D02*
X128425000Y-118900000D01*
X128425000Y-117132106D02*
X128425000Y-117775000D01*
X128250000Y-116957106D02*
X128425000Y-117132106D01*
X128250000Y-116250000D02*
X128250000Y-116250000D01*
X128250000Y-116250000D02*
X128250000Y-116957106D01*
X129075000Y-117175000D02*
X129075000Y-118900000D01*
X129250000Y-115250000D02*
X129250000Y-115250000D01*
X129250000Y-117000000D02*
X129075000Y-117175000D01*
X129250000Y-115250000D02*
X129250000Y-117000000D01*
X129725000Y-116775000D02*
X129725000Y-118900000D01*
X130250000Y-116250000D02*
X130250000Y-116250000D01*
X130250000Y-116250000D02*
X129725000Y-116775000D01*
X130375000Y-117375000D02*
X130375000Y-118900000D01*
X131250000Y-115250000D02*
X131250000Y-115250000D01*
X131250000Y-116500000D02*
X130375000Y-117375000D01*
X131250000Y-115250000D02*
X131250000Y-116500000D01*
X131025000Y-117475000D02*
X131025000Y-118900000D01*
X132250000Y-116250000D02*
X132250000Y-116250000D01*
X132250000Y-116250000D02*
X131025000Y-117475000D01*
X133250000Y-116500000D02*
X133250000Y-115250000D01*
X132500000Y-117250000D02*
X133250000Y-116500000D01*
X132200000Y-117250000D02*
X132500000Y-117250000D01*
X131675000Y-118900000D02*
X131675000Y-117775000D01*
X131675000Y-117775000D02*
X132200000Y-117250000D01*
X133250000Y-115250000D02*
X133250000Y-115250000D01*
X133650000Y-126100000D02*
X132325000Y-126100000D01*
X134250000Y-125500000D02*
X133650000Y-126100000D01*
X134250000Y-116250000D02*
X134250000Y-116250000D01*
X134250000Y-116250000D02*
X134250000Y-125500000D01*
X131675000Y-127225000D02*
X131675000Y-126100000D01*
X131950000Y-127500000D02*
X131675000Y-127225000D01*
X132886411Y-127500000D02*
X131950000Y-127500000D01*
X135250000Y-115250000D02*
X135250000Y-115250000D01*
X135250000Y-125136411D02*
X132886411Y-127500000D01*
X135250000Y-115250000D02*
X135250000Y-125136411D01*
X131750009Y-127950009D02*
X131025000Y-127225000D01*
X133072813Y-127950009D02*
X131750009Y-127950009D01*
X131025000Y-127225000D02*
X131025000Y-126100000D01*
X136250000Y-116250000D02*
X136250000Y-116250000D01*
X136250000Y-124772822D02*
X133072813Y-127950009D01*
X136250000Y-116250000D02*
X136250000Y-124772822D01*
X130375000Y-127225000D02*
X130375000Y-126100000D01*
X131550018Y-128400018D02*
X130375000Y-127225000D01*
X133259215Y-128400018D02*
X131550018Y-128400018D01*
X137250000Y-115250000D02*
X137250000Y-115250000D01*
X137250000Y-124409233D02*
X133259215Y-128400018D01*
X137250000Y-115250000D02*
X137250000Y-124409233D01*
X138250000Y-124045644D02*
X133445617Y-128850027D01*
X138250000Y-116250000D02*
X138250000Y-116250000D01*
X133445617Y-128850027D02*
X131350027Y-128850027D01*
X129725000Y-127225000D02*
X129725000Y-126100000D01*
X131350027Y-128850027D02*
X129725000Y-127225000D01*
X138250000Y-116250000D02*
X138250000Y-124045644D01*
D42*
X130975000Y-79475000D02*
X130750000Y-79250000D01*
X132250000Y-79475000D02*
X130975000Y-79475000D01*
D40*
X91250000Y-85225000D02*
X92250000Y-85225000D01*
X89750000Y-85000000D02*
X91025000Y-85000000D01*
X91025000Y-85000000D02*
X91250000Y-85225000D01*
X88000000Y-85250000D02*
X87000000Y-85250000D01*
X89750000Y-85000000D02*
X88250000Y-85000000D01*
X88250000Y-85000000D02*
X88000000Y-85250000D01*
X86200000Y-85250000D02*
X87000000Y-85250000D01*
X105492400Y-129082180D02*
X102574580Y-132000000D01*
X81000000Y-132000000D02*
X73250000Y-124250000D01*
X102574580Y-132000000D02*
X81000000Y-132000000D01*
X73250000Y-124250000D02*
X73250000Y-86750000D01*
X73250000Y-86750000D02*
X74750000Y-85250000D01*
X74750000Y-85250000D02*
X86200000Y-85250000D01*
D42*
X164075000Y-94014471D02*
X164075000Y-91500000D01*
X164075000Y-95425000D02*
X164075000Y-94014471D01*
X162250000Y-97250000D02*
X164075000Y-95425000D01*
X156290000Y-96059640D02*
X157480360Y-97250000D01*
X157480360Y-97250000D02*
X162250000Y-97250000D01*
X113495890Y-73690254D02*
X112865889Y-73060254D01*
X113495890Y-74965254D02*
X113495890Y-73690254D01*
X112865889Y-73060254D02*
X109995889Y-73060254D01*
X113495889Y-75765254D02*
X113495889Y-74965254D01*
X114907321Y-77176686D02*
X113495889Y-75765254D01*
X128974038Y-77176686D02*
X114907321Y-77176686D01*
X131325770Y-74824954D02*
X128974038Y-77176686D01*
X133624954Y-74824954D02*
X131325770Y-74824954D01*
D41*
X125825000Y-127225000D02*
X125825000Y-126100000D01*
X125550000Y-127500000D02*
X125825000Y-127225000D01*
X124500000Y-127500000D02*
X125550000Y-127500000D01*
X124300001Y-127300001D02*
X124500000Y-127500000D01*
X121765000Y-124766000D02*
X124299001Y-127300001D01*
X124299001Y-127300001D02*
X124300001Y-127300001D01*
D42*
X109995888Y-74330254D02*
X111770890Y-74330255D01*
D41*
X111770890Y-74330255D02*
X111770890Y-74330255D01*
D40*
X98733599Y-128216041D02*
X97870000Y-129079640D01*
X99449640Y-127500000D02*
X98733599Y-128216041D01*
X105500000Y-125750000D02*
X103750000Y-127500000D01*
X103750000Y-127500000D02*
X99449640Y-127500000D01*
D41*
X86730180Y-123019820D02*
X92790000Y-129079640D01*
X86520360Y-122810000D02*
X86730180Y-123019820D01*
X75500000Y-122810000D02*
X86520360Y-122810000D01*
X138750000Y-94250000D02*
X138250000Y-94750000D01*
X152250000Y-94250000D02*
X138750000Y-94250000D01*
X152750000Y-94750000D02*
X152250000Y-94250000D01*
X156290000Y-93519640D02*
X155059640Y-94750000D01*
X155059640Y-94750000D02*
X152750000Y-94750000D01*
X153429640Y-116700000D02*
X153750000Y-116379640D01*
X149100000Y-116700000D02*
X153429640Y-116700000D01*
X149420360Y-116379640D02*
X149100000Y-116700000D01*
X144890000Y-116700000D02*
X144000000Y-117590000D01*
X149100000Y-116700000D02*
X144890000Y-116700000D01*
D42*
X109995890Y-75600254D02*
X108155889Y-75600254D01*
X106885889Y-74330256D02*
X105045889Y-74330254D01*
X108155889Y-75600254D02*
X106885889Y-74330256D01*
X105045889Y-74330254D02*
X103385889Y-74330255D01*
X103385889Y-74330255D02*
X103270889Y-74215255D01*
D41*
X148500000Y-78250000D02*
X142250000Y-78250000D01*
D42*
X141750000Y-89750000D02*
X141750000Y-84000000D01*
X144500000Y-92500000D02*
X141750000Y-89750000D01*
X153752400Y-90982180D02*
X152234580Y-92500000D01*
X152234580Y-92500000D02*
X144500000Y-92500000D01*
X127775000Y-126100000D02*
X127775000Y-129475000D01*
X164075000Y-110014471D02*
X164075000Y-107500000D01*
X164075000Y-121175000D02*
X164075000Y-110014471D01*
X154500000Y-130750000D02*
X164075000Y-121175000D01*
X129000000Y-130750000D02*
X154500000Y-130750000D01*
X127775000Y-129475000D02*
X127775000Y-129525000D01*
X127775000Y-129525000D02*
X129000000Y-130750000D01*
D41*
X148425001Y-90425001D02*
X148000000Y-90000000D01*
X148750000Y-90750000D02*
X148425001Y-90425001D01*
X148000000Y-90000000D02*
X145250000Y-90000000D01*
X145149997Y-91000000D02*
X145250000Y-91000000D01*
X151694580Y-90500000D02*
X153752400Y-88442180D01*
X150694580Y-91500000D02*
X151694580Y-90500000D01*
X145250000Y-91000000D02*
X145750000Y-91500000D01*
X145750000Y-91500000D02*
X150694580Y-91500000D01*
X125175000Y-124975000D02*
X125175000Y-126100000D01*
X125175000Y-123838590D02*
X125175000Y-124975000D01*
X126763590Y-122250000D02*
X125175000Y-123838590D01*
X132500000Y-122250000D02*
X126763590Y-122250000D01*
X125175000Y-120025000D02*
X125175000Y-118900000D01*
X126650000Y-121500000D02*
X125175000Y-120025000D01*
X130750000Y-121500000D02*
X126650000Y-121500000D01*
X152450000Y-107800000D02*
X150200000Y-107800000D01*
X152750000Y-107500000D02*
X152450000Y-107800000D01*
X156290000Y-108759640D02*
X155030360Y-107500000D01*
X155030360Y-107500000D02*
X152750000Y-107500000D01*
X150200000Y-104300000D02*
X150225000Y-104275000D01*
X150200000Y-106850000D02*
X150200000Y-104300000D01*
X138522180Y-93522180D02*
X138500000Y-93500000D01*
X153752400Y-93522180D02*
X138522180Y-93522180D01*
X145500000Y-108750000D02*
X145176700Y-109073300D01*
X145500000Y-108750000D02*
X147750000Y-108750000D01*
X106250000Y-96500000D02*
X106750000Y-96000000D01*
D40*
X106725000Y-96500000D02*
X105350000Y-96500000D01*
X107250000Y-95975000D02*
X106725000Y-96500000D01*
D41*
X106250000Y-97500000D02*
X106750000Y-98000000D01*
D40*
X106675000Y-97450000D02*
X107250000Y-98025000D01*
X105350000Y-97450000D02*
X106675000Y-97450000D01*
D41*
X121765000Y-127306000D02*
X120056000Y-127306000D01*
X119500000Y-126750000D02*
X119500000Y-125750000D01*
X120056000Y-127306000D02*
X119500000Y-126750000D01*
X126475000Y-127225000D02*
X126475000Y-126100000D01*
X125674001Y-128025999D02*
X126475000Y-127225000D01*
X121765000Y-127306000D02*
X122484999Y-128025999D01*
X122484999Y-128025999D02*
X125674001Y-128025999D01*
X146480000Y-117650000D02*
X146750000Y-117650000D01*
X144000000Y-120130000D02*
X146480000Y-117650000D01*
X148019640Y-118919640D02*
X146750000Y-117650000D01*
X153750000Y-118919640D02*
X148019640Y-118919640D01*
D42*
X103425890Y-76870254D02*
X105045890Y-76870254D01*
X99820889Y-74665254D02*
X100770889Y-73715254D01*
X100770889Y-73715254D02*
X102194924Y-73715254D01*
X102194924Y-73715254D02*
X102520889Y-74041219D01*
X99820890Y-75215255D02*
X99820889Y-74665254D01*
X102520889Y-74041219D02*
X102520888Y-75965254D01*
X102520888Y-75965254D02*
X103425890Y-76870254D01*
X97795889Y-75215255D02*
X97770889Y-75240254D01*
X99820890Y-75215255D02*
X97795889Y-75215255D01*
D41*
X146710000Y-122500000D02*
X146750000Y-122500000D01*
X144000000Y-125210000D02*
X146710000Y-122500000D01*
X147540360Y-121709640D02*
X146750000Y-122500000D01*
X147790360Y-121459640D02*
X147540360Y-121709640D01*
X153750000Y-121459640D02*
X147790360Y-121459640D01*
D42*
X105045889Y-75600254D02*
X103385889Y-75600254D01*
X103385889Y-75600254D02*
X103270890Y-75715255D01*
D41*
X115520889Y-74990255D02*
X115545890Y-74965254D01*
D42*
X115545889Y-76440254D02*
X115520889Y-76465254D01*
X115545889Y-74965255D02*
X115545889Y-76440254D01*
M02*
