G04 #@! TF.GenerationSoftware,KiCad,Pcbnew,(5.1.2)-1*
G04 #@! TF.CreationDate,2019-06-26T13:36:35-07:00*
G04 #@! TF.ProjectId,FIFO_P,4649464f-5f50-42e6-9b69-6361645f7063,rev?*
G04 #@! TF.SameCoordinates,Original*
G04 #@! TF.FileFunction,Paste,Bot*
G04 #@! TF.FilePolarity,Positive*
%FSLAX46Y46*%
G04 Gerber Fmt 4.6, Leading zero omitted, Abs format (unit mm)*
G04 Created by KiCad (PCBNEW (5.1.2)-1) date 2019-06-26 13:36:35*
%MOMM*%
%LPD*%
G04 APERTURE LIST*
%ADD10C,0.100000*%
%ADD11C,1.425000*%
%ADD12R,0.450000X1.450000*%
%ADD13R,1.060000X0.650000*%
G04 APERTURE END LIST*
D10*
G36*
X106211359Y-72680142D02*
G01*
X106235566Y-72683733D01*
X106259305Y-72689679D01*
X106282347Y-72697923D01*
X106304470Y-72708387D01*
X106325461Y-72720968D01*
X106345117Y-72735546D01*
X106363250Y-72751981D01*
X107248019Y-73636750D01*
X107264454Y-73654883D01*
X107279032Y-73674539D01*
X107291613Y-73695530D01*
X107302077Y-73717653D01*
X107310321Y-73740695D01*
X107316267Y-73764434D01*
X107319858Y-73788641D01*
X107321059Y-73813084D01*
X107319858Y-73837527D01*
X107316267Y-73861734D01*
X107310321Y-73885473D01*
X107302077Y-73908515D01*
X107291613Y-73930638D01*
X107279032Y-73951629D01*
X107264454Y-73971285D01*
X107248019Y-73989418D01*
X106593060Y-74644377D01*
X106574927Y-74660812D01*
X106555271Y-74675390D01*
X106534280Y-74687971D01*
X106512157Y-74698435D01*
X106489115Y-74706679D01*
X106465376Y-74712625D01*
X106441169Y-74716216D01*
X106416726Y-74717417D01*
X106392283Y-74716216D01*
X106368076Y-74712625D01*
X106344337Y-74706679D01*
X106321295Y-74698435D01*
X106299172Y-74687971D01*
X106278181Y-74675390D01*
X106258525Y-74660812D01*
X106240392Y-74644377D01*
X105355623Y-73759608D01*
X105339188Y-73741475D01*
X105324610Y-73721819D01*
X105312029Y-73700828D01*
X105301565Y-73678705D01*
X105293321Y-73655663D01*
X105287375Y-73631924D01*
X105283784Y-73607717D01*
X105282583Y-73583274D01*
X105283784Y-73558831D01*
X105287375Y-73534624D01*
X105293321Y-73510885D01*
X105301565Y-73487843D01*
X105312029Y-73465720D01*
X105324610Y-73444729D01*
X105339188Y-73425073D01*
X105355623Y-73406940D01*
X106010582Y-72751981D01*
X106028715Y-72735546D01*
X106048371Y-72720968D01*
X106069362Y-72708387D01*
X106091485Y-72697923D01*
X106114527Y-72689679D01*
X106138266Y-72683733D01*
X106162473Y-72680142D01*
X106186916Y-72678941D01*
X106211359Y-72680142D01*
X106211359Y-72680142D01*
G37*
D11*
X106301821Y-73698179D03*
D10*
G36*
X104107717Y-74783784D02*
G01*
X104131924Y-74787375D01*
X104155663Y-74793321D01*
X104178705Y-74801565D01*
X104200828Y-74812029D01*
X104221819Y-74824610D01*
X104241475Y-74839188D01*
X104259608Y-74855623D01*
X105144377Y-75740392D01*
X105160812Y-75758525D01*
X105175390Y-75778181D01*
X105187971Y-75799172D01*
X105198435Y-75821295D01*
X105206679Y-75844337D01*
X105212625Y-75868076D01*
X105216216Y-75892283D01*
X105217417Y-75916726D01*
X105216216Y-75941169D01*
X105212625Y-75965376D01*
X105206679Y-75989115D01*
X105198435Y-76012157D01*
X105187971Y-76034280D01*
X105175390Y-76055271D01*
X105160812Y-76074927D01*
X105144377Y-76093060D01*
X104489418Y-76748019D01*
X104471285Y-76764454D01*
X104451629Y-76779032D01*
X104430638Y-76791613D01*
X104408515Y-76802077D01*
X104385473Y-76810321D01*
X104361734Y-76816267D01*
X104337527Y-76819858D01*
X104313084Y-76821059D01*
X104288641Y-76819858D01*
X104264434Y-76816267D01*
X104240695Y-76810321D01*
X104217653Y-76802077D01*
X104195530Y-76791613D01*
X104174539Y-76779032D01*
X104154883Y-76764454D01*
X104136750Y-76748019D01*
X103251981Y-75863250D01*
X103235546Y-75845117D01*
X103220968Y-75825461D01*
X103208387Y-75804470D01*
X103197923Y-75782347D01*
X103189679Y-75759305D01*
X103183733Y-75735566D01*
X103180142Y-75711359D01*
X103178941Y-75686916D01*
X103180142Y-75662473D01*
X103183733Y-75638266D01*
X103189679Y-75614527D01*
X103197923Y-75591485D01*
X103208387Y-75569362D01*
X103220968Y-75548371D01*
X103235546Y-75528715D01*
X103251981Y-75510582D01*
X103906940Y-74855623D01*
X103925073Y-74839188D01*
X103944729Y-74824610D01*
X103965720Y-74812029D01*
X103987843Y-74801565D01*
X104010885Y-74793321D01*
X104034624Y-74787375D01*
X104058831Y-74783784D01*
X104083274Y-74782583D01*
X104107717Y-74783784D01*
X104107717Y-74783784D01*
G37*
D11*
X104198179Y-75801821D03*
D12*
X125300000Y-118450000D03*
X125950000Y-118450000D03*
X126600000Y-118450000D03*
X127250000Y-118450000D03*
X127900000Y-118450000D03*
X128550000Y-118450000D03*
X129200000Y-118450000D03*
X129200000Y-112550000D03*
X128550000Y-112550000D03*
X127900000Y-112550000D03*
X127250000Y-112550000D03*
X126600000Y-112550000D03*
X125950000Y-112550000D03*
X125300000Y-112550000D03*
X112300000Y-118450000D03*
X112950000Y-118450000D03*
X113600000Y-118450000D03*
X114250000Y-118450000D03*
X114900000Y-118450000D03*
X115550000Y-118450000D03*
X116200000Y-118450000D03*
X116200000Y-112550000D03*
X115550000Y-112550000D03*
X114900000Y-112550000D03*
X114250000Y-112550000D03*
X113600000Y-112550000D03*
X112950000Y-112550000D03*
X112300000Y-112550000D03*
X105800000Y-118450000D03*
X106450000Y-118450000D03*
X107100000Y-118450000D03*
X107750000Y-118450000D03*
X108400000Y-118450000D03*
X109050000Y-118450000D03*
X109700000Y-118450000D03*
X109700000Y-112550000D03*
X109050000Y-112550000D03*
X108400000Y-112550000D03*
X107750000Y-112550000D03*
X107100000Y-112550000D03*
X106450000Y-112550000D03*
X105800000Y-112550000D03*
D13*
X68400000Y-88750000D03*
X68400000Y-87800000D03*
X68400000Y-89700000D03*
X70600000Y-89700000D03*
X70600000Y-88750000D03*
X70600000Y-87800000D03*
D12*
X118800000Y-118450000D03*
X119450000Y-118450000D03*
X120100000Y-118450000D03*
X120750000Y-118450000D03*
X121400000Y-118450000D03*
X122050000Y-118450000D03*
X122700000Y-118450000D03*
X122700000Y-112550000D03*
X122050000Y-112550000D03*
X121400000Y-112550000D03*
X120750000Y-112550000D03*
X120100000Y-112550000D03*
X119450000Y-112550000D03*
X118800000Y-112550000D03*
M02*
