G04 #@! TF.GenerationSoftware,KiCad,Pcbnew,(5.1.2)-1*
G04 #@! TF.CreationDate,2019-06-26T13:36:35-07:00*
G04 #@! TF.ProjectId,FIFO_P,4649464f-5f50-42e6-9b69-6361645f7063,rev?*
G04 #@! TF.SameCoordinates,Original*
G04 #@! TF.FileFunction,Paste,Top*
G04 #@! TF.FilePolarity,Positive*
%FSLAX46Y46*%
G04 Gerber Fmt 4.6, Leading zero omitted, Abs format (unit mm)*
G04 Created by KiCad (PCBNEW (5.1.2)-1) date 2019-06-26 13:36:35*
%MOMM*%
%LPD*%
G04 APERTURE LIST*
%ADD10R,1.000000X3.150000*%
%ADD11R,1.750000X0.450000*%
%ADD12C,0.100000*%
%ADD13C,0.550000*%
%ADD14C,0.600000*%
%ADD15R,0.300000X1.600000*%
G04 APERTURE END LIST*
D10*
X134594600Y-113800000D03*
X134594600Y-118850000D03*
X132054600Y-113800000D03*
X132054600Y-118850000D03*
X129514600Y-113800000D03*
X129514600Y-118850000D03*
X126974600Y-113800000D03*
X126974600Y-118850000D03*
X124434600Y-113800000D03*
X124434600Y-118850000D03*
X121894600Y-113800000D03*
X121894600Y-118850000D03*
X119354600Y-113800000D03*
X119354600Y-118850000D03*
X116814600Y-113800000D03*
X116814600Y-118850000D03*
X114274600Y-113800000D03*
X114274600Y-118850000D03*
X111734600Y-113800000D03*
X111734600Y-118850000D03*
X109194600Y-113800000D03*
X109194600Y-118850000D03*
X106654600Y-113800000D03*
X106654600Y-118850000D03*
X104114600Y-113800000D03*
X104114600Y-118850000D03*
X101574600Y-113800000D03*
X101574600Y-118850000D03*
D11*
X121463600Y-76207000D03*
X121456800Y-76841400D03*
X121456800Y-77491400D03*
X121456800Y-78141400D03*
X121456800Y-78791400D03*
X121456800Y-79441400D03*
X121456800Y-80091400D03*
X121456800Y-80741400D03*
X121456800Y-81391400D03*
X121456800Y-82041400D03*
X114256800Y-80091400D03*
X114256800Y-80741400D03*
X114256800Y-81391400D03*
X114256800Y-82041400D03*
X114256800Y-79441400D03*
X114256800Y-78791400D03*
X114256800Y-78141400D03*
X114256800Y-77491400D03*
X114256800Y-76841400D03*
X114256800Y-76191400D03*
X114256800Y-75541400D03*
X114256800Y-74891400D03*
X114256800Y-74241400D03*
X114256800Y-73591400D03*
X114256800Y-72941400D03*
X114256800Y-72291400D03*
X114256800Y-71641400D03*
X114256800Y-70991400D03*
X121456800Y-75541400D03*
X121456800Y-74891400D03*
X121456800Y-74241400D03*
X121456800Y-73591400D03*
X121456800Y-72941400D03*
X121456800Y-72291400D03*
X121456800Y-71641400D03*
X121456800Y-70991400D03*
D12*
G36*
X123750977Y-88000662D02*
G01*
X123764325Y-88002642D01*
X123777414Y-88005921D01*
X123790119Y-88010467D01*
X123802317Y-88016236D01*
X123813891Y-88023173D01*
X123824729Y-88031211D01*
X123834727Y-88040273D01*
X123843789Y-88050271D01*
X123851827Y-88061109D01*
X123858764Y-88072683D01*
X123864533Y-88084881D01*
X123869079Y-88097586D01*
X123872358Y-88110675D01*
X123874338Y-88124023D01*
X123875000Y-88137500D01*
X123875000Y-90112500D01*
X123874338Y-90125977D01*
X123872358Y-90139325D01*
X123869079Y-90152414D01*
X123864533Y-90165119D01*
X123858764Y-90177317D01*
X123851827Y-90188891D01*
X123843789Y-90199729D01*
X123834727Y-90209727D01*
X123824729Y-90218789D01*
X123813891Y-90226827D01*
X123802317Y-90233764D01*
X123790119Y-90239533D01*
X123777414Y-90244079D01*
X123764325Y-90247358D01*
X123750977Y-90249338D01*
X123737500Y-90250000D01*
X123462500Y-90250000D01*
X123449023Y-90249338D01*
X123435675Y-90247358D01*
X123422586Y-90244079D01*
X123409881Y-90239533D01*
X123397683Y-90233764D01*
X123386109Y-90226827D01*
X123375271Y-90218789D01*
X123365273Y-90209727D01*
X123356211Y-90199729D01*
X123348173Y-90188891D01*
X123341236Y-90177317D01*
X123335467Y-90165119D01*
X123330921Y-90152414D01*
X123327642Y-90139325D01*
X123325662Y-90125977D01*
X123325000Y-90112500D01*
X123325000Y-88137500D01*
X123325662Y-88124023D01*
X123327642Y-88110675D01*
X123330921Y-88097586D01*
X123335467Y-88084881D01*
X123341236Y-88072683D01*
X123348173Y-88061109D01*
X123356211Y-88050271D01*
X123365273Y-88040273D01*
X123375271Y-88031211D01*
X123386109Y-88023173D01*
X123397683Y-88016236D01*
X123409881Y-88010467D01*
X123422586Y-88005921D01*
X123435675Y-88002642D01*
X123449023Y-88000662D01*
X123462500Y-88000000D01*
X123737500Y-88000000D01*
X123750977Y-88000662D01*
X123750977Y-88000662D01*
G37*
D13*
X123600000Y-89125000D03*
D12*
G36*
X122950977Y-88000662D02*
G01*
X122964325Y-88002642D01*
X122977414Y-88005921D01*
X122990119Y-88010467D01*
X123002317Y-88016236D01*
X123013891Y-88023173D01*
X123024729Y-88031211D01*
X123034727Y-88040273D01*
X123043789Y-88050271D01*
X123051827Y-88061109D01*
X123058764Y-88072683D01*
X123064533Y-88084881D01*
X123069079Y-88097586D01*
X123072358Y-88110675D01*
X123074338Y-88124023D01*
X123075000Y-88137500D01*
X123075000Y-90112500D01*
X123074338Y-90125977D01*
X123072358Y-90139325D01*
X123069079Y-90152414D01*
X123064533Y-90165119D01*
X123058764Y-90177317D01*
X123051827Y-90188891D01*
X123043789Y-90199729D01*
X123034727Y-90209727D01*
X123024729Y-90218789D01*
X123013891Y-90226827D01*
X123002317Y-90233764D01*
X122990119Y-90239533D01*
X122977414Y-90244079D01*
X122964325Y-90247358D01*
X122950977Y-90249338D01*
X122937500Y-90250000D01*
X122662500Y-90250000D01*
X122649023Y-90249338D01*
X122635675Y-90247358D01*
X122622586Y-90244079D01*
X122609881Y-90239533D01*
X122597683Y-90233764D01*
X122586109Y-90226827D01*
X122575271Y-90218789D01*
X122565273Y-90209727D01*
X122556211Y-90199729D01*
X122548173Y-90188891D01*
X122541236Y-90177317D01*
X122535467Y-90165119D01*
X122530921Y-90152414D01*
X122527642Y-90139325D01*
X122525662Y-90125977D01*
X122525000Y-90112500D01*
X122525000Y-88137500D01*
X122525662Y-88124023D01*
X122527642Y-88110675D01*
X122530921Y-88097586D01*
X122535467Y-88084881D01*
X122541236Y-88072683D01*
X122548173Y-88061109D01*
X122556211Y-88050271D01*
X122565273Y-88040273D01*
X122575271Y-88031211D01*
X122586109Y-88023173D01*
X122597683Y-88016236D01*
X122609881Y-88010467D01*
X122622586Y-88005921D01*
X122635675Y-88002642D01*
X122649023Y-88000662D01*
X122662500Y-88000000D01*
X122937500Y-88000000D01*
X122950977Y-88000662D01*
X122950977Y-88000662D01*
G37*
D13*
X122800000Y-89125000D03*
D12*
G36*
X122150977Y-88000662D02*
G01*
X122164325Y-88002642D01*
X122177414Y-88005921D01*
X122190119Y-88010467D01*
X122202317Y-88016236D01*
X122213891Y-88023173D01*
X122224729Y-88031211D01*
X122234727Y-88040273D01*
X122243789Y-88050271D01*
X122251827Y-88061109D01*
X122258764Y-88072683D01*
X122264533Y-88084881D01*
X122269079Y-88097586D01*
X122272358Y-88110675D01*
X122274338Y-88124023D01*
X122275000Y-88137500D01*
X122275000Y-90112500D01*
X122274338Y-90125977D01*
X122272358Y-90139325D01*
X122269079Y-90152414D01*
X122264533Y-90165119D01*
X122258764Y-90177317D01*
X122251827Y-90188891D01*
X122243789Y-90199729D01*
X122234727Y-90209727D01*
X122224729Y-90218789D01*
X122213891Y-90226827D01*
X122202317Y-90233764D01*
X122190119Y-90239533D01*
X122177414Y-90244079D01*
X122164325Y-90247358D01*
X122150977Y-90249338D01*
X122137500Y-90250000D01*
X121862500Y-90250000D01*
X121849023Y-90249338D01*
X121835675Y-90247358D01*
X121822586Y-90244079D01*
X121809881Y-90239533D01*
X121797683Y-90233764D01*
X121786109Y-90226827D01*
X121775271Y-90218789D01*
X121765273Y-90209727D01*
X121756211Y-90199729D01*
X121748173Y-90188891D01*
X121741236Y-90177317D01*
X121735467Y-90165119D01*
X121730921Y-90152414D01*
X121727642Y-90139325D01*
X121725662Y-90125977D01*
X121725000Y-90112500D01*
X121725000Y-88137500D01*
X121725662Y-88124023D01*
X121727642Y-88110675D01*
X121730921Y-88097586D01*
X121735467Y-88084881D01*
X121741236Y-88072683D01*
X121748173Y-88061109D01*
X121756211Y-88050271D01*
X121765273Y-88040273D01*
X121775271Y-88031211D01*
X121786109Y-88023173D01*
X121797683Y-88016236D01*
X121809881Y-88010467D01*
X121822586Y-88005921D01*
X121835675Y-88002642D01*
X121849023Y-88000662D01*
X121862500Y-88000000D01*
X122137500Y-88000000D01*
X122150977Y-88000662D01*
X122150977Y-88000662D01*
G37*
D13*
X122000000Y-89125000D03*
D12*
G36*
X121350977Y-88000662D02*
G01*
X121364325Y-88002642D01*
X121377414Y-88005921D01*
X121390119Y-88010467D01*
X121402317Y-88016236D01*
X121413891Y-88023173D01*
X121424729Y-88031211D01*
X121434727Y-88040273D01*
X121443789Y-88050271D01*
X121451827Y-88061109D01*
X121458764Y-88072683D01*
X121464533Y-88084881D01*
X121469079Y-88097586D01*
X121472358Y-88110675D01*
X121474338Y-88124023D01*
X121475000Y-88137500D01*
X121475000Y-90112500D01*
X121474338Y-90125977D01*
X121472358Y-90139325D01*
X121469079Y-90152414D01*
X121464533Y-90165119D01*
X121458764Y-90177317D01*
X121451827Y-90188891D01*
X121443789Y-90199729D01*
X121434727Y-90209727D01*
X121424729Y-90218789D01*
X121413891Y-90226827D01*
X121402317Y-90233764D01*
X121390119Y-90239533D01*
X121377414Y-90244079D01*
X121364325Y-90247358D01*
X121350977Y-90249338D01*
X121337500Y-90250000D01*
X121062500Y-90250000D01*
X121049023Y-90249338D01*
X121035675Y-90247358D01*
X121022586Y-90244079D01*
X121009881Y-90239533D01*
X120997683Y-90233764D01*
X120986109Y-90226827D01*
X120975271Y-90218789D01*
X120965273Y-90209727D01*
X120956211Y-90199729D01*
X120948173Y-90188891D01*
X120941236Y-90177317D01*
X120935467Y-90165119D01*
X120930921Y-90152414D01*
X120927642Y-90139325D01*
X120925662Y-90125977D01*
X120925000Y-90112500D01*
X120925000Y-88137500D01*
X120925662Y-88124023D01*
X120927642Y-88110675D01*
X120930921Y-88097586D01*
X120935467Y-88084881D01*
X120941236Y-88072683D01*
X120948173Y-88061109D01*
X120956211Y-88050271D01*
X120965273Y-88040273D01*
X120975271Y-88031211D01*
X120986109Y-88023173D01*
X120997683Y-88016236D01*
X121009881Y-88010467D01*
X121022586Y-88005921D01*
X121035675Y-88002642D01*
X121049023Y-88000662D01*
X121062500Y-88000000D01*
X121337500Y-88000000D01*
X121350977Y-88000662D01*
X121350977Y-88000662D01*
G37*
D13*
X121200000Y-89125000D03*
D12*
G36*
X120550977Y-88000662D02*
G01*
X120564325Y-88002642D01*
X120577414Y-88005921D01*
X120590119Y-88010467D01*
X120602317Y-88016236D01*
X120613891Y-88023173D01*
X120624729Y-88031211D01*
X120634727Y-88040273D01*
X120643789Y-88050271D01*
X120651827Y-88061109D01*
X120658764Y-88072683D01*
X120664533Y-88084881D01*
X120669079Y-88097586D01*
X120672358Y-88110675D01*
X120674338Y-88124023D01*
X120675000Y-88137500D01*
X120675000Y-90112500D01*
X120674338Y-90125977D01*
X120672358Y-90139325D01*
X120669079Y-90152414D01*
X120664533Y-90165119D01*
X120658764Y-90177317D01*
X120651827Y-90188891D01*
X120643789Y-90199729D01*
X120634727Y-90209727D01*
X120624729Y-90218789D01*
X120613891Y-90226827D01*
X120602317Y-90233764D01*
X120590119Y-90239533D01*
X120577414Y-90244079D01*
X120564325Y-90247358D01*
X120550977Y-90249338D01*
X120537500Y-90250000D01*
X120262500Y-90250000D01*
X120249023Y-90249338D01*
X120235675Y-90247358D01*
X120222586Y-90244079D01*
X120209881Y-90239533D01*
X120197683Y-90233764D01*
X120186109Y-90226827D01*
X120175271Y-90218789D01*
X120165273Y-90209727D01*
X120156211Y-90199729D01*
X120148173Y-90188891D01*
X120141236Y-90177317D01*
X120135467Y-90165119D01*
X120130921Y-90152414D01*
X120127642Y-90139325D01*
X120125662Y-90125977D01*
X120125000Y-90112500D01*
X120125000Y-88137500D01*
X120125662Y-88124023D01*
X120127642Y-88110675D01*
X120130921Y-88097586D01*
X120135467Y-88084881D01*
X120141236Y-88072683D01*
X120148173Y-88061109D01*
X120156211Y-88050271D01*
X120165273Y-88040273D01*
X120175271Y-88031211D01*
X120186109Y-88023173D01*
X120197683Y-88016236D01*
X120209881Y-88010467D01*
X120222586Y-88005921D01*
X120235675Y-88002642D01*
X120249023Y-88000662D01*
X120262500Y-88000000D01*
X120537500Y-88000000D01*
X120550977Y-88000662D01*
X120550977Y-88000662D01*
G37*
D13*
X120400000Y-89125000D03*
D12*
G36*
X119750977Y-88000662D02*
G01*
X119764325Y-88002642D01*
X119777414Y-88005921D01*
X119790119Y-88010467D01*
X119802317Y-88016236D01*
X119813891Y-88023173D01*
X119824729Y-88031211D01*
X119834727Y-88040273D01*
X119843789Y-88050271D01*
X119851827Y-88061109D01*
X119858764Y-88072683D01*
X119864533Y-88084881D01*
X119869079Y-88097586D01*
X119872358Y-88110675D01*
X119874338Y-88124023D01*
X119875000Y-88137500D01*
X119875000Y-90112500D01*
X119874338Y-90125977D01*
X119872358Y-90139325D01*
X119869079Y-90152414D01*
X119864533Y-90165119D01*
X119858764Y-90177317D01*
X119851827Y-90188891D01*
X119843789Y-90199729D01*
X119834727Y-90209727D01*
X119824729Y-90218789D01*
X119813891Y-90226827D01*
X119802317Y-90233764D01*
X119790119Y-90239533D01*
X119777414Y-90244079D01*
X119764325Y-90247358D01*
X119750977Y-90249338D01*
X119737500Y-90250000D01*
X119462500Y-90250000D01*
X119449023Y-90249338D01*
X119435675Y-90247358D01*
X119422586Y-90244079D01*
X119409881Y-90239533D01*
X119397683Y-90233764D01*
X119386109Y-90226827D01*
X119375271Y-90218789D01*
X119365273Y-90209727D01*
X119356211Y-90199729D01*
X119348173Y-90188891D01*
X119341236Y-90177317D01*
X119335467Y-90165119D01*
X119330921Y-90152414D01*
X119327642Y-90139325D01*
X119325662Y-90125977D01*
X119325000Y-90112500D01*
X119325000Y-88137500D01*
X119325662Y-88124023D01*
X119327642Y-88110675D01*
X119330921Y-88097586D01*
X119335467Y-88084881D01*
X119341236Y-88072683D01*
X119348173Y-88061109D01*
X119356211Y-88050271D01*
X119365273Y-88040273D01*
X119375271Y-88031211D01*
X119386109Y-88023173D01*
X119397683Y-88016236D01*
X119409881Y-88010467D01*
X119422586Y-88005921D01*
X119435675Y-88002642D01*
X119449023Y-88000662D01*
X119462500Y-88000000D01*
X119737500Y-88000000D01*
X119750977Y-88000662D01*
X119750977Y-88000662D01*
G37*
D13*
X119600000Y-89125000D03*
D12*
G36*
X118950977Y-88000662D02*
G01*
X118964325Y-88002642D01*
X118977414Y-88005921D01*
X118990119Y-88010467D01*
X119002317Y-88016236D01*
X119013891Y-88023173D01*
X119024729Y-88031211D01*
X119034727Y-88040273D01*
X119043789Y-88050271D01*
X119051827Y-88061109D01*
X119058764Y-88072683D01*
X119064533Y-88084881D01*
X119069079Y-88097586D01*
X119072358Y-88110675D01*
X119074338Y-88124023D01*
X119075000Y-88137500D01*
X119075000Y-90112500D01*
X119074338Y-90125977D01*
X119072358Y-90139325D01*
X119069079Y-90152414D01*
X119064533Y-90165119D01*
X119058764Y-90177317D01*
X119051827Y-90188891D01*
X119043789Y-90199729D01*
X119034727Y-90209727D01*
X119024729Y-90218789D01*
X119013891Y-90226827D01*
X119002317Y-90233764D01*
X118990119Y-90239533D01*
X118977414Y-90244079D01*
X118964325Y-90247358D01*
X118950977Y-90249338D01*
X118937500Y-90250000D01*
X118662500Y-90250000D01*
X118649023Y-90249338D01*
X118635675Y-90247358D01*
X118622586Y-90244079D01*
X118609881Y-90239533D01*
X118597683Y-90233764D01*
X118586109Y-90226827D01*
X118575271Y-90218789D01*
X118565273Y-90209727D01*
X118556211Y-90199729D01*
X118548173Y-90188891D01*
X118541236Y-90177317D01*
X118535467Y-90165119D01*
X118530921Y-90152414D01*
X118527642Y-90139325D01*
X118525662Y-90125977D01*
X118525000Y-90112500D01*
X118525000Y-88137500D01*
X118525662Y-88124023D01*
X118527642Y-88110675D01*
X118530921Y-88097586D01*
X118535467Y-88084881D01*
X118541236Y-88072683D01*
X118548173Y-88061109D01*
X118556211Y-88050271D01*
X118565273Y-88040273D01*
X118575271Y-88031211D01*
X118586109Y-88023173D01*
X118597683Y-88016236D01*
X118609881Y-88010467D01*
X118622586Y-88005921D01*
X118635675Y-88002642D01*
X118649023Y-88000662D01*
X118662500Y-88000000D01*
X118937500Y-88000000D01*
X118950977Y-88000662D01*
X118950977Y-88000662D01*
G37*
D13*
X118800000Y-89125000D03*
D12*
G36*
X118150977Y-88000662D02*
G01*
X118164325Y-88002642D01*
X118177414Y-88005921D01*
X118190119Y-88010467D01*
X118202317Y-88016236D01*
X118213891Y-88023173D01*
X118224729Y-88031211D01*
X118234727Y-88040273D01*
X118243789Y-88050271D01*
X118251827Y-88061109D01*
X118258764Y-88072683D01*
X118264533Y-88084881D01*
X118269079Y-88097586D01*
X118272358Y-88110675D01*
X118274338Y-88124023D01*
X118275000Y-88137500D01*
X118275000Y-90112500D01*
X118274338Y-90125977D01*
X118272358Y-90139325D01*
X118269079Y-90152414D01*
X118264533Y-90165119D01*
X118258764Y-90177317D01*
X118251827Y-90188891D01*
X118243789Y-90199729D01*
X118234727Y-90209727D01*
X118224729Y-90218789D01*
X118213891Y-90226827D01*
X118202317Y-90233764D01*
X118190119Y-90239533D01*
X118177414Y-90244079D01*
X118164325Y-90247358D01*
X118150977Y-90249338D01*
X118137500Y-90250000D01*
X117862500Y-90250000D01*
X117849023Y-90249338D01*
X117835675Y-90247358D01*
X117822586Y-90244079D01*
X117809881Y-90239533D01*
X117797683Y-90233764D01*
X117786109Y-90226827D01*
X117775271Y-90218789D01*
X117765273Y-90209727D01*
X117756211Y-90199729D01*
X117748173Y-90188891D01*
X117741236Y-90177317D01*
X117735467Y-90165119D01*
X117730921Y-90152414D01*
X117727642Y-90139325D01*
X117725662Y-90125977D01*
X117725000Y-90112500D01*
X117725000Y-88137500D01*
X117725662Y-88124023D01*
X117727642Y-88110675D01*
X117730921Y-88097586D01*
X117735467Y-88084881D01*
X117741236Y-88072683D01*
X117748173Y-88061109D01*
X117756211Y-88050271D01*
X117765273Y-88040273D01*
X117775271Y-88031211D01*
X117786109Y-88023173D01*
X117797683Y-88016236D01*
X117809881Y-88010467D01*
X117822586Y-88005921D01*
X117835675Y-88002642D01*
X117849023Y-88000662D01*
X117862500Y-88000000D01*
X118137500Y-88000000D01*
X118150977Y-88000662D01*
X118150977Y-88000662D01*
G37*
D13*
X118000000Y-89125000D03*
D12*
G36*
X117350977Y-88000662D02*
G01*
X117364325Y-88002642D01*
X117377414Y-88005921D01*
X117390119Y-88010467D01*
X117402317Y-88016236D01*
X117413891Y-88023173D01*
X117424729Y-88031211D01*
X117434727Y-88040273D01*
X117443789Y-88050271D01*
X117451827Y-88061109D01*
X117458764Y-88072683D01*
X117464533Y-88084881D01*
X117469079Y-88097586D01*
X117472358Y-88110675D01*
X117474338Y-88124023D01*
X117475000Y-88137500D01*
X117475000Y-90112500D01*
X117474338Y-90125977D01*
X117472358Y-90139325D01*
X117469079Y-90152414D01*
X117464533Y-90165119D01*
X117458764Y-90177317D01*
X117451827Y-90188891D01*
X117443789Y-90199729D01*
X117434727Y-90209727D01*
X117424729Y-90218789D01*
X117413891Y-90226827D01*
X117402317Y-90233764D01*
X117390119Y-90239533D01*
X117377414Y-90244079D01*
X117364325Y-90247358D01*
X117350977Y-90249338D01*
X117337500Y-90250000D01*
X117062500Y-90250000D01*
X117049023Y-90249338D01*
X117035675Y-90247358D01*
X117022586Y-90244079D01*
X117009881Y-90239533D01*
X116997683Y-90233764D01*
X116986109Y-90226827D01*
X116975271Y-90218789D01*
X116965273Y-90209727D01*
X116956211Y-90199729D01*
X116948173Y-90188891D01*
X116941236Y-90177317D01*
X116935467Y-90165119D01*
X116930921Y-90152414D01*
X116927642Y-90139325D01*
X116925662Y-90125977D01*
X116925000Y-90112500D01*
X116925000Y-88137500D01*
X116925662Y-88124023D01*
X116927642Y-88110675D01*
X116930921Y-88097586D01*
X116935467Y-88084881D01*
X116941236Y-88072683D01*
X116948173Y-88061109D01*
X116956211Y-88050271D01*
X116965273Y-88040273D01*
X116975271Y-88031211D01*
X116986109Y-88023173D01*
X116997683Y-88016236D01*
X117009881Y-88010467D01*
X117022586Y-88005921D01*
X117035675Y-88002642D01*
X117049023Y-88000662D01*
X117062500Y-88000000D01*
X117337500Y-88000000D01*
X117350977Y-88000662D01*
X117350977Y-88000662D01*
G37*
D13*
X117200000Y-89125000D03*
D12*
G36*
X116550977Y-88000662D02*
G01*
X116564325Y-88002642D01*
X116577414Y-88005921D01*
X116590119Y-88010467D01*
X116602317Y-88016236D01*
X116613891Y-88023173D01*
X116624729Y-88031211D01*
X116634727Y-88040273D01*
X116643789Y-88050271D01*
X116651827Y-88061109D01*
X116658764Y-88072683D01*
X116664533Y-88084881D01*
X116669079Y-88097586D01*
X116672358Y-88110675D01*
X116674338Y-88124023D01*
X116675000Y-88137500D01*
X116675000Y-90112500D01*
X116674338Y-90125977D01*
X116672358Y-90139325D01*
X116669079Y-90152414D01*
X116664533Y-90165119D01*
X116658764Y-90177317D01*
X116651827Y-90188891D01*
X116643789Y-90199729D01*
X116634727Y-90209727D01*
X116624729Y-90218789D01*
X116613891Y-90226827D01*
X116602317Y-90233764D01*
X116590119Y-90239533D01*
X116577414Y-90244079D01*
X116564325Y-90247358D01*
X116550977Y-90249338D01*
X116537500Y-90250000D01*
X116262500Y-90250000D01*
X116249023Y-90249338D01*
X116235675Y-90247358D01*
X116222586Y-90244079D01*
X116209881Y-90239533D01*
X116197683Y-90233764D01*
X116186109Y-90226827D01*
X116175271Y-90218789D01*
X116165273Y-90209727D01*
X116156211Y-90199729D01*
X116148173Y-90188891D01*
X116141236Y-90177317D01*
X116135467Y-90165119D01*
X116130921Y-90152414D01*
X116127642Y-90139325D01*
X116125662Y-90125977D01*
X116125000Y-90112500D01*
X116125000Y-88137500D01*
X116125662Y-88124023D01*
X116127642Y-88110675D01*
X116130921Y-88097586D01*
X116135467Y-88084881D01*
X116141236Y-88072683D01*
X116148173Y-88061109D01*
X116156211Y-88050271D01*
X116165273Y-88040273D01*
X116175271Y-88031211D01*
X116186109Y-88023173D01*
X116197683Y-88016236D01*
X116209881Y-88010467D01*
X116222586Y-88005921D01*
X116235675Y-88002642D01*
X116249023Y-88000662D01*
X116262500Y-88000000D01*
X116537500Y-88000000D01*
X116550977Y-88000662D01*
X116550977Y-88000662D01*
G37*
D13*
X116400000Y-89125000D03*
D12*
G36*
X115750977Y-88000662D02*
G01*
X115764325Y-88002642D01*
X115777414Y-88005921D01*
X115790119Y-88010467D01*
X115802317Y-88016236D01*
X115813891Y-88023173D01*
X115824729Y-88031211D01*
X115834727Y-88040273D01*
X115843789Y-88050271D01*
X115851827Y-88061109D01*
X115858764Y-88072683D01*
X115864533Y-88084881D01*
X115869079Y-88097586D01*
X115872358Y-88110675D01*
X115874338Y-88124023D01*
X115875000Y-88137500D01*
X115875000Y-90112500D01*
X115874338Y-90125977D01*
X115872358Y-90139325D01*
X115869079Y-90152414D01*
X115864533Y-90165119D01*
X115858764Y-90177317D01*
X115851827Y-90188891D01*
X115843789Y-90199729D01*
X115834727Y-90209727D01*
X115824729Y-90218789D01*
X115813891Y-90226827D01*
X115802317Y-90233764D01*
X115790119Y-90239533D01*
X115777414Y-90244079D01*
X115764325Y-90247358D01*
X115750977Y-90249338D01*
X115737500Y-90250000D01*
X115462500Y-90250000D01*
X115449023Y-90249338D01*
X115435675Y-90247358D01*
X115422586Y-90244079D01*
X115409881Y-90239533D01*
X115397683Y-90233764D01*
X115386109Y-90226827D01*
X115375271Y-90218789D01*
X115365273Y-90209727D01*
X115356211Y-90199729D01*
X115348173Y-90188891D01*
X115341236Y-90177317D01*
X115335467Y-90165119D01*
X115330921Y-90152414D01*
X115327642Y-90139325D01*
X115325662Y-90125977D01*
X115325000Y-90112500D01*
X115325000Y-88137500D01*
X115325662Y-88124023D01*
X115327642Y-88110675D01*
X115330921Y-88097586D01*
X115335467Y-88084881D01*
X115341236Y-88072683D01*
X115348173Y-88061109D01*
X115356211Y-88050271D01*
X115365273Y-88040273D01*
X115375271Y-88031211D01*
X115386109Y-88023173D01*
X115397683Y-88016236D01*
X115409881Y-88010467D01*
X115422586Y-88005921D01*
X115435675Y-88002642D01*
X115449023Y-88000662D01*
X115462500Y-88000000D01*
X115737500Y-88000000D01*
X115750977Y-88000662D01*
X115750977Y-88000662D01*
G37*
D13*
X115600000Y-89125000D03*
D12*
G36*
X114950977Y-88000662D02*
G01*
X114964325Y-88002642D01*
X114977414Y-88005921D01*
X114990119Y-88010467D01*
X115002317Y-88016236D01*
X115013891Y-88023173D01*
X115024729Y-88031211D01*
X115034727Y-88040273D01*
X115043789Y-88050271D01*
X115051827Y-88061109D01*
X115058764Y-88072683D01*
X115064533Y-88084881D01*
X115069079Y-88097586D01*
X115072358Y-88110675D01*
X115074338Y-88124023D01*
X115075000Y-88137500D01*
X115075000Y-90112500D01*
X115074338Y-90125977D01*
X115072358Y-90139325D01*
X115069079Y-90152414D01*
X115064533Y-90165119D01*
X115058764Y-90177317D01*
X115051827Y-90188891D01*
X115043789Y-90199729D01*
X115034727Y-90209727D01*
X115024729Y-90218789D01*
X115013891Y-90226827D01*
X115002317Y-90233764D01*
X114990119Y-90239533D01*
X114977414Y-90244079D01*
X114964325Y-90247358D01*
X114950977Y-90249338D01*
X114937500Y-90250000D01*
X114662500Y-90250000D01*
X114649023Y-90249338D01*
X114635675Y-90247358D01*
X114622586Y-90244079D01*
X114609881Y-90239533D01*
X114597683Y-90233764D01*
X114586109Y-90226827D01*
X114575271Y-90218789D01*
X114565273Y-90209727D01*
X114556211Y-90199729D01*
X114548173Y-90188891D01*
X114541236Y-90177317D01*
X114535467Y-90165119D01*
X114530921Y-90152414D01*
X114527642Y-90139325D01*
X114525662Y-90125977D01*
X114525000Y-90112500D01*
X114525000Y-88137500D01*
X114525662Y-88124023D01*
X114527642Y-88110675D01*
X114530921Y-88097586D01*
X114535467Y-88084881D01*
X114541236Y-88072683D01*
X114548173Y-88061109D01*
X114556211Y-88050271D01*
X114565273Y-88040273D01*
X114575271Y-88031211D01*
X114586109Y-88023173D01*
X114597683Y-88016236D01*
X114609881Y-88010467D01*
X114622586Y-88005921D01*
X114635675Y-88002642D01*
X114649023Y-88000662D01*
X114662500Y-88000000D01*
X114937500Y-88000000D01*
X114950977Y-88000662D01*
X114950977Y-88000662D01*
G37*
D13*
X114800000Y-89125000D03*
D12*
G36*
X114150977Y-88000662D02*
G01*
X114164325Y-88002642D01*
X114177414Y-88005921D01*
X114190119Y-88010467D01*
X114202317Y-88016236D01*
X114213891Y-88023173D01*
X114224729Y-88031211D01*
X114234727Y-88040273D01*
X114243789Y-88050271D01*
X114251827Y-88061109D01*
X114258764Y-88072683D01*
X114264533Y-88084881D01*
X114269079Y-88097586D01*
X114272358Y-88110675D01*
X114274338Y-88124023D01*
X114275000Y-88137500D01*
X114275000Y-90112500D01*
X114274338Y-90125977D01*
X114272358Y-90139325D01*
X114269079Y-90152414D01*
X114264533Y-90165119D01*
X114258764Y-90177317D01*
X114251827Y-90188891D01*
X114243789Y-90199729D01*
X114234727Y-90209727D01*
X114224729Y-90218789D01*
X114213891Y-90226827D01*
X114202317Y-90233764D01*
X114190119Y-90239533D01*
X114177414Y-90244079D01*
X114164325Y-90247358D01*
X114150977Y-90249338D01*
X114137500Y-90250000D01*
X113862500Y-90250000D01*
X113849023Y-90249338D01*
X113835675Y-90247358D01*
X113822586Y-90244079D01*
X113809881Y-90239533D01*
X113797683Y-90233764D01*
X113786109Y-90226827D01*
X113775271Y-90218789D01*
X113765273Y-90209727D01*
X113756211Y-90199729D01*
X113748173Y-90188891D01*
X113741236Y-90177317D01*
X113735467Y-90165119D01*
X113730921Y-90152414D01*
X113727642Y-90139325D01*
X113725662Y-90125977D01*
X113725000Y-90112500D01*
X113725000Y-88137500D01*
X113725662Y-88124023D01*
X113727642Y-88110675D01*
X113730921Y-88097586D01*
X113735467Y-88084881D01*
X113741236Y-88072683D01*
X113748173Y-88061109D01*
X113756211Y-88050271D01*
X113765273Y-88040273D01*
X113775271Y-88031211D01*
X113786109Y-88023173D01*
X113797683Y-88016236D01*
X113809881Y-88010467D01*
X113822586Y-88005921D01*
X113835675Y-88002642D01*
X113849023Y-88000662D01*
X113862500Y-88000000D01*
X114137500Y-88000000D01*
X114150977Y-88000662D01*
X114150977Y-88000662D01*
G37*
D13*
X114000000Y-89125000D03*
D12*
G36*
X113350977Y-88000662D02*
G01*
X113364325Y-88002642D01*
X113377414Y-88005921D01*
X113390119Y-88010467D01*
X113402317Y-88016236D01*
X113413891Y-88023173D01*
X113424729Y-88031211D01*
X113434727Y-88040273D01*
X113443789Y-88050271D01*
X113451827Y-88061109D01*
X113458764Y-88072683D01*
X113464533Y-88084881D01*
X113469079Y-88097586D01*
X113472358Y-88110675D01*
X113474338Y-88124023D01*
X113475000Y-88137500D01*
X113475000Y-90112500D01*
X113474338Y-90125977D01*
X113472358Y-90139325D01*
X113469079Y-90152414D01*
X113464533Y-90165119D01*
X113458764Y-90177317D01*
X113451827Y-90188891D01*
X113443789Y-90199729D01*
X113434727Y-90209727D01*
X113424729Y-90218789D01*
X113413891Y-90226827D01*
X113402317Y-90233764D01*
X113390119Y-90239533D01*
X113377414Y-90244079D01*
X113364325Y-90247358D01*
X113350977Y-90249338D01*
X113337500Y-90250000D01*
X113062500Y-90250000D01*
X113049023Y-90249338D01*
X113035675Y-90247358D01*
X113022586Y-90244079D01*
X113009881Y-90239533D01*
X112997683Y-90233764D01*
X112986109Y-90226827D01*
X112975271Y-90218789D01*
X112965273Y-90209727D01*
X112956211Y-90199729D01*
X112948173Y-90188891D01*
X112941236Y-90177317D01*
X112935467Y-90165119D01*
X112930921Y-90152414D01*
X112927642Y-90139325D01*
X112925662Y-90125977D01*
X112925000Y-90112500D01*
X112925000Y-88137500D01*
X112925662Y-88124023D01*
X112927642Y-88110675D01*
X112930921Y-88097586D01*
X112935467Y-88084881D01*
X112941236Y-88072683D01*
X112948173Y-88061109D01*
X112956211Y-88050271D01*
X112965273Y-88040273D01*
X112975271Y-88031211D01*
X112986109Y-88023173D01*
X112997683Y-88016236D01*
X113009881Y-88010467D01*
X113022586Y-88005921D01*
X113035675Y-88002642D01*
X113049023Y-88000662D01*
X113062500Y-88000000D01*
X113337500Y-88000000D01*
X113350977Y-88000662D01*
X113350977Y-88000662D01*
G37*
D13*
X113200000Y-89125000D03*
D12*
G36*
X112550977Y-88000662D02*
G01*
X112564325Y-88002642D01*
X112577414Y-88005921D01*
X112590119Y-88010467D01*
X112602317Y-88016236D01*
X112613891Y-88023173D01*
X112624729Y-88031211D01*
X112634727Y-88040273D01*
X112643789Y-88050271D01*
X112651827Y-88061109D01*
X112658764Y-88072683D01*
X112664533Y-88084881D01*
X112669079Y-88097586D01*
X112672358Y-88110675D01*
X112674338Y-88124023D01*
X112675000Y-88137500D01*
X112675000Y-90112500D01*
X112674338Y-90125977D01*
X112672358Y-90139325D01*
X112669079Y-90152414D01*
X112664533Y-90165119D01*
X112658764Y-90177317D01*
X112651827Y-90188891D01*
X112643789Y-90199729D01*
X112634727Y-90209727D01*
X112624729Y-90218789D01*
X112613891Y-90226827D01*
X112602317Y-90233764D01*
X112590119Y-90239533D01*
X112577414Y-90244079D01*
X112564325Y-90247358D01*
X112550977Y-90249338D01*
X112537500Y-90250000D01*
X112262500Y-90250000D01*
X112249023Y-90249338D01*
X112235675Y-90247358D01*
X112222586Y-90244079D01*
X112209881Y-90239533D01*
X112197683Y-90233764D01*
X112186109Y-90226827D01*
X112175271Y-90218789D01*
X112165273Y-90209727D01*
X112156211Y-90199729D01*
X112148173Y-90188891D01*
X112141236Y-90177317D01*
X112135467Y-90165119D01*
X112130921Y-90152414D01*
X112127642Y-90139325D01*
X112125662Y-90125977D01*
X112125000Y-90112500D01*
X112125000Y-88137500D01*
X112125662Y-88124023D01*
X112127642Y-88110675D01*
X112130921Y-88097586D01*
X112135467Y-88084881D01*
X112141236Y-88072683D01*
X112148173Y-88061109D01*
X112156211Y-88050271D01*
X112165273Y-88040273D01*
X112175271Y-88031211D01*
X112186109Y-88023173D01*
X112197683Y-88016236D01*
X112209881Y-88010467D01*
X112222586Y-88005921D01*
X112235675Y-88002642D01*
X112249023Y-88000662D01*
X112262500Y-88000000D01*
X112537500Y-88000000D01*
X112550977Y-88000662D01*
X112550977Y-88000662D01*
G37*
D13*
X112400000Y-89125000D03*
D12*
G36*
X111750977Y-88000662D02*
G01*
X111764325Y-88002642D01*
X111777414Y-88005921D01*
X111790119Y-88010467D01*
X111802317Y-88016236D01*
X111813891Y-88023173D01*
X111824729Y-88031211D01*
X111834727Y-88040273D01*
X111843789Y-88050271D01*
X111851827Y-88061109D01*
X111858764Y-88072683D01*
X111864533Y-88084881D01*
X111869079Y-88097586D01*
X111872358Y-88110675D01*
X111874338Y-88124023D01*
X111875000Y-88137500D01*
X111875000Y-90112500D01*
X111874338Y-90125977D01*
X111872358Y-90139325D01*
X111869079Y-90152414D01*
X111864533Y-90165119D01*
X111858764Y-90177317D01*
X111851827Y-90188891D01*
X111843789Y-90199729D01*
X111834727Y-90209727D01*
X111824729Y-90218789D01*
X111813891Y-90226827D01*
X111802317Y-90233764D01*
X111790119Y-90239533D01*
X111777414Y-90244079D01*
X111764325Y-90247358D01*
X111750977Y-90249338D01*
X111737500Y-90250000D01*
X111462500Y-90250000D01*
X111449023Y-90249338D01*
X111435675Y-90247358D01*
X111422586Y-90244079D01*
X111409881Y-90239533D01*
X111397683Y-90233764D01*
X111386109Y-90226827D01*
X111375271Y-90218789D01*
X111365273Y-90209727D01*
X111356211Y-90199729D01*
X111348173Y-90188891D01*
X111341236Y-90177317D01*
X111335467Y-90165119D01*
X111330921Y-90152414D01*
X111327642Y-90139325D01*
X111325662Y-90125977D01*
X111325000Y-90112500D01*
X111325000Y-88137500D01*
X111325662Y-88124023D01*
X111327642Y-88110675D01*
X111330921Y-88097586D01*
X111335467Y-88084881D01*
X111341236Y-88072683D01*
X111348173Y-88061109D01*
X111356211Y-88050271D01*
X111365273Y-88040273D01*
X111375271Y-88031211D01*
X111386109Y-88023173D01*
X111397683Y-88016236D01*
X111409881Y-88010467D01*
X111422586Y-88005921D01*
X111435675Y-88002642D01*
X111449023Y-88000662D01*
X111462500Y-88000000D01*
X111737500Y-88000000D01*
X111750977Y-88000662D01*
X111750977Y-88000662D01*
G37*
D13*
X111600000Y-89125000D03*
D12*
G36*
X110550977Y-90900662D02*
G01*
X110564325Y-90902642D01*
X110577414Y-90905921D01*
X110590119Y-90910467D01*
X110602317Y-90916236D01*
X110613891Y-90923173D01*
X110624729Y-90931211D01*
X110634727Y-90940273D01*
X110643789Y-90950271D01*
X110651827Y-90961109D01*
X110658764Y-90972683D01*
X110664533Y-90984881D01*
X110669079Y-90997586D01*
X110672358Y-91010675D01*
X110674338Y-91024023D01*
X110675000Y-91037500D01*
X110675000Y-91312500D01*
X110674338Y-91325977D01*
X110672358Y-91339325D01*
X110669079Y-91352414D01*
X110664533Y-91365119D01*
X110658764Y-91377317D01*
X110651827Y-91388891D01*
X110643789Y-91399729D01*
X110634727Y-91409727D01*
X110624729Y-91418789D01*
X110613891Y-91426827D01*
X110602317Y-91433764D01*
X110590119Y-91439533D01*
X110577414Y-91444079D01*
X110564325Y-91447358D01*
X110550977Y-91449338D01*
X110537500Y-91450000D01*
X108562500Y-91450000D01*
X108549023Y-91449338D01*
X108535675Y-91447358D01*
X108522586Y-91444079D01*
X108509881Y-91439533D01*
X108497683Y-91433764D01*
X108486109Y-91426827D01*
X108475271Y-91418789D01*
X108465273Y-91409727D01*
X108456211Y-91399729D01*
X108448173Y-91388891D01*
X108441236Y-91377317D01*
X108435467Y-91365119D01*
X108430921Y-91352414D01*
X108427642Y-91339325D01*
X108425662Y-91325977D01*
X108425000Y-91312500D01*
X108425000Y-91037500D01*
X108425662Y-91024023D01*
X108427642Y-91010675D01*
X108430921Y-90997586D01*
X108435467Y-90984881D01*
X108441236Y-90972683D01*
X108448173Y-90961109D01*
X108456211Y-90950271D01*
X108465273Y-90940273D01*
X108475271Y-90931211D01*
X108486109Y-90923173D01*
X108497683Y-90916236D01*
X108509881Y-90910467D01*
X108522586Y-90905921D01*
X108535675Y-90902642D01*
X108549023Y-90900662D01*
X108562500Y-90900000D01*
X110537500Y-90900000D01*
X110550977Y-90900662D01*
X110550977Y-90900662D01*
G37*
D13*
X109550000Y-91175000D03*
D12*
G36*
X110550977Y-91700662D02*
G01*
X110564325Y-91702642D01*
X110577414Y-91705921D01*
X110590119Y-91710467D01*
X110602317Y-91716236D01*
X110613891Y-91723173D01*
X110624729Y-91731211D01*
X110634727Y-91740273D01*
X110643789Y-91750271D01*
X110651827Y-91761109D01*
X110658764Y-91772683D01*
X110664533Y-91784881D01*
X110669079Y-91797586D01*
X110672358Y-91810675D01*
X110674338Y-91824023D01*
X110675000Y-91837500D01*
X110675000Y-92112500D01*
X110674338Y-92125977D01*
X110672358Y-92139325D01*
X110669079Y-92152414D01*
X110664533Y-92165119D01*
X110658764Y-92177317D01*
X110651827Y-92188891D01*
X110643789Y-92199729D01*
X110634727Y-92209727D01*
X110624729Y-92218789D01*
X110613891Y-92226827D01*
X110602317Y-92233764D01*
X110590119Y-92239533D01*
X110577414Y-92244079D01*
X110564325Y-92247358D01*
X110550977Y-92249338D01*
X110537500Y-92250000D01*
X108562500Y-92250000D01*
X108549023Y-92249338D01*
X108535675Y-92247358D01*
X108522586Y-92244079D01*
X108509881Y-92239533D01*
X108497683Y-92233764D01*
X108486109Y-92226827D01*
X108475271Y-92218789D01*
X108465273Y-92209727D01*
X108456211Y-92199729D01*
X108448173Y-92188891D01*
X108441236Y-92177317D01*
X108435467Y-92165119D01*
X108430921Y-92152414D01*
X108427642Y-92139325D01*
X108425662Y-92125977D01*
X108425000Y-92112500D01*
X108425000Y-91837500D01*
X108425662Y-91824023D01*
X108427642Y-91810675D01*
X108430921Y-91797586D01*
X108435467Y-91784881D01*
X108441236Y-91772683D01*
X108448173Y-91761109D01*
X108456211Y-91750271D01*
X108465273Y-91740273D01*
X108475271Y-91731211D01*
X108486109Y-91723173D01*
X108497683Y-91716236D01*
X108509881Y-91710467D01*
X108522586Y-91705921D01*
X108535675Y-91702642D01*
X108549023Y-91700662D01*
X108562500Y-91700000D01*
X110537500Y-91700000D01*
X110550977Y-91700662D01*
X110550977Y-91700662D01*
G37*
D13*
X109550000Y-91975000D03*
D12*
G36*
X110550977Y-92500662D02*
G01*
X110564325Y-92502642D01*
X110577414Y-92505921D01*
X110590119Y-92510467D01*
X110602317Y-92516236D01*
X110613891Y-92523173D01*
X110624729Y-92531211D01*
X110634727Y-92540273D01*
X110643789Y-92550271D01*
X110651827Y-92561109D01*
X110658764Y-92572683D01*
X110664533Y-92584881D01*
X110669079Y-92597586D01*
X110672358Y-92610675D01*
X110674338Y-92624023D01*
X110675000Y-92637500D01*
X110675000Y-92912500D01*
X110674338Y-92925977D01*
X110672358Y-92939325D01*
X110669079Y-92952414D01*
X110664533Y-92965119D01*
X110658764Y-92977317D01*
X110651827Y-92988891D01*
X110643789Y-92999729D01*
X110634727Y-93009727D01*
X110624729Y-93018789D01*
X110613891Y-93026827D01*
X110602317Y-93033764D01*
X110590119Y-93039533D01*
X110577414Y-93044079D01*
X110564325Y-93047358D01*
X110550977Y-93049338D01*
X110537500Y-93050000D01*
X108562500Y-93050000D01*
X108549023Y-93049338D01*
X108535675Y-93047358D01*
X108522586Y-93044079D01*
X108509881Y-93039533D01*
X108497683Y-93033764D01*
X108486109Y-93026827D01*
X108475271Y-93018789D01*
X108465273Y-93009727D01*
X108456211Y-92999729D01*
X108448173Y-92988891D01*
X108441236Y-92977317D01*
X108435467Y-92965119D01*
X108430921Y-92952414D01*
X108427642Y-92939325D01*
X108425662Y-92925977D01*
X108425000Y-92912500D01*
X108425000Y-92637500D01*
X108425662Y-92624023D01*
X108427642Y-92610675D01*
X108430921Y-92597586D01*
X108435467Y-92584881D01*
X108441236Y-92572683D01*
X108448173Y-92561109D01*
X108456211Y-92550271D01*
X108465273Y-92540273D01*
X108475271Y-92531211D01*
X108486109Y-92523173D01*
X108497683Y-92516236D01*
X108509881Y-92510467D01*
X108522586Y-92505921D01*
X108535675Y-92502642D01*
X108549023Y-92500662D01*
X108562500Y-92500000D01*
X110537500Y-92500000D01*
X110550977Y-92500662D01*
X110550977Y-92500662D01*
G37*
D13*
X109550000Y-92775000D03*
D12*
G36*
X110550977Y-93300662D02*
G01*
X110564325Y-93302642D01*
X110577414Y-93305921D01*
X110590119Y-93310467D01*
X110602317Y-93316236D01*
X110613891Y-93323173D01*
X110624729Y-93331211D01*
X110634727Y-93340273D01*
X110643789Y-93350271D01*
X110651827Y-93361109D01*
X110658764Y-93372683D01*
X110664533Y-93384881D01*
X110669079Y-93397586D01*
X110672358Y-93410675D01*
X110674338Y-93424023D01*
X110675000Y-93437500D01*
X110675000Y-93712500D01*
X110674338Y-93725977D01*
X110672358Y-93739325D01*
X110669079Y-93752414D01*
X110664533Y-93765119D01*
X110658764Y-93777317D01*
X110651827Y-93788891D01*
X110643789Y-93799729D01*
X110634727Y-93809727D01*
X110624729Y-93818789D01*
X110613891Y-93826827D01*
X110602317Y-93833764D01*
X110590119Y-93839533D01*
X110577414Y-93844079D01*
X110564325Y-93847358D01*
X110550977Y-93849338D01*
X110537500Y-93850000D01*
X108562500Y-93850000D01*
X108549023Y-93849338D01*
X108535675Y-93847358D01*
X108522586Y-93844079D01*
X108509881Y-93839533D01*
X108497683Y-93833764D01*
X108486109Y-93826827D01*
X108475271Y-93818789D01*
X108465273Y-93809727D01*
X108456211Y-93799729D01*
X108448173Y-93788891D01*
X108441236Y-93777317D01*
X108435467Y-93765119D01*
X108430921Y-93752414D01*
X108427642Y-93739325D01*
X108425662Y-93725977D01*
X108425000Y-93712500D01*
X108425000Y-93437500D01*
X108425662Y-93424023D01*
X108427642Y-93410675D01*
X108430921Y-93397586D01*
X108435467Y-93384881D01*
X108441236Y-93372683D01*
X108448173Y-93361109D01*
X108456211Y-93350271D01*
X108465273Y-93340273D01*
X108475271Y-93331211D01*
X108486109Y-93323173D01*
X108497683Y-93316236D01*
X108509881Y-93310467D01*
X108522586Y-93305921D01*
X108535675Y-93302642D01*
X108549023Y-93300662D01*
X108562500Y-93300000D01*
X110537500Y-93300000D01*
X110550977Y-93300662D01*
X110550977Y-93300662D01*
G37*
D13*
X109550000Y-93575000D03*
D12*
G36*
X110550977Y-94100662D02*
G01*
X110564325Y-94102642D01*
X110577414Y-94105921D01*
X110590119Y-94110467D01*
X110602317Y-94116236D01*
X110613891Y-94123173D01*
X110624729Y-94131211D01*
X110634727Y-94140273D01*
X110643789Y-94150271D01*
X110651827Y-94161109D01*
X110658764Y-94172683D01*
X110664533Y-94184881D01*
X110669079Y-94197586D01*
X110672358Y-94210675D01*
X110674338Y-94224023D01*
X110675000Y-94237500D01*
X110675000Y-94512500D01*
X110674338Y-94525977D01*
X110672358Y-94539325D01*
X110669079Y-94552414D01*
X110664533Y-94565119D01*
X110658764Y-94577317D01*
X110651827Y-94588891D01*
X110643789Y-94599729D01*
X110634727Y-94609727D01*
X110624729Y-94618789D01*
X110613891Y-94626827D01*
X110602317Y-94633764D01*
X110590119Y-94639533D01*
X110577414Y-94644079D01*
X110564325Y-94647358D01*
X110550977Y-94649338D01*
X110537500Y-94650000D01*
X108562500Y-94650000D01*
X108549023Y-94649338D01*
X108535675Y-94647358D01*
X108522586Y-94644079D01*
X108509881Y-94639533D01*
X108497683Y-94633764D01*
X108486109Y-94626827D01*
X108475271Y-94618789D01*
X108465273Y-94609727D01*
X108456211Y-94599729D01*
X108448173Y-94588891D01*
X108441236Y-94577317D01*
X108435467Y-94565119D01*
X108430921Y-94552414D01*
X108427642Y-94539325D01*
X108425662Y-94525977D01*
X108425000Y-94512500D01*
X108425000Y-94237500D01*
X108425662Y-94224023D01*
X108427642Y-94210675D01*
X108430921Y-94197586D01*
X108435467Y-94184881D01*
X108441236Y-94172683D01*
X108448173Y-94161109D01*
X108456211Y-94150271D01*
X108465273Y-94140273D01*
X108475271Y-94131211D01*
X108486109Y-94123173D01*
X108497683Y-94116236D01*
X108509881Y-94110467D01*
X108522586Y-94105921D01*
X108535675Y-94102642D01*
X108549023Y-94100662D01*
X108562500Y-94100000D01*
X110537500Y-94100000D01*
X110550977Y-94100662D01*
X110550977Y-94100662D01*
G37*
D13*
X109550000Y-94375000D03*
D12*
G36*
X110550977Y-94900662D02*
G01*
X110564325Y-94902642D01*
X110577414Y-94905921D01*
X110590119Y-94910467D01*
X110602317Y-94916236D01*
X110613891Y-94923173D01*
X110624729Y-94931211D01*
X110634727Y-94940273D01*
X110643789Y-94950271D01*
X110651827Y-94961109D01*
X110658764Y-94972683D01*
X110664533Y-94984881D01*
X110669079Y-94997586D01*
X110672358Y-95010675D01*
X110674338Y-95024023D01*
X110675000Y-95037500D01*
X110675000Y-95312500D01*
X110674338Y-95325977D01*
X110672358Y-95339325D01*
X110669079Y-95352414D01*
X110664533Y-95365119D01*
X110658764Y-95377317D01*
X110651827Y-95388891D01*
X110643789Y-95399729D01*
X110634727Y-95409727D01*
X110624729Y-95418789D01*
X110613891Y-95426827D01*
X110602317Y-95433764D01*
X110590119Y-95439533D01*
X110577414Y-95444079D01*
X110564325Y-95447358D01*
X110550977Y-95449338D01*
X110537500Y-95450000D01*
X108562500Y-95450000D01*
X108549023Y-95449338D01*
X108535675Y-95447358D01*
X108522586Y-95444079D01*
X108509881Y-95439533D01*
X108497683Y-95433764D01*
X108486109Y-95426827D01*
X108475271Y-95418789D01*
X108465273Y-95409727D01*
X108456211Y-95399729D01*
X108448173Y-95388891D01*
X108441236Y-95377317D01*
X108435467Y-95365119D01*
X108430921Y-95352414D01*
X108427642Y-95339325D01*
X108425662Y-95325977D01*
X108425000Y-95312500D01*
X108425000Y-95037500D01*
X108425662Y-95024023D01*
X108427642Y-95010675D01*
X108430921Y-94997586D01*
X108435467Y-94984881D01*
X108441236Y-94972683D01*
X108448173Y-94961109D01*
X108456211Y-94950271D01*
X108465273Y-94940273D01*
X108475271Y-94931211D01*
X108486109Y-94923173D01*
X108497683Y-94916236D01*
X108509881Y-94910467D01*
X108522586Y-94905921D01*
X108535675Y-94902642D01*
X108549023Y-94900662D01*
X108562500Y-94900000D01*
X110537500Y-94900000D01*
X110550977Y-94900662D01*
X110550977Y-94900662D01*
G37*
D13*
X109550000Y-95175000D03*
D12*
G36*
X110550977Y-95700662D02*
G01*
X110564325Y-95702642D01*
X110577414Y-95705921D01*
X110590119Y-95710467D01*
X110602317Y-95716236D01*
X110613891Y-95723173D01*
X110624729Y-95731211D01*
X110634727Y-95740273D01*
X110643789Y-95750271D01*
X110651827Y-95761109D01*
X110658764Y-95772683D01*
X110664533Y-95784881D01*
X110669079Y-95797586D01*
X110672358Y-95810675D01*
X110674338Y-95824023D01*
X110675000Y-95837500D01*
X110675000Y-96112500D01*
X110674338Y-96125977D01*
X110672358Y-96139325D01*
X110669079Y-96152414D01*
X110664533Y-96165119D01*
X110658764Y-96177317D01*
X110651827Y-96188891D01*
X110643789Y-96199729D01*
X110634727Y-96209727D01*
X110624729Y-96218789D01*
X110613891Y-96226827D01*
X110602317Y-96233764D01*
X110590119Y-96239533D01*
X110577414Y-96244079D01*
X110564325Y-96247358D01*
X110550977Y-96249338D01*
X110537500Y-96250000D01*
X108562500Y-96250000D01*
X108549023Y-96249338D01*
X108535675Y-96247358D01*
X108522586Y-96244079D01*
X108509881Y-96239533D01*
X108497683Y-96233764D01*
X108486109Y-96226827D01*
X108475271Y-96218789D01*
X108465273Y-96209727D01*
X108456211Y-96199729D01*
X108448173Y-96188891D01*
X108441236Y-96177317D01*
X108435467Y-96165119D01*
X108430921Y-96152414D01*
X108427642Y-96139325D01*
X108425662Y-96125977D01*
X108425000Y-96112500D01*
X108425000Y-95837500D01*
X108425662Y-95824023D01*
X108427642Y-95810675D01*
X108430921Y-95797586D01*
X108435467Y-95784881D01*
X108441236Y-95772683D01*
X108448173Y-95761109D01*
X108456211Y-95750271D01*
X108465273Y-95740273D01*
X108475271Y-95731211D01*
X108486109Y-95723173D01*
X108497683Y-95716236D01*
X108509881Y-95710467D01*
X108522586Y-95705921D01*
X108535675Y-95702642D01*
X108549023Y-95700662D01*
X108562500Y-95700000D01*
X110537500Y-95700000D01*
X110550977Y-95700662D01*
X110550977Y-95700662D01*
G37*
D13*
X109550000Y-95975000D03*
D12*
G36*
X110550977Y-96500662D02*
G01*
X110564325Y-96502642D01*
X110577414Y-96505921D01*
X110590119Y-96510467D01*
X110602317Y-96516236D01*
X110613891Y-96523173D01*
X110624729Y-96531211D01*
X110634727Y-96540273D01*
X110643789Y-96550271D01*
X110651827Y-96561109D01*
X110658764Y-96572683D01*
X110664533Y-96584881D01*
X110669079Y-96597586D01*
X110672358Y-96610675D01*
X110674338Y-96624023D01*
X110675000Y-96637500D01*
X110675000Y-96912500D01*
X110674338Y-96925977D01*
X110672358Y-96939325D01*
X110669079Y-96952414D01*
X110664533Y-96965119D01*
X110658764Y-96977317D01*
X110651827Y-96988891D01*
X110643789Y-96999729D01*
X110634727Y-97009727D01*
X110624729Y-97018789D01*
X110613891Y-97026827D01*
X110602317Y-97033764D01*
X110590119Y-97039533D01*
X110577414Y-97044079D01*
X110564325Y-97047358D01*
X110550977Y-97049338D01*
X110537500Y-97050000D01*
X108562500Y-97050000D01*
X108549023Y-97049338D01*
X108535675Y-97047358D01*
X108522586Y-97044079D01*
X108509881Y-97039533D01*
X108497683Y-97033764D01*
X108486109Y-97026827D01*
X108475271Y-97018789D01*
X108465273Y-97009727D01*
X108456211Y-96999729D01*
X108448173Y-96988891D01*
X108441236Y-96977317D01*
X108435467Y-96965119D01*
X108430921Y-96952414D01*
X108427642Y-96939325D01*
X108425662Y-96925977D01*
X108425000Y-96912500D01*
X108425000Y-96637500D01*
X108425662Y-96624023D01*
X108427642Y-96610675D01*
X108430921Y-96597586D01*
X108435467Y-96584881D01*
X108441236Y-96572683D01*
X108448173Y-96561109D01*
X108456211Y-96550271D01*
X108465273Y-96540273D01*
X108475271Y-96531211D01*
X108486109Y-96523173D01*
X108497683Y-96516236D01*
X108509881Y-96510467D01*
X108522586Y-96505921D01*
X108535675Y-96502642D01*
X108549023Y-96500662D01*
X108562500Y-96500000D01*
X110537500Y-96500000D01*
X110550977Y-96500662D01*
X110550977Y-96500662D01*
G37*
D13*
X109550000Y-96775000D03*
D12*
G36*
X110550977Y-97300662D02*
G01*
X110564325Y-97302642D01*
X110577414Y-97305921D01*
X110590119Y-97310467D01*
X110602317Y-97316236D01*
X110613891Y-97323173D01*
X110624729Y-97331211D01*
X110634727Y-97340273D01*
X110643789Y-97350271D01*
X110651827Y-97361109D01*
X110658764Y-97372683D01*
X110664533Y-97384881D01*
X110669079Y-97397586D01*
X110672358Y-97410675D01*
X110674338Y-97424023D01*
X110675000Y-97437500D01*
X110675000Y-97712500D01*
X110674338Y-97725977D01*
X110672358Y-97739325D01*
X110669079Y-97752414D01*
X110664533Y-97765119D01*
X110658764Y-97777317D01*
X110651827Y-97788891D01*
X110643789Y-97799729D01*
X110634727Y-97809727D01*
X110624729Y-97818789D01*
X110613891Y-97826827D01*
X110602317Y-97833764D01*
X110590119Y-97839533D01*
X110577414Y-97844079D01*
X110564325Y-97847358D01*
X110550977Y-97849338D01*
X110537500Y-97850000D01*
X108562500Y-97850000D01*
X108549023Y-97849338D01*
X108535675Y-97847358D01*
X108522586Y-97844079D01*
X108509881Y-97839533D01*
X108497683Y-97833764D01*
X108486109Y-97826827D01*
X108475271Y-97818789D01*
X108465273Y-97809727D01*
X108456211Y-97799729D01*
X108448173Y-97788891D01*
X108441236Y-97777317D01*
X108435467Y-97765119D01*
X108430921Y-97752414D01*
X108427642Y-97739325D01*
X108425662Y-97725977D01*
X108425000Y-97712500D01*
X108425000Y-97437500D01*
X108425662Y-97424023D01*
X108427642Y-97410675D01*
X108430921Y-97397586D01*
X108435467Y-97384881D01*
X108441236Y-97372683D01*
X108448173Y-97361109D01*
X108456211Y-97350271D01*
X108465273Y-97340273D01*
X108475271Y-97331211D01*
X108486109Y-97323173D01*
X108497683Y-97316236D01*
X108509881Y-97310467D01*
X108522586Y-97305921D01*
X108535675Y-97302642D01*
X108549023Y-97300662D01*
X108562500Y-97300000D01*
X110537500Y-97300000D01*
X110550977Y-97300662D01*
X110550977Y-97300662D01*
G37*
D13*
X109550000Y-97575000D03*
D12*
G36*
X110550977Y-98100662D02*
G01*
X110564325Y-98102642D01*
X110577414Y-98105921D01*
X110590119Y-98110467D01*
X110602317Y-98116236D01*
X110613891Y-98123173D01*
X110624729Y-98131211D01*
X110634727Y-98140273D01*
X110643789Y-98150271D01*
X110651827Y-98161109D01*
X110658764Y-98172683D01*
X110664533Y-98184881D01*
X110669079Y-98197586D01*
X110672358Y-98210675D01*
X110674338Y-98224023D01*
X110675000Y-98237500D01*
X110675000Y-98512500D01*
X110674338Y-98525977D01*
X110672358Y-98539325D01*
X110669079Y-98552414D01*
X110664533Y-98565119D01*
X110658764Y-98577317D01*
X110651827Y-98588891D01*
X110643789Y-98599729D01*
X110634727Y-98609727D01*
X110624729Y-98618789D01*
X110613891Y-98626827D01*
X110602317Y-98633764D01*
X110590119Y-98639533D01*
X110577414Y-98644079D01*
X110564325Y-98647358D01*
X110550977Y-98649338D01*
X110537500Y-98650000D01*
X108562500Y-98650000D01*
X108549023Y-98649338D01*
X108535675Y-98647358D01*
X108522586Y-98644079D01*
X108509881Y-98639533D01*
X108497683Y-98633764D01*
X108486109Y-98626827D01*
X108475271Y-98618789D01*
X108465273Y-98609727D01*
X108456211Y-98599729D01*
X108448173Y-98588891D01*
X108441236Y-98577317D01*
X108435467Y-98565119D01*
X108430921Y-98552414D01*
X108427642Y-98539325D01*
X108425662Y-98525977D01*
X108425000Y-98512500D01*
X108425000Y-98237500D01*
X108425662Y-98224023D01*
X108427642Y-98210675D01*
X108430921Y-98197586D01*
X108435467Y-98184881D01*
X108441236Y-98172683D01*
X108448173Y-98161109D01*
X108456211Y-98150271D01*
X108465273Y-98140273D01*
X108475271Y-98131211D01*
X108486109Y-98123173D01*
X108497683Y-98116236D01*
X108509881Y-98110467D01*
X108522586Y-98105921D01*
X108535675Y-98102642D01*
X108549023Y-98100662D01*
X108562500Y-98100000D01*
X110537500Y-98100000D01*
X110550977Y-98100662D01*
X110550977Y-98100662D01*
G37*
D13*
X109550000Y-98375000D03*
D12*
G36*
X110550977Y-98900662D02*
G01*
X110564325Y-98902642D01*
X110577414Y-98905921D01*
X110590119Y-98910467D01*
X110602317Y-98916236D01*
X110613891Y-98923173D01*
X110624729Y-98931211D01*
X110634727Y-98940273D01*
X110643789Y-98950271D01*
X110651827Y-98961109D01*
X110658764Y-98972683D01*
X110664533Y-98984881D01*
X110669079Y-98997586D01*
X110672358Y-99010675D01*
X110674338Y-99024023D01*
X110675000Y-99037500D01*
X110675000Y-99312500D01*
X110674338Y-99325977D01*
X110672358Y-99339325D01*
X110669079Y-99352414D01*
X110664533Y-99365119D01*
X110658764Y-99377317D01*
X110651827Y-99388891D01*
X110643789Y-99399729D01*
X110634727Y-99409727D01*
X110624729Y-99418789D01*
X110613891Y-99426827D01*
X110602317Y-99433764D01*
X110590119Y-99439533D01*
X110577414Y-99444079D01*
X110564325Y-99447358D01*
X110550977Y-99449338D01*
X110537500Y-99450000D01*
X108562500Y-99450000D01*
X108549023Y-99449338D01*
X108535675Y-99447358D01*
X108522586Y-99444079D01*
X108509881Y-99439533D01*
X108497683Y-99433764D01*
X108486109Y-99426827D01*
X108475271Y-99418789D01*
X108465273Y-99409727D01*
X108456211Y-99399729D01*
X108448173Y-99388891D01*
X108441236Y-99377317D01*
X108435467Y-99365119D01*
X108430921Y-99352414D01*
X108427642Y-99339325D01*
X108425662Y-99325977D01*
X108425000Y-99312500D01*
X108425000Y-99037500D01*
X108425662Y-99024023D01*
X108427642Y-99010675D01*
X108430921Y-98997586D01*
X108435467Y-98984881D01*
X108441236Y-98972683D01*
X108448173Y-98961109D01*
X108456211Y-98950271D01*
X108465273Y-98940273D01*
X108475271Y-98931211D01*
X108486109Y-98923173D01*
X108497683Y-98916236D01*
X108509881Y-98910467D01*
X108522586Y-98905921D01*
X108535675Y-98902642D01*
X108549023Y-98900662D01*
X108562500Y-98900000D01*
X110537500Y-98900000D01*
X110550977Y-98900662D01*
X110550977Y-98900662D01*
G37*
D13*
X109550000Y-99175000D03*
D12*
G36*
X110550977Y-99700662D02*
G01*
X110564325Y-99702642D01*
X110577414Y-99705921D01*
X110590119Y-99710467D01*
X110602317Y-99716236D01*
X110613891Y-99723173D01*
X110624729Y-99731211D01*
X110634727Y-99740273D01*
X110643789Y-99750271D01*
X110651827Y-99761109D01*
X110658764Y-99772683D01*
X110664533Y-99784881D01*
X110669079Y-99797586D01*
X110672358Y-99810675D01*
X110674338Y-99824023D01*
X110675000Y-99837500D01*
X110675000Y-100112500D01*
X110674338Y-100125977D01*
X110672358Y-100139325D01*
X110669079Y-100152414D01*
X110664533Y-100165119D01*
X110658764Y-100177317D01*
X110651827Y-100188891D01*
X110643789Y-100199729D01*
X110634727Y-100209727D01*
X110624729Y-100218789D01*
X110613891Y-100226827D01*
X110602317Y-100233764D01*
X110590119Y-100239533D01*
X110577414Y-100244079D01*
X110564325Y-100247358D01*
X110550977Y-100249338D01*
X110537500Y-100250000D01*
X108562500Y-100250000D01*
X108549023Y-100249338D01*
X108535675Y-100247358D01*
X108522586Y-100244079D01*
X108509881Y-100239533D01*
X108497683Y-100233764D01*
X108486109Y-100226827D01*
X108475271Y-100218789D01*
X108465273Y-100209727D01*
X108456211Y-100199729D01*
X108448173Y-100188891D01*
X108441236Y-100177317D01*
X108435467Y-100165119D01*
X108430921Y-100152414D01*
X108427642Y-100139325D01*
X108425662Y-100125977D01*
X108425000Y-100112500D01*
X108425000Y-99837500D01*
X108425662Y-99824023D01*
X108427642Y-99810675D01*
X108430921Y-99797586D01*
X108435467Y-99784881D01*
X108441236Y-99772683D01*
X108448173Y-99761109D01*
X108456211Y-99750271D01*
X108465273Y-99740273D01*
X108475271Y-99731211D01*
X108486109Y-99723173D01*
X108497683Y-99716236D01*
X108509881Y-99710467D01*
X108522586Y-99705921D01*
X108535675Y-99702642D01*
X108549023Y-99700662D01*
X108562500Y-99700000D01*
X110537500Y-99700000D01*
X110550977Y-99700662D01*
X110550977Y-99700662D01*
G37*
D13*
X109550000Y-99975000D03*
D12*
G36*
X110550977Y-100500662D02*
G01*
X110564325Y-100502642D01*
X110577414Y-100505921D01*
X110590119Y-100510467D01*
X110602317Y-100516236D01*
X110613891Y-100523173D01*
X110624729Y-100531211D01*
X110634727Y-100540273D01*
X110643789Y-100550271D01*
X110651827Y-100561109D01*
X110658764Y-100572683D01*
X110664533Y-100584881D01*
X110669079Y-100597586D01*
X110672358Y-100610675D01*
X110674338Y-100624023D01*
X110675000Y-100637500D01*
X110675000Y-100912500D01*
X110674338Y-100925977D01*
X110672358Y-100939325D01*
X110669079Y-100952414D01*
X110664533Y-100965119D01*
X110658764Y-100977317D01*
X110651827Y-100988891D01*
X110643789Y-100999729D01*
X110634727Y-101009727D01*
X110624729Y-101018789D01*
X110613891Y-101026827D01*
X110602317Y-101033764D01*
X110590119Y-101039533D01*
X110577414Y-101044079D01*
X110564325Y-101047358D01*
X110550977Y-101049338D01*
X110537500Y-101050000D01*
X108562500Y-101050000D01*
X108549023Y-101049338D01*
X108535675Y-101047358D01*
X108522586Y-101044079D01*
X108509881Y-101039533D01*
X108497683Y-101033764D01*
X108486109Y-101026827D01*
X108475271Y-101018789D01*
X108465273Y-101009727D01*
X108456211Y-100999729D01*
X108448173Y-100988891D01*
X108441236Y-100977317D01*
X108435467Y-100965119D01*
X108430921Y-100952414D01*
X108427642Y-100939325D01*
X108425662Y-100925977D01*
X108425000Y-100912500D01*
X108425000Y-100637500D01*
X108425662Y-100624023D01*
X108427642Y-100610675D01*
X108430921Y-100597586D01*
X108435467Y-100584881D01*
X108441236Y-100572683D01*
X108448173Y-100561109D01*
X108456211Y-100550271D01*
X108465273Y-100540273D01*
X108475271Y-100531211D01*
X108486109Y-100523173D01*
X108497683Y-100516236D01*
X108509881Y-100510467D01*
X108522586Y-100505921D01*
X108535675Y-100502642D01*
X108549023Y-100500662D01*
X108562500Y-100500000D01*
X110537500Y-100500000D01*
X110550977Y-100500662D01*
X110550977Y-100500662D01*
G37*
D13*
X109550000Y-100775000D03*
D12*
G36*
X110550977Y-101300662D02*
G01*
X110564325Y-101302642D01*
X110577414Y-101305921D01*
X110590119Y-101310467D01*
X110602317Y-101316236D01*
X110613891Y-101323173D01*
X110624729Y-101331211D01*
X110634727Y-101340273D01*
X110643789Y-101350271D01*
X110651827Y-101361109D01*
X110658764Y-101372683D01*
X110664533Y-101384881D01*
X110669079Y-101397586D01*
X110672358Y-101410675D01*
X110674338Y-101424023D01*
X110675000Y-101437500D01*
X110675000Y-101712500D01*
X110674338Y-101725977D01*
X110672358Y-101739325D01*
X110669079Y-101752414D01*
X110664533Y-101765119D01*
X110658764Y-101777317D01*
X110651827Y-101788891D01*
X110643789Y-101799729D01*
X110634727Y-101809727D01*
X110624729Y-101818789D01*
X110613891Y-101826827D01*
X110602317Y-101833764D01*
X110590119Y-101839533D01*
X110577414Y-101844079D01*
X110564325Y-101847358D01*
X110550977Y-101849338D01*
X110537500Y-101850000D01*
X108562500Y-101850000D01*
X108549023Y-101849338D01*
X108535675Y-101847358D01*
X108522586Y-101844079D01*
X108509881Y-101839533D01*
X108497683Y-101833764D01*
X108486109Y-101826827D01*
X108475271Y-101818789D01*
X108465273Y-101809727D01*
X108456211Y-101799729D01*
X108448173Y-101788891D01*
X108441236Y-101777317D01*
X108435467Y-101765119D01*
X108430921Y-101752414D01*
X108427642Y-101739325D01*
X108425662Y-101725977D01*
X108425000Y-101712500D01*
X108425000Y-101437500D01*
X108425662Y-101424023D01*
X108427642Y-101410675D01*
X108430921Y-101397586D01*
X108435467Y-101384881D01*
X108441236Y-101372683D01*
X108448173Y-101361109D01*
X108456211Y-101350271D01*
X108465273Y-101340273D01*
X108475271Y-101331211D01*
X108486109Y-101323173D01*
X108497683Y-101316236D01*
X108509881Y-101310467D01*
X108522586Y-101305921D01*
X108535675Y-101302642D01*
X108549023Y-101300662D01*
X108562500Y-101300000D01*
X110537500Y-101300000D01*
X110550977Y-101300662D01*
X110550977Y-101300662D01*
G37*
D13*
X109550000Y-101575000D03*
D12*
G36*
X110550977Y-102100662D02*
G01*
X110564325Y-102102642D01*
X110577414Y-102105921D01*
X110590119Y-102110467D01*
X110602317Y-102116236D01*
X110613891Y-102123173D01*
X110624729Y-102131211D01*
X110634727Y-102140273D01*
X110643789Y-102150271D01*
X110651827Y-102161109D01*
X110658764Y-102172683D01*
X110664533Y-102184881D01*
X110669079Y-102197586D01*
X110672358Y-102210675D01*
X110674338Y-102224023D01*
X110675000Y-102237500D01*
X110675000Y-102512500D01*
X110674338Y-102525977D01*
X110672358Y-102539325D01*
X110669079Y-102552414D01*
X110664533Y-102565119D01*
X110658764Y-102577317D01*
X110651827Y-102588891D01*
X110643789Y-102599729D01*
X110634727Y-102609727D01*
X110624729Y-102618789D01*
X110613891Y-102626827D01*
X110602317Y-102633764D01*
X110590119Y-102639533D01*
X110577414Y-102644079D01*
X110564325Y-102647358D01*
X110550977Y-102649338D01*
X110537500Y-102650000D01*
X108562500Y-102650000D01*
X108549023Y-102649338D01*
X108535675Y-102647358D01*
X108522586Y-102644079D01*
X108509881Y-102639533D01*
X108497683Y-102633764D01*
X108486109Y-102626827D01*
X108475271Y-102618789D01*
X108465273Y-102609727D01*
X108456211Y-102599729D01*
X108448173Y-102588891D01*
X108441236Y-102577317D01*
X108435467Y-102565119D01*
X108430921Y-102552414D01*
X108427642Y-102539325D01*
X108425662Y-102525977D01*
X108425000Y-102512500D01*
X108425000Y-102237500D01*
X108425662Y-102224023D01*
X108427642Y-102210675D01*
X108430921Y-102197586D01*
X108435467Y-102184881D01*
X108441236Y-102172683D01*
X108448173Y-102161109D01*
X108456211Y-102150271D01*
X108465273Y-102140273D01*
X108475271Y-102131211D01*
X108486109Y-102123173D01*
X108497683Y-102116236D01*
X108509881Y-102110467D01*
X108522586Y-102105921D01*
X108535675Y-102102642D01*
X108549023Y-102100662D01*
X108562500Y-102100000D01*
X110537500Y-102100000D01*
X110550977Y-102100662D01*
X110550977Y-102100662D01*
G37*
D13*
X109550000Y-102375000D03*
D12*
G36*
X110550977Y-102900662D02*
G01*
X110564325Y-102902642D01*
X110577414Y-102905921D01*
X110590119Y-102910467D01*
X110602317Y-102916236D01*
X110613891Y-102923173D01*
X110624729Y-102931211D01*
X110634727Y-102940273D01*
X110643789Y-102950271D01*
X110651827Y-102961109D01*
X110658764Y-102972683D01*
X110664533Y-102984881D01*
X110669079Y-102997586D01*
X110672358Y-103010675D01*
X110674338Y-103024023D01*
X110675000Y-103037500D01*
X110675000Y-103312500D01*
X110674338Y-103325977D01*
X110672358Y-103339325D01*
X110669079Y-103352414D01*
X110664533Y-103365119D01*
X110658764Y-103377317D01*
X110651827Y-103388891D01*
X110643789Y-103399729D01*
X110634727Y-103409727D01*
X110624729Y-103418789D01*
X110613891Y-103426827D01*
X110602317Y-103433764D01*
X110590119Y-103439533D01*
X110577414Y-103444079D01*
X110564325Y-103447358D01*
X110550977Y-103449338D01*
X110537500Y-103450000D01*
X108562500Y-103450000D01*
X108549023Y-103449338D01*
X108535675Y-103447358D01*
X108522586Y-103444079D01*
X108509881Y-103439533D01*
X108497683Y-103433764D01*
X108486109Y-103426827D01*
X108475271Y-103418789D01*
X108465273Y-103409727D01*
X108456211Y-103399729D01*
X108448173Y-103388891D01*
X108441236Y-103377317D01*
X108435467Y-103365119D01*
X108430921Y-103352414D01*
X108427642Y-103339325D01*
X108425662Y-103325977D01*
X108425000Y-103312500D01*
X108425000Y-103037500D01*
X108425662Y-103024023D01*
X108427642Y-103010675D01*
X108430921Y-102997586D01*
X108435467Y-102984881D01*
X108441236Y-102972683D01*
X108448173Y-102961109D01*
X108456211Y-102950271D01*
X108465273Y-102940273D01*
X108475271Y-102931211D01*
X108486109Y-102923173D01*
X108497683Y-102916236D01*
X108509881Y-102910467D01*
X108522586Y-102905921D01*
X108535675Y-102902642D01*
X108549023Y-102900662D01*
X108562500Y-102900000D01*
X110537500Y-102900000D01*
X110550977Y-102900662D01*
X110550977Y-102900662D01*
G37*
D13*
X109550000Y-103175000D03*
D12*
G36*
X111750977Y-104100662D02*
G01*
X111764325Y-104102642D01*
X111777414Y-104105921D01*
X111790119Y-104110467D01*
X111802317Y-104116236D01*
X111813891Y-104123173D01*
X111824729Y-104131211D01*
X111834727Y-104140273D01*
X111843789Y-104150271D01*
X111851827Y-104161109D01*
X111858764Y-104172683D01*
X111864533Y-104184881D01*
X111869079Y-104197586D01*
X111872358Y-104210675D01*
X111874338Y-104224023D01*
X111875000Y-104237500D01*
X111875000Y-106212500D01*
X111874338Y-106225977D01*
X111872358Y-106239325D01*
X111869079Y-106252414D01*
X111864533Y-106265119D01*
X111858764Y-106277317D01*
X111851827Y-106288891D01*
X111843789Y-106299729D01*
X111834727Y-106309727D01*
X111824729Y-106318789D01*
X111813891Y-106326827D01*
X111802317Y-106333764D01*
X111790119Y-106339533D01*
X111777414Y-106344079D01*
X111764325Y-106347358D01*
X111750977Y-106349338D01*
X111737500Y-106350000D01*
X111462500Y-106350000D01*
X111449023Y-106349338D01*
X111435675Y-106347358D01*
X111422586Y-106344079D01*
X111409881Y-106339533D01*
X111397683Y-106333764D01*
X111386109Y-106326827D01*
X111375271Y-106318789D01*
X111365273Y-106309727D01*
X111356211Y-106299729D01*
X111348173Y-106288891D01*
X111341236Y-106277317D01*
X111335467Y-106265119D01*
X111330921Y-106252414D01*
X111327642Y-106239325D01*
X111325662Y-106225977D01*
X111325000Y-106212500D01*
X111325000Y-104237500D01*
X111325662Y-104224023D01*
X111327642Y-104210675D01*
X111330921Y-104197586D01*
X111335467Y-104184881D01*
X111341236Y-104172683D01*
X111348173Y-104161109D01*
X111356211Y-104150271D01*
X111365273Y-104140273D01*
X111375271Y-104131211D01*
X111386109Y-104123173D01*
X111397683Y-104116236D01*
X111409881Y-104110467D01*
X111422586Y-104105921D01*
X111435675Y-104102642D01*
X111449023Y-104100662D01*
X111462500Y-104100000D01*
X111737500Y-104100000D01*
X111750977Y-104100662D01*
X111750977Y-104100662D01*
G37*
D13*
X111600000Y-105225000D03*
D12*
G36*
X112550977Y-104100662D02*
G01*
X112564325Y-104102642D01*
X112577414Y-104105921D01*
X112590119Y-104110467D01*
X112602317Y-104116236D01*
X112613891Y-104123173D01*
X112624729Y-104131211D01*
X112634727Y-104140273D01*
X112643789Y-104150271D01*
X112651827Y-104161109D01*
X112658764Y-104172683D01*
X112664533Y-104184881D01*
X112669079Y-104197586D01*
X112672358Y-104210675D01*
X112674338Y-104224023D01*
X112675000Y-104237500D01*
X112675000Y-106212500D01*
X112674338Y-106225977D01*
X112672358Y-106239325D01*
X112669079Y-106252414D01*
X112664533Y-106265119D01*
X112658764Y-106277317D01*
X112651827Y-106288891D01*
X112643789Y-106299729D01*
X112634727Y-106309727D01*
X112624729Y-106318789D01*
X112613891Y-106326827D01*
X112602317Y-106333764D01*
X112590119Y-106339533D01*
X112577414Y-106344079D01*
X112564325Y-106347358D01*
X112550977Y-106349338D01*
X112537500Y-106350000D01*
X112262500Y-106350000D01*
X112249023Y-106349338D01*
X112235675Y-106347358D01*
X112222586Y-106344079D01*
X112209881Y-106339533D01*
X112197683Y-106333764D01*
X112186109Y-106326827D01*
X112175271Y-106318789D01*
X112165273Y-106309727D01*
X112156211Y-106299729D01*
X112148173Y-106288891D01*
X112141236Y-106277317D01*
X112135467Y-106265119D01*
X112130921Y-106252414D01*
X112127642Y-106239325D01*
X112125662Y-106225977D01*
X112125000Y-106212500D01*
X112125000Y-104237500D01*
X112125662Y-104224023D01*
X112127642Y-104210675D01*
X112130921Y-104197586D01*
X112135467Y-104184881D01*
X112141236Y-104172683D01*
X112148173Y-104161109D01*
X112156211Y-104150271D01*
X112165273Y-104140273D01*
X112175271Y-104131211D01*
X112186109Y-104123173D01*
X112197683Y-104116236D01*
X112209881Y-104110467D01*
X112222586Y-104105921D01*
X112235675Y-104102642D01*
X112249023Y-104100662D01*
X112262500Y-104100000D01*
X112537500Y-104100000D01*
X112550977Y-104100662D01*
X112550977Y-104100662D01*
G37*
D13*
X112400000Y-105225000D03*
D12*
G36*
X113350977Y-104100662D02*
G01*
X113364325Y-104102642D01*
X113377414Y-104105921D01*
X113390119Y-104110467D01*
X113402317Y-104116236D01*
X113413891Y-104123173D01*
X113424729Y-104131211D01*
X113434727Y-104140273D01*
X113443789Y-104150271D01*
X113451827Y-104161109D01*
X113458764Y-104172683D01*
X113464533Y-104184881D01*
X113469079Y-104197586D01*
X113472358Y-104210675D01*
X113474338Y-104224023D01*
X113475000Y-104237500D01*
X113475000Y-106212500D01*
X113474338Y-106225977D01*
X113472358Y-106239325D01*
X113469079Y-106252414D01*
X113464533Y-106265119D01*
X113458764Y-106277317D01*
X113451827Y-106288891D01*
X113443789Y-106299729D01*
X113434727Y-106309727D01*
X113424729Y-106318789D01*
X113413891Y-106326827D01*
X113402317Y-106333764D01*
X113390119Y-106339533D01*
X113377414Y-106344079D01*
X113364325Y-106347358D01*
X113350977Y-106349338D01*
X113337500Y-106350000D01*
X113062500Y-106350000D01*
X113049023Y-106349338D01*
X113035675Y-106347358D01*
X113022586Y-106344079D01*
X113009881Y-106339533D01*
X112997683Y-106333764D01*
X112986109Y-106326827D01*
X112975271Y-106318789D01*
X112965273Y-106309727D01*
X112956211Y-106299729D01*
X112948173Y-106288891D01*
X112941236Y-106277317D01*
X112935467Y-106265119D01*
X112930921Y-106252414D01*
X112927642Y-106239325D01*
X112925662Y-106225977D01*
X112925000Y-106212500D01*
X112925000Y-104237500D01*
X112925662Y-104224023D01*
X112927642Y-104210675D01*
X112930921Y-104197586D01*
X112935467Y-104184881D01*
X112941236Y-104172683D01*
X112948173Y-104161109D01*
X112956211Y-104150271D01*
X112965273Y-104140273D01*
X112975271Y-104131211D01*
X112986109Y-104123173D01*
X112997683Y-104116236D01*
X113009881Y-104110467D01*
X113022586Y-104105921D01*
X113035675Y-104102642D01*
X113049023Y-104100662D01*
X113062500Y-104100000D01*
X113337500Y-104100000D01*
X113350977Y-104100662D01*
X113350977Y-104100662D01*
G37*
D13*
X113200000Y-105225000D03*
D12*
G36*
X114150977Y-104100662D02*
G01*
X114164325Y-104102642D01*
X114177414Y-104105921D01*
X114190119Y-104110467D01*
X114202317Y-104116236D01*
X114213891Y-104123173D01*
X114224729Y-104131211D01*
X114234727Y-104140273D01*
X114243789Y-104150271D01*
X114251827Y-104161109D01*
X114258764Y-104172683D01*
X114264533Y-104184881D01*
X114269079Y-104197586D01*
X114272358Y-104210675D01*
X114274338Y-104224023D01*
X114275000Y-104237500D01*
X114275000Y-106212500D01*
X114274338Y-106225977D01*
X114272358Y-106239325D01*
X114269079Y-106252414D01*
X114264533Y-106265119D01*
X114258764Y-106277317D01*
X114251827Y-106288891D01*
X114243789Y-106299729D01*
X114234727Y-106309727D01*
X114224729Y-106318789D01*
X114213891Y-106326827D01*
X114202317Y-106333764D01*
X114190119Y-106339533D01*
X114177414Y-106344079D01*
X114164325Y-106347358D01*
X114150977Y-106349338D01*
X114137500Y-106350000D01*
X113862500Y-106350000D01*
X113849023Y-106349338D01*
X113835675Y-106347358D01*
X113822586Y-106344079D01*
X113809881Y-106339533D01*
X113797683Y-106333764D01*
X113786109Y-106326827D01*
X113775271Y-106318789D01*
X113765273Y-106309727D01*
X113756211Y-106299729D01*
X113748173Y-106288891D01*
X113741236Y-106277317D01*
X113735467Y-106265119D01*
X113730921Y-106252414D01*
X113727642Y-106239325D01*
X113725662Y-106225977D01*
X113725000Y-106212500D01*
X113725000Y-104237500D01*
X113725662Y-104224023D01*
X113727642Y-104210675D01*
X113730921Y-104197586D01*
X113735467Y-104184881D01*
X113741236Y-104172683D01*
X113748173Y-104161109D01*
X113756211Y-104150271D01*
X113765273Y-104140273D01*
X113775271Y-104131211D01*
X113786109Y-104123173D01*
X113797683Y-104116236D01*
X113809881Y-104110467D01*
X113822586Y-104105921D01*
X113835675Y-104102642D01*
X113849023Y-104100662D01*
X113862500Y-104100000D01*
X114137500Y-104100000D01*
X114150977Y-104100662D01*
X114150977Y-104100662D01*
G37*
D13*
X114000000Y-105225000D03*
D12*
G36*
X114950977Y-104100662D02*
G01*
X114964325Y-104102642D01*
X114977414Y-104105921D01*
X114990119Y-104110467D01*
X115002317Y-104116236D01*
X115013891Y-104123173D01*
X115024729Y-104131211D01*
X115034727Y-104140273D01*
X115043789Y-104150271D01*
X115051827Y-104161109D01*
X115058764Y-104172683D01*
X115064533Y-104184881D01*
X115069079Y-104197586D01*
X115072358Y-104210675D01*
X115074338Y-104224023D01*
X115075000Y-104237500D01*
X115075000Y-106212500D01*
X115074338Y-106225977D01*
X115072358Y-106239325D01*
X115069079Y-106252414D01*
X115064533Y-106265119D01*
X115058764Y-106277317D01*
X115051827Y-106288891D01*
X115043789Y-106299729D01*
X115034727Y-106309727D01*
X115024729Y-106318789D01*
X115013891Y-106326827D01*
X115002317Y-106333764D01*
X114990119Y-106339533D01*
X114977414Y-106344079D01*
X114964325Y-106347358D01*
X114950977Y-106349338D01*
X114937500Y-106350000D01*
X114662500Y-106350000D01*
X114649023Y-106349338D01*
X114635675Y-106347358D01*
X114622586Y-106344079D01*
X114609881Y-106339533D01*
X114597683Y-106333764D01*
X114586109Y-106326827D01*
X114575271Y-106318789D01*
X114565273Y-106309727D01*
X114556211Y-106299729D01*
X114548173Y-106288891D01*
X114541236Y-106277317D01*
X114535467Y-106265119D01*
X114530921Y-106252414D01*
X114527642Y-106239325D01*
X114525662Y-106225977D01*
X114525000Y-106212500D01*
X114525000Y-104237500D01*
X114525662Y-104224023D01*
X114527642Y-104210675D01*
X114530921Y-104197586D01*
X114535467Y-104184881D01*
X114541236Y-104172683D01*
X114548173Y-104161109D01*
X114556211Y-104150271D01*
X114565273Y-104140273D01*
X114575271Y-104131211D01*
X114586109Y-104123173D01*
X114597683Y-104116236D01*
X114609881Y-104110467D01*
X114622586Y-104105921D01*
X114635675Y-104102642D01*
X114649023Y-104100662D01*
X114662500Y-104100000D01*
X114937500Y-104100000D01*
X114950977Y-104100662D01*
X114950977Y-104100662D01*
G37*
D13*
X114800000Y-105225000D03*
D12*
G36*
X115750977Y-104100662D02*
G01*
X115764325Y-104102642D01*
X115777414Y-104105921D01*
X115790119Y-104110467D01*
X115802317Y-104116236D01*
X115813891Y-104123173D01*
X115824729Y-104131211D01*
X115834727Y-104140273D01*
X115843789Y-104150271D01*
X115851827Y-104161109D01*
X115858764Y-104172683D01*
X115864533Y-104184881D01*
X115869079Y-104197586D01*
X115872358Y-104210675D01*
X115874338Y-104224023D01*
X115875000Y-104237500D01*
X115875000Y-106212500D01*
X115874338Y-106225977D01*
X115872358Y-106239325D01*
X115869079Y-106252414D01*
X115864533Y-106265119D01*
X115858764Y-106277317D01*
X115851827Y-106288891D01*
X115843789Y-106299729D01*
X115834727Y-106309727D01*
X115824729Y-106318789D01*
X115813891Y-106326827D01*
X115802317Y-106333764D01*
X115790119Y-106339533D01*
X115777414Y-106344079D01*
X115764325Y-106347358D01*
X115750977Y-106349338D01*
X115737500Y-106350000D01*
X115462500Y-106350000D01*
X115449023Y-106349338D01*
X115435675Y-106347358D01*
X115422586Y-106344079D01*
X115409881Y-106339533D01*
X115397683Y-106333764D01*
X115386109Y-106326827D01*
X115375271Y-106318789D01*
X115365273Y-106309727D01*
X115356211Y-106299729D01*
X115348173Y-106288891D01*
X115341236Y-106277317D01*
X115335467Y-106265119D01*
X115330921Y-106252414D01*
X115327642Y-106239325D01*
X115325662Y-106225977D01*
X115325000Y-106212500D01*
X115325000Y-104237500D01*
X115325662Y-104224023D01*
X115327642Y-104210675D01*
X115330921Y-104197586D01*
X115335467Y-104184881D01*
X115341236Y-104172683D01*
X115348173Y-104161109D01*
X115356211Y-104150271D01*
X115365273Y-104140273D01*
X115375271Y-104131211D01*
X115386109Y-104123173D01*
X115397683Y-104116236D01*
X115409881Y-104110467D01*
X115422586Y-104105921D01*
X115435675Y-104102642D01*
X115449023Y-104100662D01*
X115462500Y-104100000D01*
X115737500Y-104100000D01*
X115750977Y-104100662D01*
X115750977Y-104100662D01*
G37*
D13*
X115600000Y-105225000D03*
D12*
G36*
X116550977Y-104100662D02*
G01*
X116564325Y-104102642D01*
X116577414Y-104105921D01*
X116590119Y-104110467D01*
X116602317Y-104116236D01*
X116613891Y-104123173D01*
X116624729Y-104131211D01*
X116634727Y-104140273D01*
X116643789Y-104150271D01*
X116651827Y-104161109D01*
X116658764Y-104172683D01*
X116664533Y-104184881D01*
X116669079Y-104197586D01*
X116672358Y-104210675D01*
X116674338Y-104224023D01*
X116675000Y-104237500D01*
X116675000Y-106212500D01*
X116674338Y-106225977D01*
X116672358Y-106239325D01*
X116669079Y-106252414D01*
X116664533Y-106265119D01*
X116658764Y-106277317D01*
X116651827Y-106288891D01*
X116643789Y-106299729D01*
X116634727Y-106309727D01*
X116624729Y-106318789D01*
X116613891Y-106326827D01*
X116602317Y-106333764D01*
X116590119Y-106339533D01*
X116577414Y-106344079D01*
X116564325Y-106347358D01*
X116550977Y-106349338D01*
X116537500Y-106350000D01*
X116262500Y-106350000D01*
X116249023Y-106349338D01*
X116235675Y-106347358D01*
X116222586Y-106344079D01*
X116209881Y-106339533D01*
X116197683Y-106333764D01*
X116186109Y-106326827D01*
X116175271Y-106318789D01*
X116165273Y-106309727D01*
X116156211Y-106299729D01*
X116148173Y-106288891D01*
X116141236Y-106277317D01*
X116135467Y-106265119D01*
X116130921Y-106252414D01*
X116127642Y-106239325D01*
X116125662Y-106225977D01*
X116125000Y-106212500D01*
X116125000Y-104237500D01*
X116125662Y-104224023D01*
X116127642Y-104210675D01*
X116130921Y-104197586D01*
X116135467Y-104184881D01*
X116141236Y-104172683D01*
X116148173Y-104161109D01*
X116156211Y-104150271D01*
X116165273Y-104140273D01*
X116175271Y-104131211D01*
X116186109Y-104123173D01*
X116197683Y-104116236D01*
X116209881Y-104110467D01*
X116222586Y-104105921D01*
X116235675Y-104102642D01*
X116249023Y-104100662D01*
X116262500Y-104100000D01*
X116537500Y-104100000D01*
X116550977Y-104100662D01*
X116550977Y-104100662D01*
G37*
D13*
X116400000Y-105225000D03*
D12*
G36*
X117350977Y-104100662D02*
G01*
X117364325Y-104102642D01*
X117377414Y-104105921D01*
X117390119Y-104110467D01*
X117402317Y-104116236D01*
X117413891Y-104123173D01*
X117424729Y-104131211D01*
X117434727Y-104140273D01*
X117443789Y-104150271D01*
X117451827Y-104161109D01*
X117458764Y-104172683D01*
X117464533Y-104184881D01*
X117469079Y-104197586D01*
X117472358Y-104210675D01*
X117474338Y-104224023D01*
X117475000Y-104237500D01*
X117475000Y-106212500D01*
X117474338Y-106225977D01*
X117472358Y-106239325D01*
X117469079Y-106252414D01*
X117464533Y-106265119D01*
X117458764Y-106277317D01*
X117451827Y-106288891D01*
X117443789Y-106299729D01*
X117434727Y-106309727D01*
X117424729Y-106318789D01*
X117413891Y-106326827D01*
X117402317Y-106333764D01*
X117390119Y-106339533D01*
X117377414Y-106344079D01*
X117364325Y-106347358D01*
X117350977Y-106349338D01*
X117337500Y-106350000D01*
X117062500Y-106350000D01*
X117049023Y-106349338D01*
X117035675Y-106347358D01*
X117022586Y-106344079D01*
X117009881Y-106339533D01*
X116997683Y-106333764D01*
X116986109Y-106326827D01*
X116975271Y-106318789D01*
X116965273Y-106309727D01*
X116956211Y-106299729D01*
X116948173Y-106288891D01*
X116941236Y-106277317D01*
X116935467Y-106265119D01*
X116930921Y-106252414D01*
X116927642Y-106239325D01*
X116925662Y-106225977D01*
X116925000Y-106212500D01*
X116925000Y-104237500D01*
X116925662Y-104224023D01*
X116927642Y-104210675D01*
X116930921Y-104197586D01*
X116935467Y-104184881D01*
X116941236Y-104172683D01*
X116948173Y-104161109D01*
X116956211Y-104150271D01*
X116965273Y-104140273D01*
X116975271Y-104131211D01*
X116986109Y-104123173D01*
X116997683Y-104116236D01*
X117009881Y-104110467D01*
X117022586Y-104105921D01*
X117035675Y-104102642D01*
X117049023Y-104100662D01*
X117062500Y-104100000D01*
X117337500Y-104100000D01*
X117350977Y-104100662D01*
X117350977Y-104100662D01*
G37*
D13*
X117200000Y-105225000D03*
D12*
G36*
X118150977Y-104100662D02*
G01*
X118164325Y-104102642D01*
X118177414Y-104105921D01*
X118190119Y-104110467D01*
X118202317Y-104116236D01*
X118213891Y-104123173D01*
X118224729Y-104131211D01*
X118234727Y-104140273D01*
X118243789Y-104150271D01*
X118251827Y-104161109D01*
X118258764Y-104172683D01*
X118264533Y-104184881D01*
X118269079Y-104197586D01*
X118272358Y-104210675D01*
X118274338Y-104224023D01*
X118275000Y-104237500D01*
X118275000Y-106212500D01*
X118274338Y-106225977D01*
X118272358Y-106239325D01*
X118269079Y-106252414D01*
X118264533Y-106265119D01*
X118258764Y-106277317D01*
X118251827Y-106288891D01*
X118243789Y-106299729D01*
X118234727Y-106309727D01*
X118224729Y-106318789D01*
X118213891Y-106326827D01*
X118202317Y-106333764D01*
X118190119Y-106339533D01*
X118177414Y-106344079D01*
X118164325Y-106347358D01*
X118150977Y-106349338D01*
X118137500Y-106350000D01*
X117862500Y-106350000D01*
X117849023Y-106349338D01*
X117835675Y-106347358D01*
X117822586Y-106344079D01*
X117809881Y-106339533D01*
X117797683Y-106333764D01*
X117786109Y-106326827D01*
X117775271Y-106318789D01*
X117765273Y-106309727D01*
X117756211Y-106299729D01*
X117748173Y-106288891D01*
X117741236Y-106277317D01*
X117735467Y-106265119D01*
X117730921Y-106252414D01*
X117727642Y-106239325D01*
X117725662Y-106225977D01*
X117725000Y-106212500D01*
X117725000Y-104237500D01*
X117725662Y-104224023D01*
X117727642Y-104210675D01*
X117730921Y-104197586D01*
X117735467Y-104184881D01*
X117741236Y-104172683D01*
X117748173Y-104161109D01*
X117756211Y-104150271D01*
X117765273Y-104140273D01*
X117775271Y-104131211D01*
X117786109Y-104123173D01*
X117797683Y-104116236D01*
X117809881Y-104110467D01*
X117822586Y-104105921D01*
X117835675Y-104102642D01*
X117849023Y-104100662D01*
X117862500Y-104100000D01*
X118137500Y-104100000D01*
X118150977Y-104100662D01*
X118150977Y-104100662D01*
G37*
D13*
X118000000Y-105225000D03*
D12*
G36*
X118950977Y-104100662D02*
G01*
X118964325Y-104102642D01*
X118977414Y-104105921D01*
X118990119Y-104110467D01*
X119002317Y-104116236D01*
X119013891Y-104123173D01*
X119024729Y-104131211D01*
X119034727Y-104140273D01*
X119043789Y-104150271D01*
X119051827Y-104161109D01*
X119058764Y-104172683D01*
X119064533Y-104184881D01*
X119069079Y-104197586D01*
X119072358Y-104210675D01*
X119074338Y-104224023D01*
X119075000Y-104237500D01*
X119075000Y-106212500D01*
X119074338Y-106225977D01*
X119072358Y-106239325D01*
X119069079Y-106252414D01*
X119064533Y-106265119D01*
X119058764Y-106277317D01*
X119051827Y-106288891D01*
X119043789Y-106299729D01*
X119034727Y-106309727D01*
X119024729Y-106318789D01*
X119013891Y-106326827D01*
X119002317Y-106333764D01*
X118990119Y-106339533D01*
X118977414Y-106344079D01*
X118964325Y-106347358D01*
X118950977Y-106349338D01*
X118937500Y-106350000D01*
X118662500Y-106350000D01*
X118649023Y-106349338D01*
X118635675Y-106347358D01*
X118622586Y-106344079D01*
X118609881Y-106339533D01*
X118597683Y-106333764D01*
X118586109Y-106326827D01*
X118575271Y-106318789D01*
X118565273Y-106309727D01*
X118556211Y-106299729D01*
X118548173Y-106288891D01*
X118541236Y-106277317D01*
X118535467Y-106265119D01*
X118530921Y-106252414D01*
X118527642Y-106239325D01*
X118525662Y-106225977D01*
X118525000Y-106212500D01*
X118525000Y-104237500D01*
X118525662Y-104224023D01*
X118527642Y-104210675D01*
X118530921Y-104197586D01*
X118535467Y-104184881D01*
X118541236Y-104172683D01*
X118548173Y-104161109D01*
X118556211Y-104150271D01*
X118565273Y-104140273D01*
X118575271Y-104131211D01*
X118586109Y-104123173D01*
X118597683Y-104116236D01*
X118609881Y-104110467D01*
X118622586Y-104105921D01*
X118635675Y-104102642D01*
X118649023Y-104100662D01*
X118662500Y-104100000D01*
X118937500Y-104100000D01*
X118950977Y-104100662D01*
X118950977Y-104100662D01*
G37*
D13*
X118800000Y-105225000D03*
D12*
G36*
X119750977Y-104100662D02*
G01*
X119764325Y-104102642D01*
X119777414Y-104105921D01*
X119790119Y-104110467D01*
X119802317Y-104116236D01*
X119813891Y-104123173D01*
X119824729Y-104131211D01*
X119834727Y-104140273D01*
X119843789Y-104150271D01*
X119851827Y-104161109D01*
X119858764Y-104172683D01*
X119864533Y-104184881D01*
X119869079Y-104197586D01*
X119872358Y-104210675D01*
X119874338Y-104224023D01*
X119875000Y-104237500D01*
X119875000Y-106212500D01*
X119874338Y-106225977D01*
X119872358Y-106239325D01*
X119869079Y-106252414D01*
X119864533Y-106265119D01*
X119858764Y-106277317D01*
X119851827Y-106288891D01*
X119843789Y-106299729D01*
X119834727Y-106309727D01*
X119824729Y-106318789D01*
X119813891Y-106326827D01*
X119802317Y-106333764D01*
X119790119Y-106339533D01*
X119777414Y-106344079D01*
X119764325Y-106347358D01*
X119750977Y-106349338D01*
X119737500Y-106350000D01*
X119462500Y-106350000D01*
X119449023Y-106349338D01*
X119435675Y-106347358D01*
X119422586Y-106344079D01*
X119409881Y-106339533D01*
X119397683Y-106333764D01*
X119386109Y-106326827D01*
X119375271Y-106318789D01*
X119365273Y-106309727D01*
X119356211Y-106299729D01*
X119348173Y-106288891D01*
X119341236Y-106277317D01*
X119335467Y-106265119D01*
X119330921Y-106252414D01*
X119327642Y-106239325D01*
X119325662Y-106225977D01*
X119325000Y-106212500D01*
X119325000Y-104237500D01*
X119325662Y-104224023D01*
X119327642Y-104210675D01*
X119330921Y-104197586D01*
X119335467Y-104184881D01*
X119341236Y-104172683D01*
X119348173Y-104161109D01*
X119356211Y-104150271D01*
X119365273Y-104140273D01*
X119375271Y-104131211D01*
X119386109Y-104123173D01*
X119397683Y-104116236D01*
X119409881Y-104110467D01*
X119422586Y-104105921D01*
X119435675Y-104102642D01*
X119449023Y-104100662D01*
X119462500Y-104100000D01*
X119737500Y-104100000D01*
X119750977Y-104100662D01*
X119750977Y-104100662D01*
G37*
D13*
X119600000Y-105225000D03*
D12*
G36*
X120550977Y-104100662D02*
G01*
X120564325Y-104102642D01*
X120577414Y-104105921D01*
X120590119Y-104110467D01*
X120602317Y-104116236D01*
X120613891Y-104123173D01*
X120624729Y-104131211D01*
X120634727Y-104140273D01*
X120643789Y-104150271D01*
X120651827Y-104161109D01*
X120658764Y-104172683D01*
X120664533Y-104184881D01*
X120669079Y-104197586D01*
X120672358Y-104210675D01*
X120674338Y-104224023D01*
X120675000Y-104237500D01*
X120675000Y-106212500D01*
X120674338Y-106225977D01*
X120672358Y-106239325D01*
X120669079Y-106252414D01*
X120664533Y-106265119D01*
X120658764Y-106277317D01*
X120651827Y-106288891D01*
X120643789Y-106299729D01*
X120634727Y-106309727D01*
X120624729Y-106318789D01*
X120613891Y-106326827D01*
X120602317Y-106333764D01*
X120590119Y-106339533D01*
X120577414Y-106344079D01*
X120564325Y-106347358D01*
X120550977Y-106349338D01*
X120537500Y-106350000D01*
X120262500Y-106350000D01*
X120249023Y-106349338D01*
X120235675Y-106347358D01*
X120222586Y-106344079D01*
X120209881Y-106339533D01*
X120197683Y-106333764D01*
X120186109Y-106326827D01*
X120175271Y-106318789D01*
X120165273Y-106309727D01*
X120156211Y-106299729D01*
X120148173Y-106288891D01*
X120141236Y-106277317D01*
X120135467Y-106265119D01*
X120130921Y-106252414D01*
X120127642Y-106239325D01*
X120125662Y-106225977D01*
X120125000Y-106212500D01*
X120125000Y-104237500D01*
X120125662Y-104224023D01*
X120127642Y-104210675D01*
X120130921Y-104197586D01*
X120135467Y-104184881D01*
X120141236Y-104172683D01*
X120148173Y-104161109D01*
X120156211Y-104150271D01*
X120165273Y-104140273D01*
X120175271Y-104131211D01*
X120186109Y-104123173D01*
X120197683Y-104116236D01*
X120209881Y-104110467D01*
X120222586Y-104105921D01*
X120235675Y-104102642D01*
X120249023Y-104100662D01*
X120262500Y-104100000D01*
X120537500Y-104100000D01*
X120550977Y-104100662D01*
X120550977Y-104100662D01*
G37*
D13*
X120400000Y-105225000D03*
D12*
G36*
X121350977Y-104100662D02*
G01*
X121364325Y-104102642D01*
X121377414Y-104105921D01*
X121390119Y-104110467D01*
X121402317Y-104116236D01*
X121413891Y-104123173D01*
X121424729Y-104131211D01*
X121434727Y-104140273D01*
X121443789Y-104150271D01*
X121451827Y-104161109D01*
X121458764Y-104172683D01*
X121464533Y-104184881D01*
X121469079Y-104197586D01*
X121472358Y-104210675D01*
X121474338Y-104224023D01*
X121475000Y-104237500D01*
X121475000Y-106212500D01*
X121474338Y-106225977D01*
X121472358Y-106239325D01*
X121469079Y-106252414D01*
X121464533Y-106265119D01*
X121458764Y-106277317D01*
X121451827Y-106288891D01*
X121443789Y-106299729D01*
X121434727Y-106309727D01*
X121424729Y-106318789D01*
X121413891Y-106326827D01*
X121402317Y-106333764D01*
X121390119Y-106339533D01*
X121377414Y-106344079D01*
X121364325Y-106347358D01*
X121350977Y-106349338D01*
X121337500Y-106350000D01*
X121062500Y-106350000D01*
X121049023Y-106349338D01*
X121035675Y-106347358D01*
X121022586Y-106344079D01*
X121009881Y-106339533D01*
X120997683Y-106333764D01*
X120986109Y-106326827D01*
X120975271Y-106318789D01*
X120965273Y-106309727D01*
X120956211Y-106299729D01*
X120948173Y-106288891D01*
X120941236Y-106277317D01*
X120935467Y-106265119D01*
X120930921Y-106252414D01*
X120927642Y-106239325D01*
X120925662Y-106225977D01*
X120925000Y-106212500D01*
X120925000Y-104237500D01*
X120925662Y-104224023D01*
X120927642Y-104210675D01*
X120930921Y-104197586D01*
X120935467Y-104184881D01*
X120941236Y-104172683D01*
X120948173Y-104161109D01*
X120956211Y-104150271D01*
X120965273Y-104140273D01*
X120975271Y-104131211D01*
X120986109Y-104123173D01*
X120997683Y-104116236D01*
X121009881Y-104110467D01*
X121022586Y-104105921D01*
X121035675Y-104102642D01*
X121049023Y-104100662D01*
X121062500Y-104100000D01*
X121337500Y-104100000D01*
X121350977Y-104100662D01*
X121350977Y-104100662D01*
G37*
D13*
X121200000Y-105225000D03*
D12*
G36*
X122150977Y-104100662D02*
G01*
X122164325Y-104102642D01*
X122177414Y-104105921D01*
X122190119Y-104110467D01*
X122202317Y-104116236D01*
X122213891Y-104123173D01*
X122224729Y-104131211D01*
X122234727Y-104140273D01*
X122243789Y-104150271D01*
X122251827Y-104161109D01*
X122258764Y-104172683D01*
X122264533Y-104184881D01*
X122269079Y-104197586D01*
X122272358Y-104210675D01*
X122274338Y-104224023D01*
X122275000Y-104237500D01*
X122275000Y-106212500D01*
X122274338Y-106225977D01*
X122272358Y-106239325D01*
X122269079Y-106252414D01*
X122264533Y-106265119D01*
X122258764Y-106277317D01*
X122251827Y-106288891D01*
X122243789Y-106299729D01*
X122234727Y-106309727D01*
X122224729Y-106318789D01*
X122213891Y-106326827D01*
X122202317Y-106333764D01*
X122190119Y-106339533D01*
X122177414Y-106344079D01*
X122164325Y-106347358D01*
X122150977Y-106349338D01*
X122137500Y-106350000D01*
X121862500Y-106350000D01*
X121849023Y-106349338D01*
X121835675Y-106347358D01*
X121822586Y-106344079D01*
X121809881Y-106339533D01*
X121797683Y-106333764D01*
X121786109Y-106326827D01*
X121775271Y-106318789D01*
X121765273Y-106309727D01*
X121756211Y-106299729D01*
X121748173Y-106288891D01*
X121741236Y-106277317D01*
X121735467Y-106265119D01*
X121730921Y-106252414D01*
X121727642Y-106239325D01*
X121725662Y-106225977D01*
X121725000Y-106212500D01*
X121725000Y-104237500D01*
X121725662Y-104224023D01*
X121727642Y-104210675D01*
X121730921Y-104197586D01*
X121735467Y-104184881D01*
X121741236Y-104172683D01*
X121748173Y-104161109D01*
X121756211Y-104150271D01*
X121765273Y-104140273D01*
X121775271Y-104131211D01*
X121786109Y-104123173D01*
X121797683Y-104116236D01*
X121809881Y-104110467D01*
X121822586Y-104105921D01*
X121835675Y-104102642D01*
X121849023Y-104100662D01*
X121862500Y-104100000D01*
X122137500Y-104100000D01*
X122150977Y-104100662D01*
X122150977Y-104100662D01*
G37*
D13*
X122000000Y-105225000D03*
D12*
G36*
X122950977Y-104100662D02*
G01*
X122964325Y-104102642D01*
X122977414Y-104105921D01*
X122990119Y-104110467D01*
X123002317Y-104116236D01*
X123013891Y-104123173D01*
X123024729Y-104131211D01*
X123034727Y-104140273D01*
X123043789Y-104150271D01*
X123051827Y-104161109D01*
X123058764Y-104172683D01*
X123064533Y-104184881D01*
X123069079Y-104197586D01*
X123072358Y-104210675D01*
X123074338Y-104224023D01*
X123075000Y-104237500D01*
X123075000Y-106212500D01*
X123074338Y-106225977D01*
X123072358Y-106239325D01*
X123069079Y-106252414D01*
X123064533Y-106265119D01*
X123058764Y-106277317D01*
X123051827Y-106288891D01*
X123043789Y-106299729D01*
X123034727Y-106309727D01*
X123024729Y-106318789D01*
X123013891Y-106326827D01*
X123002317Y-106333764D01*
X122990119Y-106339533D01*
X122977414Y-106344079D01*
X122964325Y-106347358D01*
X122950977Y-106349338D01*
X122937500Y-106350000D01*
X122662500Y-106350000D01*
X122649023Y-106349338D01*
X122635675Y-106347358D01*
X122622586Y-106344079D01*
X122609881Y-106339533D01*
X122597683Y-106333764D01*
X122586109Y-106326827D01*
X122575271Y-106318789D01*
X122565273Y-106309727D01*
X122556211Y-106299729D01*
X122548173Y-106288891D01*
X122541236Y-106277317D01*
X122535467Y-106265119D01*
X122530921Y-106252414D01*
X122527642Y-106239325D01*
X122525662Y-106225977D01*
X122525000Y-106212500D01*
X122525000Y-104237500D01*
X122525662Y-104224023D01*
X122527642Y-104210675D01*
X122530921Y-104197586D01*
X122535467Y-104184881D01*
X122541236Y-104172683D01*
X122548173Y-104161109D01*
X122556211Y-104150271D01*
X122565273Y-104140273D01*
X122575271Y-104131211D01*
X122586109Y-104123173D01*
X122597683Y-104116236D01*
X122609881Y-104110467D01*
X122622586Y-104105921D01*
X122635675Y-104102642D01*
X122649023Y-104100662D01*
X122662500Y-104100000D01*
X122937500Y-104100000D01*
X122950977Y-104100662D01*
X122950977Y-104100662D01*
G37*
D13*
X122800000Y-105225000D03*
D12*
G36*
X123750977Y-104100662D02*
G01*
X123764325Y-104102642D01*
X123777414Y-104105921D01*
X123790119Y-104110467D01*
X123802317Y-104116236D01*
X123813891Y-104123173D01*
X123824729Y-104131211D01*
X123834727Y-104140273D01*
X123843789Y-104150271D01*
X123851827Y-104161109D01*
X123858764Y-104172683D01*
X123864533Y-104184881D01*
X123869079Y-104197586D01*
X123872358Y-104210675D01*
X123874338Y-104224023D01*
X123875000Y-104237500D01*
X123875000Y-106212500D01*
X123874338Y-106225977D01*
X123872358Y-106239325D01*
X123869079Y-106252414D01*
X123864533Y-106265119D01*
X123858764Y-106277317D01*
X123851827Y-106288891D01*
X123843789Y-106299729D01*
X123834727Y-106309727D01*
X123824729Y-106318789D01*
X123813891Y-106326827D01*
X123802317Y-106333764D01*
X123790119Y-106339533D01*
X123777414Y-106344079D01*
X123764325Y-106347358D01*
X123750977Y-106349338D01*
X123737500Y-106350000D01*
X123462500Y-106350000D01*
X123449023Y-106349338D01*
X123435675Y-106347358D01*
X123422586Y-106344079D01*
X123409881Y-106339533D01*
X123397683Y-106333764D01*
X123386109Y-106326827D01*
X123375271Y-106318789D01*
X123365273Y-106309727D01*
X123356211Y-106299729D01*
X123348173Y-106288891D01*
X123341236Y-106277317D01*
X123335467Y-106265119D01*
X123330921Y-106252414D01*
X123327642Y-106239325D01*
X123325662Y-106225977D01*
X123325000Y-106212500D01*
X123325000Y-104237500D01*
X123325662Y-104224023D01*
X123327642Y-104210675D01*
X123330921Y-104197586D01*
X123335467Y-104184881D01*
X123341236Y-104172683D01*
X123348173Y-104161109D01*
X123356211Y-104150271D01*
X123365273Y-104140273D01*
X123375271Y-104131211D01*
X123386109Y-104123173D01*
X123397683Y-104116236D01*
X123409881Y-104110467D01*
X123422586Y-104105921D01*
X123435675Y-104102642D01*
X123449023Y-104100662D01*
X123462500Y-104100000D01*
X123737500Y-104100000D01*
X123750977Y-104100662D01*
X123750977Y-104100662D01*
G37*
D13*
X123600000Y-105225000D03*
D12*
G36*
X126650977Y-102900662D02*
G01*
X126664325Y-102902642D01*
X126677414Y-102905921D01*
X126690119Y-102910467D01*
X126702317Y-102916236D01*
X126713891Y-102923173D01*
X126724729Y-102931211D01*
X126734727Y-102940273D01*
X126743789Y-102950271D01*
X126751827Y-102961109D01*
X126758764Y-102972683D01*
X126764533Y-102984881D01*
X126769079Y-102997586D01*
X126772358Y-103010675D01*
X126774338Y-103024023D01*
X126775000Y-103037500D01*
X126775000Y-103312500D01*
X126774338Y-103325977D01*
X126772358Y-103339325D01*
X126769079Y-103352414D01*
X126764533Y-103365119D01*
X126758764Y-103377317D01*
X126751827Y-103388891D01*
X126743789Y-103399729D01*
X126734727Y-103409727D01*
X126724729Y-103418789D01*
X126713891Y-103426827D01*
X126702317Y-103433764D01*
X126690119Y-103439533D01*
X126677414Y-103444079D01*
X126664325Y-103447358D01*
X126650977Y-103449338D01*
X126637500Y-103450000D01*
X124662500Y-103450000D01*
X124649023Y-103449338D01*
X124635675Y-103447358D01*
X124622586Y-103444079D01*
X124609881Y-103439533D01*
X124597683Y-103433764D01*
X124586109Y-103426827D01*
X124575271Y-103418789D01*
X124565273Y-103409727D01*
X124556211Y-103399729D01*
X124548173Y-103388891D01*
X124541236Y-103377317D01*
X124535467Y-103365119D01*
X124530921Y-103352414D01*
X124527642Y-103339325D01*
X124525662Y-103325977D01*
X124525000Y-103312500D01*
X124525000Y-103037500D01*
X124525662Y-103024023D01*
X124527642Y-103010675D01*
X124530921Y-102997586D01*
X124535467Y-102984881D01*
X124541236Y-102972683D01*
X124548173Y-102961109D01*
X124556211Y-102950271D01*
X124565273Y-102940273D01*
X124575271Y-102931211D01*
X124586109Y-102923173D01*
X124597683Y-102916236D01*
X124609881Y-102910467D01*
X124622586Y-102905921D01*
X124635675Y-102902642D01*
X124649023Y-102900662D01*
X124662500Y-102900000D01*
X126637500Y-102900000D01*
X126650977Y-102900662D01*
X126650977Y-102900662D01*
G37*
D13*
X125650000Y-103175000D03*
D12*
G36*
X126650977Y-102100662D02*
G01*
X126664325Y-102102642D01*
X126677414Y-102105921D01*
X126690119Y-102110467D01*
X126702317Y-102116236D01*
X126713891Y-102123173D01*
X126724729Y-102131211D01*
X126734727Y-102140273D01*
X126743789Y-102150271D01*
X126751827Y-102161109D01*
X126758764Y-102172683D01*
X126764533Y-102184881D01*
X126769079Y-102197586D01*
X126772358Y-102210675D01*
X126774338Y-102224023D01*
X126775000Y-102237500D01*
X126775000Y-102512500D01*
X126774338Y-102525977D01*
X126772358Y-102539325D01*
X126769079Y-102552414D01*
X126764533Y-102565119D01*
X126758764Y-102577317D01*
X126751827Y-102588891D01*
X126743789Y-102599729D01*
X126734727Y-102609727D01*
X126724729Y-102618789D01*
X126713891Y-102626827D01*
X126702317Y-102633764D01*
X126690119Y-102639533D01*
X126677414Y-102644079D01*
X126664325Y-102647358D01*
X126650977Y-102649338D01*
X126637500Y-102650000D01*
X124662500Y-102650000D01*
X124649023Y-102649338D01*
X124635675Y-102647358D01*
X124622586Y-102644079D01*
X124609881Y-102639533D01*
X124597683Y-102633764D01*
X124586109Y-102626827D01*
X124575271Y-102618789D01*
X124565273Y-102609727D01*
X124556211Y-102599729D01*
X124548173Y-102588891D01*
X124541236Y-102577317D01*
X124535467Y-102565119D01*
X124530921Y-102552414D01*
X124527642Y-102539325D01*
X124525662Y-102525977D01*
X124525000Y-102512500D01*
X124525000Y-102237500D01*
X124525662Y-102224023D01*
X124527642Y-102210675D01*
X124530921Y-102197586D01*
X124535467Y-102184881D01*
X124541236Y-102172683D01*
X124548173Y-102161109D01*
X124556211Y-102150271D01*
X124565273Y-102140273D01*
X124575271Y-102131211D01*
X124586109Y-102123173D01*
X124597683Y-102116236D01*
X124609881Y-102110467D01*
X124622586Y-102105921D01*
X124635675Y-102102642D01*
X124649023Y-102100662D01*
X124662500Y-102100000D01*
X126637500Y-102100000D01*
X126650977Y-102100662D01*
X126650977Y-102100662D01*
G37*
D13*
X125650000Y-102375000D03*
D12*
G36*
X126650977Y-101300662D02*
G01*
X126664325Y-101302642D01*
X126677414Y-101305921D01*
X126690119Y-101310467D01*
X126702317Y-101316236D01*
X126713891Y-101323173D01*
X126724729Y-101331211D01*
X126734727Y-101340273D01*
X126743789Y-101350271D01*
X126751827Y-101361109D01*
X126758764Y-101372683D01*
X126764533Y-101384881D01*
X126769079Y-101397586D01*
X126772358Y-101410675D01*
X126774338Y-101424023D01*
X126775000Y-101437500D01*
X126775000Y-101712500D01*
X126774338Y-101725977D01*
X126772358Y-101739325D01*
X126769079Y-101752414D01*
X126764533Y-101765119D01*
X126758764Y-101777317D01*
X126751827Y-101788891D01*
X126743789Y-101799729D01*
X126734727Y-101809727D01*
X126724729Y-101818789D01*
X126713891Y-101826827D01*
X126702317Y-101833764D01*
X126690119Y-101839533D01*
X126677414Y-101844079D01*
X126664325Y-101847358D01*
X126650977Y-101849338D01*
X126637500Y-101850000D01*
X124662500Y-101850000D01*
X124649023Y-101849338D01*
X124635675Y-101847358D01*
X124622586Y-101844079D01*
X124609881Y-101839533D01*
X124597683Y-101833764D01*
X124586109Y-101826827D01*
X124575271Y-101818789D01*
X124565273Y-101809727D01*
X124556211Y-101799729D01*
X124548173Y-101788891D01*
X124541236Y-101777317D01*
X124535467Y-101765119D01*
X124530921Y-101752414D01*
X124527642Y-101739325D01*
X124525662Y-101725977D01*
X124525000Y-101712500D01*
X124525000Y-101437500D01*
X124525662Y-101424023D01*
X124527642Y-101410675D01*
X124530921Y-101397586D01*
X124535467Y-101384881D01*
X124541236Y-101372683D01*
X124548173Y-101361109D01*
X124556211Y-101350271D01*
X124565273Y-101340273D01*
X124575271Y-101331211D01*
X124586109Y-101323173D01*
X124597683Y-101316236D01*
X124609881Y-101310467D01*
X124622586Y-101305921D01*
X124635675Y-101302642D01*
X124649023Y-101300662D01*
X124662500Y-101300000D01*
X126637500Y-101300000D01*
X126650977Y-101300662D01*
X126650977Y-101300662D01*
G37*
D13*
X125650000Y-101575000D03*
D12*
G36*
X126650977Y-100500662D02*
G01*
X126664325Y-100502642D01*
X126677414Y-100505921D01*
X126690119Y-100510467D01*
X126702317Y-100516236D01*
X126713891Y-100523173D01*
X126724729Y-100531211D01*
X126734727Y-100540273D01*
X126743789Y-100550271D01*
X126751827Y-100561109D01*
X126758764Y-100572683D01*
X126764533Y-100584881D01*
X126769079Y-100597586D01*
X126772358Y-100610675D01*
X126774338Y-100624023D01*
X126775000Y-100637500D01*
X126775000Y-100912500D01*
X126774338Y-100925977D01*
X126772358Y-100939325D01*
X126769079Y-100952414D01*
X126764533Y-100965119D01*
X126758764Y-100977317D01*
X126751827Y-100988891D01*
X126743789Y-100999729D01*
X126734727Y-101009727D01*
X126724729Y-101018789D01*
X126713891Y-101026827D01*
X126702317Y-101033764D01*
X126690119Y-101039533D01*
X126677414Y-101044079D01*
X126664325Y-101047358D01*
X126650977Y-101049338D01*
X126637500Y-101050000D01*
X124662500Y-101050000D01*
X124649023Y-101049338D01*
X124635675Y-101047358D01*
X124622586Y-101044079D01*
X124609881Y-101039533D01*
X124597683Y-101033764D01*
X124586109Y-101026827D01*
X124575271Y-101018789D01*
X124565273Y-101009727D01*
X124556211Y-100999729D01*
X124548173Y-100988891D01*
X124541236Y-100977317D01*
X124535467Y-100965119D01*
X124530921Y-100952414D01*
X124527642Y-100939325D01*
X124525662Y-100925977D01*
X124525000Y-100912500D01*
X124525000Y-100637500D01*
X124525662Y-100624023D01*
X124527642Y-100610675D01*
X124530921Y-100597586D01*
X124535467Y-100584881D01*
X124541236Y-100572683D01*
X124548173Y-100561109D01*
X124556211Y-100550271D01*
X124565273Y-100540273D01*
X124575271Y-100531211D01*
X124586109Y-100523173D01*
X124597683Y-100516236D01*
X124609881Y-100510467D01*
X124622586Y-100505921D01*
X124635675Y-100502642D01*
X124649023Y-100500662D01*
X124662500Y-100500000D01*
X126637500Y-100500000D01*
X126650977Y-100500662D01*
X126650977Y-100500662D01*
G37*
D13*
X125650000Y-100775000D03*
D12*
G36*
X126650977Y-99700662D02*
G01*
X126664325Y-99702642D01*
X126677414Y-99705921D01*
X126690119Y-99710467D01*
X126702317Y-99716236D01*
X126713891Y-99723173D01*
X126724729Y-99731211D01*
X126734727Y-99740273D01*
X126743789Y-99750271D01*
X126751827Y-99761109D01*
X126758764Y-99772683D01*
X126764533Y-99784881D01*
X126769079Y-99797586D01*
X126772358Y-99810675D01*
X126774338Y-99824023D01*
X126775000Y-99837500D01*
X126775000Y-100112500D01*
X126774338Y-100125977D01*
X126772358Y-100139325D01*
X126769079Y-100152414D01*
X126764533Y-100165119D01*
X126758764Y-100177317D01*
X126751827Y-100188891D01*
X126743789Y-100199729D01*
X126734727Y-100209727D01*
X126724729Y-100218789D01*
X126713891Y-100226827D01*
X126702317Y-100233764D01*
X126690119Y-100239533D01*
X126677414Y-100244079D01*
X126664325Y-100247358D01*
X126650977Y-100249338D01*
X126637500Y-100250000D01*
X124662500Y-100250000D01*
X124649023Y-100249338D01*
X124635675Y-100247358D01*
X124622586Y-100244079D01*
X124609881Y-100239533D01*
X124597683Y-100233764D01*
X124586109Y-100226827D01*
X124575271Y-100218789D01*
X124565273Y-100209727D01*
X124556211Y-100199729D01*
X124548173Y-100188891D01*
X124541236Y-100177317D01*
X124535467Y-100165119D01*
X124530921Y-100152414D01*
X124527642Y-100139325D01*
X124525662Y-100125977D01*
X124525000Y-100112500D01*
X124525000Y-99837500D01*
X124525662Y-99824023D01*
X124527642Y-99810675D01*
X124530921Y-99797586D01*
X124535467Y-99784881D01*
X124541236Y-99772683D01*
X124548173Y-99761109D01*
X124556211Y-99750271D01*
X124565273Y-99740273D01*
X124575271Y-99731211D01*
X124586109Y-99723173D01*
X124597683Y-99716236D01*
X124609881Y-99710467D01*
X124622586Y-99705921D01*
X124635675Y-99702642D01*
X124649023Y-99700662D01*
X124662500Y-99700000D01*
X126637500Y-99700000D01*
X126650977Y-99700662D01*
X126650977Y-99700662D01*
G37*
D13*
X125650000Y-99975000D03*
D12*
G36*
X126650977Y-98900662D02*
G01*
X126664325Y-98902642D01*
X126677414Y-98905921D01*
X126690119Y-98910467D01*
X126702317Y-98916236D01*
X126713891Y-98923173D01*
X126724729Y-98931211D01*
X126734727Y-98940273D01*
X126743789Y-98950271D01*
X126751827Y-98961109D01*
X126758764Y-98972683D01*
X126764533Y-98984881D01*
X126769079Y-98997586D01*
X126772358Y-99010675D01*
X126774338Y-99024023D01*
X126775000Y-99037500D01*
X126775000Y-99312500D01*
X126774338Y-99325977D01*
X126772358Y-99339325D01*
X126769079Y-99352414D01*
X126764533Y-99365119D01*
X126758764Y-99377317D01*
X126751827Y-99388891D01*
X126743789Y-99399729D01*
X126734727Y-99409727D01*
X126724729Y-99418789D01*
X126713891Y-99426827D01*
X126702317Y-99433764D01*
X126690119Y-99439533D01*
X126677414Y-99444079D01*
X126664325Y-99447358D01*
X126650977Y-99449338D01*
X126637500Y-99450000D01*
X124662500Y-99450000D01*
X124649023Y-99449338D01*
X124635675Y-99447358D01*
X124622586Y-99444079D01*
X124609881Y-99439533D01*
X124597683Y-99433764D01*
X124586109Y-99426827D01*
X124575271Y-99418789D01*
X124565273Y-99409727D01*
X124556211Y-99399729D01*
X124548173Y-99388891D01*
X124541236Y-99377317D01*
X124535467Y-99365119D01*
X124530921Y-99352414D01*
X124527642Y-99339325D01*
X124525662Y-99325977D01*
X124525000Y-99312500D01*
X124525000Y-99037500D01*
X124525662Y-99024023D01*
X124527642Y-99010675D01*
X124530921Y-98997586D01*
X124535467Y-98984881D01*
X124541236Y-98972683D01*
X124548173Y-98961109D01*
X124556211Y-98950271D01*
X124565273Y-98940273D01*
X124575271Y-98931211D01*
X124586109Y-98923173D01*
X124597683Y-98916236D01*
X124609881Y-98910467D01*
X124622586Y-98905921D01*
X124635675Y-98902642D01*
X124649023Y-98900662D01*
X124662500Y-98900000D01*
X126637500Y-98900000D01*
X126650977Y-98900662D01*
X126650977Y-98900662D01*
G37*
D13*
X125650000Y-99175000D03*
D12*
G36*
X126650977Y-98100662D02*
G01*
X126664325Y-98102642D01*
X126677414Y-98105921D01*
X126690119Y-98110467D01*
X126702317Y-98116236D01*
X126713891Y-98123173D01*
X126724729Y-98131211D01*
X126734727Y-98140273D01*
X126743789Y-98150271D01*
X126751827Y-98161109D01*
X126758764Y-98172683D01*
X126764533Y-98184881D01*
X126769079Y-98197586D01*
X126772358Y-98210675D01*
X126774338Y-98224023D01*
X126775000Y-98237500D01*
X126775000Y-98512500D01*
X126774338Y-98525977D01*
X126772358Y-98539325D01*
X126769079Y-98552414D01*
X126764533Y-98565119D01*
X126758764Y-98577317D01*
X126751827Y-98588891D01*
X126743789Y-98599729D01*
X126734727Y-98609727D01*
X126724729Y-98618789D01*
X126713891Y-98626827D01*
X126702317Y-98633764D01*
X126690119Y-98639533D01*
X126677414Y-98644079D01*
X126664325Y-98647358D01*
X126650977Y-98649338D01*
X126637500Y-98650000D01*
X124662500Y-98650000D01*
X124649023Y-98649338D01*
X124635675Y-98647358D01*
X124622586Y-98644079D01*
X124609881Y-98639533D01*
X124597683Y-98633764D01*
X124586109Y-98626827D01*
X124575271Y-98618789D01*
X124565273Y-98609727D01*
X124556211Y-98599729D01*
X124548173Y-98588891D01*
X124541236Y-98577317D01*
X124535467Y-98565119D01*
X124530921Y-98552414D01*
X124527642Y-98539325D01*
X124525662Y-98525977D01*
X124525000Y-98512500D01*
X124525000Y-98237500D01*
X124525662Y-98224023D01*
X124527642Y-98210675D01*
X124530921Y-98197586D01*
X124535467Y-98184881D01*
X124541236Y-98172683D01*
X124548173Y-98161109D01*
X124556211Y-98150271D01*
X124565273Y-98140273D01*
X124575271Y-98131211D01*
X124586109Y-98123173D01*
X124597683Y-98116236D01*
X124609881Y-98110467D01*
X124622586Y-98105921D01*
X124635675Y-98102642D01*
X124649023Y-98100662D01*
X124662500Y-98100000D01*
X126637500Y-98100000D01*
X126650977Y-98100662D01*
X126650977Y-98100662D01*
G37*
D13*
X125650000Y-98375000D03*
D12*
G36*
X126650977Y-97300662D02*
G01*
X126664325Y-97302642D01*
X126677414Y-97305921D01*
X126690119Y-97310467D01*
X126702317Y-97316236D01*
X126713891Y-97323173D01*
X126724729Y-97331211D01*
X126734727Y-97340273D01*
X126743789Y-97350271D01*
X126751827Y-97361109D01*
X126758764Y-97372683D01*
X126764533Y-97384881D01*
X126769079Y-97397586D01*
X126772358Y-97410675D01*
X126774338Y-97424023D01*
X126775000Y-97437500D01*
X126775000Y-97712500D01*
X126774338Y-97725977D01*
X126772358Y-97739325D01*
X126769079Y-97752414D01*
X126764533Y-97765119D01*
X126758764Y-97777317D01*
X126751827Y-97788891D01*
X126743789Y-97799729D01*
X126734727Y-97809727D01*
X126724729Y-97818789D01*
X126713891Y-97826827D01*
X126702317Y-97833764D01*
X126690119Y-97839533D01*
X126677414Y-97844079D01*
X126664325Y-97847358D01*
X126650977Y-97849338D01*
X126637500Y-97850000D01*
X124662500Y-97850000D01*
X124649023Y-97849338D01*
X124635675Y-97847358D01*
X124622586Y-97844079D01*
X124609881Y-97839533D01*
X124597683Y-97833764D01*
X124586109Y-97826827D01*
X124575271Y-97818789D01*
X124565273Y-97809727D01*
X124556211Y-97799729D01*
X124548173Y-97788891D01*
X124541236Y-97777317D01*
X124535467Y-97765119D01*
X124530921Y-97752414D01*
X124527642Y-97739325D01*
X124525662Y-97725977D01*
X124525000Y-97712500D01*
X124525000Y-97437500D01*
X124525662Y-97424023D01*
X124527642Y-97410675D01*
X124530921Y-97397586D01*
X124535467Y-97384881D01*
X124541236Y-97372683D01*
X124548173Y-97361109D01*
X124556211Y-97350271D01*
X124565273Y-97340273D01*
X124575271Y-97331211D01*
X124586109Y-97323173D01*
X124597683Y-97316236D01*
X124609881Y-97310467D01*
X124622586Y-97305921D01*
X124635675Y-97302642D01*
X124649023Y-97300662D01*
X124662500Y-97300000D01*
X126637500Y-97300000D01*
X126650977Y-97300662D01*
X126650977Y-97300662D01*
G37*
D13*
X125650000Y-97575000D03*
D12*
G36*
X126650977Y-96500662D02*
G01*
X126664325Y-96502642D01*
X126677414Y-96505921D01*
X126690119Y-96510467D01*
X126702317Y-96516236D01*
X126713891Y-96523173D01*
X126724729Y-96531211D01*
X126734727Y-96540273D01*
X126743789Y-96550271D01*
X126751827Y-96561109D01*
X126758764Y-96572683D01*
X126764533Y-96584881D01*
X126769079Y-96597586D01*
X126772358Y-96610675D01*
X126774338Y-96624023D01*
X126775000Y-96637500D01*
X126775000Y-96912500D01*
X126774338Y-96925977D01*
X126772358Y-96939325D01*
X126769079Y-96952414D01*
X126764533Y-96965119D01*
X126758764Y-96977317D01*
X126751827Y-96988891D01*
X126743789Y-96999729D01*
X126734727Y-97009727D01*
X126724729Y-97018789D01*
X126713891Y-97026827D01*
X126702317Y-97033764D01*
X126690119Y-97039533D01*
X126677414Y-97044079D01*
X126664325Y-97047358D01*
X126650977Y-97049338D01*
X126637500Y-97050000D01*
X124662500Y-97050000D01*
X124649023Y-97049338D01*
X124635675Y-97047358D01*
X124622586Y-97044079D01*
X124609881Y-97039533D01*
X124597683Y-97033764D01*
X124586109Y-97026827D01*
X124575271Y-97018789D01*
X124565273Y-97009727D01*
X124556211Y-96999729D01*
X124548173Y-96988891D01*
X124541236Y-96977317D01*
X124535467Y-96965119D01*
X124530921Y-96952414D01*
X124527642Y-96939325D01*
X124525662Y-96925977D01*
X124525000Y-96912500D01*
X124525000Y-96637500D01*
X124525662Y-96624023D01*
X124527642Y-96610675D01*
X124530921Y-96597586D01*
X124535467Y-96584881D01*
X124541236Y-96572683D01*
X124548173Y-96561109D01*
X124556211Y-96550271D01*
X124565273Y-96540273D01*
X124575271Y-96531211D01*
X124586109Y-96523173D01*
X124597683Y-96516236D01*
X124609881Y-96510467D01*
X124622586Y-96505921D01*
X124635675Y-96502642D01*
X124649023Y-96500662D01*
X124662500Y-96500000D01*
X126637500Y-96500000D01*
X126650977Y-96500662D01*
X126650977Y-96500662D01*
G37*
D13*
X125650000Y-96775000D03*
D12*
G36*
X126650977Y-95700662D02*
G01*
X126664325Y-95702642D01*
X126677414Y-95705921D01*
X126690119Y-95710467D01*
X126702317Y-95716236D01*
X126713891Y-95723173D01*
X126724729Y-95731211D01*
X126734727Y-95740273D01*
X126743789Y-95750271D01*
X126751827Y-95761109D01*
X126758764Y-95772683D01*
X126764533Y-95784881D01*
X126769079Y-95797586D01*
X126772358Y-95810675D01*
X126774338Y-95824023D01*
X126775000Y-95837500D01*
X126775000Y-96112500D01*
X126774338Y-96125977D01*
X126772358Y-96139325D01*
X126769079Y-96152414D01*
X126764533Y-96165119D01*
X126758764Y-96177317D01*
X126751827Y-96188891D01*
X126743789Y-96199729D01*
X126734727Y-96209727D01*
X126724729Y-96218789D01*
X126713891Y-96226827D01*
X126702317Y-96233764D01*
X126690119Y-96239533D01*
X126677414Y-96244079D01*
X126664325Y-96247358D01*
X126650977Y-96249338D01*
X126637500Y-96250000D01*
X124662500Y-96250000D01*
X124649023Y-96249338D01*
X124635675Y-96247358D01*
X124622586Y-96244079D01*
X124609881Y-96239533D01*
X124597683Y-96233764D01*
X124586109Y-96226827D01*
X124575271Y-96218789D01*
X124565273Y-96209727D01*
X124556211Y-96199729D01*
X124548173Y-96188891D01*
X124541236Y-96177317D01*
X124535467Y-96165119D01*
X124530921Y-96152414D01*
X124527642Y-96139325D01*
X124525662Y-96125977D01*
X124525000Y-96112500D01*
X124525000Y-95837500D01*
X124525662Y-95824023D01*
X124527642Y-95810675D01*
X124530921Y-95797586D01*
X124535467Y-95784881D01*
X124541236Y-95772683D01*
X124548173Y-95761109D01*
X124556211Y-95750271D01*
X124565273Y-95740273D01*
X124575271Y-95731211D01*
X124586109Y-95723173D01*
X124597683Y-95716236D01*
X124609881Y-95710467D01*
X124622586Y-95705921D01*
X124635675Y-95702642D01*
X124649023Y-95700662D01*
X124662500Y-95700000D01*
X126637500Y-95700000D01*
X126650977Y-95700662D01*
X126650977Y-95700662D01*
G37*
D13*
X125650000Y-95975000D03*
D12*
G36*
X126650977Y-94900662D02*
G01*
X126664325Y-94902642D01*
X126677414Y-94905921D01*
X126690119Y-94910467D01*
X126702317Y-94916236D01*
X126713891Y-94923173D01*
X126724729Y-94931211D01*
X126734727Y-94940273D01*
X126743789Y-94950271D01*
X126751827Y-94961109D01*
X126758764Y-94972683D01*
X126764533Y-94984881D01*
X126769079Y-94997586D01*
X126772358Y-95010675D01*
X126774338Y-95024023D01*
X126775000Y-95037500D01*
X126775000Y-95312500D01*
X126774338Y-95325977D01*
X126772358Y-95339325D01*
X126769079Y-95352414D01*
X126764533Y-95365119D01*
X126758764Y-95377317D01*
X126751827Y-95388891D01*
X126743789Y-95399729D01*
X126734727Y-95409727D01*
X126724729Y-95418789D01*
X126713891Y-95426827D01*
X126702317Y-95433764D01*
X126690119Y-95439533D01*
X126677414Y-95444079D01*
X126664325Y-95447358D01*
X126650977Y-95449338D01*
X126637500Y-95450000D01*
X124662500Y-95450000D01*
X124649023Y-95449338D01*
X124635675Y-95447358D01*
X124622586Y-95444079D01*
X124609881Y-95439533D01*
X124597683Y-95433764D01*
X124586109Y-95426827D01*
X124575271Y-95418789D01*
X124565273Y-95409727D01*
X124556211Y-95399729D01*
X124548173Y-95388891D01*
X124541236Y-95377317D01*
X124535467Y-95365119D01*
X124530921Y-95352414D01*
X124527642Y-95339325D01*
X124525662Y-95325977D01*
X124525000Y-95312500D01*
X124525000Y-95037500D01*
X124525662Y-95024023D01*
X124527642Y-95010675D01*
X124530921Y-94997586D01*
X124535467Y-94984881D01*
X124541236Y-94972683D01*
X124548173Y-94961109D01*
X124556211Y-94950271D01*
X124565273Y-94940273D01*
X124575271Y-94931211D01*
X124586109Y-94923173D01*
X124597683Y-94916236D01*
X124609881Y-94910467D01*
X124622586Y-94905921D01*
X124635675Y-94902642D01*
X124649023Y-94900662D01*
X124662500Y-94900000D01*
X126637500Y-94900000D01*
X126650977Y-94900662D01*
X126650977Y-94900662D01*
G37*
D13*
X125650000Y-95175000D03*
D12*
G36*
X126650977Y-94100662D02*
G01*
X126664325Y-94102642D01*
X126677414Y-94105921D01*
X126690119Y-94110467D01*
X126702317Y-94116236D01*
X126713891Y-94123173D01*
X126724729Y-94131211D01*
X126734727Y-94140273D01*
X126743789Y-94150271D01*
X126751827Y-94161109D01*
X126758764Y-94172683D01*
X126764533Y-94184881D01*
X126769079Y-94197586D01*
X126772358Y-94210675D01*
X126774338Y-94224023D01*
X126775000Y-94237500D01*
X126775000Y-94512500D01*
X126774338Y-94525977D01*
X126772358Y-94539325D01*
X126769079Y-94552414D01*
X126764533Y-94565119D01*
X126758764Y-94577317D01*
X126751827Y-94588891D01*
X126743789Y-94599729D01*
X126734727Y-94609727D01*
X126724729Y-94618789D01*
X126713891Y-94626827D01*
X126702317Y-94633764D01*
X126690119Y-94639533D01*
X126677414Y-94644079D01*
X126664325Y-94647358D01*
X126650977Y-94649338D01*
X126637500Y-94650000D01*
X124662500Y-94650000D01*
X124649023Y-94649338D01*
X124635675Y-94647358D01*
X124622586Y-94644079D01*
X124609881Y-94639533D01*
X124597683Y-94633764D01*
X124586109Y-94626827D01*
X124575271Y-94618789D01*
X124565273Y-94609727D01*
X124556211Y-94599729D01*
X124548173Y-94588891D01*
X124541236Y-94577317D01*
X124535467Y-94565119D01*
X124530921Y-94552414D01*
X124527642Y-94539325D01*
X124525662Y-94525977D01*
X124525000Y-94512500D01*
X124525000Y-94237500D01*
X124525662Y-94224023D01*
X124527642Y-94210675D01*
X124530921Y-94197586D01*
X124535467Y-94184881D01*
X124541236Y-94172683D01*
X124548173Y-94161109D01*
X124556211Y-94150271D01*
X124565273Y-94140273D01*
X124575271Y-94131211D01*
X124586109Y-94123173D01*
X124597683Y-94116236D01*
X124609881Y-94110467D01*
X124622586Y-94105921D01*
X124635675Y-94102642D01*
X124649023Y-94100662D01*
X124662500Y-94100000D01*
X126637500Y-94100000D01*
X126650977Y-94100662D01*
X126650977Y-94100662D01*
G37*
D13*
X125650000Y-94375000D03*
D12*
G36*
X126650977Y-93300662D02*
G01*
X126664325Y-93302642D01*
X126677414Y-93305921D01*
X126690119Y-93310467D01*
X126702317Y-93316236D01*
X126713891Y-93323173D01*
X126724729Y-93331211D01*
X126734727Y-93340273D01*
X126743789Y-93350271D01*
X126751827Y-93361109D01*
X126758764Y-93372683D01*
X126764533Y-93384881D01*
X126769079Y-93397586D01*
X126772358Y-93410675D01*
X126774338Y-93424023D01*
X126775000Y-93437500D01*
X126775000Y-93712500D01*
X126774338Y-93725977D01*
X126772358Y-93739325D01*
X126769079Y-93752414D01*
X126764533Y-93765119D01*
X126758764Y-93777317D01*
X126751827Y-93788891D01*
X126743789Y-93799729D01*
X126734727Y-93809727D01*
X126724729Y-93818789D01*
X126713891Y-93826827D01*
X126702317Y-93833764D01*
X126690119Y-93839533D01*
X126677414Y-93844079D01*
X126664325Y-93847358D01*
X126650977Y-93849338D01*
X126637500Y-93850000D01*
X124662500Y-93850000D01*
X124649023Y-93849338D01*
X124635675Y-93847358D01*
X124622586Y-93844079D01*
X124609881Y-93839533D01*
X124597683Y-93833764D01*
X124586109Y-93826827D01*
X124575271Y-93818789D01*
X124565273Y-93809727D01*
X124556211Y-93799729D01*
X124548173Y-93788891D01*
X124541236Y-93777317D01*
X124535467Y-93765119D01*
X124530921Y-93752414D01*
X124527642Y-93739325D01*
X124525662Y-93725977D01*
X124525000Y-93712500D01*
X124525000Y-93437500D01*
X124525662Y-93424023D01*
X124527642Y-93410675D01*
X124530921Y-93397586D01*
X124535467Y-93384881D01*
X124541236Y-93372683D01*
X124548173Y-93361109D01*
X124556211Y-93350271D01*
X124565273Y-93340273D01*
X124575271Y-93331211D01*
X124586109Y-93323173D01*
X124597683Y-93316236D01*
X124609881Y-93310467D01*
X124622586Y-93305921D01*
X124635675Y-93302642D01*
X124649023Y-93300662D01*
X124662500Y-93300000D01*
X126637500Y-93300000D01*
X126650977Y-93300662D01*
X126650977Y-93300662D01*
G37*
D13*
X125650000Y-93575000D03*
D12*
G36*
X126650977Y-92500662D02*
G01*
X126664325Y-92502642D01*
X126677414Y-92505921D01*
X126690119Y-92510467D01*
X126702317Y-92516236D01*
X126713891Y-92523173D01*
X126724729Y-92531211D01*
X126734727Y-92540273D01*
X126743789Y-92550271D01*
X126751827Y-92561109D01*
X126758764Y-92572683D01*
X126764533Y-92584881D01*
X126769079Y-92597586D01*
X126772358Y-92610675D01*
X126774338Y-92624023D01*
X126775000Y-92637500D01*
X126775000Y-92912500D01*
X126774338Y-92925977D01*
X126772358Y-92939325D01*
X126769079Y-92952414D01*
X126764533Y-92965119D01*
X126758764Y-92977317D01*
X126751827Y-92988891D01*
X126743789Y-92999729D01*
X126734727Y-93009727D01*
X126724729Y-93018789D01*
X126713891Y-93026827D01*
X126702317Y-93033764D01*
X126690119Y-93039533D01*
X126677414Y-93044079D01*
X126664325Y-93047358D01*
X126650977Y-93049338D01*
X126637500Y-93050000D01*
X124662500Y-93050000D01*
X124649023Y-93049338D01*
X124635675Y-93047358D01*
X124622586Y-93044079D01*
X124609881Y-93039533D01*
X124597683Y-93033764D01*
X124586109Y-93026827D01*
X124575271Y-93018789D01*
X124565273Y-93009727D01*
X124556211Y-92999729D01*
X124548173Y-92988891D01*
X124541236Y-92977317D01*
X124535467Y-92965119D01*
X124530921Y-92952414D01*
X124527642Y-92939325D01*
X124525662Y-92925977D01*
X124525000Y-92912500D01*
X124525000Y-92637500D01*
X124525662Y-92624023D01*
X124527642Y-92610675D01*
X124530921Y-92597586D01*
X124535467Y-92584881D01*
X124541236Y-92572683D01*
X124548173Y-92561109D01*
X124556211Y-92550271D01*
X124565273Y-92540273D01*
X124575271Y-92531211D01*
X124586109Y-92523173D01*
X124597683Y-92516236D01*
X124609881Y-92510467D01*
X124622586Y-92505921D01*
X124635675Y-92502642D01*
X124649023Y-92500662D01*
X124662500Y-92500000D01*
X126637500Y-92500000D01*
X126650977Y-92500662D01*
X126650977Y-92500662D01*
G37*
D13*
X125650000Y-92775000D03*
D12*
G36*
X126650977Y-91700662D02*
G01*
X126664325Y-91702642D01*
X126677414Y-91705921D01*
X126690119Y-91710467D01*
X126702317Y-91716236D01*
X126713891Y-91723173D01*
X126724729Y-91731211D01*
X126734727Y-91740273D01*
X126743789Y-91750271D01*
X126751827Y-91761109D01*
X126758764Y-91772683D01*
X126764533Y-91784881D01*
X126769079Y-91797586D01*
X126772358Y-91810675D01*
X126774338Y-91824023D01*
X126775000Y-91837500D01*
X126775000Y-92112500D01*
X126774338Y-92125977D01*
X126772358Y-92139325D01*
X126769079Y-92152414D01*
X126764533Y-92165119D01*
X126758764Y-92177317D01*
X126751827Y-92188891D01*
X126743789Y-92199729D01*
X126734727Y-92209727D01*
X126724729Y-92218789D01*
X126713891Y-92226827D01*
X126702317Y-92233764D01*
X126690119Y-92239533D01*
X126677414Y-92244079D01*
X126664325Y-92247358D01*
X126650977Y-92249338D01*
X126637500Y-92250000D01*
X124662500Y-92250000D01*
X124649023Y-92249338D01*
X124635675Y-92247358D01*
X124622586Y-92244079D01*
X124609881Y-92239533D01*
X124597683Y-92233764D01*
X124586109Y-92226827D01*
X124575271Y-92218789D01*
X124565273Y-92209727D01*
X124556211Y-92199729D01*
X124548173Y-92188891D01*
X124541236Y-92177317D01*
X124535467Y-92165119D01*
X124530921Y-92152414D01*
X124527642Y-92139325D01*
X124525662Y-92125977D01*
X124525000Y-92112500D01*
X124525000Y-91837500D01*
X124525662Y-91824023D01*
X124527642Y-91810675D01*
X124530921Y-91797586D01*
X124535467Y-91784881D01*
X124541236Y-91772683D01*
X124548173Y-91761109D01*
X124556211Y-91750271D01*
X124565273Y-91740273D01*
X124575271Y-91731211D01*
X124586109Y-91723173D01*
X124597683Y-91716236D01*
X124609881Y-91710467D01*
X124622586Y-91705921D01*
X124635675Y-91702642D01*
X124649023Y-91700662D01*
X124662500Y-91700000D01*
X126637500Y-91700000D01*
X126650977Y-91700662D01*
X126650977Y-91700662D01*
G37*
D13*
X125650000Y-91975000D03*
D12*
G36*
X126650977Y-90900662D02*
G01*
X126664325Y-90902642D01*
X126677414Y-90905921D01*
X126690119Y-90910467D01*
X126702317Y-90916236D01*
X126713891Y-90923173D01*
X126724729Y-90931211D01*
X126734727Y-90940273D01*
X126743789Y-90950271D01*
X126751827Y-90961109D01*
X126758764Y-90972683D01*
X126764533Y-90984881D01*
X126769079Y-90997586D01*
X126772358Y-91010675D01*
X126774338Y-91024023D01*
X126775000Y-91037500D01*
X126775000Y-91312500D01*
X126774338Y-91325977D01*
X126772358Y-91339325D01*
X126769079Y-91352414D01*
X126764533Y-91365119D01*
X126758764Y-91377317D01*
X126751827Y-91388891D01*
X126743789Y-91399729D01*
X126734727Y-91409727D01*
X126724729Y-91418789D01*
X126713891Y-91426827D01*
X126702317Y-91433764D01*
X126690119Y-91439533D01*
X126677414Y-91444079D01*
X126664325Y-91447358D01*
X126650977Y-91449338D01*
X126637500Y-91450000D01*
X124662500Y-91450000D01*
X124649023Y-91449338D01*
X124635675Y-91447358D01*
X124622586Y-91444079D01*
X124609881Y-91439533D01*
X124597683Y-91433764D01*
X124586109Y-91426827D01*
X124575271Y-91418789D01*
X124565273Y-91409727D01*
X124556211Y-91399729D01*
X124548173Y-91388891D01*
X124541236Y-91377317D01*
X124535467Y-91365119D01*
X124530921Y-91352414D01*
X124527642Y-91339325D01*
X124525662Y-91325977D01*
X124525000Y-91312500D01*
X124525000Y-91037500D01*
X124525662Y-91024023D01*
X124527642Y-91010675D01*
X124530921Y-90997586D01*
X124535467Y-90984881D01*
X124541236Y-90972683D01*
X124548173Y-90961109D01*
X124556211Y-90950271D01*
X124565273Y-90940273D01*
X124575271Y-90931211D01*
X124586109Y-90923173D01*
X124597683Y-90916236D01*
X124609881Y-90910467D01*
X124622586Y-90905921D01*
X124635675Y-90902642D01*
X124649023Y-90900662D01*
X124662500Y-90900000D01*
X126637500Y-90900000D01*
X126650977Y-90900662D01*
X126650977Y-90900662D01*
G37*
D13*
X125650000Y-91175000D03*
D12*
G36*
X125759703Y-70550722D02*
G01*
X125774264Y-70552882D01*
X125788543Y-70556459D01*
X125802403Y-70561418D01*
X125815710Y-70567712D01*
X125828336Y-70575280D01*
X125840159Y-70584048D01*
X125851066Y-70593934D01*
X125860952Y-70604841D01*
X125869720Y-70616664D01*
X125877288Y-70629290D01*
X125883582Y-70642597D01*
X125888541Y-70656457D01*
X125892118Y-70670736D01*
X125894278Y-70685297D01*
X125895000Y-70700000D01*
X125895000Y-72350000D01*
X125894278Y-72364703D01*
X125892118Y-72379264D01*
X125888541Y-72393543D01*
X125883582Y-72407403D01*
X125877288Y-72420710D01*
X125869720Y-72433336D01*
X125860952Y-72445159D01*
X125851066Y-72456066D01*
X125840159Y-72465952D01*
X125828336Y-72474720D01*
X125815710Y-72482288D01*
X125802403Y-72488582D01*
X125788543Y-72493541D01*
X125774264Y-72497118D01*
X125759703Y-72499278D01*
X125745000Y-72500000D01*
X125445000Y-72500000D01*
X125430297Y-72499278D01*
X125415736Y-72497118D01*
X125401457Y-72493541D01*
X125387597Y-72488582D01*
X125374290Y-72482288D01*
X125361664Y-72474720D01*
X125349841Y-72465952D01*
X125338934Y-72456066D01*
X125329048Y-72445159D01*
X125320280Y-72433336D01*
X125312712Y-72420710D01*
X125306418Y-72407403D01*
X125301459Y-72393543D01*
X125297882Y-72379264D01*
X125295722Y-72364703D01*
X125295000Y-72350000D01*
X125295000Y-70700000D01*
X125295722Y-70685297D01*
X125297882Y-70670736D01*
X125301459Y-70656457D01*
X125306418Y-70642597D01*
X125312712Y-70629290D01*
X125320280Y-70616664D01*
X125329048Y-70604841D01*
X125338934Y-70593934D01*
X125349841Y-70584048D01*
X125361664Y-70575280D01*
X125374290Y-70567712D01*
X125387597Y-70561418D01*
X125401457Y-70556459D01*
X125415736Y-70552882D01*
X125430297Y-70550722D01*
X125445000Y-70550000D01*
X125745000Y-70550000D01*
X125759703Y-70550722D01*
X125759703Y-70550722D01*
G37*
D14*
X125595000Y-71525000D03*
D12*
G36*
X127029703Y-70550722D02*
G01*
X127044264Y-70552882D01*
X127058543Y-70556459D01*
X127072403Y-70561418D01*
X127085710Y-70567712D01*
X127098336Y-70575280D01*
X127110159Y-70584048D01*
X127121066Y-70593934D01*
X127130952Y-70604841D01*
X127139720Y-70616664D01*
X127147288Y-70629290D01*
X127153582Y-70642597D01*
X127158541Y-70656457D01*
X127162118Y-70670736D01*
X127164278Y-70685297D01*
X127165000Y-70700000D01*
X127165000Y-72350000D01*
X127164278Y-72364703D01*
X127162118Y-72379264D01*
X127158541Y-72393543D01*
X127153582Y-72407403D01*
X127147288Y-72420710D01*
X127139720Y-72433336D01*
X127130952Y-72445159D01*
X127121066Y-72456066D01*
X127110159Y-72465952D01*
X127098336Y-72474720D01*
X127085710Y-72482288D01*
X127072403Y-72488582D01*
X127058543Y-72493541D01*
X127044264Y-72497118D01*
X127029703Y-72499278D01*
X127015000Y-72500000D01*
X126715000Y-72500000D01*
X126700297Y-72499278D01*
X126685736Y-72497118D01*
X126671457Y-72493541D01*
X126657597Y-72488582D01*
X126644290Y-72482288D01*
X126631664Y-72474720D01*
X126619841Y-72465952D01*
X126608934Y-72456066D01*
X126599048Y-72445159D01*
X126590280Y-72433336D01*
X126582712Y-72420710D01*
X126576418Y-72407403D01*
X126571459Y-72393543D01*
X126567882Y-72379264D01*
X126565722Y-72364703D01*
X126565000Y-72350000D01*
X126565000Y-70700000D01*
X126565722Y-70685297D01*
X126567882Y-70670736D01*
X126571459Y-70656457D01*
X126576418Y-70642597D01*
X126582712Y-70629290D01*
X126590280Y-70616664D01*
X126599048Y-70604841D01*
X126608934Y-70593934D01*
X126619841Y-70584048D01*
X126631664Y-70575280D01*
X126644290Y-70567712D01*
X126657597Y-70561418D01*
X126671457Y-70556459D01*
X126685736Y-70552882D01*
X126700297Y-70550722D01*
X126715000Y-70550000D01*
X127015000Y-70550000D01*
X127029703Y-70550722D01*
X127029703Y-70550722D01*
G37*
D14*
X126865000Y-71525000D03*
D12*
G36*
X128299703Y-70550722D02*
G01*
X128314264Y-70552882D01*
X128328543Y-70556459D01*
X128342403Y-70561418D01*
X128355710Y-70567712D01*
X128368336Y-70575280D01*
X128380159Y-70584048D01*
X128391066Y-70593934D01*
X128400952Y-70604841D01*
X128409720Y-70616664D01*
X128417288Y-70629290D01*
X128423582Y-70642597D01*
X128428541Y-70656457D01*
X128432118Y-70670736D01*
X128434278Y-70685297D01*
X128435000Y-70700000D01*
X128435000Y-72350000D01*
X128434278Y-72364703D01*
X128432118Y-72379264D01*
X128428541Y-72393543D01*
X128423582Y-72407403D01*
X128417288Y-72420710D01*
X128409720Y-72433336D01*
X128400952Y-72445159D01*
X128391066Y-72456066D01*
X128380159Y-72465952D01*
X128368336Y-72474720D01*
X128355710Y-72482288D01*
X128342403Y-72488582D01*
X128328543Y-72493541D01*
X128314264Y-72497118D01*
X128299703Y-72499278D01*
X128285000Y-72500000D01*
X127985000Y-72500000D01*
X127970297Y-72499278D01*
X127955736Y-72497118D01*
X127941457Y-72493541D01*
X127927597Y-72488582D01*
X127914290Y-72482288D01*
X127901664Y-72474720D01*
X127889841Y-72465952D01*
X127878934Y-72456066D01*
X127869048Y-72445159D01*
X127860280Y-72433336D01*
X127852712Y-72420710D01*
X127846418Y-72407403D01*
X127841459Y-72393543D01*
X127837882Y-72379264D01*
X127835722Y-72364703D01*
X127835000Y-72350000D01*
X127835000Y-70700000D01*
X127835722Y-70685297D01*
X127837882Y-70670736D01*
X127841459Y-70656457D01*
X127846418Y-70642597D01*
X127852712Y-70629290D01*
X127860280Y-70616664D01*
X127869048Y-70604841D01*
X127878934Y-70593934D01*
X127889841Y-70584048D01*
X127901664Y-70575280D01*
X127914290Y-70567712D01*
X127927597Y-70561418D01*
X127941457Y-70556459D01*
X127955736Y-70552882D01*
X127970297Y-70550722D01*
X127985000Y-70550000D01*
X128285000Y-70550000D01*
X128299703Y-70550722D01*
X128299703Y-70550722D01*
G37*
D14*
X128135000Y-71525000D03*
D12*
G36*
X129569703Y-70550722D02*
G01*
X129584264Y-70552882D01*
X129598543Y-70556459D01*
X129612403Y-70561418D01*
X129625710Y-70567712D01*
X129638336Y-70575280D01*
X129650159Y-70584048D01*
X129661066Y-70593934D01*
X129670952Y-70604841D01*
X129679720Y-70616664D01*
X129687288Y-70629290D01*
X129693582Y-70642597D01*
X129698541Y-70656457D01*
X129702118Y-70670736D01*
X129704278Y-70685297D01*
X129705000Y-70700000D01*
X129705000Y-72350000D01*
X129704278Y-72364703D01*
X129702118Y-72379264D01*
X129698541Y-72393543D01*
X129693582Y-72407403D01*
X129687288Y-72420710D01*
X129679720Y-72433336D01*
X129670952Y-72445159D01*
X129661066Y-72456066D01*
X129650159Y-72465952D01*
X129638336Y-72474720D01*
X129625710Y-72482288D01*
X129612403Y-72488582D01*
X129598543Y-72493541D01*
X129584264Y-72497118D01*
X129569703Y-72499278D01*
X129555000Y-72500000D01*
X129255000Y-72500000D01*
X129240297Y-72499278D01*
X129225736Y-72497118D01*
X129211457Y-72493541D01*
X129197597Y-72488582D01*
X129184290Y-72482288D01*
X129171664Y-72474720D01*
X129159841Y-72465952D01*
X129148934Y-72456066D01*
X129139048Y-72445159D01*
X129130280Y-72433336D01*
X129122712Y-72420710D01*
X129116418Y-72407403D01*
X129111459Y-72393543D01*
X129107882Y-72379264D01*
X129105722Y-72364703D01*
X129105000Y-72350000D01*
X129105000Y-70700000D01*
X129105722Y-70685297D01*
X129107882Y-70670736D01*
X129111459Y-70656457D01*
X129116418Y-70642597D01*
X129122712Y-70629290D01*
X129130280Y-70616664D01*
X129139048Y-70604841D01*
X129148934Y-70593934D01*
X129159841Y-70584048D01*
X129171664Y-70575280D01*
X129184290Y-70567712D01*
X129197597Y-70561418D01*
X129211457Y-70556459D01*
X129225736Y-70552882D01*
X129240297Y-70550722D01*
X129255000Y-70550000D01*
X129555000Y-70550000D01*
X129569703Y-70550722D01*
X129569703Y-70550722D01*
G37*
D14*
X129405000Y-71525000D03*
D12*
G36*
X129569703Y-75500722D02*
G01*
X129584264Y-75502882D01*
X129598543Y-75506459D01*
X129612403Y-75511418D01*
X129625710Y-75517712D01*
X129638336Y-75525280D01*
X129650159Y-75534048D01*
X129661066Y-75543934D01*
X129670952Y-75554841D01*
X129679720Y-75566664D01*
X129687288Y-75579290D01*
X129693582Y-75592597D01*
X129698541Y-75606457D01*
X129702118Y-75620736D01*
X129704278Y-75635297D01*
X129705000Y-75650000D01*
X129705000Y-77300000D01*
X129704278Y-77314703D01*
X129702118Y-77329264D01*
X129698541Y-77343543D01*
X129693582Y-77357403D01*
X129687288Y-77370710D01*
X129679720Y-77383336D01*
X129670952Y-77395159D01*
X129661066Y-77406066D01*
X129650159Y-77415952D01*
X129638336Y-77424720D01*
X129625710Y-77432288D01*
X129612403Y-77438582D01*
X129598543Y-77443541D01*
X129584264Y-77447118D01*
X129569703Y-77449278D01*
X129555000Y-77450000D01*
X129255000Y-77450000D01*
X129240297Y-77449278D01*
X129225736Y-77447118D01*
X129211457Y-77443541D01*
X129197597Y-77438582D01*
X129184290Y-77432288D01*
X129171664Y-77424720D01*
X129159841Y-77415952D01*
X129148934Y-77406066D01*
X129139048Y-77395159D01*
X129130280Y-77383336D01*
X129122712Y-77370710D01*
X129116418Y-77357403D01*
X129111459Y-77343543D01*
X129107882Y-77329264D01*
X129105722Y-77314703D01*
X129105000Y-77300000D01*
X129105000Y-75650000D01*
X129105722Y-75635297D01*
X129107882Y-75620736D01*
X129111459Y-75606457D01*
X129116418Y-75592597D01*
X129122712Y-75579290D01*
X129130280Y-75566664D01*
X129139048Y-75554841D01*
X129148934Y-75543934D01*
X129159841Y-75534048D01*
X129171664Y-75525280D01*
X129184290Y-75517712D01*
X129197597Y-75511418D01*
X129211457Y-75506459D01*
X129225736Y-75502882D01*
X129240297Y-75500722D01*
X129255000Y-75500000D01*
X129555000Y-75500000D01*
X129569703Y-75500722D01*
X129569703Y-75500722D01*
G37*
D14*
X129405000Y-76475000D03*
D12*
G36*
X128299703Y-75500722D02*
G01*
X128314264Y-75502882D01*
X128328543Y-75506459D01*
X128342403Y-75511418D01*
X128355710Y-75517712D01*
X128368336Y-75525280D01*
X128380159Y-75534048D01*
X128391066Y-75543934D01*
X128400952Y-75554841D01*
X128409720Y-75566664D01*
X128417288Y-75579290D01*
X128423582Y-75592597D01*
X128428541Y-75606457D01*
X128432118Y-75620736D01*
X128434278Y-75635297D01*
X128435000Y-75650000D01*
X128435000Y-77300000D01*
X128434278Y-77314703D01*
X128432118Y-77329264D01*
X128428541Y-77343543D01*
X128423582Y-77357403D01*
X128417288Y-77370710D01*
X128409720Y-77383336D01*
X128400952Y-77395159D01*
X128391066Y-77406066D01*
X128380159Y-77415952D01*
X128368336Y-77424720D01*
X128355710Y-77432288D01*
X128342403Y-77438582D01*
X128328543Y-77443541D01*
X128314264Y-77447118D01*
X128299703Y-77449278D01*
X128285000Y-77450000D01*
X127985000Y-77450000D01*
X127970297Y-77449278D01*
X127955736Y-77447118D01*
X127941457Y-77443541D01*
X127927597Y-77438582D01*
X127914290Y-77432288D01*
X127901664Y-77424720D01*
X127889841Y-77415952D01*
X127878934Y-77406066D01*
X127869048Y-77395159D01*
X127860280Y-77383336D01*
X127852712Y-77370710D01*
X127846418Y-77357403D01*
X127841459Y-77343543D01*
X127837882Y-77329264D01*
X127835722Y-77314703D01*
X127835000Y-77300000D01*
X127835000Y-75650000D01*
X127835722Y-75635297D01*
X127837882Y-75620736D01*
X127841459Y-75606457D01*
X127846418Y-75592597D01*
X127852712Y-75579290D01*
X127860280Y-75566664D01*
X127869048Y-75554841D01*
X127878934Y-75543934D01*
X127889841Y-75534048D01*
X127901664Y-75525280D01*
X127914290Y-75517712D01*
X127927597Y-75511418D01*
X127941457Y-75506459D01*
X127955736Y-75502882D01*
X127970297Y-75500722D01*
X127985000Y-75500000D01*
X128285000Y-75500000D01*
X128299703Y-75500722D01*
X128299703Y-75500722D01*
G37*
D14*
X128135000Y-76475000D03*
D12*
G36*
X127029703Y-75500722D02*
G01*
X127044264Y-75502882D01*
X127058543Y-75506459D01*
X127072403Y-75511418D01*
X127085710Y-75517712D01*
X127098336Y-75525280D01*
X127110159Y-75534048D01*
X127121066Y-75543934D01*
X127130952Y-75554841D01*
X127139720Y-75566664D01*
X127147288Y-75579290D01*
X127153582Y-75592597D01*
X127158541Y-75606457D01*
X127162118Y-75620736D01*
X127164278Y-75635297D01*
X127165000Y-75650000D01*
X127165000Y-77300000D01*
X127164278Y-77314703D01*
X127162118Y-77329264D01*
X127158541Y-77343543D01*
X127153582Y-77357403D01*
X127147288Y-77370710D01*
X127139720Y-77383336D01*
X127130952Y-77395159D01*
X127121066Y-77406066D01*
X127110159Y-77415952D01*
X127098336Y-77424720D01*
X127085710Y-77432288D01*
X127072403Y-77438582D01*
X127058543Y-77443541D01*
X127044264Y-77447118D01*
X127029703Y-77449278D01*
X127015000Y-77450000D01*
X126715000Y-77450000D01*
X126700297Y-77449278D01*
X126685736Y-77447118D01*
X126671457Y-77443541D01*
X126657597Y-77438582D01*
X126644290Y-77432288D01*
X126631664Y-77424720D01*
X126619841Y-77415952D01*
X126608934Y-77406066D01*
X126599048Y-77395159D01*
X126590280Y-77383336D01*
X126582712Y-77370710D01*
X126576418Y-77357403D01*
X126571459Y-77343543D01*
X126567882Y-77329264D01*
X126565722Y-77314703D01*
X126565000Y-77300000D01*
X126565000Y-75650000D01*
X126565722Y-75635297D01*
X126567882Y-75620736D01*
X126571459Y-75606457D01*
X126576418Y-75592597D01*
X126582712Y-75579290D01*
X126590280Y-75566664D01*
X126599048Y-75554841D01*
X126608934Y-75543934D01*
X126619841Y-75534048D01*
X126631664Y-75525280D01*
X126644290Y-75517712D01*
X126657597Y-75511418D01*
X126671457Y-75506459D01*
X126685736Y-75502882D01*
X126700297Y-75500722D01*
X126715000Y-75500000D01*
X127015000Y-75500000D01*
X127029703Y-75500722D01*
X127029703Y-75500722D01*
G37*
D14*
X126865000Y-76475000D03*
D12*
G36*
X125759703Y-75500722D02*
G01*
X125774264Y-75502882D01*
X125788543Y-75506459D01*
X125802403Y-75511418D01*
X125815710Y-75517712D01*
X125828336Y-75525280D01*
X125840159Y-75534048D01*
X125851066Y-75543934D01*
X125860952Y-75554841D01*
X125869720Y-75566664D01*
X125877288Y-75579290D01*
X125883582Y-75592597D01*
X125888541Y-75606457D01*
X125892118Y-75620736D01*
X125894278Y-75635297D01*
X125895000Y-75650000D01*
X125895000Y-77300000D01*
X125894278Y-77314703D01*
X125892118Y-77329264D01*
X125888541Y-77343543D01*
X125883582Y-77357403D01*
X125877288Y-77370710D01*
X125869720Y-77383336D01*
X125860952Y-77395159D01*
X125851066Y-77406066D01*
X125840159Y-77415952D01*
X125828336Y-77424720D01*
X125815710Y-77432288D01*
X125802403Y-77438582D01*
X125788543Y-77443541D01*
X125774264Y-77447118D01*
X125759703Y-77449278D01*
X125745000Y-77450000D01*
X125445000Y-77450000D01*
X125430297Y-77449278D01*
X125415736Y-77447118D01*
X125401457Y-77443541D01*
X125387597Y-77438582D01*
X125374290Y-77432288D01*
X125361664Y-77424720D01*
X125349841Y-77415952D01*
X125338934Y-77406066D01*
X125329048Y-77395159D01*
X125320280Y-77383336D01*
X125312712Y-77370710D01*
X125306418Y-77357403D01*
X125301459Y-77343543D01*
X125297882Y-77329264D01*
X125295722Y-77314703D01*
X125295000Y-77300000D01*
X125295000Y-75650000D01*
X125295722Y-75635297D01*
X125297882Y-75620736D01*
X125301459Y-75606457D01*
X125306418Y-75592597D01*
X125312712Y-75579290D01*
X125320280Y-75566664D01*
X125329048Y-75554841D01*
X125338934Y-75543934D01*
X125349841Y-75534048D01*
X125361664Y-75525280D01*
X125374290Y-75517712D01*
X125387597Y-75511418D01*
X125401457Y-75506459D01*
X125415736Y-75502882D01*
X125430297Y-75500722D01*
X125445000Y-75500000D01*
X125745000Y-75500000D01*
X125759703Y-75500722D01*
X125759703Y-75500722D01*
G37*
D14*
X125595000Y-76475000D03*
D15*
X134025000Y-75700000D03*
X134675000Y-75700000D03*
X135325000Y-75700000D03*
X135975000Y-75700000D03*
X135975000Y-72300000D03*
X135325000Y-72300000D03*
X134675000Y-72300000D03*
X134025000Y-72300000D03*
M02*
