M48
; DRILL file {KiCad (5.1.2)-1} date 3/6/2020 5:55:53 PM
; FORMAT={-:-/ absolute / metric / decimal}
; #@! TF.CreationDate,2020-03-06T17:55:53-08:00
; #@! TF.GenerationSoftware,Kicad,Pcbnew,(5.1.2)-1
; #@! TF.FileFunction,Plated,1,4,PTH
FMAT,2
METRIC
T1C0.400
T2C0.500
T3C0.600
T4C0.700
T5C0.800
T6C0.900
T7C1.000
T8C1.016
T9C1.100
T10C1.270
T11C1.300
T12C1.524
T13C3.200
%
G90
G05
T1
X89.5Y-99.25
X91.25Y-96.0
X96.25Y-71.25
X97.771Y-71.715
X98.875Y-96.625
X100.5Y-93.75
X100.771Y-70.715
X100.771Y-75.965
X101.0Y-102.75
X101.5Y-93.75
X101.75Y-79.75
X101.9Y-96.65
X103.025Y-98.225
X103.271Y-74.215
X103.271Y-75.715
X106.75Y-101.0
X107.5Y-101.0
X107.521Y-72.715
X107.521Y-77.215
X110.75Y-71.25
X111.0Y-102.5
X111.771Y-74.33
X112.5Y-93.75
X115.521Y-76.465
X116.25Y-71.75
X117.781Y-78.319
X119.0Y-118.25
X119.987Y-118.262
X120.75Y-117.25
X121.75Y-117.25
X122.0Y-104.25
X122.9Y-79.2
X123.5Y-115.25
X124.5Y-82.0
X124.5Y-84.0
X125.25Y-115.25
X125.75Y-106.75
X125.75Y-109.0
X126.25Y-116.25
X126.5Y-124.7
X127.0Y-110.75
X127.25Y-115.25
X128.25Y-116.25
X128.47Y-124.738
X129.25Y-115.25
X130.15Y-77.15
X130.25Y-116.25
X130.5Y-73.25
X130.5Y-124.7
X130.65Y-110.791
X130.75Y-79.25
X130.75Y-121.5
X131.25Y-115.25
X131.5Y-83.75
X132.25Y-116.25
X132.325Y-120.425
X132.5Y-122.25
X133.25Y-76.0
X133.25Y-115.25
X133.625Y-74.825
X134.0Y-89.5
X134.0Y-110.75
X134.15Y-78.5
X134.15Y-79.8
X134.25Y-116.25
X134.5Y-98.5
X135.25Y-115.25
X135.5Y-98.5
X136.25Y-110.75
X136.25Y-116.25
X136.5Y-74.75
X137.25Y-115.25
X137.5Y-72.75
X138.0Y-77.5
X138.25Y-94.75
X138.25Y-116.25
X138.5Y-93.5
X139.2Y-83.7
X139.5Y-95.25
X139.75Y-73.5
X139.75Y-86.25
X139.75Y-96.75
X141.75Y-84.0
X142.0Y-102.75
X142.0Y-105.75
X142.25Y-78.25
X142.25Y-81.3
X142.25Y-82.5
X142.25Y-96.25
X144.75Y-98.5
X145.177Y-109.073
X145.25Y-87.0
X145.25Y-90.0
X145.25Y-91.0
X145.9Y-79.3
X146.25Y-87.0
X146.4Y-84.4
X147.05Y-81.35
X148.3Y-79.3
X148.5Y-78.25
X148.75Y-90.75
X148.75Y-95.4
X149.1Y-87.05
X150.15Y-87.05
X150.225Y-104.275
X151.585Y-89.585
T2
X163.85Y-129.0
X164.553Y-127.303
X164.553Y-130.697
X166.25Y-126.6
X166.25Y-131.4
X167.947Y-127.303
X167.947Y-130.697
X168.65Y-129.0
X163.85Y-81.5
X164.553Y-79.803
X164.553Y-83.197
X166.25Y-79.1
X166.25Y-83.9
X167.947Y-79.803
X167.947Y-83.197
X168.65Y-81.5
X70.85Y-69.5
X71.553Y-67.803
X71.553Y-71.197
X73.25Y-67.1
X73.25Y-71.9
X74.947Y-67.803
X74.947Y-71.197
X75.65Y-69.5
T3
X93.05Y-100.45
X93.05Y-102.2
X93.05Y-104.2
X94.75Y-84.0
X94.75Y-87.5
X94.75Y-91.0
X94.8Y-102.2
X94.8Y-104.2
X96.5Y-85.75
X96.5Y-89.25
X96.55Y-102.2
X96.55Y-104.2
X98.25Y-84.0
X98.25Y-87.5
X98.25Y-91.0
X100.0Y-85.75
X100.0Y-89.25
X101.75Y-84.0
X101.75Y-87.5
X101.75Y-91.0
X103.5Y-85.75
X103.5Y-89.25
X105.25Y-84.0
X105.25Y-91.0
X108.25Y-84.0
X108.25Y-91.0
T4
X86.143Y-103.357
X86.143Y-99.143
X88.25Y-101.25
X154.38Y-69.86
X154.38Y-71.13
X154.38Y-72.4
X154.38Y-73.67
X155.65Y-69.86
X155.65Y-71.13
X155.65Y-72.4
X155.65Y-73.67
X84.036Y-101.25
T5
X121.765Y-122.226
X121.765Y-124.766
X121.765Y-127.306
T6
X133.46Y-68.5
X136.0Y-68.5
T7
X92.8Y-125.75
X95.34Y-125.75
X97.88Y-125.75
X100.42Y-125.75
X102.96Y-125.75
X105.5Y-125.75
X144.0Y-115.05
X144.0Y-117.59
X144.0Y-120.13
X144.0Y-122.67
X144.0Y-125.21
X144.0Y-127.75
T8
X78.568Y-80.822
X81.108Y-80.822
X92.792Y-129.082
X95.332Y-129.082
X97.872Y-129.082
X100.412Y-129.082
X102.952Y-129.082
X105.492Y-129.082
X110.572Y-129.082
X113.112Y-129.082
X115.652Y-129.082
X146.132Y-129.082
X148.672Y-129.082
X153.752Y-80.822
X153.752Y-83.362
X153.752Y-85.902
X153.752Y-88.442
X153.752Y-90.982
X153.752Y-93.522
X153.752Y-96.062
X153.752Y-98.602
X153.752Y-101.142
X153.752Y-103.682
X153.752Y-106.222
X153.752Y-108.762
X153.752Y-111.302
X153.752Y-113.842
X153.752Y-116.382
X153.752Y-118.922
X153.752Y-121.462
X153.752Y-124.002
X156.292Y-80.822
X156.292Y-83.362
X156.292Y-85.902
X156.292Y-88.442
X156.292Y-90.982
X156.292Y-93.522
X156.292Y-96.062
X156.292Y-98.602
X156.292Y-101.142
X156.292Y-103.682
X156.292Y-106.222
X156.292Y-108.762
X156.292Y-111.302
X156.292Y-113.842
X156.292Y-116.382
X156.292Y-118.922
X156.292Y-121.462
X156.292Y-124.002
T9
X89.75Y-85.0
X89.75Y-87.54
X89.75Y-90.08
T10
X146.0Y-71.75
X164.075Y-107.5
X164.0Y-71.75
X124.75Y-71.75
X164.075Y-91.5
T11
X75.5Y-87.25
X75.5Y-92.33
X75.5Y-97.41
X75.5Y-102.49
X75.5Y-107.57
X75.5Y-112.65
X75.5Y-117.73
X75.5Y-122.81
T12
X142.825Y-68.575
X142.825Y-74.925
X149.175Y-68.575
X149.175Y-74.925
X160.9Y-104.325
X160.9Y-110.675
X167.25Y-104.325
X167.25Y-110.675
X160.825Y-68.575
X160.825Y-74.925
X167.175Y-68.575
X167.175Y-74.925
X121.575Y-68.575
X121.575Y-74.925
X127.925Y-68.575
X127.925Y-74.925
X160.9Y-88.325
X160.9Y-94.675
X167.25Y-88.325
X167.25Y-94.675
T13
X166.25Y-129.0
X166.25Y-81.5
X73.25Y-69.5
T7
G00X85.05Y-75.0
M15
G01X85.05Y-77.0
M16
G05
G00X90.75Y-73.0
M15
G01X88.75Y-73.0
M16
G05
G00X90.75Y-79.0
M15
G01X88.75Y-79.0
M16
G05
T0
M30
